<svg width="48" height="48" viewBox="0 0 48 48" fill="none" xmlns="http://www.w3.org/2000/svg" xmlns:xlink="http://www.w3.org/1999/xlink">
<path d="M24,4L24,2L24,4ZM12,16L10,16L12,16ZM6,34L4.891,32.336C4.157,32.825 3.83,33.736 4.086,34.58C4.341,35.423 5.119,36 6,36L6,34ZM42,34L42,36C42.881,36 43.659,35.423 43.914,34.58C44.17,33.736 43.843,32.825 43.109,32.336L42,34ZM38,16C38,12.287 36.525,8.726 33.899,6.101L31.071,8.929C32.946,10.804 34,13.348 34,16L38,16ZM33.899,6.101C31.274,3.475 27.713,2 24,2L24,6C26.652,6 29.196,7.054 31.071,8.929L33.899,6.101ZM24,2C20.287,2 16.726,3.475 14.101,6.101L16.929,8.929C18.804,7.054 21.348,6 24,6L24,2ZM14.101,6.101C11.475,8.726 10,12.287 10,16L14,16C14,13.348 15.054,10.804 16.929,8.929L14.101,6.101ZM10,16C10,22.705 8.566,26.869 7.244,29.292C6.581,30.509 5.934,31.307 5.486,31.781C5.261,32.018 5.084,32.176 4.977,32.264C4.924,32.309 4.888,32.336 4.873,32.347C4.865,32.353 4.863,32.355 4.866,32.353C4.867,32.352 4.87,32.35 4.874,32.347C4.876,32.346 4.878,32.344 4.881,32.342C4.883,32.341 4.884,32.34 4.886,32.339C4.886,32.339 4.888,32.338 4.888,32.338C4.889,32.337 4.891,32.336 6,34C7.109,35.664 7.111,35.663 7.112,35.662C7.113,35.662 7.114,35.661 7.115,35.66C7.117,35.659 7.119,35.658 7.121,35.656C7.125,35.653 7.13,35.65 7.135,35.647C7.145,35.64 7.156,35.632 7.169,35.623C7.194,35.605 7.225,35.583 7.262,35.556C7.334,35.502 7.427,35.43 7.538,35.337C7.76,35.152 8.052,34.888 8.389,34.532C9.066,33.818 9.919,32.741 10.756,31.208C12.434,28.131 14,23.295 14,16L10,16ZM6,36L42,36L42,32L6,32L6,36ZM42,34C43.109,32.336 43.111,32.337 43.112,32.338C43.112,32.338 43.114,32.339 43.114,32.339C43.116,32.34 43.117,32.341 43.119,32.342C43.122,32.344 43.124,32.346 43.126,32.347C43.13,32.35 43.133,32.352 43.134,32.353C43.137,32.355 43.135,32.353 43.127,32.347C43.112,32.336 43.076,32.309 43.023,32.264C42.916,32.176 42.739,32.018 42.514,31.781C42.066,31.307 41.419,30.509 40.756,29.292C39.434,26.869 38,22.705 38,16L34,16C34,23.295 35.566,28.131 37.244,31.208C38.081,32.741 38.934,33.818 39.611,34.532C39.948,34.888 40.24,35.152 40.462,35.337C40.573,35.43 40.666,35.502 40.738,35.556C40.775,35.583 40.806,35.605 40.831,35.623C40.844,35.632 40.855,35.64 40.865,35.647C40.87,35.65 40.875,35.653 40.879,35.656C40.881,35.658 40.883,35.659 40.885,35.66C40.886,35.661 40.887,35.662 40.888,35.662C40.889,35.663 40.891,35.664 42,34Z" fill="#000000"/>
<path d="M29.19,43.004C29.744,42.048 29.419,40.824 28.464,40.27C27.508,39.716 26.284,40.041 25.73,40.996L29.19,43.004ZM22.27,40.996C21.716,40.041 20.492,39.716 19.536,40.27C18.581,40.824 18.256,42.048 18.81,43.004L22.27,40.996ZM25.73,40.996C25.554,41.3 25.302,41.551 24.998,41.726L26.995,45.192C27.906,44.668 28.663,43.913 29.19,43.004L25.73,40.996ZM24.998,41.726C24.695,41.901 24.35,41.993 24,41.993L24,45.993C25.051,45.993 26.084,45.717 26.995,45.192L24.998,41.726ZM24,41.993C23.65,41.993 23.305,41.901 23.002,41.726L21.005,45.192C21.916,45.717 22.949,45.993 24,45.993L24,41.993ZM23.002,41.726C22.698,41.551 22.446,41.3 22.27,40.996L18.81,43.004C19.337,43.913 20.095,44.668 21.005,45.192L23.002,41.726Z" fill="#000000"/>
<circle cx="35" cy="7" r="7" fill="#E0E0E0"/>
<circle cx="35" cy="7" r="5" fill="#FF0000"/>
</svg>
