<svg width="68" height="68" viewBox="0 0 68 68" fill="none" xmlns="http://www.w3.org/2000/svg" xmlns:xlink="http://www.w3.org/1999/xlink">
<path d="M34,6L34,4L34,6ZM17.2,22.8L15.2,22.8L17.2,22.8ZM8.8,48L7.69,46.336C6.957,46.825 6.63,47.736 6.886,48.58C7.141,49.423 7.918,50 8.8,50L8.8,48ZM59.2,48L59.2,50C60.081,50 60.859,49.423 61.114,48.58C61.369,47.736 61.043,46.825 60.309,46.336L59.2,48ZM52.8,22.8C52.8,17.814 50.819,13.032 47.293,9.506L44.465,12.335C47.241,15.11 48.8,18.875 48.8,22.8L52.8,22.8ZM47.293,9.506C43.768,5.981 38.986,4 34,4L34,8C37.925,8 41.689,9.559 44.465,12.335L47.293,9.506ZM34,4C29.014,4 24.232,5.981 20.706,9.506L23.535,12.335C26.31,9.559 30.075,8 34,8L34,4ZM20.706,9.506C17.181,13.032 15.2,17.814 15.2,22.8L19.2,22.8C19.2,18.875 20.759,15.11 23.535,12.335L20.706,9.506ZM15.2,22.8C15.2,32.305 13.166,38.269 11.244,41.792C10.28,43.559 9.334,44.732 8.66,45.443C8.323,45.799 8.052,46.041 7.88,46.185C7.794,46.256 7.733,46.304 7.7,46.328C7.683,46.34 7.674,46.347 7.672,46.348C7.671,46.349 7.672,46.348 7.675,46.346C7.677,46.345 7.679,46.344 7.681,46.342C7.683,46.341 7.684,46.34 7.686,46.339C7.686,46.339 7.688,46.338 7.688,46.338C7.689,46.337 7.69,46.336 8.8,48C9.909,49.664 9.911,49.663 9.912,49.662C9.912,49.662 9.914,49.661 9.915,49.66C9.917,49.659 9.919,49.658 9.921,49.656C9.926,49.653 9.931,49.65 9.936,49.646C9.947,49.638 9.961,49.629 9.976,49.618C10.006,49.597 10.043,49.57 10.088,49.537C10.178,49.47 10.297,49.377 10.441,49.258C10.728,49.018 11.114,48.669 11.564,48.194C12.465,47.243 13.619,45.791 14.756,43.708C17.034,39.531 19.2,32.895 19.2,22.8L15.2,22.8ZM8.8,50L59.2,50L59.2,46L8.8,46L8.8,50ZM59.2,48C60.309,46.336 60.31,46.337 60.312,46.338C60.312,46.338 60.313,46.339 60.314,46.339C60.316,46.34 60.317,46.341 60.318,46.342C60.321,46.344 60.323,46.345 60.324,46.346C60.327,46.348 60.328,46.349 60.327,46.348C60.326,46.347 60.316,46.34 60.3,46.328C60.267,46.304 60.205,46.256 60.119,46.185C59.947,46.041 59.677,45.799 59.339,45.443C58.665,44.732 57.719,43.559 56.756,41.792C54.834,38.269 52.8,32.305 52.8,22.8L48.8,22.8C48.8,32.895 50.966,39.531 53.244,43.708C54.38,45.791 55.534,47.243 56.435,48.194C56.885,48.669 57.271,49.018 57.558,49.258C57.702,49.377 57.821,49.47 57.911,49.537C57.956,49.57 57.994,49.597 58.024,49.618C58.039,49.629 58.052,49.638 58.063,49.646C58.069,49.65 58.074,49.653 58.078,49.656C58.081,49.658 58.083,49.659 58.085,49.66C58.086,49.661 58.087,49.662 58.088,49.662C58.089,49.663 58.09,49.664 59.2,48Z" fill="#000000"/>
<path d="M40.574,60.204C41.128,59.248 40.803,58.024 39.847,57.47C38.892,56.916 37.668,57.241 37.114,58.197L40.574,60.204ZM30.886,58.197C30.332,57.241 29.108,56.916 28.152,57.47C27.197,58.024 26.872,59.248 27.426,60.204L30.886,58.197ZM37.114,58.197C36.797,58.742 36.343,59.195 35.797,59.51L37.793,62.976C38.947,62.311 39.906,61.355 40.574,60.204L37.114,58.197ZM35.797,59.51C35.25,59.824 34.63,59.99 34,59.99L34,63.99C35.331,63.99 36.639,63.64 37.793,62.976L35.797,59.51ZM34,59.99C33.369,59.99 32.749,59.824 32.203,59.51L30.207,62.976C31.36,63.64 32.668,63.99 34,63.99L34,59.99ZM32.203,59.51C31.656,59.195 31.202,58.742 30.886,58.197L27.426,60.204C28.094,61.355 29.053,62.311 30.207,62.976L32.203,59.51Z" fill="#000000"/>
<circle cx="49.4" cy="10.2" r="9.8" fill="#E0E0E0"/>
<circle cx="49.4" cy="10.2" r="7" fill="#FF0000"/>
</svg>
