<svg width="98" height="100" viewBox="0 0 98 100" fill="none" xmlns="http://www.w3.org/2000/svg" xmlns:xlink="http://www.w3.org/1999/xlink">
<path d="M61.25,92.276L52.063,92.276C50.438,92.276 48.88,91.63 47.731,90.482C46.583,89.333 45.938,87.775 45.938,86.151L45.938,70.838L52.063,70.838L52.063,86.151L61.25,86.151L61.25,70.838L67.375,70.838L67.375,58.588C67.375,57.776 67.052,56.997 66.478,56.423C65.904,55.848 65.125,55.526 64.313,55.526L37.608,55.526L31.483,37.151L12.25,37.151C11.438,37.151 10.659,37.473 10.084,38.048C9.51,38.622 9.188,39.401 9.188,40.213L9.188,58.588L15.313,58.588L15.313,86.151L27.563,86.151L27.563,64.713L33.688,64.713L33.688,86.151C33.688,87.775 33.042,89.333 31.894,90.482C30.745,91.63 29.187,92.276 27.563,92.276L15.313,92.276C13.688,92.276 12.13,91.63 10.981,90.482C9.833,89.333 9.188,87.775 9.188,86.151L9.188,64.713C7.563,64.713 6.005,64.068 4.856,62.919C3.708,61.771 3.063,60.213 3.063,58.588L3.063,40.213C3.065,37.777 4.034,35.442 5.756,33.719C7.479,31.997 9.814,31.028 12.25,31.026L31.483,31.026C32.768,31.026 34.02,31.43 35.063,32.181C36.105,32.933 36.885,33.993 37.292,35.212L42.017,49.401L64.313,49.401C66.748,49.403 69.084,50.372 70.806,52.094C72.529,53.817 73.498,56.152 73.5,58.588L73.5,70.838C73.5,72.463 72.855,74.021 71.706,75.169C70.557,76.318 68.999,76.963 67.375,76.963L67.375,86.151C67.375,87.775 66.73,89.333 65.581,90.482C64.432,91.63 62.874,92.276 61.25,92.276ZM85.75,92.276L79.625,92.276L79.625,58.588L88.813,58.588L88.813,40.213C88.813,39.401 88.49,38.622 87.916,38.048C87.341,37.473 86.562,37.151 85.75,37.151L73.5,37.151L73.5,31.026L85.75,31.026C88.186,31.028 90.521,31.997 92.244,33.719C93.966,35.442 94.935,37.777 94.938,40.213L94.938,58.588C94.938,60.213 94.292,61.771 93.144,62.919C91.995,64.068 90.437,64.713 88.813,64.713L85.75,64.713L85.75,92.276ZM21.438,27.963C19.015,27.963 16.646,27.245 14.632,25.899C12.617,24.553 11.047,22.639 10.12,20.401C9.193,18.163 8.95,15.7 9.423,13.323C9.896,10.947 11.062,8.764 12.775,7.051C14.489,5.338 16.671,4.171 19.048,3.699C21.424,3.226 23.887,3.468 26.125,4.396C28.364,5.323 30.277,6.893 31.623,8.907C32.969,10.922 33.688,13.29 33.688,15.713C33.684,18.961 32.391,22.074 30.095,24.371C27.799,26.667 24.685,27.959 21.438,27.963ZM21.438,9.588C20.226,9.588 19.042,9.947 18.035,10.62C17.027,11.293 16.242,12.25 15.779,13.369C15.315,14.488 15.194,15.72 15.43,16.908C15.667,18.096 16.25,19.188 17.106,20.044C17.963,20.901 19.054,21.484 20.243,21.72C21.431,21.957 22.662,21.835 23.782,21.372C24.901,20.908 25.857,20.123 26.53,19.116C27.203,18.109 27.563,16.925 27.563,15.713C27.563,14.089 26.917,12.531 25.769,11.382C24.62,10.233 23.062,9.588 21.438,9.588ZM76.563,27.963C74.14,27.963 71.771,27.245 69.757,25.899C67.742,24.553 66.172,22.639 65.245,20.401C64.318,18.163 64.075,15.7 64.548,13.323C65.02,10.947 66.187,8.764 67.9,7.051C69.614,5.338 71.796,4.171 74.173,3.699C76.549,3.226 79.012,3.468 81.25,4.396C83.489,5.323 85.402,6.893 86.748,8.907C88.094,10.922 88.813,13.29 88.813,15.713C88.809,18.961 87.516,22.074 85.22,24.371C82.924,26.667 79.81,27.959 76.563,27.963ZM76.563,9.588C75.351,9.588 74.167,9.947 73.16,10.62C72.152,11.293 71.367,12.25 70.904,13.369C70.44,14.488 70.319,15.72 70.555,16.908C70.792,18.096 71.375,19.188 72.231,20.044C73.088,20.901 74.18,21.484 75.368,21.72C76.556,21.957 77.787,21.835 78.907,21.372C80.026,20.908 80.982,20.123 81.655,19.116C82.328,18.109 82.688,16.925 82.688,15.713C82.688,14.089 82.042,12.531 80.894,11.382C79.745,10.233 78.187,9.588 76.563,9.588Z" fill="#FFFFFF"/>
<path d="M56.656,46.338C54.536,46.338 52.464,45.709 50.701,44.532C48.939,43.354 47.565,41.68 46.753,39.721C45.942,37.763 45.73,35.607 46.143,33.528C46.557,31.449 47.578,29.539 49.077,28.04C50.576,26.541 52.486,25.52 54.565,25.107C56.644,24.693 58.8,24.905 60.758,25.717C62.717,26.528 64.391,27.902 65.569,29.664C66.746,31.427 67.375,33.499 67.375,35.619C67.372,38.461 66.242,41.186 64.232,43.195C62.223,45.205 59.498,46.335 56.656,46.338ZM56.656,31.026C55.748,31.026 54.86,31.295 54.104,31.8C53.349,32.305 52.76,33.022 52.412,33.861C52.065,34.701 51.974,35.624 52.151,36.516C52.328,37.407 52.766,38.225 53.408,38.868C54.05,39.51 54.869,39.948 55.76,40.125C56.651,40.302 57.575,40.211 58.414,39.863C59.254,39.516 59.971,38.927 60.476,38.172C60.981,37.416 61.25,36.528 61.25,35.619C61.25,34.401 60.766,33.233 59.905,32.371C59.043,31.51 57.875,31.026 56.656,31.026Z" fill="#FFFFFF"/>
</svg>
