<svg width="64" height="62" viewBox="0 0 64 62" fill="none" xmlns="http://www.w3.org/2000/svg" xmlns:xlink="http://www.w3.org/1999/xlink">
<path d="M40,58.125L34,58.125C32.939,58.125 31.922,57.717 31.172,56.99C30.421,56.263 30,55.278 30,54.25L30,44.563L34,44.563L34,54.25L40,54.25L40,44.563L44,44.563L44,36.813C44,36.299 43.789,35.806 43.414,35.443C43.039,35.079 42.53,34.875 42,34.875L24.56,34.875L20.56,23.25L8,23.25C7.47,23.25 6.961,23.454 6.586,23.818C6.211,24.181 6,24.674 6,25.188L6,36.813L10,36.813L10,54.25L18,54.25L18,40.688L22,40.688L22,54.25C22,55.278 21.579,56.263 20.828,56.99C20.078,57.717 19.061,58.125 18,58.125L10,58.125C8.939,58.125 7.922,57.717 7.172,56.99C6.421,56.263 6,55.278 6,54.25L6,40.688C4.939,40.688 3.922,40.279 3.172,39.552C2.421,38.826 2,37.84 2,36.813L2,25.188C2.002,23.646 2.634,22.169 3.759,21.079C4.884,19.989 6.409,19.377 8,19.375L20.56,19.375C21.399,19.375 22.217,19.631 22.898,20.106C23.579,20.582 24.088,21.252 24.354,22.023L27.44,31L42,31C43.591,31.001 45.116,31.615 46.241,32.704C47.366,33.794 47.998,35.271 48,36.813L48,44.563C48,45.59 47.579,46.576 46.828,47.302C46.078,48.029 45.061,48.438 44,48.438L44,54.25C44,55.278 43.579,56.263 42.828,56.99C42.078,57.717 41.061,58.125 40,58.125ZM56,58.125L52,58.125L52,36.813L58,36.813L58,25.188C58,24.674 57.789,24.181 57.414,23.818C57.039,23.454 56.53,23.25 56,23.25L48,23.25L48,19.375L56,19.375C57.591,19.377 59.116,19.989 60.241,21.079C61.366,22.169 61.998,23.646 62,25.188L62,36.813C62,37.84 61.579,38.826 60.828,39.552C60.078,40.279 59.061,40.688 58,40.688L56,40.688L56,58.125ZM14,17.438C12.418,17.438 10.871,16.983 9.555,16.131C8.24,15.28 7.214,14.069 6.609,12.653C6.003,11.237 5.845,9.679 6.154,8.176C6.462,6.672 7.224,5.291 8.343,4.207C9.462,3.124 10.887,2.385 12.439,2.086C13.991,1.787 15.6,1.941 17.061,2.527C18.523,3.114 19.773,4.107 20.652,5.382C21.531,6.656 22,8.155 22,9.688C21.997,11.742 21.154,13.712 19.654,15.165C18.154,16.618 16.121,17.435 14,17.438ZM14,5.813C13.209,5.813 12.436,6.04 11.778,6.466C11.12,6.891 10.607,7.497 10.304,8.205C10.002,8.913 9.923,9.692 10.077,10.443C10.231,11.195 10.612,11.886 11.172,12.428C11.731,12.969 12.444,13.339 13.22,13.488C13.996,13.638 14.8,13.561 15.531,13.268C16.262,12.974 16.886,12.478 17.326,11.84C17.765,11.203 18,10.454 18,9.688C18,8.66 17.579,7.674 16.828,6.947C16.078,6.221 15.061,5.813 14,5.813ZM50,17.438C48.418,17.438 46.871,16.983 45.555,16.131C44.24,15.28 43.214,14.069 42.609,12.653C42.003,11.237 41.845,9.679 42.154,8.176C42.462,6.672 43.224,5.291 44.343,4.207C45.462,3.124 46.887,2.385 48.439,2.086C49.991,1.787 51.6,1.941 53.061,2.527C54.523,3.114 55.773,4.107 56.652,5.382C57.531,6.656 58,8.155 58,9.688C57.997,11.742 57.154,13.712 55.654,15.165C54.154,16.618 52.121,17.435 50,17.438ZM50,5.813C49.209,5.813 48.436,6.04 47.778,6.466C47.12,6.891 46.607,7.497 46.304,8.205C46.002,8.913 45.923,9.692 46.077,10.443C46.231,11.195 46.612,11.886 47.172,12.428C47.731,12.969 48.444,13.339 49.22,13.488C49.996,13.638 50.8,13.561 51.531,13.268C52.262,12.974 52.886,12.478 53.326,11.84C53.765,11.203 54,10.454 54,9.688C54,8.66 53.579,7.674 52.828,6.947C52.078,6.221 51.061,5.813 50,5.813Z" fill="#17C2EC"/>
<path d="M37,29.063C35.616,29.063 34.262,28.665 33.111,27.92C31.96,27.175 31.063,26.115 30.533,24.876C30.003,23.637 29.864,22.274 30.135,20.958C30.405,19.643 31.071,18.435 32.05,17.486C33.029,16.538 34.276,15.892 35.634,15.63C36.992,15.369 38.4,15.503 39.679,16.016C40.958,16.529 42.051,17.399 42.82,18.514C43.589,19.629 44,20.94 44,22.281C43.998,24.079 43.26,25.803 41.947,27.074C40.635,28.345 38.856,29.06 37,29.063ZM37,19.375C36.407,19.375 35.827,19.545 35.333,19.865C34.84,20.184 34.455,20.638 34.228,21.169C34.001,21.7 33.942,22.284 34.058,22.848C34.173,23.412 34.459,23.93 34.879,24.336C35.298,24.743 35.833,25.02 36.415,25.132C36.997,25.244 37.6,25.186 38.148,24.966C38.696,24.746 39.165,24.374 39.494,23.896C39.824,23.418 40,22.856 40,22.281C40,21.51 39.684,20.771 39.121,20.226C38.559,19.681 37.796,19.375 37,19.375Z" fill="#17C2EC"/>
</svg>
