<svg width="60" height="60" viewBox="0 0 60 60" fill="none" xmlns="http://www.w3.org/2000/svg" xmlns:xlink="http://www.w3.org/1999/xlink">
<path d="M40,8C38.895,8 38,8.895 38,10C38,11.105 38.895,12 40,12L40,8ZM45,10L45,8L45,10ZM10,50L8,50L10,50ZM15,10L15,8L15,10ZM20,12C21.105,12 22,11.105 22,10C22,8.895 21.105,8 20,8L20,12ZM40,12L45,12L45,8L40,8L40,12ZM45,12C45.796,12 46.559,12.316 47.121,12.879L49.95,10.05C48.637,8.737 46.857,8 45,8L45,12ZM47.121,12.879C47.684,13.441 48,14.204 48,15L52,15C52,13.143 51.263,11.363 49.95,10.05L47.121,12.879ZM48,15L48,50L52,50L52,15L48,15ZM48,50C48,50.796 47.684,51.559 47.121,52.121L49.95,54.95C51.263,53.637 52,51.857 52,50L48,50ZM47.121,52.121C46.559,52.684 45.796,53 45,53L45,57C46.857,57 48.637,56.263 49.95,54.95L47.121,52.121ZM45,53L15,53L15,57L45,57L45,53ZM15,53C14.204,53 13.441,52.684 12.879,52.121L10.05,54.95C11.363,56.263 13.143,57 15,57L15,53ZM12.879,52.121C12.316,51.559 12,50.796 12,50L8,50C8,51.857 8.737,53.637 10.05,54.95L12.879,52.121ZM12,50L12,15L8,15L8,50L12,50ZM12,15C12,14.204 12.316,13.441 12.879,12.879L10.05,10.05C8.737,11.363 8,13.143 8,15L12,15ZM12.879,12.879C13.441,12.316 14.204,12 15,12L15,8C13.143,8 11.363,8.737 10.05,10.05L12.879,12.879ZM15,12L20,12L20,8L15,8L15,12Z" fill="#17C2EC"/>
<path d="M22.5,7L37.5,7L37.5,3L22.5,3L22.5,7ZM37.5,7C37.776,7 38,7.224 38,7.5L42,7.5C42,5.015 39.985,3 37.5,3L37.5,7ZM38,7.5L38,12.5L42,12.5L42,7.5L38,7.5ZM38,12.5C38,12.776 37.776,13 37.5,13L37.5,17C39.985,17 42,14.985 42,12.5L38,12.5ZM37.5,13L22.5,13L22.5,17L37.5,17L37.5,13ZM22.5,13C22.224,13 22,12.776 22,12.5L18,12.5C18,14.985 20.015,17 22.5,17L22.5,13ZM22,12.5L22,7.5L18,7.5L18,12.5L22,12.5ZM22,7.5C22,7.224 22.224,7 22.5,7L22.5,3C20.015,3 18,5.015 18,7.5L22,7.5Z" fill="#17C2EC"/>
</svg>
