<svg width="74" height="60" viewBox="0 0 74 60" fill="none" xmlns="http://www.w3.org/2000/svg" xmlns:xlink="http://www.w3.org/1999/xlink">
<path d="M48.341,8.426C47.237,8.426 46.341,9.321 46.341,10.426C46.341,11.53 47.237,12.426 48.341,12.426L48.341,8.426ZM54.352,10.426L54.352,8.426L54.352,10.426ZM12.279,49.055L10.279,49.055L12.279,49.055ZM18.29,10.426L18.29,8.426L18.29,10.426ZM24.3,12.426C25.405,12.426 26.3,11.53 26.3,10.426C26.3,9.321 25.405,8.426 24.3,8.426L24.3,12.426ZM48.341,12.426L54.352,12.426L54.352,8.426L48.341,8.426L48.341,12.426ZM54.352,12.426C55.54,12.426 56.614,12.809 57.349,13.399L59.854,10.281C58.335,9.061 56.352,8.426 54.352,8.426L54.352,12.426ZM57.349,13.399C58.073,13.981 58.362,14.663 58.362,15.255L62.362,15.255C62.362,13.285 61.385,11.511 59.854,10.281L57.349,13.399ZM58.362,15.255L58.362,49.055L62.362,49.055L62.362,15.255L58.362,15.255ZM58.362,49.055C58.362,49.646 58.073,50.329 57.349,50.91L59.854,54.029C61.385,52.799 62.362,51.025 62.362,49.055L58.362,49.055ZM57.349,50.91C56.614,51.501 55.54,51.884 54.352,51.884L54.352,55.884C56.352,55.884 58.335,55.249 59.854,54.029L57.349,50.91ZM54.352,51.884L18.29,51.884L18.29,55.884L54.352,55.884L54.352,51.884ZM18.29,51.884C17.102,51.884 16.028,51.501 15.292,50.91L12.787,54.029C14.306,55.249 16.29,55.884 18.29,55.884L18.29,51.884ZM15.292,50.91C14.569,50.329 14.279,49.646 14.279,49.055L10.279,49.055C10.279,51.025 11.257,52.799 12.787,54.029L15.292,50.91ZM14.279,49.055L14.279,15.255L10.279,15.255L10.279,49.055L14.279,49.055ZM14.279,15.255C14.279,14.663 14.569,13.981 15.292,13.399L12.787,10.281C11.257,11.511 10.279,13.285 10.279,15.255L14.279,15.255ZM15.292,13.399C16.028,12.809 17.102,12.426 18.29,12.426L18.29,8.426C16.29,8.426 14.306,9.061 12.787,10.281L15.292,13.399ZM18.29,12.426L24.3,12.426L24.3,8.426L18.29,8.426L18.29,12.426Z" transform="rotate(0.354 36.321 32.155)" fill="#17C2EC" fill-opacity="0.5"/>
<path d="M27.371,7.597L45.402,7.597L45.402,3.597L27.371,3.597L27.371,7.597ZM45.402,7.597C45.807,7.597 46.109,7.731 46.274,7.863C46.435,7.993 46.407,8.058 46.407,8.011L50.407,8.011C50.407,5.187 47.735,3.597 45.402,3.597L45.402,7.597ZM46.407,8.011L46.407,12.84L50.407,12.84L50.407,8.011L46.407,8.011ZM46.407,12.84C46.407,12.794 46.435,12.858 46.274,12.988C46.109,13.12 45.807,13.254 45.402,13.254L45.402,17.254C47.735,17.254 50.407,15.664 50.407,12.84L46.407,12.84ZM45.402,13.254L27.371,13.254L27.371,17.254L45.402,17.254L45.402,13.254ZM27.371,13.254C26.966,13.254 26.664,13.12 26.499,12.988C26.338,12.858 26.366,12.794 26.366,12.84L22.366,12.84C22.366,15.664 25.038,17.254 27.371,17.254L27.371,13.254ZM26.366,12.84L26.366,8.011L22.366,8.011L22.366,12.84L26.366,12.84ZM26.366,8.011C26.366,8.058 26.338,7.993 26.499,7.863C26.664,7.731 26.966,7.597 27.371,7.597L27.371,3.597C25.038,3.597 22.366,5.187 22.366,8.011L26.366,8.011Z" transform="rotate(0.354 36.387 10.426)" fill="#17C2EC" fill-opacity="0.5"/>
</svg>
