<svg width="38" height="38" viewBox="0 0 38 38" fill="none" xmlns="http://www.w3.org/2000/svg" xmlns:xlink="http://www.w3.org/1999/xlink">
<path d="M32.833,19C32.833,26.64 26.64,32.833 19,32.833L19,36.833C28.849,36.833 36.833,28.849 36.833,19L32.833,19ZM19,32.833C11.36,32.833 5.167,26.64 5.167,19L1.167,19C1.167,28.849 9.151,36.833 19,36.833L19,32.833ZM5.167,19C5.167,11.36 11.36,5.167 19,5.167L19,1.167C9.151,1.167 1.167,9.151 1.167,19L5.167,19ZM19,5.167C26.64,5.167 32.833,11.36 32.833,19L36.833,19C36.833,9.151 28.849,1.167 19,1.167L19,5.167Z" fill="#17C2EC"/>
<path d="M21,9.5C21,8.395 20.105,7.5 19,7.5C17.895,7.5 17,8.395 17,9.5L21,9.5ZM19,19L17,19C17,19.758 17.428,20.45 18.106,20.789L19,19ZM24.439,23.956C25.427,24.45 26.628,24.049 27.122,23.061C27.616,22.073 27.216,20.872 26.228,20.378L24.439,23.956ZM17,9.5L17,19L21,19L21,9.5L17,9.5ZM18.106,20.789L24.439,23.956L26.228,20.378L19.894,17.211L18.106,20.789Z" fill="#17C2EC"/>
</svg>
