<svg width="62" height="54" viewBox="0 0 62 54" fill="none" xmlns="http://www.w3.org/2000/svg" xmlns:xlink="http://www.w3.org/1999/xlink">
<path d="M2.361,18.5L1.3,16.805C0.716,17.171 0.361,17.811 0.361,18.5L2.361,18.5ZM30.297,1L31.359,-0.695C30.709,-1.102 29.885,-1.102 29.235,-0.695L30.297,1ZM58.233,18.5L60.233,18.5C60.233,17.811 59.878,17.171 59.294,16.805L58.233,18.5ZM2.361,46L0.361,46L2.361,46ZM3.423,20.195L31.359,2.695L29.235,-0.695L1.3,16.805L3.423,20.195ZM29.235,2.695L57.171,20.195L59.294,16.805L31.359,-0.695L29.235,2.695ZM56.233,18.5L56.233,46L60.233,46L60.233,18.5L56.233,18.5ZM56.233,46C56.233,46.639 55.921,47.365 55.16,47.978L57.669,51.093C59.237,49.83 60.233,48.013 60.233,46L56.233,46ZM55.16,47.978C54.388,48.6 53.264,49 52.025,49L52.025,53C54.078,53 56.113,52.347 57.669,51.093L55.16,47.978ZM52.025,49L8.569,49L8.569,53L52.025,53L52.025,49ZM8.569,49C7.33,49 6.206,48.6 5.434,47.978L2.925,51.093C4.481,52.347 6.516,53 8.569,53L8.569,49ZM5.434,47.978C4.673,47.365 4.361,46.639 4.361,46L0.361,46C0.361,48.013 1.357,49.83 2.925,51.093L5.434,47.978ZM4.361,46L4.361,18.5L0.361,18.5L0.361,46L4.361,46Z" fill="#17C2EC"/>
<path d="M18.985,51C18.985,52.105 19.88,53 20.985,53C22.089,53 22.985,52.105 22.985,51L18.985,51ZM20.985,26L20.985,24C19.88,24 18.985,24.895 18.985,26L20.985,26ZM39.609,26L41.609,26C41.609,24.895 40.713,24 39.609,24L39.609,26ZM37.609,51C37.609,52.105 38.504,53 39.609,53C40.713,53 41.609,52.105 41.609,51L37.609,51ZM22.985,51L22.985,26L18.985,26L18.985,51L22.985,51ZM20.985,28L39.609,28L39.609,24L20.985,24L20.985,28ZM37.609,26L37.609,51L41.609,51L41.609,26L37.609,26Z" fill="#17C2EC"/>
</svg>
