<svg width="68" height="94" viewBox="0 0 68 94" fill="none" xmlns="http://www.w3.org/2000/svg" xmlns:xlink="http://www.w3.org/1999/xlink">
<path d="M56.631,48.159L10.626,74.335L10.626,51.997C10.626,36.47 20.204,18.427 32.032,11.694L35.225,9.885C47.037,3.152 56.631,10.294 56.631,25.821L56.631,48.159Z" fill="#407BFF"/>
<path d="M67.342,55.568L-0.085,93.936L10.626,69.49L56.63,43.314L67.342,55.568Z" fill="#407BFF"/>
<path d="M33.708,18.16C31.713,19.292 30.101,18.38 30.101,16.115L30.101,7.415C30.17,6.183 30.533,4.984 31.16,3.916C31.786,2.847 32.659,1.939 33.708,1.265C35.688,0.132 37.3,1.044 37.3,3.31L37.3,12.025C37.23,13.253 36.868,14.448 36.244,15.513C35.621,16.579 34.752,17.485 33.708,18.16L33.708,18.16Z" fill="#407BFF"/>
</svg>
