<svg width="164" height="176" viewBox="0 0 164 176" fill="none" xmlns="http://www.w3.org/2000/svg" xmlns:xlink="http://www.w3.org/1999/xlink">
<path d="M1.466,105.292C0.948,105.285 0.447,105.111 0.039,104.797C-0.37,104.483 -0.663,104.047 -0.796,103.554C-0.93,103.061 -0.897,102.538 -0.702,102.066C-0.507,101.593 -0.16,101.196 0.284,100.935L159.913,10.073C160.457,9.764 161.103,9.681 161.709,9.842C162.315,10.002 162.832,10.394 163.145,10.93C163.458,11.466 163.543,12.103 163.379,12.7C163.216,13.298 162.819,13.807 162.275,14.116L2.647,104.978C2.287,105.18 1.88,105.289 1.466,105.292Z" fill="#FFFFFF"/>
<path d="M1.466,140.136C0.946,140.135 0.442,139.966 0.03,139.654C-0.381,139.342 -0.677,138.905 -0.811,138.411C-0.946,137.917 -0.911,137.393 -0.713,136.92C-0.515,136.447 -0.165,136.051 0.284,135.795L159.913,44.917C160.457,44.608 161.103,44.525 161.709,44.686C162.315,44.846 162.832,45.238 163.145,45.774C163.458,46.31 163.543,46.947 163.38,47.544C163.216,48.142 162.819,48.651 162.275,48.96L2.647,139.9C2.28,140.076 1.873,140.157 1.466,140.136L1.466,140.136Z" fill="#FFFFFF"/>
<path d="M1.466,174.965C0.946,174.964 0.442,174.795 0.03,174.483C-0.381,174.171 -0.677,173.734 -0.811,173.24C-0.946,172.746 -0.911,172.222 -0.713,171.749C-0.515,171.276 -0.165,170.88 0.284,170.623L159.913,79.761C160.452,79.485 161.079,79.424 161.663,79.592C162.247,79.76 162.743,80.143 163.048,80.662C163.352,81.181 163.442,81.795 163.298,82.378C163.154,82.96 162.788,83.465 162.275,83.788L2.647,174.65C2.287,174.853 1.88,174.961 1.466,174.965Z" fill="#FFFFFF"/>
<path d="M81.966,8.389C82.158,12.904 85.51,14.682 89.628,12.338C91.786,10.947 93.596,9.092 94.92,6.912C96.245,4.732 97.05,2.284 97.275,-0.247L81.966,8.389Z" fill="#407BFF"/>
</svg>
