<svg width="68" height="80" viewBox="0 0 68 80" fill="none" xmlns="http://www.w3.org/2000/svg" xmlns:xlink="http://www.w3.org/1999/xlink">
<path d="M34.412,66.369C52.952,66.369 67.982,51.557 67.982,33.286C67.982,15.015 52.952,0.204 34.412,0.204C15.872,0.204 0.842,15.015 0.842,33.286C0.842,51.557 15.872,66.369 34.412,66.369Z" fill="#407BFF"/>
<path d="M28.426,59.007C28.426,59.007 31.427,69.515 19.279,79.268C19.279,79.268 37.988,77.412 39.009,59.888L28.426,59.007Z" fill="#407BFF"/>
<path d="M37.716,36.338L30.501,36.338L28.697,19.27L39.52,19.27L37.716,36.338ZM34.109,47.35C33.444,47.394 32.778,47.307 32.149,47.091C31.52,46.876 30.941,46.538 30.448,46.098C29.955,45.657 29.557,45.123 29.278,44.527C28.999,43.931 28.845,43.286 28.825,42.63C28.968,41.348 29.587,40.163 30.562,39.302C31.537,38.441 32.8,37.965 34.109,37.965C35.418,37.965 36.681,38.441 37.656,39.302C38.631,40.163 39.249,41.348 39.392,42.63C39.368,43.283 39.211,43.925 38.93,44.517C38.65,45.109 38.251,45.64 37.758,46.077C37.265,46.514 36.688,46.85 36.061,47.063C35.434,47.276 34.77,47.363 34.109,47.318L34.109,47.35Z" fill="#FFFFFF"/>
</svg>
