<svg width="186" height="328" viewBox="0 0 186 328" fill="none" xmlns="http://www.w3.org/2000/svg" xmlns:xlink="http://www.w3.org/1999/xlink">
<path d="M0.412,245.708L116.318,311.652L116.318,104.24L0.444,38.5L0.412,245.708Z" fill="#EBEBEB"/>
<path d="M0.412,38.296L116.318,104.24L184.543,65.401L68.685,-0.355L0.412,38.296Z" fill="#F5F5F5"/>
<path d="M13.996,114.214L102.063,164.333C102.448,164.55 102.884,164.664 103.327,164.663C103.771,164.663 104.206,164.548 104.591,164.33C104.975,164.112 105.294,163.798 105.518,163.421C105.741,163.043 105.86,162.614 105.862,162.178L105.862,118.147C105.856,117.059 105.557,115.992 104.997,115.055C104.436,114.119 103.633,113.345 102.67,112.814L14.747,62.884C14.361,62.666 13.923,62.552 13.479,62.553C13.034,62.554 12.597,62.671 12.213,62.89C11.828,63.11 11.508,63.426 11.286,63.806C11.064,64.185 10.947,64.616 10.948,65.054L10.948,108.881C10.938,109.955 11.214,111.013 11.749,111.949C12.284,112.885 13.059,113.666 13.996,114.214L13.996,114.214Z" fill="#FAFAFA"/>
<path d="M66.131,103.186C65.828,103.184 65.53,103.102 65.269,102.95L49.721,94.141C49.364,93.892 49.113,93.522 49.019,93.101C48.924,92.68 48.992,92.239 49.21,91.865C49.428,91.492 49.779,91.211 50.195,91.079C50.612,90.947 51.063,90.973 51.461,91.152L67.009,99.977C67.316,100.176 67.552,100.466 67.682,100.805C67.812,101.144 67.829,101.515 67.732,101.865C67.634,102.214 67.427,102.524 67.139,102.751C66.851,102.977 66.499,103.107 66.131,103.123L66.131,103.186Z" fill="#E0E0E0"/>
<path d="M13.997,175.691L102.064,225.794C102.448,226.011 102.884,226.125 103.328,226.124C103.771,226.124 104.207,226.009 104.591,225.791C104.975,225.573 105.295,225.259 105.518,224.882C105.741,224.504 105.86,224.076 105.863,223.639L105.863,179.592C105.855,178.504 105.555,177.438 104.995,176.502C104.434,175.565 103.632,174.792 102.67,174.259L14.747,124.439C14.362,124.222 13.926,124.108 13.483,124.108C13.039,124.109 12.604,124.224 12.22,124.442C11.835,124.66 11.516,124.973 11.293,125.351C11.069,125.729 10.95,126.157 10.948,126.594L10.948,170.421C10.95,171.484 11.233,172.528 11.767,173.452C12.301,174.375 13.07,175.147 13.997,175.691Z" fill="#FAFAFA"/>
<path d="M66.131,164.648C65.83,164.644 65.534,164.568 65.269,164.427L49.721,155.602C49.364,155.354 49.113,154.983 49.019,154.562C48.924,154.141 48.992,153.701 49.21,153.327C49.428,152.953 49.779,152.673 50.195,152.541C50.612,152.409 51.063,152.435 51.461,152.613L67.009,161.438C67.316,161.637 67.552,161.927 67.682,162.267C67.812,162.606 67.829,162.977 67.732,163.326C67.634,163.676 67.427,163.986 67.139,164.212C66.851,164.438 66.499,164.569 66.131,164.585L66.131,164.648Z" fill="#E0E0E0"/>
<path d="M13.997,237.151L102.063,287.254C102.448,287.472 102.884,287.586 103.328,287.585C103.771,287.585 104.206,287.47 104.591,287.252C104.975,287.034 105.295,286.72 105.518,286.343C105.741,285.965 105.86,285.536 105.863,285.099L105.863,241.053C105.855,239.965 105.555,238.899 104.995,237.963C104.434,237.026 103.632,236.252 102.67,235.72L14.747,185.79C14.362,185.572 13.926,185.458 13.483,185.459C13.039,185.459 12.604,185.574 12.22,185.792C11.835,186.01 11.516,186.324 11.293,186.702C11.069,187.079 10.951,187.508 10.948,187.945L10.948,231.787C10.934,232.866 11.208,233.93 11.743,234.872C12.278,235.813 13.056,236.599 13.997,237.151Z" fill="#FAFAFA"/>
<path d="M66.131,226.108C65.829,226.112 65.531,226.036 65.269,225.888L49.721,217.063C49.523,216.95 49.349,216.8 49.21,216.622C49.07,216.443 48.968,216.239 48.909,216.021C48.849,215.804 48.834,215.576 48.864,215.353C48.894,215.13 48.968,214.914 49.083,214.719C49.196,214.523 49.349,214.352 49.53,214.215C49.712,214.078 49.92,213.978 50.141,213.921C50.363,213.864 50.593,213.851 50.82,213.882C51.047,213.914 51.264,213.99 51.461,214.105L67.009,222.915C67.207,223.027 67.381,223.177 67.52,223.356C67.66,223.534 67.762,223.738 67.821,223.956C67.881,224.174 67.896,224.401 67.866,224.624C67.836,224.848 67.762,225.063 67.647,225.259C67.495,225.521 67.274,225.739 67.007,225.889C66.741,226.038 66.438,226.114 66.131,226.108L66.131,226.108Z" fill="#E0E0E0"/>
<path d="M117.02,311.825C117.02,311.825 100.036,295.481 109.709,268.109C115.12,252.771 133.063,241.508 143.231,240.438C139.847,244.401 137.151,248.887 135.249,253.715L122.384,262.147L134.212,258.497L131.69,268.471C131.69,268.471 120.692,275.031 119.063,276.462L130.924,273.41C130.924,273.41 130.062,301.663 117.02,311.825Z" fill="#407BFF"/>
<g opacity="0.4">
<path d="M117.02,311.825C117.02,311.825 100.036,295.481 109.709,268.109C115.12,252.771 133.063,241.508 143.231,240.438C139.847,244.401 137.151,248.887 135.249,253.715L122.384,262.147L134.212,258.497L131.69,268.471C131.69,268.471 120.692,275.031 119.063,276.462L130.924,273.41C130.924,273.41 130.062,301.663 117.02,311.825Z" fill="#000000"/>
</g>
<path d="M117.02,311.825C117.02,311.825 108.224,277.626 121.234,257.679C121.234,257.679 105.99,275.282 117.02,311.825Z" fill="#FFFFFF"/>
<path d="M136.447,316.45C136.447,322.554 127.109,327.462 115.568,327.462C104.027,327.462 94.688,322.507 94.688,316.45C94.688,310.394 104.043,305.439 115.568,305.439C127.093,305.439 136.447,310.347 136.447,316.45Z" fill="#455A64"/>
<path d="M115.568,313.524C122.751,313.524 128.833,315.79 130.988,318.936C131.512,318.209 131.802,317.342 131.818,316.45C131.818,312.093 124.539,308.585 115.568,308.585C106.596,308.585 99.317,312.124 99.317,316.45C99.332,317.345 99.627,318.213 100.163,318.936C102.302,315.79 108.384,313.524 115.568,313.524Z" fill="#263238"/>
<path d="M115.823,320.305C115.823,320.305 107.842,320.006 100.882,309.466C98.024,305.124 96.652,302.843 96.652,302.843L107.826,302.009L95.263,298.863L89.325,289.912L99.748,289.142C95.451,287.665 90.975,286.75 86.436,286.42C86.436,286.42 76.858,269.682 74,267.291C81.299,267.729 88.435,269.608 94.983,272.815C101.531,276.023 107.359,280.494 112.12,285.964C127.875,304.385 118.17,320.777 115.823,320.305Z" fill="#407BFF"/>
<path d="M115.823,320.304C115.823,320.304 120.867,290.415 88.686,272.451C88.734,272.451 122.08,288.245 115.823,320.304Z" fill="#FFFFFF"/>
<path d="M115.823,320.304C115.823,320.304 123.118,320.776 130.349,311.92C133.334,308.254 134.787,306.319 134.787,306.319L124.746,304.542L136.383,302.969L142.593,295.434L133.255,293.782C137.274,292.846 141.402,292.438 145.53,292.57C145.53,292.57 155.81,278.413 158.572,276.462C151.975,276.172 145.386,277.186 139.193,279.445C133,281.704 127.328,285.161 122.512,289.613C106.485,304.825 113.716,320.509 115.823,320.304Z" fill="#407BFF"/>
<g opacity="0.2">
<path d="M115.823,320.304C115.823,320.304 123.118,320.776 130.349,311.92C133.334,308.254 134.787,306.319 134.787,306.319L124.746,304.542L136.383,302.969L142.593,295.434L133.255,293.782C137.274,292.846 141.402,292.438 145.53,292.57C145.53,292.57 155.81,278.413 158.572,276.462C151.975,276.172 145.386,277.186 139.193,279.445C133,281.704 127.328,285.161 122.512,289.613C106.485,304.825 113.716,320.509 115.823,320.304Z" fill="#000000"/>
</g>
</svg>
