<svg width="172" height="172" viewBox="0 0 172 172" fill="none" xmlns="http://www.w3.org/2000/svg" xmlns:xlink="http://www.w3.org/1999/xlink">
<path d="M1.433,20C1.433,8.954 10.388,0 21.433,0L149.133,0C160.179,0 169.133,8.954 169.133,20L169.133,147.7C169.133,158.746 160.179,167.7 149.133,167.7L21.433,167.7C10.388,167.7 1.433,158.746 1.433,147.7L1.433,20Z" fill="#17C2EC"/>
<path d="M160.533,0L11.467,0C5.131,0 0,5.131 0,11.467L0,160.533C0,166.869 5.131,172 11.467,172L160.533,172C166.869,172 172,166.869 172,160.533L172,11.467C172,5.131 166.869,0 160.533,0Z" fill="#0B153C"/>
<path d="M157.237,4.3L16.483,4.3C13.639,4.321 10.916,5.46 8.905,7.471C6.893,9.483 5.754,12.205 5.733,15.05L5.733,155.373C5.719,161.307 10.521,166.109 16.455,166.123L157.093,166.123C163.027,166.138 167.829,161.336 167.843,155.402L167.843,15.05C167.972,9.245 163.357,4.429 157.552,4.3L157.237,4.3Z" fill="#FFFFFF"/>
<path d="M29.204,137.947C29.619,138.056 30.061,137.996 30.433,137.78C30.805,137.565 31.077,137.211 31.19,136.797C34.533,124.305 48.118,121.068 56.239,119.131C58.273,118.646 59.88,118.263 60.925,117.811C70.175,113.79 73.19,107.322 74.092,102.603C74.146,102.322 74.124,102.032 74.03,101.762C73.936,101.492 73.773,101.252 73.556,101.065C68.74,96.901 64.677,90.651 62.113,83.461C62.041,83.255 61.927,83.066 61.779,82.905C58.387,79.213 56.44,75.309 56.44,72.198C56.44,70.382 57.125,69.163 58.666,68.243C58.897,68.105 59.09,67.911 59.228,67.679C59.365,67.448 59.443,67.186 59.455,66.917C60.172,50.359 71.947,37.325 86.389,37.241L86.736,37.263C101.25,37.465 112.95,50.778 113.369,67.57C113.374,67.799 113.429,68.025 113.529,68.232C113.628,68.439 113.771,68.622 113.946,68.769C114.962,69.631 115.436,70.723 115.436,72.205C115.436,74.809 114.05,78.01 111.538,81.215C111.418,81.369 111.326,81.543 111.266,81.729C108.669,89.972 104.009,97.249 98.485,101.702C98.256,101.887 98.082,102.131 97.98,102.407C97.878,102.684 97.853,102.983 97.907,103.272C98.809,107.988 101.824,114.453 111.074,118.481C112.168,118.955 113.865,119.326 116.017,119.791C124.056,121.533 137.508,124.455 140.809,136.797C140.864,137.003 140.96,137.196 141.09,137.365C141.22,137.534 141.382,137.676 141.567,137.783C141.751,137.889 141.955,137.958 142.167,137.986C142.378,138.014 142.593,137.999 142.799,137.944C143.004,137.888 143.197,137.793 143.366,137.663C143.535,137.533 143.677,137.37 143.783,137.185C143.89,137 143.959,136.796 143.986,136.584C144.014,136.373 144,136.158 143.944,135.951C140.131,121.692 124.89,118.386 116.705,116.612C114.806,116.199 113.167,115.845 112.369,115.494C106.332,112.867 102.613,108.866 101.299,103.581C106.904,98.761 111.593,91.324 114.274,82.983C117.12,79.278 118.685,75.462 118.685,72.202C118.685,70.027 117.984,68.214 116.595,66.796C115.822,48.581 102.844,34.237 86.736,34.007L86.253,34C70.438,34.085 57.404,48.051 56.265,65.951C54.233,67.446 53.201,69.543 53.201,72.205C53.201,76.05 55.372,80.649 59.172,84.868C61.798,92.094 65.868,98.442 70.713,102.885C69.405,108.19 65.683,112.204 59.633,114.834C58.851,115.175 57.293,115.549 55.489,115.978C47.242,117.941 31.898,121.598 28.055,135.958C27.944,136.374 28.003,136.818 28.218,137.191C28.434,137.564 28.788,137.836 29.204,137.947Z" fill="#0B153C"/>
</svg>
