<svg width="508" height="220" viewBox="0 0 508 220" fill="none" xmlns="http://www.w3.org/2000/svg" xmlns:xlink="http://www.w3.org/1999/xlink">
<path d="M381.738,51.483L92.924,216.202C90.572,217.548 87.904,218.262 85.185,218.276C82.465,218.29 79.79,217.602 77.424,216.282L2.399,174.437C1.62,173.996 0.972,173.36 0.522,172.593C0.072,171.827 -0.166,170.957 -0.166,170.071C-0.166,169.186 0.072,168.316 0.522,167.549C0.972,166.783 1.62,166.147 2.399,165.706L290.67,1.632C293.016,0.303 295.672,-0.404 298.376,-0.42C301.082,-0.437 303.744,0.238 306.106,1.537L381.674,43.272C382.414,43.678 383.032,44.27 383.464,44.988C383.896,45.706 384.128,46.524 384.134,47.359C384.142,48.194 383.922,49.015 383.502,49.74C383.08,50.464 382.472,51.066 381.738,51.483L381.738,51.483Z" fill="#E0E0E0"/>
<path d="M427.967,216.8C471.739,216.8 507.223,196.608 507.223,171.699C507.223,146.791 471.739,126.599 427.967,126.599C384.196,126.599 348.712,146.791 348.712,171.699C348.712,196.608 384.196,216.8 427.967,216.8Z" fill="#E0E0E0"/>
</svg>
