<svg width="412" height="480" viewBox="0 0 412 480" fill="none" xmlns="http://www.w3.org/2000/svg" xmlns:xlink="http://www.w3.org/1999/xlink">
<path d="M52.963,282.74L50.106,282.74L50.106,338.276L52.963,338.276L52.963,282.74Z" transform="rotate(180 51.534 310.508)" fill="#FFFFFF" stroke="#263238" stroke-width="1" stroke-miterlimit="3.999327" stroke-linecap="round" stroke-linejoin="round"/>
<path d="M27.663,271.041L24.737,271.041L24.737,325.258L27.663,325.258L27.663,271.041Z" fill="#FFFFFF" stroke="#263238" stroke-width="1" stroke-miterlimit="3.999327" stroke-linecap="round" stroke-linejoin="round"/>
<path d="M26.2,314.312C28.352,314.312 30.097,312.609 30.097,310.508C30.097,308.408 28.352,306.704 26.2,306.704C24.048,306.704 22.304,308.408 22.304,310.508C22.304,312.609 24.048,314.312 26.2,314.312Z" fill="#263238" stroke="#263238" stroke-width="1" stroke-miterlimit="3.999327" stroke-linecap="round" stroke-linejoin="round"/>
<path d="M38.86,313.365L46.653,313.365L46.653,462.212C46.653,463.221 46.242,464.189 45.512,464.902C44.781,465.616 43.79,466.016 42.756,466.016C41.723,466.016 40.732,465.616 40.001,464.902C39.27,464.189 38.86,463.221 38.86,462.212L38.86,313.365L38.86,313.365Z" fill="#FFFFFF" stroke="#263238" stroke-width="1" stroke-miterlimit="3.999327" stroke-linecap="round" stroke-linejoin="round"/>
<path d="M38.86,452.287L38.86,462.271C38.86,463.28 39.27,464.247 40.001,464.961C40.732,465.674 41.723,466.075 42.756,466.075C43.79,466.075 44.781,465.674 45.512,464.961C46.242,464.247 46.653,463.28 46.653,462.271L46.653,452.287L38.86,452.287Z" fill="#263238" stroke="#263238" stroke-width="1" stroke-miterlimit="3.999327" stroke-linecap="round" stroke-linejoin="round"/>
<path d="M185.493,313.365L193.286,313.365L193.286,462.212C193.286,462.712 193.185,463.207 192.989,463.668C192.793,464.13 192.506,464.549 192.144,464.902C191.783,465.255 191.353,465.536 190.88,465.727C190.408,465.918 189.901,466.016 189.389,466.016L189.389,466.016C188.877,466.016 188.371,465.918 187.898,465.727C187.425,465.536 186.996,465.255 186.634,464.902C186.272,464.549 185.985,464.13 185.789,463.668C185.593,463.207 185.493,462.712 185.493,462.212L185.493,313.365L185.493,313.365Z" fill="#FFFFFF" stroke="#263238" stroke-width="1" stroke-miterlimit="3.999327" stroke-linecap="round" stroke-linejoin="round"/>
<path d="M185.493,452.287L185.493,462.271C185.493,463.28 185.903,464.247 186.634,464.961C187.365,465.674 188.356,466.075 189.389,466.075C190.423,466.075 191.414,465.674 192.144,464.961C192.875,464.247 193.286,463.28 193.286,462.271L193.286,452.287L185.493,452.287Z" fill="#263238" stroke="#263238" stroke-width="1" stroke-miterlimit="3.999327" stroke-linecap="round" stroke-linejoin="round"/>
<path d="M42.278,317.635L189.882,317.635L189.882,412.718C189.882,415.909 189.238,419.068 187.987,422.016C186.736,424.963 184.903,427.642 182.592,429.898C180.281,432.154 177.538,433.943 174.519,435.164C171.499,436.385 168.263,437.013 164.995,437.013L67.15,437.013C60.552,437.01 54.226,434.448 49.562,429.892C44.898,425.337 42.278,419.159 42.278,412.718L42.278,317.635Z" fill="#17C2EC" stroke="#263238" stroke-width="1" stroke-miterlimit="3.999327" stroke-linecap="round" stroke-linejoin="round"/>
<path d="M58.357,251.541L21.811,282.919L2.956,282.919C2.157,282.9 1.397,282.577 0.84,282.019C0.282,281.461 -0.031,280.711 -0.03,279.931L-0.03,271.012C-0.03,268.75 0.636,266.535 1.888,264.631C3.139,262.727 4.925,261.214 7.031,260.271L41.741,244.764C44.389,243.582 47.265,242.971 50.176,242.971C52.364,242.975 54.462,243.825 56.009,245.336C57.557,246.846 58.428,248.894 58.432,251.031L58.357,251.541Z" fill="#17C2EC" stroke="#263238" stroke-width="1" stroke-miterlimit="3.999327" stroke-linecap="round" stroke-linejoin="round"/>
<path d="M188.145,282.74L185.289,282.74L185.289,338.276L188.145,338.276L188.145,282.74Z" transform="rotate(180 186.717 310.508)" fill="#FFFFFF" stroke="#263238" stroke-width="1" stroke-miterlimit="3.999327" stroke-linecap="round" stroke-linejoin="round"/>
<path d="M213.5,271.026L210.573,271.026L210.573,325.243L213.5,325.243L213.5,271.026Z" transform="rotate(360 212.036 298.135)" fill="#FFFFFF" stroke="#263238" stroke-width="1" stroke-miterlimit="3.999327" stroke-linecap="round" stroke-linejoin="round"/>
<path d="M208.14,310.508C208.14,309.756 208.368,309.021 208.796,308.395C209.224,307.769 209.833,307.282 210.545,306.994C211.257,306.706 212.04,306.631 212.796,306.778C213.552,306.924 214.246,307.287 214.791,307.819C215.336,308.351 215.707,309.028 215.858,309.766C216.008,310.504 215.931,311.269 215.636,311.964C215.341,312.659 214.842,313.253 214.201,313.671C213.56,314.089 212.807,314.312 212.036,314.312C211.524,314.312 211.018,314.214 210.545,314.023C210.072,313.832 209.643,313.551 209.281,313.198C208.919,312.845 208.632,312.426 208.436,311.964C208.24,311.503 208.14,311.008 208.14,310.508L208.14,310.508Z" fill="#263238" stroke="#263238" stroke-width="1" stroke-miterlimit="3.999327" stroke-linecap="round" stroke-linejoin="round"/>
<path d="M179.894,251.541L214.932,281.637C215.897,282.467 217.14,282.923 218.426,282.919L233.056,282.919C234.458,282.919 235.802,282.376 236.793,281.408C237.784,280.441 238.341,279.128 238.341,277.76L238.341,271.012C238.344,268.749 237.68,266.533 236.428,264.628C235.176,262.723 233.389,261.211 231.28,260.271L196.57,244.764C193.922,243.582 191.046,242.971 188.135,242.971L188.135,242.971C185.948,242.975 183.852,243.826 182.307,245.337C180.762,246.848 179.894,248.896 179.894,251.031L179.894,251.541Z" fill="#17C2EC" stroke="#263238" stroke-width="1" stroke-miterlimit="3.999327" stroke-linecap="round" stroke-linejoin="round"/>
<path d="M59.328,266.756L37.053,298.689C35.947,300.281 35.255,302.112 35.037,304.024C34.818,305.937 35.08,307.872 35.799,309.663L35.799,309.663C36.692,311.875 38.246,313.774 40.259,315.113C42.271,316.451 44.65,317.168 47.086,317.169L184,317.169C186.64,317.163 189.239,316.536 191.578,315.341C193.917,314.146 195.926,312.418 197.436,310.304C199.056,308.043 200.054,305.413 200.334,302.667C200.613,299.921 200.166,297.151 199.033,294.622L181.492,268.185L59.328,266.756Z" fill="#17C2EC" stroke="#263238" stroke-width="1" stroke-miterlimit="3.999327" stroke-linecap="round" stroke-linejoin="round"/>
<path d="M71.032,84.14L168.429,84.14C172.586,84.14 176.573,85.752 179.513,88.622C182.453,91.492 184.104,95.384 184.104,99.443L184.104,287.686L55.356,287.686L55.356,99.443C55.356,95.384 57.008,91.492 59.948,88.622C62.887,85.752 66.875,84.14 71.032,84.14L71.032,84.14Z" fill="#17C2EC" stroke="#263238" stroke-width="1" stroke-miterlimit="3.999327" stroke-linecap="round" stroke-linejoin="round"/>
<path d="M45.906,182.386L40.771,208.211C40.771,208.211 7.927,242.126 6.031,246.367C4.135,250.608 1.298,276.419 1.298,278.43C1.298,280.442 8.405,285.718 8.405,285.718L14.66,287.991L18.601,285.674C18.601,285.674 18.601,277.585 19.392,275.647C20.542,273.493 21.865,271.432 23.349,269.482C23.349,269.482 22.154,278.736 23.737,278.736C25.319,278.736 26.902,269.875 26.902,264.089C26.902,258.303 20.243,248.247 20.243,248.247C20.243,248.247 51.43,240.158 55.386,234.372C59.342,228.586 70.778,191.975 70.778,191.975L45.906,182.386Z" fill="#FFFFFF" stroke="#263238" stroke-width="1" stroke-miterlimit="3.999327" stroke-linecap="round" stroke-linejoin="round"/>
<path d="M41.752,208.401C41.857,207.859 41.503,207.335 40.961,207.229C40.419,207.124 39.894,207.479 39.789,208.021L41.752,208.401ZM51.023,218.48C51.374,218.054 51.312,217.423 50.886,217.073C50.459,216.722 49.829,216.783 49.478,217.21L51.023,218.48ZM40.771,208.211C39.789,208.021 39.789,208.021 39.789,208.022C39.789,208.022 39.789,208.022 39.789,208.022C39.788,208.023 39.788,208.024 39.788,208.024C39.788,208.026 39.787,208.028 39.787,208.031C39.786,208.036 39.785,208.044 39.783,208.053C39.779,208.071 39.775,208.097 39.769,208.13C39.757,208.196 39.741,208.29 39.723,208.411C39.685,208.651 39.637,208.993 39.593,209.411C39.504,210.245 39.427,211.392 39.48,212.635C39.583,215.028 40.182,218.181 42.58,219.822L43.709,218.171C42.165,217.115 41.578,214.875 41.479,212.55C41.431,211.434 41.5,210.391 41.582,209.623C41.622,209.241 41.666,208.93 41.699,208.717C41.716,208.611 41.729,208.529 41.739,208.476C41.744,208.449 41.747,208.429 41.75,208.416C41.751,208.41 41.752,208.406 41.752,208.403C41.752,208.402 41.752,208.401 41.752,208.401C41.752,208.401 41.752,208.401 41.752,208.401C41.752,208.401 41.752,208.401 41.752,208.401C41.752,208.401 41.752,208.401 40.771,208.211ZM42.58,219.822C44.91,221.416 47.081,221.076 48.613,220.331C49.36,219.967 49.954,219.511 50.359,219.151C50.563,218.97 50.723,218.809 50.834,218.691C50.89,218.632 50.934,218.583 50.966,218.547C50.982,218.529 50.994,218.514 51.004,218.503C51.008,218.497 51.012,218.493 51.016,218.489C51.017,218.487 51.019,218.485 51.02,218.484C51.02,218.483 51.021,218.482 51.021,218.482C51.022,218.481 51.022,218.481 51.022,218.481C51.022,218.481 51.023,218.48 50.25,217.845C49.478,217.21 49.478,217.209 49.479,217.209C49.479,217.209 49.479,217.209 49.479,217.208C49.48,217.208 49.48,217.208 49.48,217.207C49.48,217.207 49.481,217.207 49.481,217.207C49.481,217.206 49.48,217.207 49.479,217.209C49.476,217.212 49.471,217.218 49.462,217.228C49.445,217.247 49.418,217.278 49.379,217.319C49.302,217.4 49.184,217.519 49.03,217.657C48.718,217.934 48.275,218.271 47.738,218.532C46.702,219.037 45.32,219.273 43.709,218.171L42.58,219.822Z" fill="#263238"/>
<path d="M16.879,267.392C16.989,266.851 16.639,266.323 16.098,266.213C15.557,266.104 15.029,266.453 14.919,266.995L16.879,267.392ZM15.729,287.435C15.88,287.966 16.434,288.274 16.965,288.122C17.496,287.97 17.803,287.417 17.652,286.886L15.729,287.435ZM15.899,267.194C14.919,266.995 14.919,266.995 14.919,266.995C14.919,266.995 14.919,266.995 14.919,266.996C14.919,266.996 14.919,266.997 14.918,266.998C14.918,266.999 14.918,267.002 14.917,267.005C14.915,267.012 14.913,267.022 14.911,267.035C14.906,267.061 14.898,267.099 14.888,267.149C14.868,267.249 14.839,267.396 14.802,267.582C14.73,267.955 14.627,268.489 14.507,269.132C14.268,270.418 13.96,272.147 13.688,273.913C13.417,275.674 13.178,277.495 13.081,278.957C13.033,279.684 13.017,280.355 13.057,280.898C13.077,281.168 13.114,281.439 13.18,281.683C13.239,281.901 13.355,282.23 13.623,282.488L15.01,281.048C15.134,281.167 15.137,281.261 15.11,281.161C15.09,281.086 15.067,280.953 15.052,280.749C15.022,280.344 15.031,279.781 15.077,279.09C15.168,277.715 15.397,275.961 15.665,274.217C15.933,272.479 16.236,270.772 16.473,269.498C16.592,268.861 16.693,268.334 16.765,267.966C16.801,267.782 16.83,267.638 16.849,267.541C16.859,267.492 16.867,267.454 16.872,267.429C16.874,267.417 16.876,267.408 16.877,267.401C16.878,267.398 16.878,267.396 16.879,267.394C16.879,267.394 16.879,267.393 16.879,267.393C16.879,267.393 16.879,267.392 16.879,267.392C16.879,267.392 16.879,267.392 15.899,267.194ZM13.623,282.488C13.779,282.638 14.008,282.981 14.276,283.522C14.531,284.036 14.779,284.64 14.997,285.228C15.215,285.813 15.398,286.367 15.528,286.776C15.592,286.979 15.643,287.146 15.677,287.261C15.695,287.318 15.708,287.363 15.716,287.392C15.721,287.407 15.724,287.418 15.726,287.426C15.727,287.429 15.728,287.432 15.728,287.433C15.728,287.434 15.729,287.435 15.729,287.435C15.729,287.435 15.729,287.435 15.729,287.435C15.729,287.435 15.729,287.435 15.729,287.435C15.729,287.435 15.729,287.435 16.69,287.16C17.652,286.886 17.652,286.886 17.652,286.885C17.652,286.885 17.652,286.885 17.652,286.885C17.652,286.885 17.651,286.885 17.651,286.884C17.651,286.883 17.651,286.882 17.65,286.881C17.65,286.879 17.649,286.875 17.647,286.871C17.645,286.861 17.641,286.848 17.636,286.832C17.626,286.798 17.612,286.749 17.593,286.687C17.556,286.564 17.502,286.387 17.434,286.172C17.298,285.742 17.104,285.156 16.872,284.531C16.641,283.909 16.366,283.234 16.068,282.633C15.784,282.06 15.429,281.451 15.01,281.048L13.623,282.488Z" fill="#263238"/>
<path d="M12.155,266.166C12.239,265.62 11.865,265.109 11.319,265.025C10.774,264.94 10.263,265.314 10.178,265.86L12.155,266.166ZM12.014,287.897C12.389,288.303 13.022,288.328 13.427,287.953C13.833,287.579 13.858,286.946 13.484,286.54L12.014,287.897ZM11.166,266.013C10.178,265.86 10.178,265.86 10.178,265.86C10.178,265.86 10.178,265.86 10.178,265.861C10.178,265.861 10.178,265.862 10.178,265.862C10.178,265.864 10.177,265.866 10.177,265.869C10.176,265.876 10.174,265.885 10.172,265.897C10.169,265.921 10.163,265.957 10.156,266.004C10.141,266.098 10.12,266.236 10.093,266.413C10.039,266.766 9.962,267.273 9.87,267.889C9.685,269.119 9.438,270.785 9.191,272.524C8.944,274.262 8.697,276.077 8.511,277.605C8.328,279.107 8.196,280.401 8.196,281.054L10.196,281.054C10.196,280.547 10.31,279.383 10.496,277.847C10.68,276.338 10.925,274.537 11.171,272.805C11.417,271.073 11.663,269.413 11.847,268.186C11.94,267.572 12.017,267.067 12.07,266.715C12.097,266.539 12.118,266.402 12.133,266.309C12.14,266.262 12.145,266.226 12.149,266.202C12.151,266.19 12.152,266.181 12.153,266.175C12.154,266.172 12.154,266.17 12.154,266.168C12.154,266.167 12.155,266.167 12.155,266.167C12.155,266.166 12.155,266.166 12.155,266.166C12.155,266.166 12.155,266.166 11.166,266.013ZM8.196,281.054C8.196,281.858 8.495,282.696 8.851,283.431C9.217,284.185 9.695,284.933 10.157,285.584C10.621,286.238 11.083,286.813 11.428,287.224C11.601,287.43 11.745,287.596 11.848,287.712C11.899,287.769 11.939,287.815 11.968,287.846C11.982,287.862 11.993,287.874 12.001,287.882C12.005,287.887 12.008,287.89 12.01,287.893C12.011,287.894 12.012,287.895 12.013,287.895C12.013,287.896 12.013,287.896 12.014,287.896C12.014,287.897 12.014,287.897 12.014,287.897C12.014,287.897 12.014,287.897 12.749,287.219C13.484,286.54 13.484,286.54 13.484,286.54C13.484,286.54 13.484,286.54 13.484,286.54C13.484,286.54 13.484,286.54 13.484,286.54C13.484,286.54 13.483,286.54 13.483,286.539C13.481,286.538 13.479,286.536 13.477,286.533C13.471,286.526 13.462,286.517 13.45,286.504C13.427,286.478 13.391,286.438 13.345,286.386C13.253,286.282 13.12,286.129 12.96,285.938C12.638,285.555 12.212,285.024 11.788,284.426C11.361,283.825 10.951,283.177 10.651,282.558C10.341,281.919 10.196,281.407 10.196,281.054L8.196,281.054Z" fill="#263238"/>
<path d="M6.695,266.908C6.763,266.36 6.374,265.861 5.825,265.793C5.277,265.725 4.778,266.114 4.71,266.662L6.695,266.908ZM7.638,286.237C7.949,286.693 8.571,286.811 9.028,286.5C9.484,286.189 9.602,285.567 9.291,285.11L7.638,286.237ZM5.702,266.785C4.71,266.662 4.71,266.662 4.71,266.662C4.71,266.663 4.71,266.663 4.71,266.663C4.71,266.663 4.71,266.664 4.71,266.664C4.71,266.666 4.709,266.667 4.709,266.67C4.709,266.675 4.708,266.682 4.707,266.691C4.704,266.71 4.701,266.737 4.696,266.773C4.688,266.845 4.675,266.951 4.659,267.086C4.627,267.355 4.582,267.743 4.528,268.215C4.422,269.159 4.285,270.442 4.16,271.8C4.035,273.156 3.922,274.595 3.866,275.846C3.811,277.063 3.804,278.205 3.926,278.908L5.896,278.565C5.817,278.109 5.808,277.178 5.864,275.936C5.918,274.73 6.028,273.326 6.151,271.983C6.275,270.643 6.411,269.374 6.516,268.439C6.568,267.971 6.613,267.588 6.645,267.322C6.661,267.189 6.673,267.085 6.682,267.015C6.686,266.98 6.689,266.953 6.692,266.935C6.693,266.926 6.694,266.919 6.694,266.915C6.694,266.913 6.695,266.911 6.695,266.91C6.695,266.909 6.695,266.909 6.695,266.909C6.695,266.909 6.695,266.908 6.695,266.908C6.695,266.908 6.695,266.908 5.702,266.785ZM3.926,278.908C4.05,279.619 4.367,280.438 4.729,281.219C5.099,282.015 5.546,282.839 5.974,283.576C6.403,284.315 6.817,284.978 7.125,285.456C7.278,285.696 7.406,285.889 7.495,286.024C7.54,286.091 7.575,286.144 7.599,286.18C7.612,286.198 7.621,286.212 7.627,286.221C7.631,286.226 7.633,286.23 7.635,286.232C7.636,286.234 7.637,286.235 7.637,286.236C7.637,286.236 7.638,286.236 7.638,286.236C7.638,286.237 7.638,286.237 7.638,286.237C7.638,286.237 7.638,286.237 8.464,285.674C9.291,285.11 9.291,285.11 9.291,285.11C9.291,285.11 9.291,285.11 9.291,285.11C9.291,285.11 9.29,285.11 9.29,285.11C9.29,285.11 9.29,285.109 9.289,285.108C9.288,285.106 9.286,285.103 9.283,285.099C9.278,285.091 9.269,285.079 9.258,285.063C9.236,285.03 9.203,284.981 9.161,284.917C9.077,284.79 8.955,284.605 8.807,284.375C8.511,283.914 8.113,283.278 7.704,282.572C7.294,281.865 6.878,281.099 6.544,280.377C6.202,279.64 5.974,279.012 5.896,278.565L3.926,278.908Z" fill="#263238"/>
<path d="M171.414,136.899C171.414,136.899 181.282,163.876 186.806,177.372C192.33,190.868 210.543,235.13 210.14,239.502C209.737,243.875 190.001,243.743 185.672,240.275C181.342,236.806 156.485,188.929 156.485,188.929L171.414,136.899Z" fill="#FFFFFF" stroke="#263238" stroke-width="1" stroke-miterlimit="3.999327" stroke-linecap="round" stroke-linejoin="round"/>
<path d="M90.514,127.28L61.701,136.914L35.247,184.688L71.181,199.335L75.511,193.17L78.287,216.679C78.287,216.679 52.624,259.075 49.071,274.116C45.518,289.157 55.386,306.879 67.628,311.878C79.87,316.877 156.456,312.651 166.324,310.348C176.192,308.045 185.731,291.839 184.88,279.509C184.03,267.179 172.236,239.036 171.056,236.34C169.877,233.643 156.844,212.452 156.844,212.452L160.009,190.868L167.115,133.43L135.137,123.797L100.382,124.19L90.514,127.28Z" fill="#263238" stroke="#263238" stroke-width="1" stroke-miterlimit="3.999327" stroke-linecap="round" stroke-linejoin="round"/>
<path d="M156.844,212.452L160.009,190.868L167.115,133.43L135.137,123.797L100.382,124.19L90.514,127.28L61.701,136.914L35.247,184.688L71.181,199.335L75.511,193.17L78.287,216.679C78.287,216.679 64.164,239.998 55.416,258.201L104.144,258.201C131.017,258.201 162.114,256.292 175.804,258.667C177.297,258.93 178.64,259.177 179.954,259.44C176.266,248.524 171.803,237.943 171.101,236.34C169.922,233.672 156.844,212.452 156.844,212.452Z" fill="#FFFFFF" stroke="#263238" stroke-width="1" stroke-miterlimit="3.999327" stroke-linecap="round" stroke-linejoin="round"/>
<path d="M140.2,191.686C139.694,191.908 139.463,192.497 139.685,193.003C139.907,193.509 140.496,193.74 141.002,193.518L140.2,191.686ZM147.556,190.647C148.062,190.425 148.292,189.836 148.071,189.33C147.849,188.824 147.26,188.593 146.754,188.815L147.556,190.647ZM141.002,193.518L147.556,190.647L146.754,188.815L140.2,191.686L141.002,193.518Z" fill="#263238"/>
<path d="M103.834,207.557C103.328,207.778 103.096,208.367 103.317,208.874C103.538,209.38 104.128,209.611 104.634,209.39L103.834,207.557ZM137.015,195.253C137.521,195.032 137.752,194.442 137.531,193.936C137.31,193.43 136.721,193.199 136.215,193.42L137.015,195.253ZM104.634,209.39L137.015,195.253L136.215,193.42L103.834,207.557L104.634,209.39Z" fill="#263238"/>
<path d="M93.247,208.522C92.734,208.728 92.486,209.31 92.692,209.823C92.898,210.335 93.48,210.584 93.992,210.378L93.247,208.522ZM119.745,200.03C120.257,199.824 120.506,199.242 120.3,198.729C120.094,198.217 119.512,197.968 118.999,198.174L119.745,200.03ZM93.992,210.378L119.745,200.03L118.999,198.174L93.247,208.522L93.992,210.378Z" fill="#263238"/>
<path d="M66.045,159.249C66.178,159.785 66.721,160.112 67.257,159.979C67.793,159.846 68.12,159.304 67.987,158.768L66.045,159.249ZM66.613,153.229C66.48,152.693 65.938,152.366 65.402,152.499C64.866,152.632 64.539,153.175 64.672,153.711L66.613,153.229ZM67.987,158.768L66.613,153.229L64.672,153.711L66.045,159.249L67.987,158.768Z" fill="#263238"/>
<path d="M74.54,193.411C74.673,193.947 75.215,194.274 75.751,194.141C76.287,194.008 76.614,193.465 76.481,192.929L74.54,193.411ZM69.151,163.416C69.018,162.88 68.475,162.554 67.939,162.687C67.403,162.82 67.077,163.363 67.21,163.899L69.151,163.416ZM76.481,192.929L69.151,163.416L67.21,163.899L74.54,193.411L76.481,192.929Z" fill="#263238"/>
<path d="M161.576,173.903L174.609,134.596L164.353,132.279L161.576,173.903Z" fill="#FFFFFF" stroke="#263238" stroke-width="1" stroke-miterlimit="3.999327" stroke-linecap="round" stroke-linejoin="round"/>
<path d="M90.021,443.659C90.021,443.659 86.603,452.695 80.765,457.928C74.928,463.16 68.583,472.196 71.509,476.481C74.435,480.766 88.066,479.396 93.425,476C98.785,472.604 99.277,467.445 104.622,465.069C109.966,462.693 113.878,457.461 111.937,449.373C109.996,441.284 90.021,443.659 90.021,443.659Z" fill="#FFFFFF" stroke="#263238" stroke-width="1" stroke-miterlimit="3.999327" stroke-linecap="round" stroke-linejoin="round"/>
<path d="M112.43,453.002C109.146,456.47 102.741,462.65 99.755,464.107C95.859,466.016 94.888,476.947 84.662,476.947C79.898,476.887 75.191,475.937 70.793,474.149C70.816,474.961 71.064,475.751 71.51,476.437C74.495,480.722 88.066,479.352 93.425,475.956C98.785,472.56 99.278,467.401 104.622,465.025C107.031,464.046 109.072,462.367 110.469,460.216C111.866,458.065 112.551,455.546 112.43,453.002Z" fill="#FFFFFF" stroke="#263238" stroke-width="1" stroke-miterlimit="3.999327" stroke-linecap="round" stroke-linejoin="round"/>
<path d="M73.943,295.293C73.943,295.293 72.973,344.277 79.303,368.995C85.633,393.713 89.036,436.037 89.036,436.037L87.543,441.75L88.529,448.411C91.934,450.596 95.52,452.502 99.248,454.109C106.548,457.447 114.341,450.786 114.341,450.786C114.341,450.786 111.908,428.925 111.355,427.467C110.803,426.01 116.715,337.107 116.715,328.551C116.715,319.996 118.67,299.534 117.7,288.603C116.73,277.672 101.248,259.148 83.677,257.72C66.105,256.292 53.475,267.704 53.968,283.881Z" fill="#263238" stroke="#263238" stroke-width="1" stroke-miterlimit="3.999327" stroke-linecap="round" stroke-linejoin="round"/>
<path d="M148.245,443.659C148.245,443.659 151.648,452.695 157.5,457.928C163.353,463.16 169.683,472.196 166.756,476.481C163.83,480.766 150.185,479.396 144.826,476C139.466,472.604 138.989,467.445 133.629,465.069C128.27,462.693 124.373,457.461 126.314,449.373C128.255,441.284 148.245,443.659 148.245,443.659Z" fill="#FFFFFF" stroke="#263238" stroke-width="1" stroke-miterlimit="3.999327" stroke-linecap="round" stroke-linejoin="round"/>
<path d="M125.836,453.002C129.105,456.47 135.51,462.65 138.496,464.107C142.392,466.016 143.378,476.947 153.604,476.947C158.36,476.902 163.063,475.967 167.458,474.193C167.44,475.003 167.198,475.794 166.756,476.481C163.771,480.766 150.185,479.396 144.826,476C139.466,472.604 138.988,467.445 133.629,465.069C131.212,464.091 129.164,462.405 127.769,460.244C126.373,458.083 125.698,455.553 125.836,453.002L125.836,453.002Z" fill="#FFFFFF" stroke="#263238" stroke-width="1" stroke-miterlimit="3.999327" stroke-linecap="round" stroke-linejoin="round"/>
<path d="M164.323,295.293C164.323,295.293 165.293,344.277 158.964,368.995C152.634,393.713 149.215,436.037 149.215,436.037L150.708,441.75L149.737,448.411C146.329,450.592 142.744,452.497 139.018,454.109C131.703,457.447 123.91,450.786 123.91,450.786C123.91,450.786 126.344,428.925 126.896,427.467C127.448,426.01 121.537,337.107 121.537,328.551C121.537,319.996 119.596,299.534 120.566,288.603C121.537,277.672 137.078,259.148 154.574,257.72C172.071,256.292 184.776,267.704 184.283,283.881Z" fill="#263238" stroke="#263238" stroke-width="1" stroke-miterlimit="3.999327" stroke-linecap="round" stroke-linejoin="round"/>
<path d="M188.433,222.465L111.041,247.518C111.041,247.518 93.679,256 91.305,256.773C88.932,257.545 82.617,266.406 81.84,267.951C81.064,269.496 84.602,269.875 86.17,269.482C87.737,269.088 94.47,266.785 94.47,266.785C94.47,266.785 90.514,268.709 94.47,268.709C98.426,268.709 104.338,264.862 104.338,264.862C104.338,264.862 115.789,261.772 116.968,260.241C118.148,258.711 122.492,254.412 122.492,254.412C122.492,254.412 172.235,251.322 180.536,249.792C188.836,248.261 204.616,243.962 207.408,241.688C210.2,239.415 210.961,236.689 207.796,230.903Z" fill="#FFFFFF" stroke="#263238" stroke-width="1" stroke-miterlimit="3.999327" stroke-linecap="round" stroke-linejoin="round"/>
<path d="M93.943,265.936C93.474,266.227 93.329,266.844 93.621,267.313C93.912,267.782 94.528,267.926 94.998,267.635L93.943,265.936ZM104.682,260.446L104.199,259.57C104.184,259.578 104.169,259.587 104.154,259.596L104.682,260.446ZM109.076,259.164C109.56,258.898 109.735,258.289 109.469,257.806C109.202,257.322 108.594,257.146 108.11,257.413L109.076,259.164ZM94.998,267.635L105.209,261.295L104.154,259.596L93.943,265.936L94.998,267.635ZM105.165,261.321L109.076,259.164L108.11,257.413L104.199,259.57L105.165,261.321Z" fill="#263238"/>
<path d="M82.438,268.786C82.303,269.322 82.629,269.865 83.164,270C83.7,270.134 84.243,269.809 84.378,269.273L82.438,268.786ZM94.903,259.673L94.586,258.725C94.479,258.76 94.38,258.814 94.291,258.883L94.903,259.673ZM104.506,257.517C105.03,257.342 105.312,256.776 105.137,256.252C104.962,255.728 104.396,255.445 103.872,255.62L104.506,257.517ZM83.408,269.03C84.378,269.273 84.378,269.273 84.378,269.274C84.378,269.274 84.378,269.274 84.377,269.274C84.377,269.274 84.377,269.274 84.377,269.274C84.377,269.274 84.377,269.274 84.377,269.274C84.378,269.274 84.378,269.273 84.378,269.271C84.379,269.268 84.381,269.262 84.383,269.253C84.387,269.236 84.394,269.21 84.404,269.175C84.424,269.105 84.454,269.003 84.493,268.88C84.573,268.63 84.689,268.307 84.835,267.991C84.985,267.665 85.143,267.4 85.292,267.232C85.452,267.049 85.477,267.115 85.363,267.115L85.363,265.115C84.638,265.115 84.112,265.545 83.791,265.909C83.458,266.287 83.204,266.751 83.018,267.154C82.828,267.567 82.684,267.972 82.589,268.269C82.541,268.419 82.504,268.544 82.479,268.634C82.466,268.679 82.456,268.715 82.45,268.741C82.446,268.754 82.443,268.764 82.441,268.772C82.441,268.776 82.44,268.779 82.439,268.781C82.439,268.783 82.439,268.784 82.438,268.784C82.438,268.785 82.438,268.785 82.438,268.786C82.438,268.786 82.438,268.786 82.438,268.786C82.438,268.786 82.438,268.786 83.408,269.03ZM85.363,267.115C85.621,267.115 85.86,267.039 86.018,266.981C86.197,266.915 86.388,266.827 86.58,266.729C86.965,266.532 87.42,266.262 87.906,265.953C88.883,265.333 90.056,264.514 91.177,263.705C92.301,262.894 93.386,262.084 94.188,261.477C94.589,261.174 94.92,260.921 95.152,260.744C95.267,260.655 95.358,260.585 95.42,260.537C95.451,260.514 95.475,260.495 95.491,260.483C95.499,260.477 95.505,260.472 95.509,260.469C95.511,260.467 95.513,260.466 95.514,260.465C95.514,260.465 95.515,260.464 95.515,260.464C95.515,260.464 95.515,260.464 95.515,260.464C95.515,260.464 95.515,260.464 94.903,259.673C94.291,258.883 94.291,258.883 94.291,258.883C94.291,258.883 94.29,258.883 94.29,258.883C94.29,258.883 94.29,258.883 94.289,258.884C94.288,258.884 94.287,258.885 94.285,258.887C94.281,258.89 94.275,258.894 94.268,258.9C94.252,258.912 94.229,258.93 94.199,258.954C94.138,259 94.049,259.069 93.935,259.156C93.707,259.331 93.379,259.582 92.981,259.882C92.186,260.483 91.115,261.284 90.007,262.083C88.896,262.885 87.761,263.676 86.835,264.264C86.37,264.559 85.974,264.792 85.67,264.948C85.517,265.026 85.404,265.076 85.327,265.104C85.228,265.141 85.259,265.115 85.363,265.115L85.363,267.115ZM95.22,260.622L104.506,257.517L103.872,255.62L94.586,258.725L95.22,260.622Z" fill="#263238"/>
<path d="M101.839,255.659C102.359,255.473 102.629,254.9 102.443,254.38C102.256,253.86 101.684,253.59 101.164,253.777L101.839,255.659ZM83.201,264.264C82.806,264.65 82.8,265.283 83.186,265.678C83.573,266.072 84.206,266.079 84.6,265.692L83.201,264.264ZM101.502,254.718C101.164,253.777 101.164,253.777 101.164,253.777C101.164,253.777 101.164,253.777 101.163,253.777C101.163,253.777 101.162,253.777 101.162,253.777C101.16,253.778 101.158,253.779 101.155,253.78C101.149,253.782 101.14,253.785 101.129,253.789C101.106,253.797 101.072,253.81 101.028,253.825C100.94,253.857 100.811,253.904 100.646,253.964C100.317,254.083 99.846,254.255 99.278,254.464C98.144,254.882 96.621,255.449 95.074,256.048C93.529,256.645 91.949,257.277 90.702,257.823C90.081,258.095 89.527,258.352 89.098,258.577C88.884,258.689 88.686,258.801 88.519,258.909C88.379,259.001 88.169,259.147 88.013,259.344L89.581,260.585C89.521,260.661 89.493,260.662 89.611,260.585C89.703,260.525 89.84,260.446 90.026,260.349C90.395,260.155 90.899,259.92 91.504,259.655C92.711,259.127 94.259,258.507 95.796,257.913C97.329,257.32 98.841,256.756 99.969,256.341C100.533,256.133 101.001,255.962 101.328,255.844C101.492,255.785 101.62,255.738 101.707,255.707C101.75,255.691 101.784,255.679 101.806,255.671C101.817,255.667 101.825,255.664 101.831,255.662C101.834,255.661 101.836,255.66 101.837,255.66C101.838,255.66 101.839,255.659 101.839,255.659C101.839,255.659 101.839,255.659 101.839,255.659C101.839,255.659 101.839,255.659 101.502,254.718ZM88.013,259.344C87.677,259.768 86.506,260.971 85.355,262.126C84.793,262.69 84.254,263.225 83.856,263.619C83.656,263.816 83.492,263.977 83.378,264.089C83.321,264.145 83.277,264.189 83.247,264.219C83.231,264.234 83.22,264.245 83.212,264.252C83.208,264.256 83.205,264.259 83.203,264.261C83.202,264.262 83.202,264.263 83.201,264.263C83.201,264.263 83.201,264.264 83.201,264.264C83.201,264.264 83.201,264.264 83.201,264.264C83.201,264.264 83.201,264.264 83.9,264.978C84.6,265.692 84.6,265.692 84.6,265.692C84.6,265.692 84.6,265.692 84.6,265.692C84.601,265.692 84.601,265.692 84.601,265.692C84.602,265.691 84.602,265.69 84.603,265.689C84.605,265.687 84.608,265.684 84.612,265.68C84.62,265.673 84.632,265.661 84.647,265.646C84.678,265.616 84.723,265.572 84.781,265.515C84.896,265.402 85.061,265.239 85.261,265.041C85.662,264.645 86.205,264.107 86.772,263.538C87.879,262.427 89.156,261.123 89.581,260.585L88.013,259.344Z" fill="#263238"/>
<path d="M105.518,92.579C105.518,92.579 105.518,110.694 104.726,122.645C103.935,134.596 110.265,157.332 116.968,158.877C123.671,160.422 133.554,131.507 133.554,128.81C133.554,126.114 137.899,108.406 137.899,108.406L105.518,92.579Z" fill="#FFFFFF" stroke="#263238" stroke-width="1" stroke-miterlimit="3.999327" stroke-linecap="round" stroke-linejoin="round"/>
<path d="M133.629,127.965C134.032,124.7 136.197,115.475 137.272,110.942L110.773,106.118C114.192,111.391 118.197,116.279 122.716,120.692C125.852,123.766 129.555,126.233 133.629,127.965L133.629,127.965Z" fill="#263238" stroke="#263238" stroke-width="1" stroke-miterlimit="3.999327" stroke-linecap="round" stroke-linejoin="round"/>
<path d="M104.338,35.928C104.338,35.928 84.93,50.182 82.616,65.222C80.302,80.263 80.258,131.9 82.228,145.002C84.199,158.105 97.62,162.346 101.965,162.346C106.309,162.346 111.833,155.408 111.833,155.408C111.833,155.408 102.741,149.243 102.741,139.216C102.741,129.189 105.503,92.578 105.503,92.578L123.641,57.892L152.858,69.07C152.858,69.07 149.693,96.047 145.393,103.757C142.317,108.744 137.965,112.862 132.763,115.708C132.763,115.708 133.942,132.658 133.554,140.368C133.352,144.896 131.374,149.174 128.031,152.319C128.031,152.319 136.316,166.893 145.005,159.606C153.694,152.319 154.082,134.931 154.082,129.539C154.082,124.146 154.47,68.647 154.47,68.647C156.21,67.259 157.584,65.484 158.478,63.47C159.371,61.457 159.758,59.264 159.605,57.075C159.217,49.366 145.796,38.96 128.822,34.718C111.848,30.477 104.338,35.928 104.338,35.928Z" fill="#263238" stroke="#263238" stroke-width="1" stroke-miterlimit="3.999327" stroke-linecap="round" stroke-linejoin="round"/>
<path d="M122.149,52.499L107.22,83.717C107.22,83.717 102.876,74.856 99.322,78.325C95.769,81.794 95.277,91.427 99.606,95.217L103.936,99.079L106.309,97.534C106.309,97.534 111.445,110.651 121.701,116.48C131.957,122.31 137.496,122.31 142.243,118.025C146.991,113.74 153.694,101.44 154.47,93.73C155.246,86.02 155.665,69.449 155.261,66.753C154.858,64.057 122.149,52.499 122.149,52.499Z" fill="#FFFFFF" stroke="#263238" stroke-width="1" stroke-miterlimit="3.999327" stroke-linecap="round" stroke-linejoin="round"/>
<path d="M155.127,83.805C149.47,86.347 143.305,87.631 137.078,87.565C124.791,87.565 111.699,83.484 107.802,82.187L107.071,83.717L111.012,85.641C111.012,85.641 113.385,90.655 114.565,92.928C115.744,95.202 114.565,106.045 114.565,106.045L106.279,97.563C106.279,97.563 111.415,110.68 121.671,116.51C131.927,122.339 137.466,122.339 142.213,118.054C146.961,113.77 153.664,101.469 154.44,93.759C154.739,91.136 154.993,87.55 155.127,83.805Z" fill="#17C2EC" stroke="#263238" stroke-width="1" stroke-miterlimit="3.999327" stroke-linecap="round" stroke-linejoin="round"/>
<path d="M135.391,81.968C135.391,83.426 134.764,84.533 133.988,84.533C133.211,84.533 132.599,83.382 132.599,81.968C132.599,80.555 133.226,79.418 133.988,79.418C134.749,79.418 135.391,80.555 135.391,81.968Z" fill="#263238"/>
<path d="M148.678,83.688C149.453,83.688 150.081,82.54 150.081,81.123C150.081,79.706 149.453,78.558 148.678,78.558C147.903,78.558 147.274,79.706 147.274,81.123C147.274,82.54 147.903,83.688 148.678,83.688Z" fill="#263238"/>
<path d="M125.86,74.074C125.364,74.316 125.158,74.915 125.4,75.411C125.642,75.908 126.241,76.114 126.737,75.871L125.86,74.074ZM137.996,75.812C138.46,76.112 139.079,75.98 139.379,75.517C139.68,75.054 139.548,74.435 139.085,74.134L137.996,75.812ZM126.299,74.973C126.737,75.871 126.737,75.871 126.737,75.872C126.737,75.872 126.737,75.872 126.737,75.872C126.736,75.872 126.736,75.872 126.736,75.872C126.736,75.872 126.737,75.872 126.738,75.871C126.739,75.87 126.743,75.869 126.748,75.866C126.758,75.862 126.774,75.854 126.797,75.844C126.842,75.823 126.912,75.791 127.004,75.751C127.19,75.672 127.465,75.559 127.813,75.434C128.51,75.181 129.491,74.879 130.624,74.678C132.912,74.273 135.673,74.304 137.996,75.812L139.085,74.134C136.153,72.231 132.793,72.262 130.274,72.709C129.003,72.935 127.909,73.272 127.133,73.553C126.743,73.693 126.432,73.821 126.214,73.914C126.105,73.961 126.02,73.999 125.96,74.027C125.931,74.041 125.907,74.052 125.89,74.06C125.882,74.064 125.875,74.067 125.87,74.069C125.868,74.07 125.866,74.071 125.864,74.072C125.863,74.073 125.862,74.073 125.862,74.073C125.861,74.073 125.861,74.074 125.861,74.074C125.861,74.074 125.86,74.074 126.299,74.973Z" fill="#263238"/>
<path d="M145.932,86.418C146.032,86.962 146.553,87.322 147.096,87.222C147.639,87.123 147.999,86.602 147.9,86.059L145.932,86.418ZM145.169,76.678L144.195,76.455C144.164,76.587 144.161,76.724 144.186,76.858L145.169,76.678ZM151.651,74.807C152.123,75.094 152.738,74.944 153.025,74.473C153.312,74.001 153.163,73.386 152.691,73.098L151.651,74.807ZM147.9,86.059L146.153,76.498L144.186,76.858L145.932,86.418L147.9,86.059ZM145.169,76.678C146.144,76.901 146.144,76.901 146.144,76.902C146.144,76.902 146.144,76.902 146.144,76.902C146.144,76.903 146.144,76.903 146.144,76.904C146.144,76.904 146.143,76.904 146.144,76.904C146.144,76.904 146.144,76.902 146.145,76.899C146.146,76.893 146.149,76.881 146.153,76.865C146.162,76.832 146.176,76.781 146.197,76.714C146.238,76.579 146.304,76.384 146.398,76.159C146.591,75.7 146.884,75.159 147.296,74.724C147.698,74.301 148.19,74 148.819,73.934C149.458,73.868 150.377,74.03 151.651,74.807L152.691,73.098C151.166,72.169 149.81,71.82 148.612,71.945C147.403,72.071 146.494,72.664 145.845,73.348C145.207,74.021 144.799,74.801 144.554,75.385C144.429,75.682 144.342,75.941 144.284,76.128C144.256,76.222 144.234,76.299 144.22,76.355C144.212,76.382 144.207,76.405 144.202,76.422C144.2,76.43 144.199,76.437 144.197,76.443C144.197,76.446 144.196,76.448 144.196,76.45C144.196,76.451 144.195,76.452 144.195,76.453C144.195,76.453 144.195,76.454 144.195,76.454C144.195,76.454 144.195,76.455 145.169,76.678Z" fill="#263238"/>
<path d="M260.586,169.006L245.821,160.918C245.821,160.918 228.548,148.267 226.025,148.267L208.737,148.267C207.648,148.267 206.931,152.144 209.096,156.356C211.26,160.568 209.454,167.593 213.768,170.405C218.083,173.218 238.969,174.982 238.969,174.982L257.331,184.12L260.586,169.006Z" fill="#DEDEDE" stroke="#263238" stroke-width="1" stroke-miterlimit="3.999327" stroke-linecap="round" stroke-linejoin="round"/>
<path d="M226.025,148.267L208.737,148.267C207.648,148.267 206.931,152.144 209.096,156.356C211.26,160.568 209.454,167.593 213.768,170.405C218.083,173.218 238.969,174.982 238.969,174.982L241.223,176.104C243.225,174.766 244.811,172.916 245.806,170.755C246.559,167.67 246.811,164.488 246.553,161.326L245.806,160.918C245.806,160.918 228.548,148.267 226.025,148.267Z" fill="#17C2EC" stroke="#263238" stroke-width="1" stroke-miterlimit="3.999327" stroke-linecap="round" stroke-linejoin="round"/>
<path d="M202.084,147.736L198.276,147.736L198.276,164.736L202.084,164.736L202.084,147.736Z" transform="rotate(126.176 200.18 156.236)" fill="#FFFFFF" stroke="#263238" stroke-width="1" stroke-miterlimit="3.999327" stroke-linecap="round" stroke-linejoin="round"/>
<path d="M191.688,158.25L189.434,161.209L193.42,161.646L191.688,158.25Z" fill="#FFFFFF" stroke="#263238" stroke-width="1" stroke-miterlimit="3.999327" stroke-linecap="round" stroke-linejoin="round"/>
<path d="M189.869,162.109C190.366,161.869 190.575,161.271 190.334,160.774C190.094,160.277 189.496,160.068 188.999,160.309L189.869,162.109ZM180.012,164.652C179.514,164.892 179.306,165.49 179.546,165.987C179.787,166.485 180.385,166.693 180.882,166.453L180.012,164.652ZM188.999,160.309L180.012,164.652L180.882,166.453L189.869,162.109L188.999,160.309Z" fill="#263238"/>
<path d="M207.99,145.731C207.99,145.731 201.944,146.649 202.273,148.733C202.601,150.818 202.691,153.645 205.258,153.616C207.826,153.587 208.976,154.111 209.498,150.482C210.021,146.853 209.573,146.562 207.99,145.731Z" fill="#17C2EC" stroke="#263238" stroke-width="1" stroke-miterlimit="3.999327" stroke-linecap="round" stroke-linejoin="round"/>
<path d="M207.244,155.044C207.244,155.044 203.438,155.044 203.438,157.493C203.438,159.941 204.512,161.005 206.319,161.005C208.125,161.005 216.038,161.005 216.038,158.192C216.038,155.379 214.545,154.68 213.156,154.68C211.768,154.68 207.244,155.044 207.244,155.044Z" fill="#17C2EC" stroke="#263238" stroke-width="1" stroke-miterlimit="3.999327" stroke-linecap="round" stroke-linejoin="round"/>
<path d="M209.275,161.063C209.275,161.063 205.468,161.063 205.468,163.512C205.468,165.96 206.543,167.024 208.349,167.024C210.155,167.024 218.068,167.024 218.068,164.211C218.068,161.399 216.575,160.699 215.187,160.699C213.798,160.699 209.275,161.063 209.275,161.063Z" fill="#17C2EC" stroke="#263238" stroke-width="1" stroke-miterlimit="3.999327" stroke-linecap="round" stroke-linejoin="round"/>
<path d="M212.768,166.266C212.768,166.266 209.409,166.266 209.409,168.409C209.409,170.551 210.365,171.499 211.947,171.499C213.53,171.499 220.501,171.499 220.501,169.035C220.501,166.572 219.232,165.946 217.963,165.946C216.695,165.946 212.768,166.266 212.768,166.266Z" fill="#17C2EC" stroke="#263238" stroke-width="1" stroke-miterlimit="3.999327" stroke-linecap="round" stroke-linejoin="round"/>
<path d="M242.223,159.518L228.145,144.055C228.145,144.055 216.619,146.168 213.38,146.868C210.14,147.567 207.976,148.981 209.782,151.43C211.588,153.878 220.934,152.144 220.934,152.144C220.934,152.144 225.622,164.794 232.459,164.794Z" fill="#17C2EC" stroke="#263238" stroke-width="1" stroke-miterlimit="3.999327" stroke-linecap="round" stroke-linejoin="round"/>
<path d="M269.573,130.005L281.516,171.819L259.496,166.543L252.3,186.218C252.3,186.218 312.404,209.771 316.375,209.421C320.346,209.071 284.337,127.542 283.979,124.365C283.621,121.188 270.663,120.518 269.573,130.005Z" fill="#FFFFFF" stroke="#263238" stroke-width="1" stroke-miterlimit="3.999327" stroke-linecap="round" stroke-linejoin="round"/>
<path d="M280.143,436.649C280.143,436.649 270.051,444.621 263.825,447.42C257.6,450.218 244.149,455.858 243.656,459.604C243.163,463.349 250.867,463.83 263.825,463.83C276.784,463.83 292.101,465.55 295.937,464.617C299.774,463.685 303.178,462.883 303.178,460.07C303.178,457.257 299.804,442.741 299.804,442.741L280.143,436.649Z" fill="#FFFFFF" stroke="#263238" stroke-width="1" stroke-miterlimit="3.999327" stroke-linecap="round" stroke-linejoin="round"/>
<path d="M265.467,460.332C251.763,460.201 246.254,459.356 244.029,458.671C243.842,458.956 243.71,459.272 243.641,459.604C243.163,463.349 250.852,463.83 263.81,463.83C276.769,463.83 292.086,465.55 295.923,464.617C299.759,463.685 303.163,462.883 303.163,460.07C303.149,459.626 303.109,459.183 303.044,458.744C290.569,460.094 278.015,460.625 265.467,460.332L265.467,460.332Z" fill="#FFFFFF" stroke="#263238" stroke-width="1" stroke-miterlimit="3.999327" stroke-linecap="round" stroke-linejoin="round"/>
<path d="M360.76,450.334C360.76,450.334 353.206,457.476 349.548,459.618C345.89,461.761 329.573,468.902 331.036,471.759C332.499,474.615 346.876,477.705 354.43,477.705C361.984,477.705 379.809,472.473 383.183,470.797C384.383,470.106 385.389,469.136 386.113,467.974C386.837,466.812 387.256,465.494 387.333,464.136C387.333,463.189 384.885,455.581 383.676,454.153C382.466,452.725 360.76,450.334 360.76,450.334Z" fill="#FFFFFF" stroke="#263238" stroke-width="1" stroke-miterlimit="3.999327" stroke-linecap="round" stroke-linejoin="round"/>
<path d="M383.183,470.797C384.313,470.158 385.273,469.268 385.987,468.2C386.7,467.131 387.146,465.914 387.288,464.647C381.018,467.285 366.686,472.575 353.937,472.939C343.083,473.26 336.022,470.913 332.424,469.267C331.289,470.243 330.707,471.103 331.035,471.759C332.528,474.601 346.875,477.705 354.429,477.705C361.983,477.705 379.779,472.473 383.183,470.797Z" fill="#FFFFFF" stroke="#263238" stroke-width="1" stroke-miterlimit="3.999327" stroke-linecap="round" stroke-linejoin="round"/>
<path d="M286.368,319.982L282.531,420.72L275.813,424.932L276.291,438.049C276.291,438.049 276.291,443.673 285.89,446.487C292.131,448.191 298.653,448.687 305.089,447.943C305.089,447.943 306.059,435.294 307.015,431.534C307.97,427.774 306.059,421.23 307.015,418.883C307.97,416.537 331.961,326.118 331.961,326.118L335.32,311.135L360.281,442.303L355.967,444.651L355.967,449.795C355.967,449.795 367.477,459.167 372.762,461.455C377.428,463.255 382.242,464.665 387.154,465.667C387.154,465.667 388.646,454.429 389.079,450.203C389.512,445.977 383.317,434.274 383.317,434.274C383.317,434.274 386.676,362.131 387.154,355.091C387.631,348.052 383.795,322.299 383.795,322.299L356.922,242.14L308.926,237.447L286.368,319.982Z" fill="#17C2EC" stroke="#263238" stroke-width="1" stroke-miterlimit="3.999327" stroke-linecap="round" stroke-linejoin="round"/>
<path d="M264.542,92.753C264.348,93.846 264.542,117.705 265.259,121.567C265.975,125.429 282.173,152.173 282.173,152.173L303.775,222.45L281.889,324.675L294.131,330.649L322.198,263.535L320.048,338.025C320.048,338.025 352.802,343.301 370.075,340.837C382.217,338.941 394.235,336.357 406.069,333.099C406.069,333.099 413.265,212.933 411.473,205.544C409.682,198.155 383.675,117.355 361.013,101.892C338.351,86.428 301.297,74.477 296.595,72.743C292.973,71.536 289.229,70.71 285.428,70.28C285.428,70.28 268.453,69.566 264.542,92.753Z" fill="#FFFFFF" stroke="#263238" stroke-width="1" stroke-miterlimit="3.999327" stroke-linecap="round" stroke-linejoin="round"/>
<path d="M369.033,215.212C368.496,215.342 368.167,215.882 368.297,216.419C368.427,216.956 368.967,217.285 369.504,217.155L369.033,215.212ZM375.531,215.508C376.059,215.347 376.357,214.789 376.197,214.26C376.036,213.732 375.478,213.434 374.95,213.594L375.531,215.508ZM369.504,217.155C371.509,216.67 373.498,216.125 375.531,215.508L374.95,213.594C372.952,214.201 370.999,214.735 369.033,215.212L369.504,217.155Z" fill="#263238"/>
<path d="M315.786,217.321C315.239,217.243 314.732,217.623 314.654,218.169C314.575,218.716 314.955,219.223 315.501,219.301L315.786,217.321ZM364.906,218.171C365.448,218.066 365.802,217.541 365.697,216.999C365.592,216.457 365.067,216.102 364.525,216.207L364.906,218.171ZM315.644,218.311C315.501,219.301 315.502,219.301 315.502,219.301C315.502,219.301 315.503,219.301 315.503,219.301C315.504,219.302 315.506,219.302 315.507,219.302C315.511,219.302 315.516,219.303 315.522,219.304C315.535,219.306 315.554,219.309 315.579,219.312C315.628,219.319 315.701,219.329 315.797,219.342C315.989,219.367 316.271,219.404 316.639,219.448C317.374,219.538 318.448,219.66 319.812,219.791C322.539,220.054 326.426,220.356 331.071,220.51C340.356,220.817 352.705,220.537 364.906,218.171L364.525,216.207C352.525,218.534 340.339,218.815 331.138,218.511C326.54,218.358 322.696,218.06 320.004,217.801C318.658,217.671 317.6,217.55 316.88,217.463C316.52,217.419 316.245,217.384 316.061,217.359C315.968,217.347 315.899,217.337 315.853,217.331C315.83,217.328 315.812,217.325 315.801,217.324C315.796,217.323 315.792,217.322 315.789,217.322C315.788,217.322 315.787,217.322 315.786,217.322C315.786,217.321 315.786,217.321 315.786,217.321C315.786,217.321 315.786,217.321 315.644,218.311Z" fill="#263238"/>
<path d="M314.513,220.965C314.168,220.534 313.538,220.465 313.107,220.81C312.676,221.156 312.607,221.785 312.953,222.216L314.513,220.965ZM346.812,230.096C347.364,230.114 347.827,229.682 347.845,229.13C347.863,228.578 347.431,228.115 346.879,228.097L346.812,230.096ZM313.733,221.59C312.953,222.216 312.953,222.217 312.954,222.218C312.955,222.218 312.955,222.219 312.956,222.22C312.957,222.222 312.958,222.223 312.96,222.225C312.963,222.228 312.966,222.232 312.969,222.236C312.976,222.244 312.984,222.254 312.994,222.265C313.013,222.287 313.038,222.315 313.07,222.349C313.133,222.416 313.221,222.505 313.339,222.613C313.574,222.828 313.927,223.118 314.43,223.459C315.435,224.142 317.039,225.028 319.504,225.932C324.43,227.739 332.82,229.627 346.812,230.096L346.879,228.097C333.028,227.633 324.862,225.767 320.193,224.055C317.86,223.199 316.406,222.384 315.553,221.805C315.127,221.515 314.85,221.284 314.689,221.137C314.608,221.063 314.556,221.01 314.528,220.98C314.514,220.965 314.506,220.956 314.504,220.954C314.503,220.952 314.503,220.953 314.505,220.955C314.505,220.955 314.507,220.957 314.508,220.958C314.509,220.959 314.509,220.96 314.51,220.961C314.511,220.962 314.511,220.963 314.512,220.963C314.512,220.964 314.513,220.965 313.733,221.59Z" fill="#263238"/>
<path d="M350.738,250.023C350.222,249.827 349.644,250.087 349.449,250.603C349.253,251.12 349.513,251.697 350.029,251.893L350.738,250.023ZM358.551,254.827C359.078,254.992 359.639,254.698 359.803,254.171C359.968,253.643 359.674,253.083 359.146,252.918L358.551,254.827ZM350.029,251.893C352.766,252.93 355.606,253.908 358.551,254.827L359.146,252.918C356.238,252.01 353.436,251.045 350.738,250.023L350.029,251.893Z" fill="#263238"/>
<path d="M312.872,229.686C312.425,229.362 311.799,229.461 311.475,229.908C311.151,230.355 311.25,230.981 311.698,231.305L312.872,229.686ZM343.411,249.168C343.92,249.383 344.507,249.144 344.721,248.635C344.936,248.127 344.697,247.54 344.188,247.325L343.411,249.168ZM311.698,231.305C321.528,238.434 332.17,244.429 343.411,249.168L344.188,247.325C333.087,242.645 322.578,236.725 312.872,229.686L311.698,231.305Z" fill="#263238"/>
<path d="M321.377,256.729C321.377,257.282 321.825,257.729 322.377,257.729C322.929,257.729 323.377,257.282 323.377,256.729L321.377,256.729ZM322.377,241.28L323.377,241.28C323.377,241.079 323.316,240.883 323.203,240.717L322.377,241.28ZM317.57,234.241L316.871,233.525C316.524,233.865 316.47,234.404 316.744,234.805L317.57,234.241ZM323.81,228.149L324.509,228.864C324.807,228.573 324.893,228.128 324.726,227.747L323.81,228.149ZM320.929,221.59L319.935,221.478C319.915,221.653 319.942,221.831 320.013,221.993L320.929,221.59ZM322.4,217.491C322.462,216.942 322.068,216.447 321.519,216.385C320.971,216.323 320.475,216.717 320.413,217.266L322.4,217.491ZM323.377,256.729L323.377,241.28L321.377,241.28L321.377,256.729L323.377,256.729ZM323.203,240.717L318.396,233.677L316.744,234.805L321.551,241.844L323.203,240.717ZM318.268,234.957L324.509,228.864L323.112,227.433L316.871,233.525L318.268,234.957ZM324.726,227.747L321.844,221.188L320.013,221.993L322.895,228.551L324.726,227.747ZM321.922,221.703L322.4,217.491L320.413,217.266L319.935,221.478L321.922,221.703Z" fill="#263238"/>
<path d="M273.902,99.428L286.129,148.267L288.458,71.65L285.413,70.265L273.902,99.428Z" fill="#17C2EC" stroke="#263238" stroke-width="1" stroke-miterlimit="3.999327" stroke-linecap="round" stroke-linejoin="round"/>
<path d="M278.366,24.196C278.366,24.196 277.396,11.443 281.755,8.601C286.114,5.759 287.562,12.376 287.562,12.376C287.562,12.376 292.399,-0.843 298.207,0.105C304.014,1.052 304.014,2.932 304.014,2.932C304.014,2.932 313.688,-2.737 317.555,1.037C318.712,2.233 319.608,3.644 320.191,5.187C320.773,6.73 321.029,8.373 320.944,10.015C320.944,10.015 332.081,8.135 334.021,13.323C335.962,18.512 328.692,25.61 328.692,25.61C329.672,26.79 330.393,28.155 330.809,29.619C331.225,31.084 331.328,32.616 331.11,34.121C330.633,39.79 324.332,42.151 324.332,42.151C324.332,42.151 331.11,45.926 328.214,51.115C325.318,56.303 319.018,56.318 319.018,56.318C319.018,56.318 321.436,64.348 314.166,65.762C309.674,66.602 305.045,66.443 300.625,65.295L295.788,68.123L284.651,56.784L278.366,24.196Z" fill="#263238" stroke="#263238" stroke-width="1" stroke-miterlimit="3.999327" stroke-linecap="round" stroke-linejoin="round"/>
<path d="M220.352,36.03C215.306,46.014 212.439,58.373 217.873,66.709C224.651,77.101 229.966,84.198 230.459,87.026C230.951,89.853 229.966,97.417 232.384,98.365C234.803,99.312 245.462,107.809 249.329,109.703C253.195,111.598 259.973,113.012 262.392,110.651C264.81,108.29 269.17,99.312 269.17,99.312L284.696,114.076L287.592,73.442L286.592,70.528C286.592,70.528 298.206,56.813 286.592,30.842C281.187,18.745 266.617,14.096 254.017,14.548C238.475,15.058 227.159,22.564 220.352,36.03Z" fill="#DEDEDE" stroke="#263238" stroke-width="1" stroke-miterlimit="3.999327" stroke-linecap="round" stroke-linejoin="round"/>
<path d="M270.14,91.748L261.914,78.995L270.618,62.453C270.618,62.453 260.451,77.028 255.136,80.409C250.389,83.324 234.146,90.422 230.653,91.937C230.653,94.852 230.936,97.767 232.385,98.365C234.803,99.312 245.462,107.809 249.329,109.703C253.196,111.598 259.973,113.012 262.392,110.651C264.81,108.29 269.17,99.312 269.17,99.312L278.366,76.168L270.14,91.748Z" fill="#17C2EC" stroke="#263238" stroke-width="1" stroke-miterlimit="3.999327" stroke-linecap="round" stroke-linejoin="round"/>
<path d="M270.14,70.44C270.14,70.44 268.199,59.101 273.036,57.673C277.873,56.245 283.964,64.887 282.725,70.907C280.934,79.447 269.423,79.374 272.559,75.162Z" fill="#DEDEDE" stroke="#263238" stroke-width="1" stroke-miterlimit="3.999327" stroke-linecap="round" stroke-linejoin="round"/>
<path d="M286.592,70.44C286.592,70.44 298.207,56.726 286.592,30.754C281.188,18.658 266.617,14.008 254.017,14.46C238.476,15.014 227.145,22.505 220.352,35.972C217.629,41.191 215.856,46.833 215.112,52.645C215.828,53.388 219.113,56.332 224.651,53.432C230.937,50.124 236.744,39.732 244.492,44.454C252.24,49.176 243.999,64.29 252.225,63.401C260.451,62.512 273.529,60.092 275.948,62.453C278.366,64.815 285.233,72.364 288.458,71.65L286.592,70.44Z" fill="#263238" stroke="#263238" stroke-width="1" stroke-miterlimit="3.999327" stroke-linecap="round" stroke-linejoin="round"/>
<path d="M246.352,69.601C245.848,69.826 245.623,70.418 245.849,70.922C246.075,71.426 246.666,71.652 247.17,71.426L246.352,69.601ZM271.49,60.524C271.994,60.298 272.219,59.706 271.993,59.202C271.767,58.698 271.175,58.473 270.671,58.699L271.49,60.524ZM247.17,71.426L271.49,60.524L270.671,58.699L246.352,69.601L247.17,71.426Z" fill="#263238"/>
<path d="M230.041,77.917L229.636,77.002C229.38,77.116 229.184,77.331 229.094,77.596C229.004,77.86 229.029,78.151 229.163,78.396L230.041,77.917ZM246.761,70.513L247.658,70.07C247.42,69.589 246.846,69.382 246.357,69.599L246.761,70.513ZM249.299,75.643L250.197,75.202L250.196,75.2L249.299,75.643ZM247.612,80.394L247.181,79.492L247.18,79.493L247.612,80.394ZM237.879,85.058L237.447,84.156L237.44,84.159L237.879,85.058ZM233.146,83.601L232.269,84.08L232.272,84.086L233.146,83.601ZM230.446,78.831L247.166,71.427L246.357,69.599L229.636,77.002L230.446,78.831ZM245.865,70.956L248.403,76.087L250.196,75.2L247.658,70.07L245.865,70.956ZM248.402,76.084C248.701,76.692 248.741,77.388 248.516,78.023L250.4,78.692C250.807,77.548 250.733,76.292 250.197,75.202L248.402,76.084ZM248.516,78.023C248.29,78.659 247.813,79.19 247.181,79.492L248.044,81.296C249.144,80.77 249.994,79.836 250.4,78.692L248.516,78.023ZM247.18,79.493L237.447,84.156L238.311,85.96L248.045,81.296L247.18,79.493ZM237.44,84.159C236.841,84.452 236.146,84.506 235.505,84.308L234.916,86.22C236.041,86.566 237.26,86.473 238.317,85.957L237.44,84.159ZM235.505,84.308C234.864,84.111 234.334,83.681 234.021,83.116L232.272,84.086C232.84,85.111 233.791,85.873 234.916,86.22L235.505,84.308ZM234.024,83.121L230.919,77.437L229.163,78.396L232.269,84.08L234.024,83.121Z" fill="#263238"/>
<path d="M215.291,85.116L214.837,84.226C214.583,84.355 214.396,84.587 214.324,84.863C214.251,85.139 214.3,85.433 214.459,85.671L215.291,85.116ZM226.727,79.287L227.623,78.843C227.504,78.604 227.295,78.422 227.041,78.338C226.787,78.253 226.511,78.274 226.272,78.396L226.727,79.287ZM229.265,84.417L230.162,83.975L230.161,83.973L229.265,84.417ZM227.578,89.154L227.992,90.064L228.007,90.056L227.578,89.154ZM223.099,91.194L222.684,90.284L222.66,90.295L223.099,91.194ZM218.366,89.737L219.241,89.252C219.228,89.228 219.214,89.205 219.199,89.182L218.366,89.737ZM215.745,86.007L227.181,80.178L226.272,78.396L214.837,84.226L215.745,86.007ZM225.83,79.73L228.368,84.86L230.161,83.973L227.623,78.843L225.83,79.73ZM228.367,84.859C228.665,85.464 228.705,86.157 228.48,86.789L230.364,87.46C230.771,86.318 230.698,85.064 230.162,83.975L228.367,84.859ZM228.48,86.789C228.254,87.423 227.778,87.95 227.148,88.251L228.007,90.056C229.107,89.533 229.957,88.602 230.364,87.46L228.48,86.789ZM227.163,88.244L222.684,90.284L223.513,92.104L227.992,90.064L227.163,88.244ZM222.66,90.295C222.061,90.588 221.366,90.642 220.725,90.444L220.136,92.356C221.261,92.702 222.48,92.608 223.537,92.093L222.66,90.295ZM220.725,90.444C220.084,90.247 219.554,89.816 219.241,89.252L217.492,90.222C218.06,91.247 219.011,92.009 220.136,92.356L220.725,90.444ZM219.199,89.182L216.123,84.562L214.459,85.671L217.534,90.291L219.199,89.182Z" fill="#263238"/>
<path d="M226.331,78.427C225.824,78.645 225.59,79.234 225.808,79.741C226.027,80.248 226.615,80.482 227.122,80.263L226.331,78.427ZM230.437,78.835C230.944,78.617 231.178,78.028 230.959,77.521C230.741,77.014 230.152,76.78 229.645,76.998L230.437,78.835ZM227.122,80.263L230.437,78.835L229.645,76.998L226.331,78.427L227.122,80.263Z" fill="#263238"/>
<path d="M227.692,80.352C227.178,80.552 226.923,81.132 227.123,81.646C227.324,82.161 227.904,82.416 228.418,82.215L227.692,80.352ZM231.374,81.064C231.889,80.863 232.143,80.284 231.943,79.769C231.742,79.255 231.163,79 230.648,79.2L231.374,81.064ZM228.418,82.215L231.374,81.064L230.648,79.2L227.692,80.352L228.418,82.215Z" fill="#263238"/>
<path d="M239.01,76.724C238.818,76.206 238.243,75.942 237.725,76.134C237.207,76.326 236.943,76.902 237.135,77.419L239.01,76.724ZM239.566,81.094L238.628,81.442C238.82,81.96 239.395,82.224 239.913,82.032L239.566,81.094ZM248.024,77.109C248.366,76.676 248.293,76.047 247.859,75.704C247.426,75.362 246.797,75.435 246.455,75.868L248.024,77.109ZM237.135,77.419L238.628,81.442L240.503,80.746L239.01,76.724L237.135,77.419ZM239.566,81.094C239.913,82.032 239.913,82.032 239.913,82.032C239.914,82.032 239.914,82.031 239.914,82.031C239.914,82.031 239.915,82.031 239.915,82.031C239.916,82.031 239.918,82.03 239.919,82.029C239.923,82.028 239.928,82.026 239.934,82.024C239.946,82.019 239.963,82.013 239.986,82.004C240.031,81.987 240.096,81.962 240.18,81.929C240.346,81.864 240.583,81.769 240.874,81.647C241.455,81.404 242.251,81.052 243.112,80.619C244.784,79.78 246.887,78.546 248.024,77.109L246.455,75.868C245.62,76.924 243.887,77.992 242.215,78.832C241.404,79.239 240.651,79.572 240.101,79.803C239.826,79.918 239.603,80.007 239.45,80.067C239.373,80.097 239.314,80.12 239.274,80.135C239.255,80.143 239.24,80.148 239.231,80.152C239.226,80.153 239.222,80.155 239.22,80.155C239.219,80.156 239.219,80.156 239.218,80.156C239.218,80.156 239.218,80.156 239.218,80.156C239.218,80.156 239.218,80.156 239.218,80.156C239.218,80.156 239.218,80.156 239.566,81.094Z" fill="#263238"/>
<path d="M232.463,73.66C232.067,74.045 232.06,74.679 232.446,75.074C232.831,75.469 233.464,75.477 233.86,75.091L232.463,73.66ZM245.288,70.579C245.84,70.609 246.311,70.187 246.342,69.635C246.372,69.084 245.95,68.612 245.398,68.582L245.288,70.579ZM233.161,74.375C233.86,75.091 233.859,75.091 233.859,75.091C233.859,75.091 233.859,75.091 233.859,75.091C233.859,75.092 233.859,75.092 233.859,75.092C233.859,75.092 233.859,75.091 233.86,75.091C233.861,75.09 233.863,75.087 233.867,75.084C233.875,75.076 233.887,75.064 233.905,75.048C233.94,75.016 233.994,74.966 234.067,74.901C234.212,74.772 234.432,74.583 234.718,74.356C235.291,73.902 236.127,73.297 237.167,72.704C239.257,71.512 242.108,70.404 245.288,70.579L245.398,68.582C241.696,68.378 238.456,69.667 236.176,70.967C235.031,71.62 234.111,72.285 233.476,72.789C233.157,73.041 232.909,73.254 232.738,73.406C232.652,73.482 232.586,73.543 232.54,73.586C232.517,73.608 232.499,73.625 232.486,73.637C232.479,73.643 232.474,73.648 232.47,73.652C232.468,73.654 232.467,73.656 232.465,73.657C232.465,73.657 232.464,73.658 232.464,73.658C232.464,73.659 232.463,73.659 232.463,73.659C232.463,73.659 232.463,73.66 233.161,74.375Z" fill="#263238"/>
<path d="M222.069,184.819C222.069,184.819 200.825,175.681 199.675,175.332C198.526,174.982 183.477,168.657 181.313,169.006C179.148,169.356 170.161,177.445 168.354,178.844C166.548,180.243 160.083,188.332 161.158,190.504C162.233,192.675 164.756,189.44 164.756,189.44C164.756,189.44 162.606,192.602 165.115,192.952C167.623,193.302 169.071,190.504 169.071,190.504C169.071,190.504 168.354,193.316 170.564,193.666C172.773,194.016 174.52,191.203 174.52,191.203C174.52,191.203 176.326,193.666 177.759,193.666C179.193,193.666 185.314,186.991 185.314,186.991C185.314,186.991 189.643,190.853 193.241,191.553C196.839,192.252 206.199,190.095 206.199,190.095L222.397,198.17L222.069,184.819Z" fill="#DEDEDE" stroke="#263238" stroke-width="1" stroke-miterlimit="3.999327" stroke-linecap="round" stroke-linejoin="round"/>
<path d="M213.067,188.682C213.678,186.206 213.805,183.639 213.44,181.118C207.468,178.538 200.362,175.536 199.75,175.288C198.675,174.938 183.552,168.613 181.387,168.963C179.223,169.312 170.235,177.401 168.429,178.8C166.622,180.199 160.158,188.288 161.233,190.46C162.308,192.631 164.831,189.396 164.831,189.396C164.831,189.396 162.681,192.558 165.189,192.908C167.697,193.258 169.145,190.46 169.145,190.46C169.145,190.46 168.429,193.273 170.638,193.622C172.848,193.972 174.595,191.159 174.595,191.159C174.595,191.159 176.401,193.622 177.834,193.622C179.267,193.622 185.388,186.947 185.388,186.947C185.388,186.947 189.718,190.809 193.315,191.509C196.913,192.209 206.274,190.052 206.274,190.052L211.29,192.544C212.004,191.313 212.599,190.02 213.067,188.682L213.067,188.682Z" fill="#17C2EC" stroke="#263238" stroke-width="1" stroke-miterlimit="3.999327" stroke-linecap="round" stroke-linejoin="round"/>
<path d="M173.791,190.493C173.431,190.912 173.479,191.544 173.898,191.903C174.317,192.263 174.949,192.215 175.309,191.796L173.791,190.493ZM184.669,180.895C185.029,180.476 184.981,179.844 184.562,179.484C184.143,179.125 183.511,179.173 183.152,179.592L184.669,180.895ZM175.309,191.796L184.669,180.895L183.152,179.592L173.791,190.493L175.309,191.796Z" fill="#263238"/>
<path d="M169.146,190.445C169.146,190.445 174.55,181.307 175.998,180.243C177.446,179.179 182.477,175.332 182.477,175.332Z" fill="#FFFFFF" stroke="#263238" stroke-width="1" stroke-miterlimit="3.999327" stroke-linecap="round" stroke-linejoin="round"/>
<path d="M164.831,189.381L172.027,179.194L179.238,174.282Z" fill="#FFFFFF" stroke="#263238" stroke-width="1" stroke-miterlimit="3.999327" stroke-linecap="round" stroke-linejoin="round"/>
<path d="M306.298,102.241C306.298,102.241 297.341,107.517 296.579,115.941C295.818,124.365 285.054,194.322 285.054,194.322L220.979,182.663L217.381,211.126C217.381,211.126 307.373,229.053 308.806,226.939C310.239,224.826 338.321,141.199 338.321,141.199Z" fill="#FFFFFF" stroke="#263238" stroke-width="1" stroke-miterlimit="3.999327" stroke-linecap="round" stroke-linejoin="round"/>
<path d="M307.339,188.419C306.808,188.57 306.499,189.122 306.65,189.654C306.8,190.185 307.353,190.494 307.884,190.343L307.339,188.419ZM313.795,188.586C314.321,188.42 314.614,187.858 314.448,187.332C314.281,186.805 313.72,186.513 313.193,186.679L313.795,188.586ZM307.884,190.343C309.846,189.788 311.841,189.202 313.795,188.586L313.193,186.679C311.265,187.287 309.289,187.867 307.339,188.419L307.884,190.343Z" fill="#263238"/>
<path d="M287.376,193.342C286.835,193.453 286.487,193.982 286.598,194.523C286.708,195.064 287.237,195.412 287.778,195.302L287.376,193.342ZM304.094,191.396C304.628,191.253 304.944,190.705 304.801,190.171C304.657,189.638 304.109,189.322 303.576,189.465L304.094,191.396ZM287.577,194.322C287.778,195.302 287.778,195.302 287.778,195.301C287.778,195.301 287.778,195.301 287.778,195.301C287.779,195.301 287.779,195.301 287.78,195.301C287.781,195.301 287.782,195.301 287.784,195.3C287.788,195.3 287.793,195.298 287.801,195.297C287.816,195.294 287.837,195.289 287.866,195.283C287.924,195.271 288.009,195.254 288.121,195.23C288.343,195.183 288.671,195.114 289.091,195.023C289.932,194.842 291.144,194.576 292.631,194.236C295.605,193.557 299.682,192.581 304.094,191.396L303.576,189.465C299.194,190.641 295.143,191.611 292.186,192.287C290.708,192.625 289.504,192.889 288.67,193.068C288.253,193.158 287.929,193.227 287.71,193.273C287.6,193.296 287.516,193.313 287.46,193.325C287.432,193.331 287.411,193.335 287.397,193.338C287.39,193.339 287.385,193.341 287.381,193.341C287.379,193.342 287.378,193.342 287.377,193.342C287.377,193.342 287.377,193.342 287.377,193.342C287.376,193.342 287.376,193.342 287.376,193.342C287.376,193.342 287.376,193.342 287.577,194.322Z" fill="#263238"/>
<path d="M316.038,172.293C316.485,171.968 316.583,171.342 316.258,170.896C315.933,170.449 315.308,170.35 314.861,170.675L316.038,172.293ZM287.512,188.825C287.011,189.059 286.796,189.655 287.03,190.155C287.264,190.655 287.859,190.871 288.359,190.637L287.512,188.825ZM314.861,170.675C310.558,173.806 305.138,177.683 300.074,181.113C294.988,184.558 290.326,187.508 287.512,188.825L288.359,190.637C291.338,189.243 296.126,186.203 301.195,182.769C306.286,179.32 311.727,175.429 316.038,172.293L314.861,170.675Z" fill="#263238"/>
<path d="M324.163,166.3C324.608,165.973 324.704,165.347 324.377,164.902C324.051,164.457 323.425,164.361 322.979,164.688L324.163,166.3ZM317.913,168.437C317.47,168.767 317.378,169.393 317.708,169.836C318.038,170.279 318.664,170.371 319.107,170.042L317.913,168.437ZM323.571,165.494C322.979,164.688 322.979,164.688 322.979,164.688C322.979,164.688 322.979,164.688 322.979,164.688C322.979,164.688 322.979,164.688 322.979,164.688C322.979,164.688 322.978,164.688 322.978,164.689C322.977,164.69 322.975,164.691 322.974,164.692C322.97,164.695 322.964,164.699 322.956,164.705C322.941,164.716 322.918,164.733 322.888,164.755C322.827,164.8 322.737,164.866 322.62,164.952C322.386,165.125 322.041,165.379 321.6,165.704C320.718,166.355 319.452,167.292 317.913,168.437L319.107,170.042C320.644,168.898 321.908,167.963 322.788,167.313C323.228,166.988 323.572,166.735 323.806,166.563C323.923,166.477 324.012,166.411 324.072,166.367C324.102,166.345 324.125,166.328 324.14,166.317C324.148,166.311 324.153,166.307 324.157,166.304C324.159,166.303 324.161,166.302 324.162,166.301C324.162,166.301 324.162,166.3 324.163,166.3C324.163,166.3 324.163,166.3 324.163,166.3C324.163,166.3 324.163,166.3 324.163,166.3C324.163,166.3 324.163,166.3 323.571,165.494Z" fill="#263238"/>
<path d="M314.624,155.228C314.975,154.802 314.914,154.172 314.488,153.821C314.062,153.469 313.432,153.53 313.081,153.956L314.624,155.228ZM297.371,172.102C296.947,172.457 296.891,173.087 297.246,173.511C297.601,173.934 298.231,173.99 298.655,173.635L297.371,172.102ZM313.852,154.592C313.081,153.956 313.081,153.957 313.08,153.957C313.08,153.957 313.08,153.957 313.08,153.957C313.08,153.958 313.079,153.958 313.078,153.959C313.077,153.961 313.074,153.964 313.071,153.968C313.065,153.976 313.055,153.987 313.043,154.003C313.017,154.033 312.98,154.078 312.931,154.138C312.833,154.256 312.689,154.431 312.505,154.654C312.136,155.099 311.607,155.738 310.963,156.511C309.677,158.058 307.935,160.142 306.115,162.292C304.295,164.442 302.399,166.654 300.803,168.459C299.182,170.292 297.931,171.632 297.371,172.102L298.655,173.635C299.356,173.048 300.716,171.576 302.301,169.784C303.911,167.964 305.818,165.739 307.642,163.584C309.467,161.429 311.212,159.34 312.501,157.79C313.146,157.015 313.676,156.375 314.046,155.928C314.231,155.705 314.375,155.53 314.473,155.411C314.523,155.351 314.56,155.306 314.586,155.275C314.598,155.26 314.608,155.248 314.614,155.24C314.618,155.236 314.62,155.233 314.622,155.231C314.622,155.23 314.623,155.23 314.624,155.229C314.624,155.229 314.624,155.229 314.624,155.228C314.624,155.228 314.624,155.228 313.852,154.592Z" fill="#263238"/>
</svg>
