<svg width="166" height="316" viewBox="0 0 166 316" fill="none" xmlns="http://www.w3.org/2000/svg" xmlns:xlink="http://www.w3.org/1999/xlink">
<path d="M139.463,-0.459L24.584,-0.459L24.584,81.493L139.463,81.493L139.463,-0.459Z" fill="#999999" stroke="#263238" stroke-width="1" stroke-miterlimit="3.999327" stroke-linecap="round" stroke-linejoin="round"/>
<path d="M21.941,77.179L142.105,77.179C148.044,77.179 153.74,79.482 157.94,83.582C162.139,87.682 164.498,93.242 164.498,99.04L164.498,298.417C164.498,302.669 162.768,306.747 159.689,309.753C156.609,312.759 152.432,314.449 148.077,314.449L15.97,314.449C11.614,314.449 7.437,312.759 4.358,309.753C1.278,306.747 -0.452,302.669 -0.452,298.417L-0.452,99.04C-0.452,93.242 1.907,87.682 6.107,83.582C10.306,79.482 16.002,77.179 21.941,77.179Z" fill="#999999" stroke="#263238" stroke-width="1" stroke-miterlimit="3.999327" stroke-linecap="round" stroke-linejoin="round"/>
<path d="M149.764,-0.459L14.268,-0.459L14.268,52.738L149.764,52.738L149.764,-0.459Z" fill="#DBDBDB" stroke="#263238" stroke-width="1" stroke-miterlimit="3.999327" stroke-linecap="round" stroke-linejoin="round"/>
<path d="M38.229,-0.459L18.911,-0.459L18.911,52.738L38.229,52.738L38.229,-0.459Z" fill="#263238" stroke="#263238" stroke-width="1" stroke-miterlimit="3.999327" stroke-linecap="round" stroke-linejoin="round"/>
<path d="M48.052,-0.459L43.484,-0.459L43.484,52.738L48.052,52.738L48.052,-0.459Z" fill="#263238" stroke="#263238" stroke-width="1" stroke-miterlimit="3.999327" stroke-linecap="round" stroke-linejoin="round"/>
<path d="M127.041,0.722L111.948,0.722L111.948,51.557L127.041,51.557L127.041,0.722Z" fill="#FFFFFF"/>
<path d="M157.123,-0.459L6.908,-0.459L6.908,28.297L157.123,28.297L157.123,-0.459Z" fill="#17C2EC" stroke="#263238" stroke-width="1" stroke-miterlimit="3.999327" stroke-linecap="round" stroke-linejoin="round"/>
</svg>
