<svg width="22" height="14" viewBox="0 0 22 14" fill="none" xmlns="http://www.w3.org/2000/svg" xmlns:xlink="http://www.w3.org/1999/xlink">
<path d="M12.059,12.48C16.95,11.216 20.058,7.921 18.998,5.122C17.939,2.322 13.115,1.078 8.222,2.342C3.331,3.606 0.224,6.9 1.283,9.7C2.342,12.5 7.166,13.744 12.059,12.48Z" fill="#6153BD"/>
<path d="M12.059,12.48L12.309,13.448L12.309,13.448L12.059,12.48ZM18.998,5.122L18.063,5.475L18.063,5.476L18.998,5.122ZM8.222,2.342L7.972,1.373L7.972,1.373L8.222,2.342ZM1.283,9.7L2.219,9.346L2.219,9.346L1.283,9.7ZM12.309,13.448C14.895,12.78 17.075,11.56 18.488,10.063C19.894,8.572 20.648,6.657 19.933,4.768L18.063,5.476C18.408,6.386 18.139,7.518 17.033,8.691C15.933,9.856 14.115,10.916 11.809,11.512L12.309,13.448ZM19.933,4.768C19.239,2.933 17.396,1.781 15.298,1.239C13.164,0.689 10.562,0.704 7.972,1.373L8.472,3.31C10.775,2.715 13.031,2.72 14.798,3.176C16.6,3.641 17.698,4.511 18.063,5.475L19.933,4.768ZM7.972,1.373C5.387,2.042 3.206,3.261 1.794,4.759C0.388,6.249 -0.367,8.165 0.348,10.054L2.219,9.346C1.874,8.435 2.143,7.303 3.249,6.131C4.348,4.965 6.167,3.906 8.472,3.31L7.972,1.373ZM0.348,10.054C1.042,11.889 2.885,13.041 4.984,13.582C7.117,14.133 9.719,14.117 12.309,13.448L11.809,11.512C9.506,12.107 7.25,12.101 5.483,11.646C3.682,11.181 2.583,10.311 2.219,9.346L0.348,10.054Z" fill="#120071"/>
</svg>
