<svg width="38" height="32" viewBox="0 0 38 32" fill="none" xmlns="http://www.w3.org/2000/svg" xmlns:xlink="http://www.w3.org/1999/xlink">
<path d="M4.667,4.667L31.333,4.667L31.333,0.667L4.667,0.667L4.667,4.667ZM31.333,4.667C32.062,4.667 32.667,5.271 32.667,6L36.667,6C36.667,3.062 34.271,0.667 31.333,0.667L31.333,4.667ZM32.667,6L32.667,26L36.667,26L36.667,6L32.667,6ZM32.667,26C32.667,26.729 32.062,27.333 31.333,27.333L31.333,31.333C34.271,31.333 36.667,28.938 36.667,26L32.667,26ZM31.333,27.333L4.667,27.333L4.667,31.333L31.333,31.333L31.333,27.333ZM4.667,27.333C3.938,27.333 3.333,26.729 3.333,26L-0.667,26C-0.667,28.938 1.729,31.333 4.667,31.333L4.667,27.333ZM3.333,26L3.333,6L-0.667,6L-0.667,26L3.333,26ZM3.333,6C3.333,5.271 3.938,4.667 4.667,4.667L4.667,0.667C1.729,0.667 -0.667,3.062 -0.667,6L3.333,6Z" fill="#000000" fill-opacity="0.25"/>
<path d="M35.813,7.638C36.718,7.005 36.938,5.758 36.305,4.853C35.672,3.948 34.425,3.728 33.52,4.362L35.813,7.638ZM18,17.667L16.853,19.305C17.542,19.787 18.458,19.787 19.147,19.305L18,17.667ZM2.48,4.362C1.575,3.728 0.328,3.948 -0.305,4.853C-0.939,5.758 -0.719,7.005 0.186,7.638L2.48,4.362ZM33.52,4.362L16.853,16.028L19.147,19.305L35.813,7.638L33.52,4.362ZM19.147,16.028L2.48,4.362L0.186,7.638L16.853,19.305L19.147,16.028Z" fill="#000000" fill-opacity="0.25"/>
</svg>
