<svg width="50" height="56" viewBox="0 0 50 56" fill="none" xmlns="http://www.w3.org/2000/svg" xmlns:xlink="http://www.w3.org/1999/xlink">
<path d="M1.5,20.5L0.272,18.921C-0.215,19.3 -0.5,19.883 -0.5,20.5L1.5,20.5ZM24,3L25.228,1.421C24.506,0.86 23.494,0.86 22.772,1.421L24,3ZM46.5,20.5L48.5,20.5C48.5,19.883 48.215,19.3 47.728,18.921L46.5,20.5ZM1.5,48L-0.5,48L1.5,48ZM2.728,22.079L25.228,4.579L22.772,1.421L0.272,18.921L2.728,22.079ZM22.772,4.579L45.272,22.079L47.728,18.921L25.228,1.421L22.772,4.579ZM44.5,20.5L44.5,48L48.5,48L48.5,20.5L44.5,20.5ZM44.5,48C44.5,48.796 44.184,49.559 43.621,50.121L46.45,52.95C47.763,51.637 48.5,49.857 48.5,48L44.5,48ZM43.621,50.121C43.059,50.684 42.296,51 41.5,51L41.5,55C43.357,55 45.137,54.263 46.45,52.95L43.621,50.121ZM41.5,51L6.5,51L6.5,55L41.5,55L41.5,51ZM6.5,51C5.704,51 4.941,50.684 4.379,50.121L1.55,52.95C2.863,54.263 4.643,55 6.5,55L6.5,51ZM4.379,50.121C3.816,49.559 3.5,48.796 3.5,48L-0.5,48C-0.5,49.857 0.237,51.637 1.55,52.95L4.379,50.121ZM3.5,48L3.5,20.5L-0.5,20.5L-0.5,48L3.5,48Z" fill="#17C2EC" fill-opacity="0.5"/>
<path d="M14.5,53C14.5,54.105 15.395,55 16.5,55C17.605,55 18.5,54.105 18.5,53L14.5,53ZM16.5,28L16.5,26C15.395,26 14.5,26.895 14.5,28L16.5,28ZM31.5,28L33.5,28C33.5,26.895 32.605,26 31.5,26L31.5,28ZM29.5,53C29.5,54.105 30.395,55 31.5,55C32.605,55 33.5,54.105 33.5,53L29.5,53ZM18.5,53L18.5,28L14.5,28L14.5,53L18.5,53ZM16.5,30L31.5,30L31.5,26L16.5,26L16.5,30ZM29.5,28L29.5,53L33.5,53L33.5,28L29.5,28Z" fill="#17C2EC" fill-opacity="0.5"/>
</svg>
