<svg width="44" height="54" viewBox="0 0 44 54" fill="none" xmlns="http://www.w3.org/2000/svg" xmlns:xlink="http://www.w3.org/1999/xlink">
<path d="M32,4C30.895,4 30,4.895 30,6C30,7.105 30.895,8 32,8L32,4ZM37,6L37,4L37,6ZM2,46L0,46L2,46ZM7,6L7,4L7,6ZM12,8C13.105,8 14,7.105 14,6C14,4.895 13.105,4 12,4L12,8ZM32,8L37,8L37,4L32,4L32,8ZM37,8C37.796,8 38.559,8.316 39.121,8.879L41.95,6.05C40.637,4.737 38.857,4 37,4L37,8ZM39.121,8.879C39.684,9.441 40,10.204 40,11L44,11C44,9.143 43.263,7.363 41.95,6.05L39.121,8.879ZM40,11L40,46L44,46L44,11L40,11ZM40,46C40,46.796 39.684,47.559 39.121,48.121L41.95,50.95C43.263,49.637 44,47.857 44,46L40,46ZM39.121,48.121C38.559,48.684 37.796,49 37,49L37,53C38.857,53 40.637,52.263 41.95,50.95L39.121,48.121ZM37,49L7,49L7,53L37,53L37,49ZM7,49C6.204,49 5.441,48.684 4.879,48.121L2.05,50.95C3.363,52.263 5.143,53 7,53L7,49ZM4.879,48.121C4.316,47.559 4,46.796 4,46L0,46C0,47.857 0.737,49.637 2.05,50.95L4.879,48.121ZM4,46L4,11L0,11L0,46L4,46ZM4,11C4,10.204 4.316,9.441 4.879,8.879L2.05,6.05C0.737,7.363 0,9.143 0,11L4,11ZM4.879,8.879C5.441,8.316 6.204,8 7,8L7,4C5.143,4 3.363,4.737 2.05,6.05L4.879,8.879ZM7,8L12,8L12,4L7,4L7,8Z" fill="#17C2EC"/>
<path d="M14.5,3L29.5,3L29.5,-1L14.5,-1L14.5,3ZM29.5,3C29.776,3 30,3.224 30,3.5L34,3.5C34,1.015 31.985,-1 29.5,-1L29.5,3ZM30,3.5L30,8.5L34,8.5L34,3.5L30,3.5ZM30,8.5C30,8.776 29.776,9 29.5,9L29.5,13C31.985,13 34,10.985 34,8.5L30,8.5ZM29.5,9L14.5,9L14.5,13L29.5,13L29.5,9ZM14.5,9C14.224,9 14,8.776 14,8.5L10,8.5C10,10.985 12.015,13 14.5,13L14.5,9ZM14,8.5L14,3.5L10,3.5L10,8.5L14,8.5ZM14,3.5C14,3.224 14.224,3 14.5,3L14.5,-1C12.015,-1 10,1.015 10,3.5L14,3.5Z" fill="#17C2EC"/>
</svg>
