<svg width="202" height="124" viewBox="0 0 202 124" fill="none" xmlns="http://www.w3.org/2000/svg" xmlns:xlink="http://www.w3.org/1999/xlink">
<path d="M2.223,44.889L122.295,113.193C123.808,114.059 125.526,114.515 127.275,114.515C129.025,114.515 130.743,114.059 132.256,113.193L199.06,75.155C199.511,74.898 199.885,74.529 200.145,74.084C200.405,73.64 200.542,73.136 200.542,72.622C200.542,72.109 200.405,71.605 200.145,71.161C199.885,70.716 199.511,70.347 199.06,70.09L79.02,1.959C77.51,1.102 75.798,0.65 74.055,0.65C72.313,0.65 70.601,1.102 69.091,1.959L2.239,39.808C1.787,40.065 1.413,40.435 1.151,40.88C0.89,41.325 0.752,41.83 0.751,42.344C0.749,42.858 0.884,43.363 1.142,43.81C1.401,44.256 1.773,44.628 2.223,44.889L2.223,44.889Z" fill="#E0E0E0"/>
<path d="M125.568,111.524C118.384,111.524 112.303,113.79 110.164,116.936C112.303,120.082 118.384,122.363 125.568,122.363C132.751,122.363 138.833,120.082 140.988,116.936C138.833,113.79 132.751,111.524 125.568,111.524Z" fill="#E0E0E0"/>
</svg>
