<svg width="54" height="86" viewBox="0 0 54 86" fill="none" xmlns="http://www.w3.org/2000/svg" xmlns:xlink="http://www.w3.org/1999/xlink">
<path d="M0.867,1.002L0.867,56.485L49.633,84.219L49.633,28.736L0.867,1.002Z" fill="#FAFAFA"/>
<path d="M6.15,3.991L49.697,28.735L49.697,78.209L6.214,53.48L6.214,3.991L6.15,3.991ZM3.565,-0.508L0.931,1.065L0.931,56.548L49.697,84.219L52.331,82.646L52.331,27.241L3.501,-0.508L3.565,-0.508Z" fill="#E0E0E0"/>
<path d="M3.501,5.485L46.983,30.23L46.983,79.704L3.501,54.959L3.501,5.485ZM0.867,0.986L0.867,56.469L49.697,84.219L49.697,28.735L0.867,1.002L0.867,0.986Z" fill="#EBEBEB"/>
<path d="M8.018,43.79L44.908,64.775L34.005,36.837L26.471,45.662L18.745,34.839L8.018,43.79Z" fill="#E0E0E0"/>
<path d="M20.82,26.36C20.883,27.511 21.221,28.631 21.806,29.629C22.391,30.627 23.208,31.474 24.188,32.102C26.04,33.156 27.557,32.291 27.557,30.183C27.491,29.033 27.153,27.914 26.567,26.916C25.982,25.919 25.167,25.071 24.188,24.441C22.321,23.387 20.82,24.237 20.82,26.36Z" fill="#E0E0E0"/>
</svg>
