<svg width="56" height="52" viewBox="0 0 56 52" fill="none" xmlns="http://www.w3.org/2000/svg" xmlns:xlink="http://www.w3.org/1999/xlink">
<path d="M27.392,51.64C42.652,51.64 55.023,44.597 55.023,35.909C55.023,27.221 42.652,20.178 27.392,20.178C12.131,20.178 -0.24,27.221 -0.24,35.909C-0.24,44.597 12.131,51.64 27.392,51.64Z" fill="#E0E0E0"/>
<path d="M48.447,0.45L27.695,0.199L27.488,0.199L6.736,0.45C6.736,0.45 6.497,25.62 14.382,35.94C16.569,38.677 21.661,40.659 27.616,40.659C33.57,40.659 38.694,38.724 40.865,35.94C48.686,25.652 48.447,0.45 48.447,0.45Z" fill="#37474F"/>
</svg>
