<svg width="62" height="54" viewBox="0 0 62 54" fill="none" xmlns="http://www.w3.org/2000/svg" xmlns:xlink="http://www.w3.org/1999/xlink">
<path d="M29.235,-0.695C29.885,-1.102 30.709,-1.102 31.359,-0.695L59.294,16.805C59.878,17.171 60.233,17.811 60.233,18.5L60.233,46C60.233,48.013 59.237,49.83 57.669,51.093C56.113,52.347 54.078,53 52.025,53L8.569,53C6.516,53 4.481,52.347 2.925,51.093C1.357,49.83 0.361,48.013 0.361,46L0.361,18.5C0.361,17.811 0.716,17.171 1.3,16.805L29.235,-0.695ZM4.361,19.607L4.361,46C4.361,46.639 4.673,47.365 5.434,47.978C6.206,48.6 7.33,49 8.569,49L52.025,49C53.264,49 54.388,48.6 55.16,47.978C55.921,47.365 56.233,46.639 56.233,46L56.233,19.607L30.297,3.36L4.361,19.607Z" clip-rule="evenodd" fill-rule="evenodd" fill="#17C2EC"/>
<path d="M18.985,26C18.985,24.895 19.881,24 20.985,24L39.609,24C40.714,24 41.609,24.895 41.609,26L41.609,51C41.609,52.105 40.714,53 39.609,53C38.504,53 37.609,52.105 37.609,51L37.609,28L22.985,28L22.985,51C22.985,52.105 22.09,53 20.985,53C19.881,53 18.985,52.105 18.985,51L18.985,26Z" clip-rule="evenodd" fill-rule="evenodd" fill="#17C2EC"/>
</svg>
