<svg width="288" height="404" viewBox="0 0 288 404" fill="none" xmlns="http://www.w3.org/2000/svg" xmlns:xlink="http://www.w3.org/1999/xlink">
<path d="M282.913,4.577L275.649,1.667L274.915,1.368L274.835,1.368C273.533,0.904 272.145,0.728 270.765,0.85C269.387,0.972 268.051,1.391 266.855,2.076L17.611,143.843C12.373,146.818 8.023,151.1 4.999,156.259C1.976,161.418 0.385,167.271 0.387,173.229L0.387,387.076C0.388,389.348 0.997,391.58 2.151,393.548C3.305,395.516 4.965,397.15 6.963,398.284C8.961,399.42 11.227,400.016 13.533,400.014C15.84,400.014 18.105,399.414 20.101,398.276L269.583,256.336C273.143,254.308 276.099,251.394 278.153,247.884C280.207,244.374 281.287,240.392 281.285,236.342L281.285,10.319C281.289,8.7 280.871,7.107 280.071,5.694L282.913,4.577Z" fill="#407BFF"/>
<g opacity="0.3">
<path d="M282.913,4.577L275.649,1.667L274.915,1.368L274.835,1.368C273.533,0.904 272.145,0.728 270.765,0.85C269.387,0.972 268.051,1.391 266.855,2.076L17.611,143.843C12.373,146.818 8.023,151.1 4.999,156.259C1.976,161.418 0.385,167.271 0.387,173.229L0.387,387.076C0.388,389.348 0.997,391.58 2.151,393.548C3.305,395.516 4.965,397.15 6.963,398.284C8.961,399.42 11.227,400.016 13.533,400.014C15.84,400.014 18.105,399.414 20.101,398.276L269.583,256.336C273.143,254.308 276.099,251.394 278.153,247.884C280.207,244.374 281.287,240.392 281.285,236.342L281.285,10.319C281.289,8.7 280.871,7.107 280.071,5.694L282.913,4.577Z" fill="#000000"/>
</g>
<path d="M287.894,12.899L287.894,238.999C287.896,243.051 286.814,247.031 284.758,250.539C282.7,254.047 279.74,256.957 276.176,258.979L26.694,400.935C24.696,402.067 22.43,402.663 20.124,402.661C17.819,402.661 15.554,402.061 13.557,400.925C11.56,399.789 9.901,398.155 8.747,396.189C7.593,394.221 6.983,391.991 6.98,389.719L6.98,175.777C6.981,169.915 8.527,164.153 11.466,159.055L11.466,159.055C13.691,155.274 16.905,152.151 20.772,150.01L278.46,3.381C280.958,3.458 283.332,4.483 285.082,6.241C286.834,7.999 287.83,10.356 287.862,12.82L287.894,12.899Z" fill="#407BFF"/>
<g opacity="0.1">
<path d="M287.894,12.899L287.894,238.999C287.896,243.051 286.814,247.031 284.758,250.539C282.7,254.047 279.74,256.957 276.176,258.979L26.694,400.935C24.696,402.067 22.43,402.663 20.124,402.661C17.819,402.661 15.554,402.061 13.557,400.925C11.56,399.789 9.901,398.155 8.747,396.189C7.593,394.221 6.983,391.991 6.98,389.719L6.98,175.777C6.981,169.915 8.527,164.153 11.466,159.055L11.466,159.055C13.691,155.274 16.905,152.151 20.772,150.01L278.46,3.381C280.958,3.458 283.332,4.483 285.082,6.241C286.834,7.999 287.83,10.356 287.862,12.82L287.894,12.899Z" fill="#000000"/>
</g>
<path d="M276.178,258.978L26.694,400.936C24.763,402.048 22.573,402.652 20.336,402.688C18.099,402.724 15.891,402.19 13.924,401.14L162.889,180.198L287.894,238.984C287.894,243.037 286.812,247.019 284.756,250.529C282.698,254.039 279.74,256.953 276.178,258.978L276.178,258.978Z" fill="#407BFF"/>
<g opacity="0.2">
<path d="M276.178,258.978L26.694,400.936C24.763,402.048 22.573,402.652 20.336,402.688C18.099,402.724 15.891,402.19 13.924,401.14L162.889,180.198L287.894,238.984C287.894,243.037 286.812,247.019 284.756,250.529C282.698,254.039 279.74,256.953 276.178,258.978L276.178,258.978Z" fill="#000000"/>
</g>
<path d="M283.695,5.065L181.964,214.773C179.96,218.895 177.115,222.563 173.606,225.549C170.098,228.535 166.001,230.775 161.573,232.129C157.145,233.483 152.481,233.923 147.873,233.419C143.265,232.915 138.813,231.477 134.794,229.199L11.465,159.102C13.57,155.419 16.641,152.36 20.357,150.246L278.459,3.381C280.333,3.425 282.155,4.01 283.695,5.065L283.695,5.065Z" fill="#407BFF"/>
</svg>
