<svg width="8" height="8" viewBox="0 0 8 8" fill="none" xmlns="http://www.w3.org/2000/svg" xmlns:xlink="http://www.w3.org/1999/xlink">
<path d="M5.907,5.055C6.57,4.104 5.984,2.797 4.597,2.135C3.21,1.473 1.547,1.707 0.882,2.658C0.218,3.609 0.804,4.916 2.192,5.578C3.579,6.24 5.243,6.006 5.907,5.055Z" fill="#6153BD"/>
<path d="M5.907,5.055L6.727,5.627L6.727,5.627L5.907,5.055ZM0.882,2.658L0.063,2.085L0.062,2.085L0.882,2.658ZM2.192,5.578L2.623,4.675L2.622,4.675L2.192,5.578ZM6.727,5.627C7.287,4.825 7.294,3.881 6.933,3.077C6.582,2.294 5.894,1.646 5.028,1.233L4.166,3.038C4.688,3.286 4.986,3.623 5.109,3.896C5.222,4.149 5.191,4.334 5.087,4.482L6.727,5.627ZM5.028,1.233C4.159,0.818 3.199,0.679 2.329,0.801C1.472,0.922 0.599,1.317 0.063,2.085L1.702,3.23C1.83,3.047 2.121,2.85 2.608,2.782C3.083,2.715 3.648,2.79 4.166,3.038L5.028,1.233ZM0.062,2.085C-0.498,2.887 -0.506,3.831 -0.145,4.635C0.206,5.419 0.895,6.067 1.761,6.481L2.622,4.675C2.1,4.426 1.802,4.09 1.68,3.817C1.567,3.565 1.598,3.379 1.702,3.23L0.062,2.085ZM1.761,6.48C2.63,6.895 3.591,7.034 4.46,6.912C5.318,6.791 6.191,6.395 6.727,5.627L5.087,4.482C4.959,4.665 4.668,4.863 4.181,4.931C3.706,4.998 3.141,4.923 2.623,4.675L1.761,6.48Z" fill="#120071"/>
</svg>
