<svg width="56" height="54" viewBox="0 0 56 54" fill="none" xmlns="http://www.w3.org/2000/svg" xmlns:xlink="http://www.w3.org/1999/xlink">
<path d="M39.881,4C38.777,4 37.881,4.895 37.881,6C37.881,7.105 38.777,8 39.881,8L39.881,4ZM46.089,6L46.089,4L46.089,6ZM2.634,46L0.634,46L2.634,46ZM8.842,6L8.842,4L8.842,6ZM15.05,8C16.154,8 17.05,7.105 17.05,6C17.05,4.895 16.154,4 15.05,4L15.05,8ZM39.881,8L46.089,8L46.089,4L39.881,4L39.881,8ZM46.089,8C47.329,8 48.452,8.4 49.224,9.022L51.733,5.907C50.177,4.653 48.143,4 46.089,4L46.089,8ZM49.224,9.022C49.985,9.635 50.297,10.361 50.297,11L54.297,11C54.297,8.987 53.301,7.17 51.733,5.907L49.224,9.022ZM50.297,11L50.297,46L54.297,46L54.297,11L50.297,11ZM50.297,46C50.297,46.639 49.985,47.365 49.224,47.978L51.733,51.093C53.301,49.83 54.297,48.013 54.297,46L50.297,46ZM49.224,47.978C48.452,48.6 47.329,49 46.089,49L46.089,53C48.143,53 50.177,52.347 51.733,51.093L49.224,47.978ZM46.089,49L8.842,49L8.842,53L46.089,53L46.089,49ZM8.842,49C7.602,49 6.479,48.6 5.707,47.978L3.198,51.093C4.754,52.347 6.788,53 8.842,53L8.842,49ZM5.707,47.978C4.946,47.365 4.634,46.639 4.634,46L0.634,46C0.634,48.013 1.63,49.83 3.198,51.093L5.707,47.978ZM4.634,46L4.634,11L0.634,11L0.634,46L4.634,46ZM4.634,11C4.634,10.361 4.946,9.635 5.707,9.022L3.198,5.907C1.63,7.17 0.634,8.987 0.634,11L4.634,11ZM5.707,9.022C6.479,8.4 7.602,8 8.842,8L8.842,4C6.788,4 4.754,4.653 3.198,5.907L5.707,9.022ZM8.842,8L15.05,8L15.05,4L8.842,4L8.842,8Z" fill="#17C2EC" fill-opacity="0.5"/>
<path d="M18.153,3L36.777,3L36.777,-1L18.153,-1L18.153,3ZM36.777,3C37.209,3 37.534,3.142 37.717,3.29C37.806,3.361 37.849,3.423 37.866,3.457C37.882,3.486 37.881,3.498 37.881,3.5L41.881,3.5C41.881,0.632 39.17,-1 36.777,-1L36.777,3ZM37.881,3.5L37.881,8.5L41.881,8.5L41.881,3.5L37.881,3.5ZM37.881,8.5C37.881,8.502 37.882,8.514 37.866,8.543C37.849,8.577 37.806,8.639 37.717,8.71C37.534,8.858 37.209,9 36.777,9L36.777,13C39.17,13 41.881,11.368 41.881,8.5L37.881,8.5ZM36.777,9L18.153,9L18.153,13L36.777,13L36.777,9ZM18.153,9C17.722,9 17.396,8.858 17.213,8.71C17.124,8.639 17.082,8.577 17.064,8.543C17.048,8.514 17.049,8.502 17.049,8.5L13.049,8.5C13.049,11.368 15.76,13 18.153,13L18.153,9ZM17.049,8.5L17.049,3.5L13.049,3.5L13.049,8.5L17.049,8.5ZM17.049,3.5C17.049,3.498 17.048,3.486 17.064,3.457C17.082,3.423 17.124,3.361 17.213,3.29C17.396,3.142 17.722,3 18.153,3L18.153,-1C15.76,-1 13.049,0.632 13.049,3.5L17.049,3.5Z" fill="#17C2EC" fill-opacity="0.5"/>
</svg>
