<svg width="10" height="8" viewBox="0 0 10 8" fill="none" xmlns="http://www.w3.org/2000/svg" xmlns:xlink="http://www.w3.org/1999/xlink">
<path d="M6.38,5.138C8.287,4.373 9.211,2.693 8.443,1.386C7.674,0.079 5.505,-0.36 3.597,0.405C1.69,1.17 0.767,2.851 1.535,4.158C2.304,5.465 4.472,5.904 6.38,5.138Z" fill="#6153BD"/>
<path d="M6.38,5.138L6.008,4.21L6.008,4.21L6.38,5.138ZM8.443,1.386L9.305,0.879L9.305,0.879L8.443,1.386ZM3.597,0.405L3.97,1.334L3.97,1.334L3.597,0.405ZM1.535,4.158L0.673,4.665L0.673,4.665L1.535,4.158ZM6.752,6.066C7.879,5.614 8.787,4.865 9.291,3.947C9.805,3.012 9.896,1.885 9.305,0.879L7.581,1.892C7.758,2.193 7.771,2.56 7.538,2.983C7.296,3.424 6.788,3.897 6.008,4.21L6.752,6.066ZM9.305,0.879C8.734,-0.091 7.707,-0.647 6.646,-0.862C5.572,-1.079 4.355,-0.976 3.225,-0.523L3.97,1.334C4.748,1.021 5.569,0.961 6.249,1.098C6.941,1.238 7.383,1.556 7.581,1.893L9.305,0.879ZM3.225,-0.523C2.098,-0.071 1.191,0.679 0.687,1.597C0.172,2.532 0.081,3.659 0.673,4.665L2.397,3.651C2.22,3.35 2.207,2.983 2.439,2.56C2.681,2.12 3.189,1.647 3.97,1.334L3.225,-0.523ZM0.673,4.665C1.244,5.635 2.271,6.191 3.332,6.406C4.405,6.623 5.623,6.52 6.753,6.066L6.008,4.21C5.23,4.522 4.409,4.583 3.729,4.445C3.036,4.305 2.595,3.988 2.397,3.651L0.673,4.665Z" fill="#120071"/>
</svg>
