<svg width="44" height="54" viewBox="0 0 44 54" fill="none" xmlns="http://www.w3.org/2000/svg" xmlns:xlink="http://www.w3.org/1999/xlink">
<path d="M32,4.004C30.895,4.004 30,4.899 30,6.004C30,7.108 30.895,8.004 32,8.004L32,4.004ZM37,6.004L37,4.004L37,6.004ZM2,46.004L0,46.004L2,46.004ZM7,6.004L7,4.004L7,6.004ZM12,8.004C13.105,8.004 14,7.108 14,6.004C14,4.899 13.105,4.004 12,4.004L12,8.004ZM32,8.004L37,8.004L37,4.004L32,4.004L32,8.004ZM37,8.004C37.796,8.004 38.559,8.32 39.121,8.883L41.95,6.054C40.637,4.741 38.857,4.004 37,4.004L37,8.004ZM39.121,8.883C39.684,9.445 40,10.208 40,11.004L44,11.004C44,9.147 43.263,7.367 41.95,6.054L39.121,8.883ZM40,11.004L40,46.004L44,46.004L44,11.004L40,11.004ZM40,46.004C40,46.8 39.684,47.563 39.121,48.125L41.95,50.954C43.263,49.641 44,47.861 44,46.004L40,46.004ZM39.121,48.125C38.559,48.688 37.796,49.004 37,49.004L37,53.004C38.857,53.004 40.637,52.267 41.95,50.954L39.121,48.125ZM37,49.004L7,49.004L7,53.004L37,53.004L37,49.004ZM7,49.004C6.204,49.004 5.441,48.688 4.879,48.125L2.05,50.954C3.363,52.267 5.143,53.004 7,53.004L7,49.004ZM4.879,48.125C4.316,47.563 4,46.8 4,46.004L0,46.004C0,47.861 0.737,49.641 2.05,50.954L4.879,48.125ZM4,46.004L4,11.004L0,11.004L0,46.004L4,46.004ZM4,11.004C4,10.208 4.316,9.445 4.879,8.883L2.05,6.054C0.737,7.367 0,9.147 0,11.004L4,11.004ZM4.879,8.883C5.441,8.32 6.204,8.004 7,8.004L7,4.004C5.143,4.004 3.363,4.741 2.05,6.054L4.879,8.883ZM7,8.004L12,8.004L12,4.004L7,4.004L7,8.004Z" fill="#17C2EC"/>
<path d="M14.5,3.004L29.5,3.004L29.5,-0.996L14.5,-0.996L14.5,3.004ZM29.5,3.004C29.776,3.004 30,3.228 30,3.504L34,3.504C34,1.019 31.985,-0.996 29.5,-0.996L29.5,3.004ZM30,3.504L30,8.504L34,8.504L34,3.504L30,3.504ZM30,8.504C30,8.78 29.776,9.004 29.5,9.004L29.5,13.004C31.985,13.004 34,10.989 34,8.504L30,8.504ZM29.5,9.004L14.5,9.004L14.5,13.004L29.5,13.004L29.5,9.004ZM14.5,9.004C14.224,9.004 14,8.78 14,8.504L10,8.504C10,10.989 12.015,13.004 14.5,13.004L14.5,9.004ZM14,8.504L14,3.504L10,3.504L10,8.504L14,8.504ZM14,3.504C14,3.228 14.224,3.004 14.5,3.004L14.5,-0.996C12.015,-0.996 10,1.019 10,3.504L14,3.504Z" fill="#17C2EC"/>
</svg>
