<svg width="268" height="274" viewBox="0 0 268 274" fill="none" xmlns="http://www.w3.org/2000/svg" xmlns:xlink="http://www.w3.org/1999/xlink">
<path d="M250.134,0L17.867,0C7.995,0 0,8.174 0,18.267L0,255.734C0,265.826 7.995,274 17.867,274L250.134,274C260.004,274 268,265.826 268,255.734L268,18.267C268,8.174 260.004,0 250.134,0Z" fill="#FFFFFF"/>
<path d="M243.638,4L26.578,4C22.191,4.034 17.993,5.892 14.891,9.174C11.789,12.456 10.032,16.897 10,21.538L10,250.462C9.978,260.144 17.383,267.976 26.534,268L243.418,268C252.57,268.024 259.974,260.19 259.996,250.51L259.996,21.538C260.194,12.067 253.078,4.21 244.126,4L243.638,4Z" fill="#0B153C"/>
</svg>
