<svg width="50" height="54" viewBox="0 0 50 54" fill="none" xmlns="http://www.w3.org/2000/svg" xmlns:xlink="http://www.w3.org/1999/xlink">
<path d="M1.5,18.504L0.272,16.925C-0.215,17.304 -0.5,17.887 -0.5,18.504L1.5,18.504ZM24,1.004L25.228,-0.575C24.506,-1.137 23.494,-1.137 22.772,-0.575L24,1.004ZM46.5,18.504L48.5,18.504C48.5,17.887 48.215,17.304 47.728,16.925L46.5,18.504ZM1.5,46.004L-0.5,46.004L1.5,46.004ZM2.728,20.083L25.228,2.583L22.772,-0.575L0.272,16.925L2.728,20.083ZM22.772,2.583L45.272,20.083L47.728,16.925L25.228,-0.575L22.772,2.583ZM44.5,18.504L44.5,46.004L48.5,46.004L48.5,18.504L44.5,18.504ZM44.5,46.004C44.5,46.8 44.184,47.563 43.621,48.125L46.45,50.954C47.763,49.641 48.5,47.861 48.5,46.004L44.5,46.004ZM43.621,48.125C43.059,48.688 42.296,49.004 41.5,49.004L41.5,53.004C43.357,53.004 45.137,52.267 46.45,50.954L43.621,48.125ZM41.5,49.004L6.5,49.004L6.5,53.004L41.5,53.004L41.5,49.004ZM6.5,49.004C5.704,49.004 4.941,48.688 4.379,48.125L1.55,50.954C2.863,52.267 4.643,53.004 6.5,53.004L6.5,49.004ZM4.379,48.125C3.816,47.563 3.5,46.8 3.5,46.004L-0.5,46.004C-0.5,47.861 0.237,49.641 1.55,50.954L4.379,48.125ZM3.5,46.004L3.5,18.504L-0.5,18.504L-0.5,46.004L3.5,46.004Z" fill="#17C2EC" fill-opacity="0.5"/>
<path d="M14.5,51.004C14.5,52.109 15.395,53.004 16.5,53.004C17.605,53.004 18.5,52.109 18.5,51.004L14.5,51.004ZM16.5,26.004L16.5,24.004C15.395,24.004 14.5,24.899 14.5,26.004L16.5,26.004ZM31.5,26.004L33.5,26.004C33.5,24.899 32.605,24.004 31.5,24.004L31.5,26.004ZM29.5,51.004C29.5,52.109 30.395,53.004 31.5,53.004C32.605,53.004 33.5,52.109 33.5,51.004L29.5,51.004ZM18.5,51.004L18.5,26.004L14.5,26.004L14.5,51.004L18.5,51.004ZM16.5,28.004L31.5,28.004L31.5,24.004L16.5,24.004L16.5,28.004ZM29.5,26.004L29.5,51.004L33.5,51.004L33.5,26.004L29.5,26.004Z" fill="#17C2EC" fill-opacity="0.5"/>
</svg>
