<svg width="42" height="68" viewBox="0 0 42 68" fill="none" xmlns="http://www.w3.org/2000/svg" xmlns:xlink="http://www.w3.org/1999/xlink">
<path d="M0.239,0.157L0.239,44.361L39.076,66.463L39.076,22.259L0.239,0.157Z" fill="#FAFAFA"/>
<path d="M4.437,2.564L39.076,22.259L39.076,61.76L4.437,42.049L4.437,2.721L4.437,2.564ZM2.33,-0.881L0.239,0.315L0.239,44.519L39.076,66.479L41.183,65.284L41.183,21.08L2.33,-0.944L2.33,-0.881Z" fill="#E0E0E0"/>
<path d="M2.33,3.76L36.969,23.455L36.969,62.877L2.33,43.166L2.33,3.76ZM0.239,0.157L0.239,44.361L39.076,66.479L39.076,22.275L0.239,0.252L0.239,0.157Z" fill="#EBEBEB"/>
<path d="M5.938,34.247L35.31,50.969L26.642,28.709L20.624,35.757L14.478,27.12L5.938,34.247Z" fill="#E0E0E0"/>
<path d="M16.122,20.372C16.173,21.289 16.443,22.181 16.909,22.976C17.374,23.771 18.024,24.447 18.804,24.949C20.288,25.783 21.486,25.107 21.486,23.376C21.437,22.459 21.169,21.566 20.702,20.77C20.236,19.974 19.586,19.299 18.804,18.799C17.319,17.996 16.122,18.688 16.122,20.372Z" fill="#E0E0E0"/>
</svg>
