<svg width="164" height="132" viewBox="0 0 164 132" fill="none" xmlns="http://www.w3.org/2000/svg" xmlns:xlink="http://www.w3.org/1999/xlink">
<path d="M1.466,95.793C0.946,95.792 0.442,95.623 0.03,95.311C-0.381,94.999 -0.677,94.562 -0.811,94.068C-0.946,93.574 -0.911,93.05 -0.713,92.577C-0.515,92.104 -0.165,91.709 0.284,91.452L159.913,0.59C160.452,0.313 161.079,0.252 161.663,0.42C162.247,0.588 162.743,0.971 163.048,1.49C163.352,2.009 163.442,2.624 163.298,3.206C163.154,3.788 162.788,4.294 162.275,4.617L2.647,95.479C2.29,95.688 1.881,95.797 1.466,95.793L1.466,95.793Z" fill="#FFFFFF"/>
<path d="M1.466,130.622C0.946,130.621 0.442,130.451 0.03,130.14C-0.381,129.828 -0.677,129.391 -0.811,128.897C-0.946,128.402 -0.911,127.878 -0.713,127.405C-0.515,126.933 -0.165,126.537 0.284,126.28L159.913,35.418C160.452,35.141 161.079,35.081 161.663,35.249C162.247,35.416 162.743,35.8 163.048,36.318C163.352,36.837 163.442,37.452 163.298,38.034C163.154,38.617 162.788,39.122 162.275,39.445L2.647,130.307C2.29,130.517 1.881,130.626 1.466,130.622L1.466,130.622Z" fill="#FFFFFF"/>
<path d="M106.293,105.798C105.878,105.801 105.47,105.695 105.111,105.49C104.752,105.285 104.455,104.99 104.25,104.634C103.948,104.103 103.868,103.476 104.029,102.888C104.191,102.299 104.579,101.797 105.112,101.488L159.944,70.246C160.484,69.97 161.111,69.909 161.695,70.077C162.279,70.245 162.775,70.628 163.079,71.147C163.384,71.666 163.473,72.28 163.329,72.863C163.186,73.445 162.819,73.95 162.307,74.273L107.475,105.499C107.113,105.697 106.707,105.8 106.293,105.798L106.293,105.798Z" fill="#FFFFFF"/>
</svg>
