<svg width="338" height="552" viewBox="0 0 338 552" fill="none" xmlns="http://www.w3.org/2000/svg" xmlns:xlink="http://www.w3.org/1999/xlink">
<path d="M-0.93,209.774L72.148,168.181L72.148,116.631L19.04,145.481C12.991,148.762 7.947,153.584 4.434,159.441C0.921,165.299 -0.931,171.979 -0.93,178.784L-0.93,209.774Z" fill="#407BFF"/>
<g opacity="0.5">
<path d="M-0.93,209.774L72.148,168.181L72.148,116.631L19.04,145.481C12.991,148.762 7.947,153.584 4.434,159.441C0.921,165.299 -0.931,171.979 -0.93,178.784L-0.93,209.774Z" fill="#FFFFFF"/>
</g>
<path d="M301.118,10.132L294.43,6.404C285.936,1.563 276.292,-0.976 266.48,-0.957C256.668,-0.938 247.034,1.64 238.56,6.514L29.559,126.51C20.282,131.834 12.584,139.463 7.234,148.636C1.884,157.809 -0.931,168.204 -0.93,178.784C-0.93,173.349 0.525,168.01 3.29,163.307C6.055,158.604 10.031,154.704 14.816,152.002C19.601,149.299 25.026,147.89 30.541,147.916C36.056,147.942 41.466,149.403 46.225,152.151L54.972,157.201C64.08,162.454 71.634,169.965 76.885,178.986C82.136,188.007 84.9,198.226 84.902,208.625L84.902,514.655L70.648,550.319L97.417,534.257L312.612,411.209C320.254,406.841 326.598,400.571 331.006,393.025C335.412,385.479 337.728,376.923 337.722,368.217L337.722,72.725C337.72,60.047 334.336,47.591 327.914,36.605C321.49,25.62 312.25,16.491 301.118,10.132L301.118,10.132Z" fill="#407BFF"/>
<g opacity="0.7">
<path d="M301.118,10.132L294.43,6.404C285.936,1.563 276.292,-0.976 266.48,-0.957C256.668,-0.938 247.034,1.64 238.56,6.514L29.559,126.51C20.282,131.834 12.584,139.463 7.234,148.636C1.884,157.809 -0.931,168.204 -0.93,178.784C-0.93,173.349 0.525,168.01 3.29,163.307C6.055,158.604 10.031,154.704 14.816,152.002C19.601,149.299 25.026,147.89 30.541,147.916C36.056,147.942 41.466,149.403 46.225,152.151L54.972,157.201C64.08,162.454 71.634,169.965 76.885,178.986C82.136,188.007 84.9,198.226 84.902,208.625L84.902,514.655L70.648,550.319L97.417,534.257L312.612,411.209C320.254,406.841 326.598,400.571 331.006,393.025C335.412,385.479 337.728,376.923 337.722,368.217L337.722,72.725C337.72,60.047 334.336,47.591 327.914,36.605C321.49,25.62 312.25,16.491 301.118,10.132L301.118,10.132Z" fill="#FFFFFF"/>
</g>
</svg>
