<svg width="162" height="162" viewBox="0 0 162 162" fill="none" xmlns="http://www.w3.org/2000/svg" xmlns:xlink="http://www.w3.org/1999/xlink">
<path d="M151.2,0L10.8,0C4.833,0 0,4.833 0,10.8L0,151.2C0,157.167 4.833,162 10.8,162L151.2,162C157.167,162 162,157.167 162,151.2L162,10.8C162,4.833 157.167,0 151.2,0Z" fill="#FFFFFF"/>
<path d="M148.053,6L16.079,6C13.412,6.019 10.86,7.089 8.974,8.979C7.088,10.868 6.019,13.425 6,16.097L6,147.903C5.987,153.476 10.489,157.987 16.053,158L147.918,158C153.482,158.013 157.984,153.503 157.998,147.929L157.998,16.097C158.118,10.645 153.791,6.121 148.348,6L148.053,6Z" fill="#0B153C"/>
</svg>
