<svg width="56" height="54" viewBox="0 0 56 54" fill="none" xmlns="http://www.w3.org/2000/svg" xmlns:xlink="http://www.w3.org/1999/xlink">
<path d="M8.842,8C7.602,8 6.479,8.4 5.706,9.022C4.946,9.635 4.634,10.361 4.634,11L4.634,46C4.634,46.639 4.946,47.365 5.706,47.978C6.479,48.6 7.602,49 8.842,49L46.089,49C47.328,49 48.452,48.6 49.224,47.978C49.985,47.365 50.297,46.639 50.297,46L50.297,11C50.297,10.361 49.985,9.635 49.224,9.022C48.452,8.4 47.328,8 46.089,8L39.881,8C38.777,8 37.881,7.105 37.881,6C37.881,4.895 38.777,4 39.881,4L46.089,4C48.143,4 50.177,4.653 51.733,5.907C53.301,7.17 54.297,8.987 54.297,11L54.297,46C54.297,48.013 53.301,49.83 51.733,51.093C50.177,52.347 48.143,53 46.089,53L8.842,53C6.788,53 4.754,52.347 3.197,51.093C1.63,49.83 0.634,48.013 0.634,46L0.634,11C0.634,8.987 1.63,7.17 3.197,5.907C4.754,4.653 6.788,4 8.842,4L15.05,4C16.154,4 17.05,4.895 17.05,6C17.05,7.105 16.154,8 15.05,8L8.842,8Z" clip-rule="evenodd" fill-rule="evenodd" fill="#17C2EC" fill-opacity="0.5"/>
<path d="M17.05,3.5C17.05,3.5 17.05,3.5 17.05,3.5L17.05,8.5C17.05,8.5 17.05,8.5 17.05,8.5C17.049,8.503 17.049,8.515 17.064,8.543C17.082,8.577 17.124,8.639 17.213,8.71C17.396,8.858 17.722,9 18.153,9L36.777,9C37.209,9 37.535,8.858 37.718,8.71C37.807,8.639 37.849,8.577 37.867,8.543C37.882,8.514 37.881,8.502 37.881,8.5L37.881,3.5L37.881,3.5C37.881,3.497 37.882,3.485 37.867,3.457C37.849,3.423 37.807,3.361 37.718,3.29C37.535,3.142 37.209,3 36.777,3L18.153,3C17.722,3 17.396,3.142 17.213,3.29C17.124,3.361 17.082,3.423 17.064,3.457C17.049,3.485 17.049,3.497 17.05,3.5ZM13.05,3.5C13.05,0.632 15.76,-1 18.153,-1L36.777,-1C39.17,-1 41.881,0.632 41.881,3.5L41.881,8.5C41.881,11.368 39.17,13 36.777,13L18.153,13C15.76,13 13.05,11.368 13.05,8.5L13.05,3.5Z" clip-rule="evenodd" fill-rule="evenodd" fill="#17C2EC" fill-opacity="0.5"/>
</svg>
