<svg width="526" height="458" viewBox="0 0 526 458" fill="none" xmlns="http://www.w3.org/2000/svg" xmlns:xlink="http://www.w3.org/1999/xlink">
<path d="M195.883,197.326C196.711,197.595 197.262,197.595 196.71,198.134C196.434,198.673 169.387,233.162 155.863,245.556C154.207,246.903 154.207,246.903 153.655,245.017C152.551,241.784 151.723,238.281 150.895,234.778C148.963,226.695 148.41,226.965 149.238,225.887C152.274,222.654 177.943,194.631 183.463,194.901C183.187,195.17 186.499,195.17 195.883,197.326Z" fill="#38A1FF"/>
<path d="M4.063,293.247C25.591,295.941 26.418,297.289 47.67,300.791C59.538,302.678 63.679,303.216 70.303,304.564C73.063,305.103 80.515,318.844 97.903,339.052C102.871,344.98 126.882,370.038 127.158,373.81C124.398,373.81 79.411,324.233 70.855,306.719C70.027,304.833 63.403,305.641 43.255,302.139C14.827,297.019 13.723,296.211 3.235,295.403C1.579,295.403 1.579,295.403 2.407,296.75C15.379,323.694 24.21,341.747 50.43,357.913C53.19,359.53 64.782,364.919 65.61,365.997C63.126,366.266 52.087,361.416 47.119,358.722C14.55,340.13 2.131,297.828 -0.353,295.403C-0.629,295.133 -0.629,293.247 4.063,293.247Z" fill="#191919"/>
<path d="M127.158,192.476C121.362,218.881 127.434,209.72 115.29,219.151C112.254,221.576 101.49,231.006 99.834,232.084C99.834,231.275 101.766,226.695 102.042,225.887C114.462,194.092 112.806,195.44 114.738,195.17C119.706,194.092 126.054,192.206 127.158,192.476Z" fill="#38A1FF"/>
<path d="M45.186,298.636C39.666,295.941 32.766,284.355 41.322,279.236C41.874,278.966 42.15,278.966 41.598,278.428C37.182,272.769 19.794,245.017 19.242,243.67C18.69,242.861 19.242,241.783 20.07,242.322C23.382,244.208 39.666,269.267 44.634,277.08C45.186,277.619 45.186,277.619 45.738,277.619C47.67,277.08 56.226,277.889 55.674,279.505C55.398,280.583 55.122,280.044 52.086,279.775C47.946,279.236 46.29,279.505 47.118,280.314C52.362,288.666 59.538,296.211 58.71,297.289C58.434,297.558 57.33,297.289 55.95,295.672C42.15,279.775 44.082,280.314 42.702,281.122C36.63,284.625 40.77,293.786 46.29,297.019C47.118,298.097 47.118,299.444 45.186,298.636Z" fill="#191919"/>
<path d="M51.259,369.23C28.075,361.685 4.615,332.855 7.375,331.238C8.479,330.7 10.963,337.436 27.523,351.985C42.703,365.188 54.847,368.152 51.259,369.23Z" fill="#191919"/>
<path d="M32.49,274.656C30.006,276.003 25.038,276.003 24.762,281.661C24.486,287.05 28.626,291.092 31.938,293.517C33.594,294.864 33.042,295.672 31.386,295.133C27.246,293.247 23.658,288.397 22.83,284.625C21.174,278.158 25.866,273.039 31.11,273.039C33.318,273.039 33.042,274.386 32.49,274.656Z" fill="#191919"/>
<path d="M64.506,300.253C61.47,301.6 74.718,289.475 60.918,283.008C59.262,282.2 60.642,281.122 61.47,281.392C71.682,283.008 72.234,296.75 64.506,300.253Z" fill="#191919"/>
<path d="M20.898,275.195C23.106,276.542 17.31,276.542 16.482,281.392C15.654,285.434 19.242,289.745 20.898,292.709C21.45,293.517 21.174,294.325 20.346,293.517C8.202,282.739 18.138,273.578 20.898,275.195Z" fill="#191919"/>
<path d="M222.654,180.89C214.374,136.701 224.034,75.268 184.566,48.863C171.87,40.241 158.622,34.582 138.474,35.66C120.258,36.738 102.594,42.127 87.415,60.988C83.275,66.107 80.238,79.31 84.378,87.932C84.93,89.279 85.206,89.818 85.758,89.818C86.31,89.818 86.034,88.74 85.758,87.663C78.858,47.785 133.782,27.846 170.766,45.091C216.858,66.377 211.614,116.224 217.41,163.915C218.238,169.843 222.93,199.212 224.586,197.326C225.414,196.248 222.654,180.62 222.654,180.89Z" fill="#191919"/>
<path d="M199.195,116.493C192.295,114.876 188.43,118.379 185.67,118.379C183.738,118.379 182.359,117.032 182.083,114.876C181.807,112.99 180.703,112.721 179.323,112.182C157.243,105.446 161.935,62.874 160.003,62.874C158.899,62.874 148.686,78.502 131.298,88.202C129.09,89.279 128.263,89.818 128.263,90.357C128.539,90.896 128.814,90.627 129.09,90.357C143.994,85.507 153.931,72.574 157.795,68.802C157.243,83.621 161.107,110.296 177.943,114.338C178.771,114.607 179.046,114.607 179.046,115.415C179.322,118.918 183.738,121.882 187.326,119.996C188.706,119.188 192.019,118.379 195.055,118.379C201.955,118.379 206.923,125.924 202.783,130.774C196.711,138.049 187.879,134.007 186.775,134.007C184.567,134.007 179.875,153.407 179.875,153.676C175.459,172.537 179.047,192.745 182.083,191.668C182.911,191.398 182.635,191.129 182.083,187.626C178.771,165.262 183.186,153.676 187.326,137.24C187.602,136.432 187.327,136.701 188.155,136.971C193.951,139.396 200.574,137.779 204.438,133.468C212.994,124.038 199.195,115.146 199.195,116.493Z" fill="#191919"/>
<path d="M153.93,167.418C138.474,171.998 132.127,171.19 132.403,171.19C116.119,171.19 105.63,159.604 102.594,144.246C95.97,110.565 103.146,93.86 101.214,93.59C98.178,93.59 92.934,134.276 103.698,156.371C113.634,177.118 132.403,173.076 132.403,174.693C131.851,197.326 130.47,197.056 131.85,197.326C132.402,197.326 132.954,195.979 133.23,194.901C137.922,179.543 133.23,174.423 137.37,173.884C151.446,172.537 168.006,163.376 153.93,167.418Z" fill="#191919"/>
<path d="M102.043,87.663C100.663,88.74 101.767,89.01 102.043,88.74C113.359,83.082 119.982,76.616 128.814,66.107C130.47,63.952 128.538,64.221 127.71,64.76C124.674,67.185 116.119,76.885 102.043,87.663Z" fill="#191919"/>
<path d="M140.958,70.149C139.302,68.532 141.786,72.574 113.91,87.124C113.634,87.124 113.634,87.393 113.91,87.663C115.014,89.279 129.367,83.621 140.683,71.766C140.959,71.227 141.51,70.688 140.958,70.149Z" fill="#191919"/>
<path d="M109.218,62.335C118.05,53.982 94.039,67.454 93.763,85.507C93.763,86.854 93.763,87.124 94.315,87.124C94.591,87.124 94.59,86.854 94.866,86.854C98.73,70.149 109.494,62.335 109.218,62.335Z" fill="#191919"/>
<path d="M146.203,140.204C145.651,139.396 144.271,141.821 143.443,142.898C140.131,147.209 138.199,149.096 131.023,149.365C128.815,149.365 128.539,151.521 132.127,151.521C138.199,151.521 142.339,149.634 144.823,145.054C146.203,143.437 147.031,141.012 146.203,140.204Z" fill="#191919"/>
<path d="M121.638,120.804C119.43,120.804 116.118,134.007 116.118,134.007C116.118,141.282 126.882,137.779 124.95,137.51C120.534,136.432 118.05,136.971 118.326,134.276C119.154,129.426 123.57,120.804 121.638,120.804Z" fill="#191919"/>
<path d="M147.307,112.99C143.443,112.99 142.614,121.612 147.03,121.612C151.17,121.612 151.171,112.99 147.307,112.99Z" fill="#191919"/>
<path d="M107.838,112.182C105.078,112.182 103.974,117.032 105.354,119.457C106.458,121.343 108.666,121.074 109.77,119.188C111.426,116.763 110.598,112.182 107.838,112.182Z" fill="#191919"/>
<path d="M157.518,101.673C160.002,102.482 156.69,96.015 147.858,96.015C144.546,96.015 142.338,99.248 146.202,99.248C152.55,99.248 153.378,100.596 157.518,101.673Z" fill="#191919"/>
<path d="M115.842,99.518C116.394,97.902 113.082,97.093 111.426,97.093C108.114,97.093 103.974,99.249 102.594,101.404C102.318,101.943 102.87,102.482 103.422,102.213C103.974,102.213 104.25,101.943 105.078,101.674C112.53,98.44 115.29,101.404 115.842,99.518Z" fill="#191919"/>
<path d="M226.049,405.19C226.739,406.095 227.441,406.99 228.157,407.876C198.796,421.017 161.625,424.226 127.986,418.268C50.154,404.527 10.686,355.488 9.03,340.938C8.779,338.858 10.292,341.111 13.257,345.524C16.825,350.835 22.496,359.277 29.73,367.074C76.268,417.051 167.73,432.01 226.049,405.19ZM203.092,350.857C203.267,351.932 203.454,352.999 203.653,354.058C187.952,370.103 114.446,393.038 69.475,359.799C61.747,353.872 56.502,347.944 53.19,344.172C51.81,342.555 52.638,341.477 54.018,342.824C71.682,361.416 86.034,368.96 111.978,373.002C124.674,375.158 140.406,374.888 152.826,371.924C168.006,368.691 176.563,365.997 182.635,363.033C184.314,362.214 185.869,361.462 187.307,360.769C196.405,356.377 200.866,354.222 203.092,350.857Z" clip-rule="evenodd" fill-rule="evenodd" fill="#191919"/>
<path d="M240.086,219.697C227.29,234.089 214.917,253.575 208.303,278.159C207.13,282.429 206.11,286.641 205.238,290.787C206.622,277.614 209.942,262.062 217.135,246.634C217.411,245.826 216.858,245.017 216.03,245.287C212.166,246.634 204.163,268.189 201.955,278.698C200.813,284.639 200.313,288.478 199.998,290.89C199.628,293.73 199.515,294.595 198.918,294.595C186.222,295.403 165.247,292.978 164.143,291.9C164.143,291.631 166.074,284.086 166.626,282.47C168.577,276.041 169.02,276.135 182.805,279.032C184.621,279.414 186.669,279.843 188.983,280.314C190.915,280.853 190.914,281.123 189.81,289.475C189.258,293.247 192.294,292.439 192.846,281.661C192.846,281.457 192.853,281.265 192.859,281.085C192.892,280.077 192.914,279.425 191.743,278.967C191.191,278.698 176.562,273.848 169.386,274.925C165.918,275.445 164.77,280.5 163.202,287.409C163.148,287.646 163.093,287.886 163.038,288.128C162.891,288.92 162.803,289.518 162.736,289.966C162.555,291.197 162.541,291.289 161.935,291.092C157.648,289.995 154.305,289.012 151.892,288.3C147.778,287.088 146.365,286.67 147.583,287.859C151.999,292.17 176.562,299.175 198.918,296.75C199.254,296.75 199.463,296.675 199.574,296.748C199.829,296.906 199.578,297.828 199.195,302.139C195.665,340.424 200.494,347.158 198.737,349.973C198.02,351.121 196.21,351.617 192.295,353.333C183.463,357.105 144.546,373.541 135.99,369.5C128.993,366.328 124.485,361.39 120.007,356.483C119.54,355.971 119.072,355.459 118.603,354.95C116.485,352.606 113.74,349.661 110.652,346.344C95.631,330.212 72.47,305.343 73.615,298.636C76.651,281.661 64.231,272.77 50.983,273.848C49.871,273.993 49.137,274.236 48.456,274.136C46.599,273.864 45.13,271.064 37.458,256.873C37.182,256.334 36.906,255.795 37.458,254.987C62.574,212.145 106.734,196.248 111.15,196.787C110.322,198.673 96.523,231.545 96.523,233.162C96.523,235.587 98.455,236.395 99.835,235.317C100.892,234.493 104.3,231.529 108.195,228.145C114.465,222.694 121.997,216.147 123.018,215.648C123.018,215.769 122.957,216.188 122.856,216.882C122.276,220.852 120.382,233.827 121.086,251.484C121.086,251.632 121.105,251.807 121.127,252.015C121.224,252.931 121.385,254.453 120.258,256.873C107.01,288.936 106.183,315.611 108.115,308.336C108.263,307.698 108.438,306.908 108.644,305.976C110.346,298.273 114.184,280.902 123.295,259.028C124.675,256.064 133.506,243.939 145.65,230.198C146.687,228.961 147.483,232.558 148.461,236.977C149.825,243.139 151.542,250.899 154.758,249.328C161.658,245.826 183.463,219.151 188.155,213.223C192.948,207.312 195.493,203.596 197.028,201.355C198.851,198.692 199.249,198.111 200.298,198.404C215.84,203.785 229.067,210.929 240.086,219.697Z" clip-rule="evenodd" fill-rule="evenodd" fill="#38A1FF"/>
<path d="M373.35,341.747C367.002,341.747 354.306,339.861 350.994,339.591C348.51,339.591 350.442,340.669 341.886,312.917C334.986,291.361 317.874,249.597 310.697,235.856C294.137,204.601 289.997,200.29 294.689,193.284C295.793,191.398 296.621,189.512 298.277,187.895C300.485,185.47 302.969,182.776 304.625,185.201C314.286,198.134 336.09,225.617 352.374,228.85C354.582,229.389 356.238,225.887 356.79,224.001C365.07,196.787 360.102,192.206 361.206,188.704C365.898,190.859 379.146,209.181 381.906,214.031C387.15,222.923 387.15,223.462 385.494,225.887C376.386,238.82 376.386,246.634 376.386,261.992C376.386,268.458 377.214,276.003 378.87,283.278C383.286,304.833 386.046,307.797 393.774,307.528C395.982,307.528 395.982,307.797 396.258,308.875C397.638,325.58 397.362,317.497 397.362,335.55C397.362,336.627 397.086,337.436 395.982,337.975C378.87,342.016 385.494,341.208 373.35,341.747Z" fill="#38A1FF"/>
<path d="M456.978,412.611C454.218,412.611 417.51,453.297 344.921,453.297C167.73,453.297 174.078,247.981 278.129,193.015C301.037,180.89 229.554,200.559 208.302,278.428C173.25,406.143 274.265,479.433 391.565,450.871C423.582,443.057 458.358,415.305 456.978,412.611Z" fill="#191919"/>
<path d="M488.444,250.406C438.212,191.668 360.929,181.159 382.457,188.434C399.293,194.362 392.669,191.668 400.673,194.632C466.637,218.073 525.425,279.775 521.009,349.561C517.973,397.522 471.881,412.61 433.793,408.838C419.165,408.3 394.049,395.636 393.773,395.366C393.773,394.558 398.465,381.625 393.773,365.458C389.633,351.447 386.045,349.022 386.045,348.483C386.321,348.214 400.949,346.328 423.029,346.328C455.045,346.328 480.713,349.561 481.817,349.022C477.125,343.633 386.597,340.939 384.113,347.405C383.837,348.483 384.665,346.058 388.253,356.028C393.773,371.386 394.328,380.008 391.844,395.636C391.568,396.984 392.117,396.714 393.773,397.792C446.489,427.43 524.873,412.61 524.597,340.669C523.769,287.32 488.444,250.137 488.444,250.406Z" fill="#191919"/>
<path d="M396.536,223.731C395.984,223.731 396.257,224 395.429,222.384C386.321,199.751 365.345,182.237 360.377,182.237C357.617,182.237 363.689,186.009 365.345,187.626C384.941,207.834 387.425,214.57 392.669,224C393.221,225.078 389.909,225.348 386.597,230.467C375.005,248.25 383.288,280.314 388.256,298.636C389.636,303.486 392.393,304.564 396.257,304.564C403.157,304.564 405.092,300.252 402.884,296.48C400.952,293.247 393.221,295.403 391.565,295.672C390.461,295.941 390.737,296.48 388.805,289.205C368.105,206.487 423.305,202.445 429.377,291.63C429.377,292.439 429.101,292.708 428.549,292.708C409.781,290.553 414.473,307.797 428.549,300.252C432.413,298.097 432.416,294.594 431.864,290.283C430.208,272.769 428,249.058 415.856,233.431C416.132,233.431 407.852,222.653 396.536,223.731Z" fill="#191919"/>
<path d="M280.061,119.187C284.477,124.037 293.585,127.809 299.657,125.385C300.761,124.846 307.109,182.237 307.661,183.584C311.249,178.465 306.281,144.515 305.177,139.396L301.589,124.846C301.037,122.69 300.209,124.037 294.965,123.768C288.893,123.498 282.269,118.918 280.061,113.798C277.853,107.601 283.097,102.751 289.169,102.751C292.481,102.751 295.793,104.099 297.173,104.099C298.277,104.099 298.829,103.29 297.173,102.212C294.965,100.596 298.829,104.099 293.033,89.01C282.545,62.874 280.613,41.049 301.589,22.188C317.597,7.638 336.917,1.171 353.753,1.171C360.101,1.171 361.481,2.249 363.413,2.249C364.793,2.249 364.517,1.441 363.965,1.171C355.409,-3.14 336.089,-0.176 326.981,3.058C315.113,7.099 304.625,14.105 294.689,24.882C268.469,52.904 292.757,93.59 294.413,100.596C293.309,100.326 291.929,99.787 289.445,99.787C278.681,99.518 272.333,110.565 280.061,119.187Z" fill="#191919"/>
<path d="M252.738,294.325C249.978,294.325 261.018,312.378 266.537,319.922C285.305,345.25 297.725,355.758 316.493,369.23C343.817,388.63 375.833,393.211 377.765,392.402C379.973,391.594 345.749,384.05 331.397,373.541C336.089,372.464 344.921,372.733 343.541,371.655C342.161,370.847 337.745,370.578 333.881,371.116C330.293,371.655 329.189,372.464 328.361,371.925C322.013,367.883 319.253,366.266 319.253,365.997C319.529,365.728 333.053,360.608 343.541,360.608C347.681,360.608 346.025,358.991 340.229,358.991C331.121,358.991 322.565,361.686 317.597,364.38C317.045,364.65 317.045,364.65 313.733,362.225C309.041,358.722 308.765,358.722 308.765,358.722C308.765,358.183 327.809,344.98 357.065,344.98C364.517,344.98 365.897,345.789 367.553,345.519C373.073,344.711 338.021,334.472 306.833,356.297C306.281,356.567 306.281,356.836 305.729,356.297C267.641,324.503 255.222,294.325 252.738,294.325Z" fill="#191919"/>
<path d="M304.349,179.273C303.797,178.195 298.001,179.273 293.585,183.315C284.201,192.206 277.853,215.917 283.649,239.089C289.169,260.375 294.137,257.681 290.549,260.106C276.749,270.075 283.373,291.361 301.037,291.9C309.869,292.169 317.873,285.164 318.425,274.925C318.977,264.417 309.869,256.334 300.485,256.334C291.929,256.334 293.861,260.914 292.205,255.795C285.581,237.473 279.785,213.223 292.757,189.781C297.725,181.968 305.177,180.89 304.349,179.273ZM300.761,288.667C281.993,288.667 281.717,259.567 300.485,259.567C319.253,259.567 320.357,288.667 300.761,288.667Z" fill="#191919"/>
<path d="M380.801,87.932C378.317,55.33 370.865,46.977 371.969,51.827C395.705,149.095 349.061,178.734 314.837,150.443C306.281,143.437 326.705,172.807 353.753,160.682C355.133,160.143 355.133,160.143 355.133,160.682C352.925,182.776 355.961,197.326 356.789,195.979C357.617,194.362 356.789,188.165 357.341,166.879C357.341,164.184 357.617,162.029 357.617,159.873C357.617,156.101 385.217,148.826 380.801,87.932Z" fill="#191919"/>
<path d="M309.593,28.385C300.209,36.469 298.001,45.899 298.553,46.438C299.105,46.977 299.657,46.169 300.209,45.36C311.801,19.763 345.749,10.872 372.797,15.991C373.901,16.26 375.281,16.53 375.557,15.991C376.385,13.566 360.653,11.68 349.889,12.488C337.469,12.488 321.737,17.608 309.593,28.385Z" fill="#191919"/>
<path d="M326.429,116.493C325.877,115.685 325.049,115.685 324.497,116.224C323.945,117.032 324.224,117.571 325.604,121.882C328.64,131.313 331.397,139.665 341.885,139.665C349.061,139.665 350.441,134.815 348.509,135.624C344.645,136.971 341.06,136.971 338.024,135.624C332.78,133.468 330.845,128.349 329.189,122.421C341.333,131.582 354.029,128.079 353.753,126.732C353.753,125.924 336.089,127.81 326.429,116.493Z" fill="#191919"/>
<path d="M444.557,307.528C430.757,312.917 418.613,329.622 417.233,340.939C417.509,343.094 418.613,342.555 418.889,341.747C419.993,335.28 425.513,326.928 430.481,321.269C442.349,306.989 460.565,306.181 462.773,304.025C461.117,303.217 452.009,304.564 444.557,307.528Z" fill="#191919"/>
<path d="M338.573,23.804C320.357,27.577 314.285,37.277 320.633,33.504C349.337,16.529 379.421,31.349 379.973,30.541C381.077,27.846 359.549,19.493 338.573,23.804Z" fill="#191919"/>
<path d="M460.013,314.533C444.005,319.922 434.897,330.7 432.965,337.436C432.413,339.053 433.517,339.861 434.069,338.514C449.801,312.647 474.365,313.994 475.745,313.455C476.573,312.917 472.985,310.222 460.013,314.533Z" fill="#191919"/>
<path d="M340.781,34.852C341.885,35.93 354.029,33.505 366.449,39.432C381.629,46.707 382.181,52.366 383.837,51.827C386.597,50.749 372.521,32.696 349.613,32.696C350.993,32.696 339.125,32.966 340.781,34.852Z" fill="#191919"/>
<path d="M484.304,325.58C481.268,325.042 477.677,324.503 469.673,325.85C456.977,328.275 451.457,333.933 446.213,339.591C445.661,340.4 446.213,340.939 446.765,340.939C448.697,340.939 452.009,334.472 461.945,330.43C474.917,325.042 485.129,327.467 485.405,326.389C485.129,325.85 484.856,325.58 484.304,325.58Z" fill="#191919"/>
<path d="M322.841,76.077C317.597,72.035 301.313,79.31 303.797,83.89C304.349,84.968 304.901,85.238 306.557,83.89C312.905,77.693 325.326,77.963 322.841,76.077Z" fill="#191919"/>
<path d="M345.197,92.243C344.093,93.591 346.853,97.363 350.717,110.296C350.993,111.374 350.441,110.835 346.025,112.451C345.197,112.721 347.129,114.607 349.337,114.068C352.097,113.26 353.477,112.721 353.477,110.565C352.925,106.254 347.681,89.818 345.197,92.243Z" fill="#191919"/>
<path d="M470.504,337.436C457.256,337.975 453.39,343.633 460.014,341.747C477.953,336.358 489.269,344.172 487.613,342.286C483.197,336.628 468.296,337.436 470.504,337.436Z" fill="#191919"/>
<path d="M322.844,94.129C317.6,94.129 322.013,107.332 326.429,102.482C328.085,100.596 326.432,94.129 322.844,94.129Z" fill="#191919"/>
<path d="M367.553,71.497C365.345,68.802 356.789,66.916 352.925,69.88C352.097,70.419 352.373,71.766 353.477,71.766C353.753,71.766 357.065,71.227 358.721,71.497C365.897,72.844 367.277,73.921 367.829,73.921C367.829,74.191 368.933,72.844 367.553,71.497Z" fill="#191919"/>
<path d="M360.377,89.549C358.997,91.973 360.377,97.093 363.413,97.093C365.345,97.093 365.897,95.746 366.173,93.86C366.449,89.279 362.033,86.046 360.377,89.549Z" fill="#191919"/>
<path d="M310.973,274.656C310.973,274.386 310.697,274.117 310.697,273.847C310.697,273.578 310.697,273.578 310.421,273.847C310.145,274.117 309.869,274.117 309.593,274.386C309.317,274.656 308.765,279.775 303.521,282.2C294.413,286.511 287.237,274.386 294.137,266.303C294.689,265.764 294.965,265.225 294.689,264.956C293.861,263.608 287.789,270.344 290.273,277.889C294.137,288.397 309.041,286.242 310.973,274.656Z" fill="#191919"/>
</svg>
