<svg width="36" height="22" viewBox="0 0 36 22" fill="none" xmlns="http://www.w3.org/2000/svg" xmlns:xlink="http://www.w3.org/1999/xlink">
<path d="M7.045,4.481C7.938,4.096 9.285,4.17 10.087,4.578L9.167,3.755C8.427,3.105 8.692,2.402 9.749,1.945C10.805,1.491 13.8,2.713 13.8,2.713C13.053,2.056 13.192,1.224 14.259,0.764C15.325,0.305 16.796,0.464 17.543,1.121L27.444,9.733L26.182,17.265L15.651,14.901L6.465,6.515C5.711,5.855 5.971,4.944 7.045,4.481Z" fill="#B78B60"/>
<path d="M4.988,11.174C4.988,11.174 3.912,10.208 5.481,9.547C7.048,8.885 8.123,9.85 8.123,9.85L13.113,14.33C13.285,14.153 13.473,13.979 13.683,13.807L6.758,7.59C6.758,7.59 5.683,6.625 7.251,5.963C8.818,5.302 9.892,6.266 9.892,6.266L16.406,12.115C16.649,11.993 16.897,11.871 17.152,11.751L9.601,4.97C9.601,4.97 8.526,4.005 10.094,3.344C11.661,2.682 12.736,3.647 12.736,3.647L20.287,10.427C20.565,10.322 20.839,10.231 21.115,10.135L14.056,3.798C14.056,3.798 12.982,2.833 14.549,2.172C16.116,1.51 17.19,2.475 17.19,2.475L24.654,9.176L25.788,10.195C21.086,12.18 20.639,15.916 23.325,18.328C23.862,18.811 24.646,18.48 24.646,18.48C21.422,15.585 22.406,12.331 27.109,10.346L25.723,6.074C25.723,6.074 25.205,4.949 27.032,4.629C28.86,4.311 29.379,5.436 29.379,5.436L30.98,8.364C31.615,9.524 32.291,10.681 33.185,11.775C35.71,14.864 34.202,18.703 29.441,20.714C24.248,22.906 17.149,22.091 13.587,18.894L4.988,11.174Z" fill="#D4AB88"/>
<path d="M11.83,17.876C8.029,17.876 4.188,15.511 4.188,13.171C4.188,12.848 3.803,12.586 3.277,12.586C2.752,12.586 2.287,12.848 2.287,13.171C2.287,16.681 6.128,19.046 11.83,19.046C12.355,19.046 12.78,18.76 12.78,18.436C12.78,18.113 12.355,17.876 11.83,17.876Z" fill="#5DADEC"/>
<path d="M7.078,19.021C4.227,19.021 2.327,17.851 2.327,16.096C2.327,15.772 1.902,15.511 1.377,15.511C0.851,15.511 0.426,15.772 0.426,16.096C0.426,18.436 3.277,20.191 7.078,20.191C7.604,20.191 8.028,19.93 8.028,19.606C8.028,19.283 7.604,19.021 7.078,19.021ZM23.232,0.3C22.708,0.3 22.282,0.562 22.282,0.885C22.282,1.208 22.708,1.47 23.232,1.47C27.033,1.47 30.834,3.57 30.834,6.15C30.834,6.473 31.26,6.735 31.785,6.735C32.309,6.735 32.735,6.473 32.735,6.15C32.735,2.925 28.934,0.3 23.232,0.3Z" fill="#5DADEC"/>
<path d="M27.984,-0.846C27.459,-0.846 27.034,-0.608 27.034,-0.285C27.034,0.037 27.459,0.324 27.984,0.324C30.835,0.324 32.695,1.626 32.695,3.225C32.695,3.548 33.16,3.81 33.685,3.81C34.211,3.81 34.596,3.548 34.596,3.225C34.596,0.98 31.785,-0.846 27.984,-0.846Z" fill="#5DADEC"/>
</svg>
