<svg width="162" height="172" viewBox="0 0 162 172" fill="none" xmlns="http://www.w3.org/2000/svg" xmlns:xlink="http://www.w3.org/1999/xlink">
<path d="M44.933,117.451C44.026,116.068 43.155,114.663 42.32,113.237L42.32,113.236L42.243,113.105C44.441,105.032 44.364,95.914 44.284,86.536C44.174,73.382 44.057,59.715 50.213,47.703C53.899,40.508 60.02,39.988 66.808,39.413C72.617,38.921 78.915,38.387 84.594,33.593C86.18,32.254 86.977,30.629 87.1,29.034C87.499,29.34 87.916,29.64 88.352,29.929C99.715,37.46 117.849,40.839 137.763,34.771C138.503,34.545 139.021,34.255 139.389,34.05C139.951,33.734 140.163,33.615 140.286,34.222C141.552,40.461 138.723,86.314 120.822,113.133L120.82,113.133C120.802,113.161 120.756,113.245 120.682,113.382C120.669,113.405 120.656,113.429 120.643,113.453C118.57,112.669 116.439,112.041 114.267,111.575C98.734,108.197 63.849,113.215 44.933,117.451ZM32.933,36.539C31.529,39.261 30.115,41.978 28.693,44.691C26.977,47.963 25.274,51.241 23.585,54.526C22.345,44.234 22.241,36.41 22.712,34.085C22.835,33.478 23.047,33.597 23.609,33.912C23.978,34.118 24.495,34.408 25.236,34.634C27.836,35.426 30.404,36.058 32.933,36.539ZM91.231,87.428C92.881,87.446 94.341,87.468 95.636,87.487C105.067,87.628 105.617,87.636 105.594,85.358C105.567,82.732 105.562,80.577 105.556,78.81C105.54,72.874 105.536,71.294 104.815,70.872C104.554,70.72 104.199,70.719 103.715,70.718L103.679,70.718L101.97,70.714L101.969,70.714C98.458,70.707 94.946,70.7 91.435,70.742L91.433,70.742C91.084,70.746 90.831,70.749 90.648,70.64C90.162,70.35 90.173,69.271 90.215,65.324C90.235,63.516 90.26,61.109 90.248,57.9C90.242,56.477 90.058,55.378 88.617,55.385C86.286,55.394 84.296,55.394 82.598,55.392C73.471,55.385 72.758,55.384 72.788,57.204C72.824,59.342 72.824,61.48 72.823,63.619C72.823,65.643 72.821,67.666 72.852,69.69L72.852,69.727C72.859,70.104 72.862,70.377 72.738,70.573C72.413,71.087 71.204,71.07 66.822,71.011C64.048,70.969 61.274,70.949 58.5,70.949C57.958,70.948 57.58,70.947 57.316,71.115C56.708,71.501 56.701,72.78 56.676,76.995C56.666,79.39 56.637,81.785 56.587,84.179C56.514,87.587 56.615,87.588 60.181,87.664L60.216,87.665C64.4,87.754 67.176,87.703 69.017,87.669C72.525,87.604 72.64,87.601 72.627,88.757C72.587,92.158 72.589,95.559 72.59,98.961L72.591,101.474L72.591,101.587C72.59,102.09 72.589,102.46 72.757,102.732C73.222,103.487 74.98,103.488 81.624,103.488C83.411,103.488 85.552,103.488 88.118,103.504C90.134,103.516 90.118,102.51 90.051,98.226C90.037,97.324 90.021,96.277 90.021,95.064C90.045,95.064 90.069,90.409 90.006,88.65C89.972,87.699 90.245,87.416 91.233,87.427L91.231,87.428Z" clip-rule="evenodd" fill-rule="evenodd" fill="#17C2EC"/>
<path d="M159.062,13.609C159.815,13.188 160.099,13.029 160.264,13.842L160.263,13.842C161.96,22.202 158.141,83.624 134.183,119.573C134.158,119.61 134.098,119.721 134,119.902C133.855,120.168 133.629,120.584 133.315,121.138C130.957,119.11 128.511,117.354 125.86,115.88C145.769,85.712 148.938,34.548 147.516,27.567C147.378,26.885 147.139,27.019 146.508,27.372C146.095,27.603 145.514,27.929 144.683,28.183C122.32,35.005 101.956,31.202 89.194,22.745C87.504,21.626 86.061,20.349 84.869,19.231C84.825,18.919 84.759,18.609 84.671,18.306C83.661,14.871 79.466,9.83 74.685,6.232C77.014,4.489 79.091,2.607 80.886,0.617C81.437,0.006 82.643,1.155 84.482,2.912C86.076,4.434 88.146,6.41 90.679,8.089C105.906,18.18 130.201,22.709 156.883,14.577C157.876,14.274 158.57,13.886 159.062,13.609ZM41.583,18.191C30.758,19.248 18.701,18.231 6.112,14.393C5.119,14.091 4.426,13.702 3.934,13.426C3.18,13.004 2.896,12.845 2.731,13.659C1.574,19.357 2.981,49.72 11.586,79.86C13.797,74.605 16.171,69.467 18.599,64.476C15.232,46.336 14.746,31.011 15.478,27.413C15.616,26.732 15.854,26.866 16.484,27.219C16.897,27.45 17.478,27.776 18.311,28.029C24.242,29.835 30.032,30.895 35.578,31.32C37.801,26.858 39.772,22.658 41.348,18.759C41.424,18.57 41.503,18.38 41.583,18.191ZM71.676,152.458L67.09,152.422C63.35,152.393 59.682,152.364 56.109,152.317C56.805,152.86 57.499,153.406 58.191,153.954C64.185,158.685 80.22,171.342 82.481,170.088C90.354,165.721 99.453,158.996 106.211,153.051L105.479,153.067C103.928,153.101 102.481,153.132 101.186,153.19L101.096,153.194L101.011,153.19C97.787,153.026 94.562,152.895 91.336,152.798C88.302,154.94 85.214,156.923 82.322,158.527C81.253,159.119 76.509,156.001 71.676,152.458Z" clip-rule="evenodd" fill-rule="evenodd" fill="#17C2EC"/>
<path d="M101.115,151.355C49.673,148.714 0.093,155.94 0.967,130.198C2.41,87.758 32.072,46.708 43.105,19.427C45.744,12.901 50.575,6.154 57.783,5.177C61.97,4.609 63.999,1.891 70.354,5.567C74.68,8.07 81.499,14.163 82.862,18.808C83.804,22.016 81.97,23.339 81.417,21.681C79.32,15.376 74.54,11.233 69.253,7.559C67.09,6.056 64.663,5.417 61.939,6.496C55.558,9.021 50.575,6.608 44.624,21.899C34.958,46.734 6.363,85.595 3.434,130.307C2.169,149.601 44.01,147.416 83.846,148.51C95.981,148.843 123.642,150.674 131.826,142.222C135.754,138.165 136.44,131.866 132.256,127.424C118.851,113.196 100.973,114.653 80.818,115.927C58.892,117.313 39.944,122.722 39.471,121.379C38.003,117.206 92.493,108.714 113.858,113.361C123.272,115.409 130.291,120.48 132.33,122.668C134.148,124.62 139.426,127.731 137.916,136.336C135.093,152.415 112.854,150.89 101.114,151.356L101.115,151.355Z" fill="#FFFFFF"/>
<path d="M59.905,36.132C69.073,34.915 74.948,35.538 81.321,31.391C82.401,30.69 83.712,29.258 83.102,27.996C82.016,25.756 80.195,26.385 75.797,26.317C72.294,26.263 70.272,24.251 70.263,20.856C70.256,17.952 70.299,15.04 68.649,12.427C67.517,10.633 72.243,9.424 72.225,20.692C72.217,25.422 76.721,24.251 80.1,24.225C84.712,24.191 87.172,28.992 83.36,32.211C71.669,42.083 55.959,32.382 48.526,46.885C37.687,68.039 45.671,94.143 40.326,113.144C38.638,119.148 33.634,127.357 32.718,126.873C31.231,126.087 37.884,117.097 39.353,104.747C41.288,88.494 34.485,39.507 59.903,36.133L59.905,36.132Z" fill="#FFFFFF"/>
<path d="M102.785,141.977C100.374,140.27 102.495,135.449 108.021,123.13C109.521,119.788 111.264,118.99 114.843,120.131C117.905,121.106 120.367,123.658 119.153,127.453C116.997,134.186 115.793,138.314 111.914,143.167C109.906,145.68 105.233,143.708 102.785,141.977ZM103.98,139.316C103.697,141.314 109.106,143.815 110.51,142.139C111.902,140.48 113.01,138.652 113.919,136.702C114.113,136.285 114.049,136.091 113.64,135.917C105.765,132.563 105.806,132.703 105.49,133.403C104.667,135.227 104.169,137.127 103.981,139.315L103.98,139.316ZM112.311,121.641C110.325,121.53 110.091,123.48 108.607,126.301C108.264,126.952 108.592,127.15 109.13,127.311C115.735,129.287 115.736,131.824 116.93,128.327C117.284,127.291 117.742,126.259 117.502,125.112C117.062,123.018 114.864,121.785 112.311,121.642L112.311,121.641ZM115.712,132.05C115.795,131.557 115.921,131.64 110.379,129.26C107.675,128.099 107.375,128.268 106.443,131.106C106.019,132.397 107.306,131.312 114,134.606C114.827,135.013 114.59,134.975 115.713,132.051L115.712,132.05Z" fill="#FFFFFF"/>
<path d="M109.139,139.58C110.286,139.7 110.246,141.239 109.06,141.174C108.088,141.119 108.018,139.703 109.139,139.58Z" fill="#FFFFFF"/>
<path d="M106.075,137.014C107.053,137.184 106.843,138.364 106.028,138.317C105.214,138.269 105.132,137.13 106.075,137.014Z" fill="#FFFFFF"/>
<path d="M111.262,136.668C111.17,137.458 110.069,137.353 110.054,136.666C110.036,135.843 111.199,135.817 111.262,136.668Z" fill="#FFFFFF"/>
<path d="M112.45,125.643C112.314,126.79 110.802,126.642 110.85,125.747C110.898,124.852 112.389,124.728 112.45,125.643Z" fill="#FFFFFF"/>
<path d="M114.858,124.182C114.858,125.089 113.58,125.083 113.578,124.242C113.576,123.435 114.796,123.41 114.858,124.182Z" fill="#FFFFFF"/>
<path d="M116.199,127.098C116.165,127.954 114.98,127.979 114.972,127.129C114.965,126.416 116.027,126.349 116.199,127.098Z" fill="#FFFFFF"/>
</svg>
