<svg width="420" height="556" viewBox="0 0 420 556" fill="none" xmlns="http://www.w3.org/2000/svg" xmlns:xlink="http://www.w3.org/1999/xlink">
<path d="M301.882,-0.099C283.264,-0.099 231.474,14.644 192.329,41.445C176.112,52.87 161.549,66.371 148.971,82.297C133.552,102.093 112.795,127.517 109.203,138.626C86.274,117.606 58.557,103.882 28.163,101.34C18.732,100.634 -2.282,104.872 0.692,108.609C30.554,146.173 119.843,249.165 119.843,249.165C120.129,249.463 121.366,250.339 122.822,248.819C170.013,180.946 209.28,117.861 261.17,66.719C296.974,32.155 306.472,30.412 315.45,21.02C324.046,10.394 322.546,1.342 301.882,-0.096L301.882,-0.099Z" fill="#38A1FF"/>
<path d="M306.637,305.241C301.63,305.229 263.757,305.238 263.491,305.241C262.831,305.255 262.497,306.28 263.491,306.626C276.931,309.183 298.072,308.137 307.844,306.28C308.126,306.28 308.118,305.244 306.64,305.241L306.637,305.241Z" fill="#38A1FF"/>
<path d="M190.322,176.667C189.986,185.078 188.905,217.338 190.344,225.62C190.675,226.66 191.999,226.312 191.999,225.275C192.691,216.594 191.669,209.404 191.669,200.694C191.669,192.526 191.35,184.358 191.338,176.52C191.338,174.921 190.361,175.733 190.322,176.667Z" fill="#38A1FF"/>
<path d="M261.825,273.877C266.473,272.337 273.003,269.03 279.706,266.125C295.829,259.14 295.999,258.97 297.909,257.47C298.469,256.885 298.021,255.739 297.248,255.739C294.269,256.431 291.29,257.47 288.644,259.201C263.755,270.822 264.62,270.166 261.394,272.325C260.56,272.884 260.243,274.401 261.825,273.877Z" fill="#38A1FF"/>
<path d="M419.381,339.864C417.863,279.559 415.137,243.954 414.417,240.853C410.457,223.778 396.909,202.381 386.615,188.924C379.665,179.921 372.053,169.535 360.135,168.844C346.351,167.884 329.475,181.18 319.757,191.349C317.441,193.079 315.787,195.85 315.123,198.618C315.123,201.956 316.291,205.568 318.153,208.303C316.091,209.404 314.463,211.311 314.463,213.85C314.463,219.204 321.989,224.25 326.377,227.006C331.347,231.34 332.721,236.196 339.617,245.009C340.941,247.085 342.597,248.47 344.581,249.856C349.561,252.087 359.609,253.584 367.009,254.808C361.989,285.794 348.791,314.709 329.359,338.479C314.327,356.368 298.763,369.871 288.573,387.049C275.616,377.877 258.967,368.077 231.39,356.827C227.78,355.354 224.44,352.326 222.455,348.864C218.918,340.731 220.148,337.896 216.166,325.669C208.192,301.19 189.076,284.107 166.519,278.586C136.733,272.009 106.283,285.164 90.062,312.167C73.514,339.516 73.181,374.481 89.071,402.179C90.83,405.245 92.86,408.033 94.909,410.797C109.41,433.943 151.497,473.163 169.958,487.417C205.352,514.855 251.233,537.041 289.977,548.617C298.205,551.383 306.837,553.839 315.619,555.567C318.033,556.043 321.579,555.545 323.803,554.405C339.831,546.189 354.085,534.751 365.769,520.921C378.677,506.035 389.601,488.725 397.543,470.377C412.547,437.179 421.861,398.539 419.389,339.864L419.381,339.864ZM414.417,400.447C409.453,441.643 393.565,480.419 368.743,512.615C356.011,528.855 340.063,542.333 322.289,551.943C320.627,552.841 318.709,553.073 316.895,552.599C309.283,550.597 301.503,548.975 293.943,546.541C285.339,543.771 277.396,541.349 269.45,538.233C253.232,532.001 237.345,524.731 221.791,516.423C144.41,473.777 107.602,420.525 98.09,409.617C98.056,409.563 98.048,409.503 98.006,409.447C78.288,384.791 74.839,348.864 88.738,320.476C116.618,263.679 190.591,267.531 212.523,323.589C219.543,341.944 214.2,353.02 232.381,360.632C253.305,369.751 267.277,375.633 287.115,389.517C279.303,403.511 275.366,415.511 273.42,437.141C272.608,446.175 272.121,454.855 272.099,463.849C272.093,466.639 274.524,465.421 274.638,463.939C275.688,450.295 274.532,435.119 279.379,415.677C288.411,381.033 310.237,365.534 329.685,342.283C350.499,317.749 364.383,287.698 369.701,255.227C370.241,255.045 370.633,253.61 370.065,253.312C357.233,249.179 348.317,251.338 343.585,246.388C337.297,240.501 334.647,231.156 328.359,225.272C325.379,223.196 322.401,220.771 319.421,218.348C317.767,216.618 315.451,213.847 317.767,211.425C319.091,210.04 321.075,209.694 323.061,209.694C329.019,210.04 332.989,215.923 338.949,216.963C343.251,217.654 347.553,215.232 351.857,213.847C361.965,210.324 359.539,211.56 365.095,210.731C366.089,210.731 365.755,209 365.095,209C362.625,208.801 360.167,208.985 357.761,209.469C357.207,208.203 355.833,203.242 355.343,201.382C354.029,196.401 349.271,195.991 344.851,198.301C342.871,199.485 341.427,200.984 339.587,202.167C337.087,203.775 339.119,205.345 340.211,204.774C341.611,204.039 343.131,202.779 344.417,201.705C348.245,198.498 351.731,199.174 352.847,202.076C353.499,203.778 354.395,208.042 355.443,210.013C348.973,211.946 343.657,215.669 338.615,214.538C332.287,213.068 327.627,205.664 320.253,207.477C318.593,204.704 316.171,200.565 317.763,197.229C319.087,194.804 320.743,193.076 323.059,191.343C326.367,187.881 330.007,184.765 333.981,181.649C341.263,176.107 350.199,170.569 359.797,170.915C371.051,171.606 378.333,181.649 384.619,189.954C394.827,203.058 407.327,223.336 412.089,239.113C412.901,242.513 416.715,330.208 416.723,330.51C417.715,354.051 417.055,377.247 414.409,400.441L414.417,400.447Z" fill="#38A1FF"/>
<path d="M360.257,151.409C370.594,144.381 382.573,143.9 393.232,152.572C395.881,155.343 398.527,158.11 400.846,161.572C401.366,162.117 402.5,161.765 402.5,160.881C397.598,146.141 374.408,138.397 359.543,150.197C358.664,150.894 358.126,152.859 360.257,151.409Z" fill="#38A1FF"/>
<path d="M374.562,134.379C383.777,132.472 391.253,135.922 397.536,143.227C398.197,143.918 399.191,143.227 398.861,142.187C392.577,132.329 381.999,130.279 374.582,132.976C374.019,133.181 372.555,134.792 374.562,134.379Z" fill="#38A1FF"/>
<path d="M135.841,364.501C129.919,365.904 123.782,366.595 117.527,366.519C115.419,366.519 113.272,366.835 113.888,368.944C115.593,374.78 116.68,378.781 117.557,382.009C118.959,387.166 119.827,390.361 121.831,395.946C122.492,398.714 123.816,401.485 125.141,403.91C126.465,405.64 128.45,406.332 130.435,405.986C134.379,405.986 148.407,402.961 155.251,401.303C154.514,400.228 153.787,399.142 153.07,398.046C150.269,398.755 147.468,399.364 144.668,399.757C142.73,400.009 140.844,400.421 138.953,400.834C135.878,401.505 132.79,402.179 129.441,402.179C126.574,402.179 125.695,398.538 125.079,395.993C124.984,395.601 124.896,395.232 124.807,394.91C124.415,393.475 124.134,392.693 123.76,391.656C122.891,389.245 121.524,385.45 117.116,368.859C123.733,369.336 130.397,368.706 136.882,367.166C136.527,366.281 136.18,365.394 135.841,364.501ZM170.242,350.021C169.862,349.063 169.487,348.106 169.116,347.145C175.293,341.68 180.714,335.178 185.145,327.789C186.043,326.292 186.909,326.451 187.362,327.4C190.243,333.09 197.509,349.274 199.279,355.442C200.601,358.21 201.264,361.326 201.264,364.442C199.94,369.289 197.859,373.354 194.645,377.252C192.275,380.128 189.818,382.893 186.995,385.438C186.417,384.401 185.847,383.359 185.282,382.313C190.128,378.04 194.202,372.988 196.961,367.213L196.961,367.216C198.459,364.867 198.856,362.527 197.291,359.252C194.247,349.391 190.56,340.447 186.136,331.274C182.157,338.127 176.7,344.518 170.242,350.021Z" clip-rule="evenodd" fill-rule="evenodd" fill="#38A1FF"/>
<path d="M193.321,392.485C183.241,375.524 170.741,348.949 165.189,330.17C164.478,327.763 163.865,324.286 161.219,323.247C158.57,322.21 155.26,325.323 152.945,326.363L129.114,340.213C128.45,340.558 128.45,341.249 128.45,341.598C133.261,366.756 144.332,390.253 160.065,409.957C159.239,410.994 160.009,413.243 161.879,412.912C173.849,410.804 184.716,404.258 192.99,394.564C193.654,393.873 193.654,393.179 193.321,392.487L193.321,392.485ZM131.919,341.932L153.936,329.13C155.591,328.091 156.915,327.054 158.9,326.36C160.885,325.669 161.219,328.436 161.879,330.167C162.54,331.898 162.915,333.611 163.534,335.36C170.753,355.709 177.114,371.846 189.706,393.114C182.499,400.6 173.298,406.132 163.445,408.783C147.468,387.453 137.855,369.169 131.919,341.929L131.919,341.932Z" fill="#38A1FF"/>
<path d="M312.895,130.741L311.08,129.415L314.992,123.572L321.832,128.583C322.356,128.967 323.078,128.832 323.445,128.284L327.287,122.547C327.654,121.999 327.528,121.244 327.001,120.86L305.934,105.431C305.41,105.048 304.688,105.18 304.321,105.73L300.48,111.468C300.113,112.015 300.239,112.771 300.762,113.154L307.603,118.166L303.691,124.008L301.877,122.682C296.8,118.962 289.778,120.26 286.225,125.569L225.518,216.254C222.192,221.224 223.107,227.937 227.397,231.829L217.958,245.931C217.591,246.479 217.717,247.234 218.244,247.618L222.799,250.954L204.148,278.815C203.269,280.127 205.168,281.518 206.047,280.203L224.698,252.342L229.253,255.678C229.777,256.062 230.499,255.93 230.866,255.379L240.305,241.277C245.269,244.162 251.614,242.765 254.94,237.798L315.647,147.113C319.203,141.803 317.966,134.458 312.889,130.741L312.895,130.741ZM303.047,111.863L305.559,108.111L324.728,122.152L322.216,125.903L303.047,111.863ZM313.096,122.181L309.185,128.024L305.595,125.397L309.507,119.554L313.096,122.181ZM229.64,252.995L220.528,246.321L229.236,233.314L238.348,239.989L229.64,252.995ZM253.05,236.407C250.228,240.621 244.653,241.649 240.624,238.697L229.614,230.634C225.585,227.682 224.602,221.854 227.422,217.637L231.695,211.252L241.78,218.638C243.035,219.558 244.365,217.572 243.108,216.653L233.022,209.266L236.637,203.866L242.828,208.4C244.082,209.319 245.412,207.331 244.158,206.414L237.967,201.88L241.582,196.48L247.772,201.013C249.027,201.933 250.357,199.947 249.1,199.028L242.909,194.494L246.524,189.093L252.714,193.627C253.969,194.547 255.299,192.561 254.044,191.641L247.854,187.108L251.468,181.707L257.659,186.241C258.914,187.16 260.244,185.175 258.989,184.255L252.798,179.721L256.413,174.321L266.499,181.707C267.753,182.627 269.083,180.641 267.826,179.721L257.74,172.335L261.355,166.935L267.546,171.468C268.8,172.388 270.13,170.399 268.876,169.483L262.685,164.949L266.3,159.548L272.491,164.082C273.745,165.002 275.075,163.016 273.818,162.096L267.627,157.563L271.242,152.162L277.433,156.696C278.687,157.615 280.017,155.63 278.763,154.71L272.572,150.177L276.187,144.776L282.378,149.31C283.632,150.229 284.962,148.244 283.708,147.324L277.517,142.79L281.132,137.39L291.217,144.776C292.472,145.696 293.802,143.71 292.544,142.79L282.459,135.404L288.123,126.943C290.946,122.726 296.52,121.7 300.55,124.65L311.559,132.713C315.588,135.665 316.571,141.493 313.752,145.71L253.045,236.395L253.05,236.407Z" fill="#38A1FF"/>
</svg>
