<svg width="282" height="308" viewBox="0 0 282 308" fill="none" xmlns="http://www.w3.org/2000/svg" xmlns:xlink="http://www.w3.org/1999/xlink">
<path d="M77.359,211.528C75.763,209.027 74.231,206.487 72.763,203.91L72.763,203.908L72.628,203.67C76.494,189.075 76.359,172.589 76.219,155.636C76.024,131.854 75.819,107.145 86.647,85.428C93.131,72.42 103.899,71.481 115.84,70.441C126.058,69.55 137.137,68.585 147.126,59.918C149.916,57.497 151.318,54.56 151.534,51.676C152.236,52.229 152.97,52.771 153.737,53.294C173.725,66.91 205.623,73.019 240.655,62.048C241.957,61.64 242.867,61.115 243.513,60.744C244.503,60.173 244.875,59.959 245.093,61.056C247.319,72.335 242.343,155.235 210.854,203.722L210.85,203.722C210.819,203.771 210.738,203.923 210.608,204.17C210.585,204.214 210.562,204.257 210.538,204.299C206.892,202.882 203.143,201.747 199.323,200.903C171.999,194.797 110.634,203.87 77.359,211.528ZM56.25,65.244C53.78,70.165 51.294,75.078 48.792,79.983C45.774,85.898 42.779,91.825 39.806,97.764C37.625,79.157 37.442,65.011 38.272,60.809C38.488,59.71 38.861,59.926 39.849,60.495C40.498,60.868 41.407,61.393 42.71,61.8C47.284,63.232 51.802,64.374 56.25,65.244ZM158.801,157.248C161.703,157.281 164.272,157.32 166.549,157.355C183.139,157.609 184.107,157.624 184.066,153.506C184.02,148.758 184.01,144.863 184,141.667C183.972,130.935 183.964,128.079 182.696,127.317C182.238,127.041 181.612,127.04 180.761,127.038L180.698,127.038L177.692,127.031L177.69,127.031C171.514,127.018 165.335,127.005 159.159,127.081L159.156,127.081C158.542,127.089 158.097,127.094 157.775,126.896C156.92,126.373 156.94,124.421 157.014,117.285C157.049,114.018 157.093,109.665 157.072,103.864C157.062,101.291 156.737,99.305 154.203,99.316C150.102,99.333 146.603,99.333 143.614,99.329C127.56,99.316 126.306,99.315 126.359,102.605C126.421,106.471 126.421,110.337 126.42,114.203C126.42,117.862 126.417,121.52 126.471,125.178L126.471,125.246C126.483,125.927 126.489,126.421 126.271,126.776C125.699,127.704 123.572,127.675 115.863,127.568C110.984,127.492 106.104,127.455 101.224,127.455C100.271,127.454 99.607,127.452 99.142,127.756C98.073,128.454 98.06,130.765 98.017,138.387C97.999,142.716 97.947,147.045 97.86,151.374C97.731,157.535 97.909,157.538 104.181,157.675L104.244,157.677C111.603,157.838 116.487,157.746 119.726,157.683C125.895,157.566 126.098,157.561 126.075,159.652C126.004,165.8 126.009,171.949 126.011,178.099L126.012,182.643L126.012,182.848C126.011,183.757 126.009,184.425 126.304,184.917C127.121,186.281 130.215,186.283 141.902,186.284C145.045,186.284 148.812,186.284 153.325,186.313C156.871,186.334 156.843,184.516 156.725,176.771C156.701,175.14 156.673,173.246 156.673,171.053C156.715,171.053 156.757,162.638 156.646,159.457C156.587,157.738 157.067,157.226 158.804,157.246L158.801,157.248Z" clip-rule="evenodd" fill-rule="evenodd" fill="#FFFFFF"/>
<path d="M278.121,23.789C279.445,23.027 279.943,22.74 280.235,24.21L280.233,24.21C283.217,39.324 276.501,150.371 234.355,215.364C234.313,215.43 234.207,215.632 234.035,215.96C233.781,216.44 233.383,217.192 232.829,218.194C228.681,214.528 224.379,211.352 219.715,208.688C254.737,154.146 260.311,61.645 257.811,49.023C257.567,47.79 257.147,48.033 256.037,48.671C255.311,49.089 254.287,49.678 252.825,50.136C213.489,62.47 177.667,55.595 155.217,40.306C152.246,38.283 149.706,35.974 147.609,33.953C147.532,33.388 147.416,32.829 147.261,32.28C145.486,26.069 138.105,16.957 129.695,10.452C133.792,7.301 137.445,3.897 140.603,0.3C141.573,-0.806 143.694,1.273 146.929,4.45C149.733,7.2 153.374,10.772 157.831,13.808C184.615,32.052 227.351,40.241 274.287,25.538C276.033,24.99 277.255,24.289 278.121,23.789ZM71.467,32.072C52.426,33.983 31.217,32.145 9.07,25.207C7.324,24.66 6.105,23.958 5.239,23.458C3.914,22.695 3.414,22.406 3.124,23.878C1.087,34.181 3.562,89.075 18.7,143.566C22.589,134.065 26.765,124.776 31.037,115.752C25.113,82.957 24.258,55.25 25.545,48.745C25.79,47.515 26.207,47.755 27.316,48.394C28.042,48.811 29.065,49.4 30.53,49.859C40.963,53.125 51.149,55.04 60.903,55.809C64.814,47.742 68.28,40.149 71.054,33.098C71.188,32.757 71.326,32.414 71.467,32.072ZM124.402,274.818L116.335,274.752C109.757,274.7 103.305,274.648 97.019,274.562C98.243,275.544 99.464,276.532 100.682,277.522C111.225,286.076 139.432,308.958 143.41,306.692C157.258,298.796 173.263,286.638 185.152,275.89L183.865,275.92C181.136,275.98 178.591,276.036 176.313,276.142L176.154,276.148L176.004,276.142C170.334,275.844 164.661,275.608 158.986,275.432C153.648,279.304 148.216,282.89 143.129,285.79C141.248,286.86 132.904,281.224 124.402,274.818Z" clip-rule="evenodd" fill-rule="evenodd" fill="#FFFFFF"/>
<path d="M176.187,272.824C85.698,268.048 -1.518,281.114 0.02,234.574C2.558,157.845 54.736,83.63 74.143,34.308C78.786,22.509 87.284,10.31 99.964,8.543C107.328,7.517 110.898,2.603 122.077,9.249C129.687,13.774 141.681,24.791 144.08,33.188C145.736,38.987 142.509,41.38 141.537,38.382C137.848,26.984 129.439,19.493 120.14,12.851C116.335,10.134 112.067,8.979 107.273,10.929C96.05,15.495 87.284,11.132 76.816,38.776C59.813,83.676 9.512,153.935 4.36,234.77C2.135,269.652 75.735,265.702 145.809,267.68C167.157,268.284 215.814,271.594 230.21,256.312C237.12,248.978 238.326,237.59 230.966,229.56C207.386,203.836 175.938,206.47 140.483,208.772C101.914,211.278 68.582,221.058 67.751,218.63C65.169,211.084 161.02,195.732 198.602,204.133C215.164,207.836 227.51,217.004 231.096,220.96C234.296,224.488 243.58,230.114 240.924,245.672C235.956,274.742 196.837,271.984 176.186,272.826L176.187,272.824Z" fill="#FFFFFF"/>
<path d="M103.696,64.508C119.823,62.309 130.157,63.434 141.369,55.938C143.268,54.669 145.575,52.08 144.501,49.8C142.592,45.749 139.387,46.886 131.651,46.764C125.49,46.667 121.932,43.028 121.917,36.89C121.904,31.64 121.98,26.376 119.078,21.651C117.086,18.409 125.399,16.222 125.367,36.595C125.354,45.145 133.276,43.028 139.221,42.982C147.334,42.919 151.66,51.6 144.955,57.42C124.391,75.268 96.755,57.728 83.68,83.95C64.613,122.194 78.658,169.389 69.256,203.742C66.286,214.595 57.483,229.437 55.873,228.563C53.257,227.141 64.959,210.888 67.545,188.56C70.947,159.175 58.981,70.61 103.693,64.51L103.696,64.508Z" fill="#FFFFFF"/>
<path d="M179.126,255.868C174.884,252.783 178.614,244.066 188.336,221.794C190.974,215.752 194.04,214.31 200.337,216.372C205.722,218.136 210.053,222.749 207.917,229.61C204.125,241.784 202.006,249.247 195.184,258.02C191.651,262.564 183.431,258.998 179.126,255.868ZM181.226,251.059C180.73,254.67 190.243,259.191 192.713,256.162C195.162,253.162 197.111,249.857 198.71,246.331C199.051,245.579 198.939,245.227 198.22,244.912C184.366,238.849 184.439,239.103 183.883,240.368C182.436,243.665 181.559,247.1 181.228,251.057L181.226,251.059ZM195.881,219.103C192.388,218.902 191.976,222.428 189.366,227.528C188.763,228.704 189.339,229.062 190.286,229.354C201.906,232.927 201.907,237.514 204.008,231.191C204.63,229.318 205.435,227.452 205.013,225.378C204.239,221.593 200.373,219.364 195.881,219.105L195.881,219.103ZM201.864,237.921C202.01,237.03 202.232,237.18 192.482,232.877C187.727,230.778 187.199,231.084 185.559,236.215C184.813,238.548 187.077,236.588 198.853,242.543C200.308,243.279 199.891,243.209 201.866,237.923L201.864,237.921Z" fill="#FFFFFF"/>
<path d="M190.301,251.535C192.319,251.752 192.25,254.535 190.163,254.416C188.453,254.317 188.33,251.758 190.301,251.535Z" fill="#FFFFFF"/>
<path d="M184.912,246.896C186.632,247.204 186.262,249.338 184.83,249.252C183.398,249.166 183.252,247.107 184.912,246.896Z" fill="#FFFFFF"/>
<path d="M194.037,246.27C193.875,247.699 191.938,247.509 191.911,246.267C191.88,244.779 193.926,244.732 194.037,246.27Z" fill="#FFFFFF"/>
<path d="M196.126,226.338C195.887,228.412 193.228,228.145 193.313,226.526C193.397,224.908 196.02,224.683 196.126,226.338Z" fill="#FFFFFF"/>
<path d="M200.361,223.697C200.361,225.337 198.114,225.327 198.111,223.805C198.108,222.347 200.253,222.301 200.361,223.697Z" fill="#FFFFFF"/>
<path d="M202.721,228.968C202.661,230.516 200.577,230.562 200.563,229.024C200.551,227.736 202.419,227.615 202.721,228.968Z" fill="#FFFFFF"/>
</svg>
