<svg width="92" height="100" viewBox="0 0 92 100" fill="none" xmlns="http://www.w3.org/2000/svg" xmlns:xlink="http://www.w3.org/1999/xlink">
<path d="M24.745,67.671C24.233,66.867 23.741,66.051 23.269,65.224L23.269,65.223L23.226,65.147C24.468,60.458 24.424,55.163 24.379,49.717C24.317,42.078 24.251,34.142 27.729,27.166C29.812,22.987 33.27,22.686 37.106,22.352C40.388,22.066 43.947,21.756 47.155,18.972C48.052,18.194 48.502,17.251 48.571,16.324C48.797,16.502 49.033,16.676 49.279,16.844C55.699,21.218 65.945,23.18 77.198,19.656C77.616,19.525 77.909,19.356 78.116,19.237C78.434,19.054 78.554,18.985 78.624,19.337C79.339,22.96 77.74,49.589 67.626,65.163L67.624,65.163C67.614,65.179 67.588,65.228 67.547,65.307C67.539,65.321 67.532,65.335 67.524,65.349C66.353,64.893 65.149,64.529 63.922,64.258C55.145,62.296 35.434,65.211 24.745,67.671ZM17.965,20.682C17.172,22.263 16.373,23.841 15.569,25.417C14.6,27.317 13.638,29.221 12.683,31.128C11.982,25.151 11.924,20.608 12.19,19.258C12.26,18.905 12.379,18.974 12.697,19.157C12.905,19.277 13.197,19.445 13.616,19.576C15.085,20.036 16.536,20.403 17.965,20.682ZM50.906,50.235C51.838,50.246 52.663,50.259 53.394,50.27C58.723,50.351 59.034,50.356 59.021,49.033C59.006,47.508 59.003,46.257 59,45.23C58.991,41.783 58.988,40.866 58.581,40.621C58.434,40.532 58.233,40.532 57.959,40.531L57.939,40.531L56.974,40.529L56.973,40.529C54.989,40.525 53.004,40.521 51.021,40.545L51.02,40.545C50.822,40.548 50.679,40.549 50.576,40.486C50.301,40.318 50.308,39.691 50.332,37.399C50.343,36.349 50.357,34.951 50.35,33.088C50.347,32.261 50.243,31.623 49.428,31.627C48.111,31.632 46.987,31.632 46.027,31.631C40.871,31.627 40.468,31.626 40.485,32.683C40.505,33.925 40.505,35.167 40.504,36.409C40.504,37.584 40.503,38.759 40.521,39.934L40.521,39.956C40.524,40.175 40.527,40.333 40.457,40.447C40.273,40.746 39.59,40.736 37.113,40.702C35.546,40.677 33.979,40.665 32.411,40.666C32.105,40.665 31.892,40.664 31.742,40.762C31.399,40.986 31.395,41.729 31.381,44.177C31.375,45.567 31.359,46.958 31.331,48.348C31.289,50.327 31.347,50.328 33.361,50.372L33.381,50.373C35.745,50.425 37.314,50.395 38.354,50.375C40.336,50.337 40.401,50.336 40.394,51.007C40.371,52.982 40.372,54.957 40.373,56.933L40.373,58.392L40.373,58.458C40.373,58.75 40.372,58.965 40.467,59.123C40.73,59.561 41.723,59.562 45.477,59.562C46.487,59.562 47.697,59.562 49.147,59.571C50.286,59.578 50.276,58.994 50.239,56.506C50.231,55.983 50.222,55.374 50.222,54.67C50.236,54.67 50.249,51.967 50.213,50.945C50.194,50.393 50.349,50.228 50.907,50.235L50.906,50.235Z" clip-rule="evenodd" fill-rule="evenodd" fill="#38A1FF"/>
<path d="M89.233,7.366C89.658,7.122 89.818,7.029 89.912,7.502L89.911,7.502C90.87,12.356 88.712,48.026 75.175,68.903C75.161,68.924 75.127,68.988 75.072,69.094C74.99,69.248 74.862,69.49 74.685,69.812C73.352,68.634 71.97,67.614 70.472,66.758C81.721,49.239 83.512,19.526 82.709,15.472C82.63,15.076 82.496,15.154 82.139,15.359C81.906,15.493 81.577,15.682 81.108,15.83C68.472,19.791 56.966,17.583 49.754,12.672C48.8,12.022 47.984,11.281 47.311,10.631C47.286,10.45 47.249,10.27 47.199,10.094C46.629,8.099 44.258,5.172 41.556,3.082C42.872,2.07 44.046,0.977 45.06,-0.179C45.372,-0.534 46.053,0.134 47.092,1.154C47.993,2.038 49.162,3.185 50.594,4.16C59.197,10.021 72.925,12.651 88.001,7.928C88.562,7.752 88.954,7.527 89.233,7.366ZM22.853,10.027C16.736,10.641 9.924,10.05 2.81,7.822C2.249,7.646 1.858,7.421 1.58,7.26C1.154,7.015 0.993,6.922 0.9,7.395C0.246,10.704 1.041,28.337 5.903,45.84C7.152,42.788 8.494,39.805 9.866,36.906C7.963,26.372 7.689,17.472 8.102,15.383C8.181,14.987 8.315,15.065 8.671,15.27C8.904,15.404 9.233,15.593 9.703,15.74C13.055,16.789 16.326,17.405 19.46,17.652C20.716,15.06 21.829,12.621 22.72,10.357C22.763,10.247 22.808,10.137 22.853,10.027ZM39.856,88L37.265,87.979C35.152,87.962 33.08,87.945 31.06,87.918C31.454,88.233 31.846,88.55 32.237,88.869C35.624,91.616 44.684,98.966 45.962,98.238C50.41,95.702 55.551,91.796 59.37,88.344L58.956,88.354C58.08,88.373 57.262,88.391 56.531,88.425L56.48,88.427L56.431,88.425C54.61,88.33 52.788,88.254 50.965,88.197C49.25,89.441 47.506,90.593 45.872,91.524C45.267,91.868 42.587,90.058 39.856,88Z" clip-rule="evenodd" fill-rule="evenodd" fill="#38A1FF"/>
<path d="M56.49,87.359C27.424,85.825 -0.591,90.022 -0.097,75.073C0.718,50.427 17.478,26.588 23.712,10.745C25.203,6.955 27.933,3.037 32.006,2.469C34.371,2.139 35.518,0.561 39.109,2.696C41.553,4.149 45.406,7.688 46.177,10.385C46.709,12.248 45.672,13.017 45.36,12.054C44.175,8.392 41.474,5.986 38.487,3.853C37.265,2.98 35.894,2.609 34.354,3.235C30.749,4.702 27.933,3.301 24.571,12.18C19.109,26.603 2.952,49.171 1.297,75.136C0.582,86.341 24.223,85.072 46.732,85.707C53.589,85.901 69.218,86.964 73.843,82.056C76.062,79.7 76.45,76.042 74.085,73.462C66.511,65.199 56.41,66.045 45.021,66.785C32.632,67.59 21.926,70.732 21.659,69.951C20.829,67.528 51.618,62.597 63.69,65.295C69.01,66.484 72.976,69.429 74.127,70.7C75.155,71.833 78.137,73.64 77.284,78.638C75.689,87.975 63.123,87.089 56.489,87.36L56.49,87.359Z" fill="#191919"/>
<path d="M33.205,20.446C38.385,19.739 41.704,20.101 45.306,17.693C45.916,17.285 46.657,16.454 46.312,15.721C45.698,14.42 44.669,14.785 42.184,14.746C40.205,14.715 39.062,13.546 39.057,11.575C39.053,9.888 39.078,8.197 38.145,6.68C37.506,5.638 40.176,4.936 40.166,11.48C40.161,14.226 42.706,13.546 44.616,13.531C47.222,13.511 48.611,16.3 46.457,18.169C39.852,23.902 30.975,18.268 26.775,26.691C20.651,38.975 25.162,54.135 22.142,65.169C21.188,68.656 18.361,73.423 17.843,73.142C17.003,72.686 20.762,67.465 21.592,60.293C22.685,50.854 18.842,22.406 33.204,20.446L33.205,20.446Z" fill="#191919"/>
<path d="M57.434,81.913C56.071,80.922 57.27,78.122 60.392,70.968C61.24,69.027 62.225,68.564 64.247,69.226C65.977,69.793 67.368,71.275 66.682,73.479C65.464,77.389 64.783,79.786 62.592,82.604C61.457,84.064 58.817,82.918 57.434,81.913ZM58.109,80.368C57.949,81.528 61.005,82.98 61.798,82.007C62.585,81.044 63.211,79.982 63.724,78.85C63.834,78.608 63.798,78.495 63.567,78.394C59.117,76.446 59.14,76.528 58.962,76.934C58.497,77.993 58.216,79.097 58.109,80.368L58.109,80.368ZM62.816,70.104C61.694,70.039 61.561,71.172 60.723,72.81C60.53,73.188 60.715,73.303 61.019,73.396C64.751,74.544 64.752,76.017 65.426,73.986C65.626,73.385 65.885,72.785 65.749,72.119C65.5,70.903 64.259,70.187 62.816,70.104L62.816,70.104ZM64.738,76.148C64.784,75.862 64.856,75.91 61.724,74.528C60.197,73.854 60.027,73.952 59.5,75.6C59.261,76.35 59.988,75.72 63.771,77.633C64.238,77.869 64.104,77.847 64.738,76.149L64.738,76.148Z" fill="#191919"/>
<path d="M61.023,80.521C61.671,80.59 61.649,81.485 60.979,81.446C60.43,81.415 60.39,80.593 61.023,80.521Z" fill="#191919"/>
<path d="M59.292,79.031C59.845,79.13 59.726,79.815 59.266,79.788C58.806,79.76 58.759,79.099 59.292,79.031Z" fill="#191919"/>
<path d="M62.223,78.83C62.171,79.289 61.549,79.228 61.541,78.829C61.531,78.351 62.188,78.336 62.223,78.83Z" fill="#191919"/>
<path d="M62.895,72.428C62.818,73.094 61.964,73.008 61.991,72.488C62.018,71.968 62.861,71.896 62.895,72.428Z" fill="#191919"/>
<path d="M64.255,71.579C64.255,72.106 63.533,72.103 63.532,71.614C63.531,71.146 64.22,71.131 64.255,71.579Z" fill="#191919"/>
<path d="M65.013,73.272C64.994,73.77 64.324,73.784 64.319,73.29C64.316,72.877 64.916,72.838 65.013,73.272Z" fill="#191919"/>
</svg>
