<svg width="276" height="300" viewBox="0 0 276 300" fill="none" xmlns="http://www.w3.org/2000/svg" xmlns:xlink="http://www.w3.org/1999/xlink">
<path d="M75.471,205.715C73.914,203.276 72.419,200.797 70.987,198.282L70.987,198.28L70.855,198.049C74.627,183.807 74.495,167.721 74.358,151.178C74.168,127.973 73.969,103.864 84.534,82.673C90.861,69.98 101.368,69.063 113.019,68.049C122.99,67.18 133.8,66.238 143.547,57.781C146.269,55.419 147.638,52.553 147.848,49.739C148.533,50.278 149.249,50.808 149.998,51.318C169.501,64.604 200.626,70.564 234.808,59.859C236.078,59.461 236.966,58.949 237.598,58.587C238.562,58.03 238.926,57.821 239.138,58.892C241.31,69.897 236.455,150.787 205.73,198.098L205.726,198.098C205.696,198.147 205.617,198.295 205.49,198.536C205.468,198.579 205.445,198.62 205.422,198.662C201.864,197.279 198.206,196.172 194.479,195.349C167.817,189.39 107.94,198.243 75.471,205.715ZM54.874,62.978C52.464,67.78 50.038,72.574 47.597,77.36C44.652,83.131 41.729,88.915 38.829,94.709C36.7,76.553 36.522,62.751 37.332,58.65C37.542,57.578 37.906,57.789 38.871,58.344C39.503,58.708 40.391,59.22 41.662,59.618C46.125,61.015 50.534,62.129 54.874,62.978ZM154.939,152.751C157.771,152.783 160.278,152.822 162.499,152.856C178.686,153.104 179.631,153.118 179.591,149.1C179.546,144.468 179.536,140.667 179.527,137.548C179.499,127.077 179.491,124.29 178.255,123.546C177.807,123.277 177.197,123.275 176.366,123.274L176.305,123.274L173.372,123.267L173.37,123.267C167.344,123.254 161.315,123.242 155.288,123.316L155.285,123.316C154.686,123.324 154.251,123.328 153.937,123.135C153.103,122.625 153.123,120.72 153.195,113.757C153.229,110.569 153.273,106.322 153.252,100.661C153.242,98.151 152.925,96.213 150.452,96.224C146.451,96.24 143.036,96.24 140.12,96.237C124.455,96.224 123.232,96.223 123.283,99.433C123.344,103.205 123.344,106.977 123.343,110.75C123.343,114.321 123.339,117.89 123.393,121.459L123.393,121.525C123.404,122.19 123.41,122.672 123.198,123.018C122.639,123.924 120.564,123.895 113.042,123.791C108.281,123.717 103.519,123.681 98.758,123.681C97.827,123.679 97.18,123.678 96.726,123.974C95.683,124.655 95.67,126.911 95.628,134.347C95.611,138.572 95.56,142.796 95.475,147.02C95.35,153.031 95.523,153.035 101.643,153.168L101.704,153.17C108.885,153.328 113.65,153.237 116.811,153.176C122.831,153.062 123.029,153.057 123.006,155.097C122.937,161.096 122.942,167.096 122.943,173.097L122.945,177.531L122.945,177.73C122.943,178.617 122.942,179.27 123.23,179.749C124.027,181.081 127.046,181.082 138.449,181.084C141.516,181.084 145.192,181.084 149.595,181.111C153.055,181.132 153.028,179.358 152.914,171.801C152.889,170.21 152.862,168.362 152.862,166.222C152.904,166.222 152.944,158.011 152.836,154.907C152.778,153.229 153.247,152.73 154.942,152.75L154.939,152.751Z" clip-rule="evenodd" fill-rule="evenodd" fill="#38A1FF"/>
<path d="M271.366,22.528C272.658,21.784 273.144,21.504 273.428,22.939L273.426,22.939C276.34,37.686 269.784,146.041 228.662,209.46C228.62,209.524 228.518,209.72 228.348,210.04C228.1,210.508 227.712,211.244 227.174,212.22C223.126,208.642 218.926,205.546 214.376,202.946C248.55,149.725 253.988,59.466 251.548,47.15C251.31,45.947 250.902,46.184 249.818,46.807C249.11,47.214 248.112,47.789 246.684,48.237C208.3,60.271 173.348,53.562 151.442,38.644C148.542,36.67 146.064,34.418 144.018,32.446C143.943,31.894 143.83,31.349 143.678,30.813C141.946,24.753 134.745,15.861 126.538,9.514C130.536,6.439 134.101,3.118 137.182,-0.392C138.129,-1.471 140.198,0.558 143.355,3.657C146.09,6.341 149.643,9.827 153.992,12.789C180.127,30.591 221.828,38.581 267.626,24.235C269.33,23.7 270.52,23.016 271.366,22.528ZM69.721,30.61C51.142,32.475 30.447,30.681 8.838,23.911C7.134,23.378 5.945,22.692 5.099,22.204C3.807,21.461 3.319,21.179 3.035,22.615C1.049,32.668 3.464,86.231 18.234,139.401C22.029,130.131 26.103,121.067 30.272,112.261C24.492,80.261 23.658,53.226 24.914,46.879C25.152,45.678 25.559,45.913 26.641,46.536C27.349,46.944 28.348,47.519 29.777,47.966C39.957,51.152 49.896,53.021 59.414,53.772C63.23,45.9 66.613,38.491 69.319,31.612C69.449,31.278 69.585,30.944 69.721,30.61ZM121.373,267.472L113.502,267.408C107.083,267.356 100.788,267.306 94.654,267.222C95.849,268.18 97.041,269.144 98.228,270.112C108.516,278.458 136.039,300.784 139.921,298.572C153.433,290.868 169.05,279.004 180.65,268.518L179.395,268.546C176.732,268.606 174.249,268.66 172.026,268.764L171.871,268.77L171.725,268.764C166.192,268.474 160.657,268.242 155.119,268.072C149.911,271.85 144.611,275.348 139.647,278.178C137.812,279.222 129.67,273.722 121.373,267.472Z" clip-rule="evenodd" fill-rule="evenodd" fill="#38A1FF"/>
<path d="M171.903,265.526C83.608,260.866 -1.494,273.614 0.007,228.202C2.483,153.334 53.396,80.918 72.333,32.792C76.864,21.279 85.155,9.376 97.528,7.652C104.713,6.65 108.197,1.856 119.105,8.341C126.53,12.755 138.234,23.505 140.574,31.699C142.191,37.358 139.042,39.692 138.093,36.767C134.493,25.645 126.289,18.336 117.215,11.855C113.502,9.204 109.337,8.077 104.66,9.98C93.709,14.435 85.155,10.178 74.941,37.152C58.35,80.963 9.269,149.518 4.241,228.394C2.071,262.432 73.887,258.576 142.262,260.508C163.092,261.094 210.569,264.324 224.617,249.414C231.359,242.258 232.535,231.146 225.353,223.31C202.345,198.21 171.66,200.779 137.065,203.027C99.431,205.472 66.907,215.014 66.096,212.644C63.576,205.282 157.104,190.303 193.775,198.499C209.935,202.112 221.983,211.06 225.481,214.918C228.603,218.362 237.661,223.85 235.069,239.032C230.223,267.396 192.053,264.706 171.902,265.528L171.903,265.526Z" fill="#191919"/>
<path d="M101.17,62.26C116.906,60.113 126.989,61.211 137.929,53.897C139.782,52.659 142.033,50.133 140.985,47.908C139.122,43.956 135.996,45.065 128.446,44.946C122.435,44.851 118.963,41.301 118.949,35.312C118.936,30.188 119.01,25.053 116.178,20.442C114.235,17.278 122.346,15.145 122.316,35.023C122.303,43.366 130.032,41.301 135.833,41.256C143.749,41.194 147.971,49.665 141.428,55.343C121.362,72.758 94.396,55.644 81.639,81.23C63.034,118.547 76.738,164.598 67.564,198.118C64.666,208.708 56.077,223.19 54.506,222.336C51.954,220.95 63.372,205.091 65.895,183.304C69.215,154.632 57.539,68.213 101.167,62.261L101.17,62.26Z" fill="#191919"/>
<path d="M174.771,248.981C170.631,245.97 174.272,237.465 183.758,215.733C186.332,209.837 189.324,208.43 195.467,210.442C200.722,212.163 204.949,216.665 202.864,223.359C199.164,235.238 197.097,242.52 190.439,251.08C186.992,255.514 178.971,252.035 174.771,248.981ZM176.82,244.288C176.336,247.812 185.619,252.223 188.029,249.268C190.418,246.341 192.32,243.116 193.88,239.675C194.213,238.941 194.104,238.598 193.402,238.291C179.884,232.374 179.955,232.622 179.412,233.857C178,237.073 177.145,240.425 176.822,244.286L176.82,244.288ZM191.12,213.107C187.712,212.91 187.309,216.351 184.762,221.328C184.175,222.475 184.737,222.825 185.661,223.11C196.998,226.596 197,231.071 199.05,224.902C199.657,223.074 200.442,221.254 200.03,219.23C199.275,215.536 195.503,213.361 191.12,213.109L191.12,213.107ZM196.958,231.469C197.1,230.6 197.317,230.746 187.804,226.547C183.164,224.499 182.648,224.797 181.048,229.804C180.32,232.081 182.529,230.168 194.02,235.979C195.44,236.697 195.033,236.629 196.96,231.471L196.958,231.469Z" fill="#191919"/>
<path d="M185.675,244.753C187.644,244.964 187.577,247.68 185.54,247.564C183.872,247.468 183.751,244.97 185.675,244.753Z" fill="#191919"/>
<path d="M180.417,240.226C182.095,240.527 181.734,242.609 180.336,242.525C178.939,242.441 178.797,240.432 180.417,240.226Z" fill="#191919"/>
<path d="M189.32,239.616C189.162,241.01 187.272,240.825 187.246,239.612C187.216,238.16 189.212,238.115 189.32,239.616Z" fill="#191919"/>
<path d="M191.359,220.167C191.125,222.19 188.532,221.93 188.614,220.35C188.696,218.771 191.256,218.552 191.359,220.167Z" fill="#191919"/>
<path d="M195.491,217.589C195.491,219.19 193.299,219.18 193.295,217.695C193.292,216.272 195.385,216.227 195.491,217.589Z" fill="#191919"/>
<path d="M197.794,222.733C197.736,224.243 195.703,224.288 195.688,222.788C195.677,221.53 197.499,221.413 197.794,222.733Z" fill="#191919"/>
</svg>
