<svg width="60" height="60" viewBox="0 0 60 60" fill="none" xmlns="http://www.w3.org/2000/svg" xmlns:xlink="http://www.w3.org/1999/xlink">
<path d="M32.5,5L33.914,3.586C33.539,3.211 33.03,3 32.5,3L32.5,5ZM15,5L15,3L15,5ZM10,10L8,10L10,10ZM10,50L8,50L10,50ZM50,22.5L52,22.5C52,21.97 51.789,21.461 51.414,21.086L50,22.5ZM32.5,3L15,3L15,7L32.5,7L32.5,3ZM15,3C13.143,3 11.363,3.737 10.05,5.05L12.879,7.879C13.441,7.316 14.204,7 15,7L15,3ZM10.05,5.05C8.737,6.363 8,8.143 8,10L12,10C12,9.204 12.316,8.441 12.879,7.879L10.05,5.05ZM8,10L8,50L12,50L12,10L8,10ZM8,50C8,51.857 8.737,53.637 10.05,54.95L12.879,52.121C12.316,51.559 12,50.796 12,50L8,50ZM10.05,54.95C11.363,56.263 13.143,57 15,57L15,53C14.204,53 13.441,52.684 12.879,52.121L10.05,54.95ZM15,57L45,57L45,53L15,53L15,57ZM45,57C46.857,57 48.637,56.263 49.95,54.95L47.121,52.121C46.559,52.684 45.796,53 45,53L45,57ZM49.95,54.95C51.263,53.637 52,51.857 52,50L48,50C48,50.796 47.684,51.559 47.121,52.121L49.95,54.95ZM52,50L52,22.5L48,22.5L48,50L52,50ZM51.414,21.086L33.914,3.586L31.086,6.414L48.586,23.914L51.414,21.086Z" fill="#17C2EC"/>
<path d="M34.5,5C34.5,3.895 33.605,3 32.5,3C31.395,3 30.5,3.895 30.5,5L34.5,5ZM32.5,22.5L30.5,22.5C30.5,23.605 31.395,24.5 32.5,24.5L32.5,22.5ZM50,24.5C51.105,24.5 52,23.605 52,22.5C52,21.395 51.105,20.5 50,20.5L50,24.5ZM30.5,5L30.5,22.5L34.5,22.5L34.5,5L30.5,5ZM32.5,24.5L50,24.5L50,20.5L32.5,20.5L32.5,24.5Z" fill="#17C2EC"/>
</svg>
