<svg width="88" height="88" viewBox="0 0 88 88" fill="none" xmlns="http://www.w3.org/2000/svg" xmlns:xlink="http://www.w3.org/1999/xlink">
<g opacity="0.6">
<path d="M15.649,87.274C15.649,87.682 15.302,87.675 14.829,87.675C14.353,87.675 13.933,87.684 13.933,87.274C13.933,86.863 14.317,86.533 14.791,86.533C15.263,86.533 15.649,86.861 15.649,87.274Z" fill="#C07929"/>
</g>
<rect  x="0.733" y="0" width="85.8" height="85.8" rx="20" fill="#17C2EC"/>
<path d="M82.133,0L5.867,0C2.625,0 0,2.625 0,5.867L0,82.133C0,85.375 2.625,88 5.867,88L82.133,88C85.375,88 88,85.375 88,82.133L88,5.867C88,2.625 85.375,0 82.133,0Z" fill="#0B153C"/>
<path d="M80.447,2.2L8.433,2.2C6.978,2.211 5.585,2.793 4.556,3.823C3.527,4.852 2.944,6.245 2.933,7.7L2.933,79.493C2.926,82.529 5.382,84.986 8.418,84.993L80.373,84.993C83.409,85.001 85.866,82.544 85.873,79.508L85.873,7.7C85.939,4.73 83.578,2.266 80.608,2.2L80.447,2.2Z" fill="#FFFFFF"/>
<path d="M36.462,68.985C33.521,66.748 31.607,63.228 31.607,59.253C31.607,53.093 36.19,48.004 42.116,47.161C41.698,41.316 36.924,38.654 28.292,38.654L22.712,38.654C14.909,38.654 9.988,42.108 9.988,48.869L9.988,67.298C9.988,70.107 12.269,72.387 15.078,72.387L31.372,72.387C35.208,72.395 36.462,68.985 36.462,68.985Z" fill="#0B153C"/>
<path d="M26.07,36.007C32.234,36.007 37.231,31.01 37.231,24.845C37.231,18.681 32.234,13.684 26.07,13.684C19.906,13.684 14.909,18.681 14.909,24.845C14.909,31.01 19.906,36.007 26.07,36.007Z" fill="#0B153C"/>
<path d="M64.944,38.661L59.363,38.661C50.732,38.661 45.958,41.331 45.54,47.168C51.473,48.004 56.063,53.101 56.063,59.261C56.063,63.228 54.149,66.755 51.209,68.992C51.209,68.992 52.455,72.395 56.298,72.395L72.585,72.395C75.394,72.395 77.675,70.114 77.675,67.305L77.675,48.877C77.667,42.115 72.739,38.661 64.944,38.661Z" fill="#0B153C"/>
<path d="M61.578,36.007C67.742,36.007 72.739,31.01 72.739,24.845C72.739,18.681 67.742,13.684 61.578,13.684C55.414,13.684 50.417,18.681 50.417,24.845C50.417,31.01 55.414,36.007 61.578,36.007Z" fill="#0B153C"/>
<path d="M43.846,68.259C48.816,68.259 52.844,64.23 52.844,59.261C52.844,54.291 48.816,50.263 43.846,50.263C38.877,50.263 34.848,54.291 34.848,59.261C34.848,64.23 38.877,68.259 43.846,68.259Z" fill="#0B153C"/>
<path d="M34.907,78.298C34.173,78.298 33.623,77.601 33.814,76.897C34.811,73.253 38.911,70.29 43.824,70.29C48.759,70.29 52.866,73.172 53.849,76.905C54.032,77.609 53.489,78.305 52.756,78.305C52.756,78.298 34.907,78.298 34.907,78.298Z" fill="#0B153C"/>
</svg>
