<svg width="142" height="132" viewBox="0 0 142 132" fill="none" xmlns="http://www.w3.org/2000/svg" xmlns:xlink="http://www.w3.org/1999/xlink">
<g opacity="0.6">
<path d="M25.121,129.501C25.121,130.107 24.563,130.096 23.804,130.096C23.041,130.096 22.366,130.109 22.366,129.501C22.366,128.891 22.983,128.402 23.743,128.402C24.502,128.402 25.121,128.889 25.121,129.501Z" fill="#C07929"/>
</g>
<rect  x="1.177" y="0" width="137.729" height="127.314" rx="20" fill="#17C2EC"/>
<path d="M131.843,0L9.417,0C4.214,0 0,3.896 0,8.705L0,121.873C0,126.683 4.214,130.579 9.417,130.579L131.843,130.579C137.046,130.579 141.26,126.683 141.26,121.873L141.26,8.705C141.26,3.896 137.046,0 131.843,0Z" fill="#000000"/>
<path d="M129.136,3.264L13.538,3.264C11.201,3.28 8.966,4.145 7.314,5.672C5.662,7.199 4.726,9.266 4.709,11.426L4.709,117.956C4.697,122.461 8.641,126.106 13.514,126.117L129.018,126.117C133.891,126.128 137.835,122.483 137.847,117.978L137.847,11.426C137.953,7.019 134.162,3.362 129.395,3.264L129.136,3.264Z" fill="#FFFFFF"/>
<path d="M58.529,102.363C53.808,99.044 50.736,93.821 50.736,87.923C50.736,78.782 58.093,71.231 67.605,69.979C66.934,61.307 59.271,57.357 45.415,57.357L36.457,57.357C23.932,57.357 16.033,62.482 16.033,72.515L16.033,99.86C16.033,104.028 19.694,107.412 24.203,107.412L50.359,107.412C56.516,107.423 58.529,102.363 58.529,102.363Z" fill="#000000"/>
<path d="M41.848,53.429C51.743,53.429 59.765,46.014 59.765,36.867C59.765,27.72 51.743,20.305 41.848,20.305C31.953,20.305 23.932,27.72 23.932,36.867C23.932,46.014 31.953,53.429 41.848,53.429Z" fill="#000000"/>
<path d="M104.25,57.367L95.292,57.367C81.436,57.367 73.773,61.328 73.102,69.99C82.625,71.231 89.994,78.793 89.994,87.934C89.994,93.821 86.922,99.055 82.202,102.373C82.202,102.373 84.203,107.423 90.371,107.423L116.516,107.423C121.024,107.423 124.685,104.038 124.685,99.871L124.685,72.525C124.674,62.493 116.763,57.367 104.25,57.367Z" fill="#000000"/>
<path d="M98.847,53.429C108.742,53.429 116.763,46.014 116.763,36.867C116.763,27.72 108.742,20.305 98.847,20.305C88.952,20.305 80.93,27.72 80.93,36.867C80.93,46.014 88.952,53.429 98.847,53.429Z" fill="#000000"/>
<path d="M70.383,101.285C78.36,101.285 84.827,95.308 84.827,87.934C84.827,80.56 78.36,74.582 70.383,74.582C62.406,74.582 55.939,80.56 55.939,87.934C55.939,95.308 62.406,101.285 70.383,101.285Z" fill="#000000"/>
<path d="M56.033,116.182C54.856,116.182 53.973,115.149 54.279,114.104C55.88,108.696 62.46,104.3 70.347,104.3C78.27,104.3 84.862,108.576 86.439,114.115C86.733,115.16 85.862,116.193 84.685,116.193C84.685,116.182 56.033,116.182 56.033,116.182Z" fill="#000000"/>
</svg>
