<svg width="240" height="240" viewBox="0 0 240 240" fill="none" xmlns="http://www.w3.org/2000/svg" xmlns:xlink="http://www.w3.org/1999/xlink">
<g opacity="0.6">
<path d="M42.68,238.02C42.68,239.134 41.732,239.114 40.442,239.114C39.146,239.114 38,239.138 38,238.02C38,236.898 39.048,236 40.34,236C41.628,236 42.68,236.894 42.68,238.02Z" fill="#C07929"/>
</g>
<rect  x="2" y="0" width="234" height="234" rx="20" fill="#17C2EC"/>
<path d="M224,0L16,0C7.16,0 0,7.16 0,16L0,224C0,232.84 7.16,240 16,240L224,240C232.84,240 240,232.84 240,224L240,16C240,7.16 232.84,0 224,0Z" fill="#0B153C"/>
<path d="M219.4,6L23,6C19.031,6.029 15.232,7.618 12.425,10.425C9.618,13.232 8.029,17.031 8,21L8,216.8C7.98,225.08 14.68,231.78 22.96,231.8L219.2,231.8C227.48,231.82 234.18,225.12 234.2,216.84L234.2,21C234.38,12.9 227.94,6.18 219.84,6L219.4,6Z" fill="#FFFFFF"/>
<path d="M99.44,188.14C91.42,182.04 86.2,172.44 86.2,161.6C86.2,144.8 98.7,130.92 114.86,128.62C113.72,112.68 100.7,105.42 77.16,105.42L61.94,105.42C40.66,105.42 27.24,114.84 27.24,133.28L27.24,183.54C27.24,191.2 33.46,197.42 41.12,197.42L85.56,197.42C96.02,197.44 99.44,188.14 99.44,188.14Z" fill="#0B153C"/>
<path d="M71.1,98.2C87.912,98.2 101.54,84.572 101.54,67.76C101.54,50.949 87.912,37.32 71.1,37.32C54.289,37.32 40.66,50.949 40.66,67.76C40.66,84.572 54.289,98.2 71.1,98.2Z" fill="#0B153C"/>
<path d="M177.12,105.44L161.9,105.44C138.36,105.44 125.34,112.72 124.2,128.64C140.38,130.92 152.9,144.82 152.9,161.62C152.9,172.44 147.68,182.06 139.66,188.16C139.66,188.16 143.06,197.44 153.54,197.44L197.96,197.44C205.62,197.44 211.84,191.22 211.84,183.56L211.84,133.3C211.82,114.86 198.38,105.44 177.12,105.44Z" fill="#0B153C"/>
<path d="M167.94,98.2C184.752,98.2 198.38,84.572 198.38,67.76C198.38,50.949 184.752,37.32 167.94,37.32C151.128,37.32 137.5,50.949 137.5,67.76C137.5,84.572 151.128,98.2 167.94,98.2Z" fill="#0B153C"/>
<path d="M119.58,186.16C133.133,186.16 144.12,175.173 144.12,161.62C144.12,148.067 133.133,137.08 119.58,137.08C106.027,137.08 95.04,148.067 95.04,161.62C95.04,175.173 106.027,186.16 119.58,186.16Z" fill="#0B153C"/>
<path d="M95.2,213.54C93.2,213.54 91.7,211.64 92.22,209.72C94.94,199.78 106.12,191.7 119.52,191.7C132.98,191.7 144.18,199.56 146.86,209.74C147.36,211.66 145.88,213.56 143.88,213.56C143.88,213.54 95.2,213.54 95.2,213.54Z" fill="#0B153C"/>
</svg>
