<svg width="160" height="190" viewBox="0 0 160 190" fill="none" xmlns="http://www.w3.org/2000/svg" xmlns:xlink="http://www.w3.org/1999/xlink">
<path d="M72.304,23.546C71.752,23.546 71.304,23.993 71.304,24.546C71.304,25.098 71.752,25.546 72.304,25.546L72.304,23.546ZM157.978,24.546L158.978,24.546C158.978,23.993 158.53,23.546 157.978,23.546L157.978,24.546ZM157.978,135.02L157.978,136.02C158.53,136.02 158.978,135.572 158.978,135.02L157.978,135.02ZM141.923,134.02C141.371,134.02 140.923,134.467 140.923,135.02C140.923,135.572 141.371,136.02 141.923,136.02L141.923,134.02ZM72.304,25.546L157.978,25.546L157.978,23.546L72.304,23.546L72.304,25.546ZM156.978,24.546L156.978,135.02L158.978,135.02L158.978,24.546L156.978,24.546ZM157.978,134.02L141.923,134.02L141.923,136.02L157.978,136.02L157.978,134.02Z" fill="#FECFC4"/>
<path d="M72.304,23.546C71.752,23.546 71.304,23.993 71.304,24.546C71.304,25.098 71.752,25.546 72.304,25.546L72.304,23.546ZM157.978,24.546L158.978,24.546C158.978,23.993 158.53,23.546 157.978,23.546L157.978,24.546ZM157.978,135.02L157.978,136.02C158.53,136.02 158.978,135.572 158.978,135.02L157.978,135.02ZM141.923,134.02C141.371,134.02 140.923,134.467 140.923,135.02C140.923,135.572 141.371,136.02 141.923,136.02L141.923,134.02ZM72.304,25.546L157.978,25.546L157.978,23.546L72.304,23.546L72.304,25.546ZM156.978,24.546L156.978,135.02L158.978,135.02L158.978,24.546L156.978,24.546ZM157.978,134.02L141.923,134.02L141.923,136.02L157.978,136.02L157.978,134.02Z" fill="#000000" fill-opacity="0.2"/>
<line x1="91.196" y1="134.019" x2="94.471" y2="134.019" stroke="#020064" stroke-width="1" stroke-miterlimit="3.999327" stroke-linecap="round" stroke-linejoin="round"/>
<line x1="91.196" y1="134.019" x2="94.471" y2="134.019" stroke="#000000" stroke-opacity="0.2" stroke-width="1" stroke-miterlimit="3.999327" stroke-linecap="round" stroke-linejoin="round"/>
<line x1="106.123" y1="12.273" x2="130.923" y2="12.273" stroke="#FECFC4" stroke-width="1" stroke-miterlimit="3.999327" stroke-linecap="round" stroke-linejoin="round"/>
<line x1="106.123" y1="12.273" x2="130.923" y2="12.273" stroke="#000000" stroke-opacity="0.2" stroke-width="1" stroke-miterlimit="3.999327" stroke-linecap="round" stroke-linejoin="round"/>
<path d="M99.359,12.879C99.661,12.856 99.875,13.168 99.744,13.441C99.674,13.588 99.521,13.676 99.359,13.664C99.057,13.641 98.893,13.299 99.065,13.049C99.132,12.951 99.24,12.888 99.359,12.879ZM99.359,10.55C97.263,10.555 95.959,12.827 97.012,14.64C98.064,16.452 100.684,16.446 101.727,14.628C101.964,14.215 102.089,13.748 102.089,13.273C102.09,11.768 100.87,10.549 99.366,10.55L99.359,10.55Z" fill="#020064"/>
<path d="M99.359,12.879C99.661,12.856 99.875,13.168 99.744,13.441C99.674,13.588 99.521,13.676 99.359,13.664C99.057,13.641 98.893,13.299 99.065,13.049C99.132,12.951 99.24,12.888 99.359,12.879ZM99.359,10.55C97.263,10.555 95.959,12.827 97.012,14.64C98.064,16.452 100.684,16.446 101.727,14.628C101.964,14.215 102.089,13.748 102.089,13.273C102.09,11.768 100.87,10.549 99.366,10.55L99.359,10.55Z" stroke="#020064" stroke-width="1" stroke-miterlimit="3.999327"/>
<path d="M99.359,12.879C99.661,12.856 99.875,13.168 99.744,13.441C99.674,13.588 99.521,13.676 99.359,13.664C99.057,13.641 98.893,13.299 99.065,13.049C99.132,12.951 99.24,12.888 99.359,12.879ZM99.359,10.55C97.263,10.555 95.959,12.827 97.012,14.64C98.064,16.452 100.684,16.446 101.727,14.628C101.964,14.215 102.089,13.748 102.089,13.273C102.09,11.768 100.87,10.549 99.366,10.55L99.359,10.55Z" stroke="#000000" stroke-opacity="0.2" stroke-width="1" stroke-miterlimit="3.999327"/>
<line x1="71.304" y1="93.335" x2="71.304" y2="126.064" stroke="#020064" stroke-width="1" stroke-miterlimit="3.999327" stroke-linecap="round" stroke-linejoin="round"/>
<line x1="71.304" y1="93.335" x2="71.304" y2="126.064" stroke="#000000" stroke-opacity="0.2" stroke-width="1" stroke-miterlimit="3.999327" stroke-linecap="round" stroke-linejoin="round"/>
<path d="M81.324,160.821C81.876,160.82 82.323,160.372 82.323,159.82C82.322,159.268 81.874,158.82 81.322,158.821L81.324,160.821ZM75.283,156.076C74.92,155.659 74.289,155.616 73.872,155.978C73.456,156.341 73.412,156.973 73.775,157.389L75.283,156.076ZM81.322,158.821C79.006,158.824 76.803,157.822 75.283,156.076L73.775,157.389C75.675,159.573 78.429,160.824 81.324,160.821L81.322,158.821Z" fill="#020064"/>
<path d="M81.324,160.821C81.876,160.82 82.323,160.372 82.323,159.82C82.322,159.268 81.874,158.82 81.322,158.821L81.324,160.821ZM75.283,156.076C74.92,155.659 74.289,155.616 73.872,155.978C73.456,156.341 73.412,156.973 73.775,157.389L75.283,156.076ZM81.322,158.821C79.006,158.824 76.803,157.822 75.283,156.076L73.775,157.389C75.675,159.573 78.429,160.824 81.324,160.821L81.322,158.821Z" fill="#000000" fill-opacity="0.2"/>
<path d="M71.304,62.38C71.304,62.932 71.752,63.38 72.304,63.38C72.856,63.38 73.304,62.932 73.304,62.38L71.304,62.38ZM81.322,2L81.322,1L81.322,1L81.322,2ZM148.959,2L148.959,3L148.961,3L148.959,2ZM157.987,11.018L156.987,11.018L156.987,11.018L157.987,11.018ZM105.766,158.822C105.214,158.822 104.766,159.27 104.766,159.822C104.766,160.374 105.214,160.822 105.766,160.822L105.766,158.822ZM73.304,62.38L73.304,11.018L71.304,11.018L71.304,62.38L73.304,62.38ZM73.304,11.018C73.304,6.59 76.894,3 81.322,3L81.322,1C75.79,1 71.304,5.485 71.304,11.018L73.304,11.018ZM81.322,3L148.959,3L148.959,1L81.322,1L81.322,3ZM148.961,3C153.393,2.994 156.988,6.586 156.987,11.018L158.987,11.018C158.989,5.481 154.496,0.993 148.958,1L148.961,3ZM156.987,11.018L156.987,150.804L158.987,150.804L158.987,11.018L156.987,11.018ZM156.987,150.804C156.987,155.232 153.397,158.822 148.969,158.822L148.969,160.822C154.502,160.822 158.987,156.337 158.987,150.804L156.987,150.804ZM148.969,158.822L105.766,158.822L105.766,160.822L148.969,160.822L148.969,158.822Z" fill="#FECFC4"/>
<path d="M71.304,62.38C71.304,62.932 71.752,63.38 72.304,63.38C72.856,63.38 73.304,62.932 73.304,62.38L71.304,62.38ZM81.322,2L81.322,1L81.322,1L81.322,2ZM148.959,2L148.959,3L148.961,3L148.959,2ZM157.987,11.018L156.987,11.018L156.987,11.018L157.987,11.018ZM105.766,158.822C105.214,158.822 104.766,159.27 104.766,159.822C104.766,160.374 105.214,160.822 105.766,160.822L105.766,158.822ZM73.304,62.38L73.304,11.018L71.304,11.018L71.304,62.38L73.304,62.38ZM73.304,11.018C73.304,6.59 76.894,3 81.322,3L81.322,1C75.79,1 71.304,5.485 71.304,11.018L73.304,11.018ZM81.322,3L148.959,3L148.959,1L81.322,1L81.322,3ZM148.961,3C153.393,2.994 156.988,6.586 156.987,11.018L158.987,11.018C158.989,5.481 154.496,0.993 148.958,1L148.961,3ZM156.987,11.018L156.987,150.804L158.987,150.804L158.987,11.018L156.987,11.018ZM156.987,150.804C156.987,155.232 153.397,158.822 148.969,158.822L148.969,160.822C154.502,160.822 158.987,156.337 158.987,150.804L156.987,150.804ZM148.969,158.822L105.766,158.822L105.766,160.822L148.969,160.822L148.969,158.822Z" fill="#000000" fill-opacity="0.2"/>
<path d="M134.438,74.879L134.439,73.879L134.438,73.879L134.438,74.879ZM122.042,74.879L121.042,74.879C121.042,75.431 121.49,75.879 122.042,75.879L122.042,74.879ZM120.272,60.713L120.274,59.713L120.272,59.713L120.272,60.713ZM109.647,60.713L109.647,59.713L109.646,59.713L109.647,60.713ZM107.877,74.879L107.877,75.879C108.429,75.879 108.877,75.431 108.877,74.879L107.877,74.879ZM95.482,74.879L95.482,73.879L95.48,73.879L95.482,74.879ZM107.877,89.044L108.877,89.044C108.877,88.492 108.429,88.044 107.877,88.044L107.877,89.044ZM109.647,103.224L109.646,104.224L109.647,104.224L109.647,103.224ZM120.272,103.224L120.272,104.224L120.274,104.224L120.272,103.224ZM122.042,89.044L122.042,88.044C121.49,88.044 121.042,88.492 121.042,89.044L122.042,89.044ZM137.208,76.651C137.208,75.122 135.969,73.881 134.439,73.879L134.437,75.879C134.863,75.879 135.208,76.225 135.208,76.651L137.208,76.651ZM134.438,73.879L122.042,73.879L122.042,75.879L134.438,75.879L134.438,73.879ZM123.042,74.879L123.042,62.486L121.042,62.486L121.042,74.879L123.042,74.879ZM123.042,62.486C123.042,60.956 121.804,59.715 120.274,59.713L120.271,61.713C120.697,61.714 121.042,62.059 121.042,62.486L123.042,62.486ZM120.272,59.713L109.647,59.713L109.647,61.713L120.272,61.713L120.272,59.713ZM109.646,59.713C108.116,59.715 106.877,60.956 106.877,62.486L108.877,62.486C108.877,62.059 109.222,61.714 109.648,61.713L109.646,59.713ZM106.877,62.486L106.877,74.879L108.877,74.879L108.877,62.486L106.877,62.486ZM107.877,73.879L95.482,73.879L95.482,75.879L107.877,75.879L107.877,73.879ZM95.48,73.879C93.95,73.881 92.711,75.122 92.711,76.651L94.711,76.651C94.711,76.225 95.057,75.879 95.483,75.879L95.48,73.879ZM92.711,76.651L92.711,87.274L94.711,87.274L94.711,76.651L92.711,76.651ZM92.711,87.274C92.711,88.804 93.952,90.044 95.482,90.044L95.482,88.044C95.056,88.044 94.711,87.7 94.711,87.274L92.711,87.274ZM95.482,90.044L107.877,90.044L107.877,88.044L95.482,88.044L95.482,90.044ZM106.877,89.044L106.877,101.452L108.877,101.452L108.877,89.044L106.877,89.044ZM106.877,101.452C106.877,102.981 108.116,104.222 109.646,104.224L109.648,102.224C109.222,102.223 108.877,101.878 108.877,101.452L106.877,101.452ZM109.647,104.224L120.272,104.224L120.272,102.224L109.647,102.224L109.647,104.224ZM120.274,104.224C121.804,104.222 123.042,102.981 123.042,101.452L121.042,101.452C121.042,101.878 120.697,102.223 120.271,102.224L120.274,104.224ZM123.042,101.452L123.042,89.044L121.042,89.044L121.042,101.452L123.042,101.452ZM122.042,90.044L134.438,90.044L134.438,88.044L122.042,88.044L122.042,90.044ZM134.438,90.044C135.968,90.044 137.208,88.804 137.208,87.274L135.208,87.274C135.208,87.7 134.863,88.044 134.438,88.044L134.438,90.044ZM137.208,87.274L137.208,76.651L135.208,76.651L135.208,87.274L137.208,87.274Z" fill="#120071"/>
<path d="M134.438,74.879L134.439,73.879L134.438,73.879L134.438,74.879ZM122.042,74.879L121.042,74.879C121.042,75.431 121.49,75.879 122.042,75.879L122.042,74.879ZM120.272,60.713L120.274,59.713L120.272,59.713L120.272,60.713ZM109.647,60.713L109.647,59.713L109.646,59.713L109.647,60.713ZM107.877,74.879L107.877,75.879C108.429,75.879 108.877,75.431 108.877,74.879L107.877,74.879ZM95.482,74.879L95.482,73.879L95.48,73.879L95.482,74.879ZM107.877,89.044L108.877,89.044C108.877,88.492 108.429,88.044 107.877,88.044L107.877,89.044ZM109.647,103.224L109.646,104.224L109.647,104.224L109.647,103.224ZM120.272,103.224L120.272,104.224L120.274,104.224L120.272,103.224ZM122.042,89.044L122.042,88.044C121.49,88.044 121.042,88.492 121.042,89.044L122.042,89.044ZM137.208,76.651C137.208,75.122 135.969,73.881 134.439,73.879L134.437,75.879C134.863,75.879 135.208,76.225 135.208,76.651L137.208,76.651ZM134.438,73.879L122.042,73.879L122.042,75.879L134.438,75.879L134.438,73.879ZM123.042,74.879L123.042,62.486L121.042,62.486L121.042,74.879L123.042,74.879ZM123.042,62.486C123.042,60.956 121.804,59.715 120.274,59.713L120.271,61.713C120.697,61.714 121.042,62.059 121.042,62.486L123.042,62.486ZM120.272,59.713L109.647,59.713L109.647,61.713L120.272,61.713L120.272,59.713ZM109.646,59.713C108.116,59.715 106.877,60.956 106.877,62.486L108.877,62.486C108.877,62.059 109.222,61.714 109.648,61.713L109.646,59.713ZM106.877,62.486L106.877,74.879L108.877,74.879L108.877,62.486L106.877,62.486ZM107.877,73.879L95.482,73.879L95.482,75.879L107.877,75.879L107.877,73.879ZM95.48,73.879C93.95,73.881 92.711,75.122 92.711,76.651L94.711,76.651C94.711,76.225 95.057,75.879 95.483,75.879L95.48,73.879ZM92.711,76.651L92.711,87.274L94.711,87.274L94.711,76.651L92.711,76.651ZM92.711,87.274C92.711,88.804 93.952,90.044 95.482,90.044L95.482,88.044C95.056,88.044 94.711,87.7 94.711,87.274L92.711,87.274ZM95.482,90.044L107.877,90.044L107.877,88.044L95.482,88.044L95.482,90.044ZM106.877,89.044L106.877,101.452L108.877,101.452L108.877,89.044L106.877,89.044ZM106.877,101.452C106.877,102.981 108.116,104.222 109.646,104.224L109.648,102.224C109.222,102.223 108.877,101.878 108.877,101.452L106.877,101.452ZM109.647,104.224L120.272,104.224L120.272,102.224L109.647,102.224L109.647,104.224ZM120.274,104.224C121.804,104.222 123.042,102.981 123.042,101.452L121.042,101.452C121.042,101.878 120.697,102.223 120.271,102.224L120.274,104.224ZM123.042,101.452L123.042,89.044L121.042,89.044L121.042,101.452L123.042,101.452ZM122.042,90.044L134.438,90.044L134.438,88.044L122.042,88.044L122.042,90.044ZM134.438,90.044C135.968,90.044 137.208,88.804 137.208,87.274L135.208,87.274C135.208,87.7 134.863,88.044 134.438,88.044L134.438,90.044ZM137.208,87.274L137.208,76.651L135.208,76.651L135.208,87.274L137.208,87.274Z" fill="#000000" fill-opacity="0.2"/>
<path d="M1.42,102.628C1.589,102.102 1.3,101.539 0.774,101.37C0.248,101.201 -0.315,101.49 -0.484,102.016L1.42,102.628ZM0.54,108.508L-0.404,108.836L-0.404,108.837L0.54,108.508ZM6.596,125.89L5.651,126.219L5.652,126.22L6.596,125.89ZM58.232,154.247L59.176,153.918C59.008,153.435 58.502,153.157 58.004,153.273L58.232,154.247ZM65.885,176.215L66.834,175.897L66.83,175.886L65.885,176.215ZM96.505,182.412L95.755,181.75L95.755,181.75L96.505,182.412ZM99.951,164.355L99.006,164.684L99.01,164.695L99.951,164.355ZM98.842,161.174L97.897,161.501L97.898,161.503L98.842,161.174ZM104.474,147.536C104.942,147.243 105.083,146.626 104.79,146.158C104.497,145.69 103.88,145.548 103.412,145.842L104.474,147.536ZM-0.484,102.016C-1.198,104.238 -1.17,106.632 -0.404,108.836L1.485,108.18C0.861,106.385 0.839,104.437 1.42,102.628L-0.484,102.016ZM-0.404,108.837L5.651,126.219L7.54,125.561L1.484,108.179L-0.404,108.837ZM5.652,126.22C13.253,147.965 36.032,160.475 58.46,155.221L58.004,153.273C36.571,158.294 14.803,146.34 7.54,125.56L5.652,126.22ZM57.288,154.576L64.941,176.544L66.83,175.886L59.176,153.918L57.288,154.576ZM64.937,176.533C69.602,190.426 87.555,194.059 97.254,183.074L95.755,181.75C87.075,191.581 71.008,188.329 66.833,175.897L64.937,176.533ZM97.254,183.074C101.856,177.862 103.25,170.556 100.891,164.016L99.01,164.695C101.121,170.548 99.873,177.086 95.755,181.75L97.254,183.074ZM100.895,164.026L99.786,160.845L97.898,161.503L99.006,164.684L100.895,164.026ZM99.787,160.846C98.059,155.859 100.002,150.34 104.474,147.536L103.412,145.842C98.151,149.14 95.864,155.634 97.897,161.501L99.787,160.846Z" fill="#120071"/>
<path d="M1.42,102.628C1.589,102.102 1.3,101.539 0.774,101.37C0.248,101.201 -0.315,101.49 -0.484,102.016L1.42,102.628ZM0.54,108.508L-0.404,108.836L-0.404,108.837L0.54,108.508ZM6.596,125.89L5.651,126.219L5.652,126.22L6.596,125.89ZM58.232,154.247L59.176,153.918C59.008,153.435 58.502,153.157 58.004,153.273L58.232,154.247ZM65.885,176.215L66.834,175.897L66.83,175.886L65.885,176.215ZM96.505,182.412L95.755,181.75L95.755,181.75L96.505,182.412ZM99.951,164.355L99.006,164.684L99.01,164.695L99.951,164.355ZM98.842,161.174L97.897,161.501L97.898,161.503L98.842,161.174ZM104.474,147.536C104.942,147.243 105.083,146.626 104.79,146.158C104.497,145.69 103.88,145.548 103.412,145.842L104.474,147.536ZM-0.484,102.016C-1.198,104.238 -1.17,106.632 -0.404,108.836L1.485,108.18C0.861,106.385 0.839,104.437 1.42,102.628L-0.484,102.016ZM-0.404,108.837L5.651,126.219L7.54,125.561L1.484,108.179L-0.404,108.837ZM5.652,126.22C13.253,147.965 36.032,160.475 58.46,155.221L58.004,153.273C36.571,158.294 14.803,146.34 7.54,125.56L5.652,126.22ZM57.288,154.576L64.941,176.544L66.83,175.886L59.176,153.918L57.288,154.576ZM64.937,176.533C69.602,190.426 87.555,194.059 97.254,183.074L95.755,181.75C87.075,191.581 71.008,188.329 66.833,175.897L64.937,176.533ZM97.254,183.074C101.856,177.862 103.25,170.556 100.891,164.016L99.01,164.695C101.121,170.548 99.873,177.086 95.755,181.75L97.254,183.074ZM100.895,164.026L99.786,160.845L97.898,161.503L99.006,164.684L100.895,164.026ZM99.787,160.846C98.059,155.859 100.002,150.34 104.474,147.536L103.412,145.842C98.151,149.14 95.864,155.634 97.897,161.501L99.787,160.846Z" fill="#000000" fill-opacity="0.2"/>
<path d="M76.552,83.846C76.37,83.324 75.8,83.048 75.279,83.23C74.757,83.411 74.482,83.981 74.663,84.503L76.552,83.846ZM81.102,99.959L82.046,99.63L82.046,99.63L81.102,99.959ZM41.6,145.705L41.412,146.687L41.412,146.687L41.6,145.705ZM15.188,122.898L16.133,122.569L16.133,122.569L15.188,122.898ZM10.976,107.754C10.795,107.232 10.225,106.957 9.703,107.138C9.181,107.32 8.906,107.89 9.087,108.411L10.976,107.754ZM74.663,84.503L80.158,100.287L82.046,99.63L76.552,83.846L74.663,84.503ZM80.158,100.287C88.734,124.931 67.417,149.617 41.788,144.722L41.412,146.687C68.554,151.87 91.129,125.727 82.046,99.63L80.158,100.287ZM41.788,144.722C29.893,142.451 20.113,134.006 16.133,122.569L14.244,123.227C18.459,135.339 28.816,144.281 41.412,146.687L41.788,144.722ZM16.133,122.569L10.976,107.754L9.087,108.411L14.244,123.227L16.133,122.569Z" fill="#120071"/>
<path d="M76.552,83.846C76.37,83.324 75.8,83.048 75.279,83.23C74.757,83.411 74.482,83.981 74.663,84.503L76.552,83.846ZM81.102,99.959L82.046,99.63L82.046,99.63L81.102,99.959ZM41.6,145.705L41.412,146.687L41.412,146.687L41.6,145.705ZM15.188,122.898L16.133,122.569L16.133,122.569L15.188,122.898ZM10.976,107.754C10.795,107.232 10.225,106.957 9.703,107.138C9.181,107.32 8.906,107.89 9.087,108.411L10.976,107.754ZM74.663,84.503L80.158,100.287L82.046,99.63L76.552,83.846L74.663,84.503ZM80.158,100.287C88.734,124.931 67.417,149.617 41.788,144.722L41.412,146.687C68.554,151.87 91.129,125.727 82.046,99.63L80.158,100.287ZM41.788,144.722C29.893,142.451 20.113,134.006 16.133,122.569L14.244,123.227C18.459,135.339 28.816,144.281 41.412,146.687L41.788,144.722ZM16.133,122.569L10.976,107.754L9.087,108.411L14.244,123.227L16.133,122.569Z" fill="#000000" fill-opacity="0.2"/>
<path d="M100.507,139.314C100.989,139.044 101.161,138.435 100.891,137.953C100.621,137.471 100.012,137.299 99.53,137.569L100.507,139.314ZM90.236,164.169L89.291,164.496L89.292,164.498L90.236,164.169ZM91.345,167.351L90.4,167.68L90.405,167.691L91.345,167.351ZM81.377,179.188L81.202,180.172L81.202,180.172L81.377,179.188ZM74.471,173.225L75.419,172.907L75.415,172.896L74.471,173.225ZM66.824,151.257L66.398,150.352C65.935,150.57 65.712,151.102 65.88,151.585L66.824,151.257ZM89.689,96.965L90.634,96.638L90.633,96.636L89.689,96.965ZM83.633,79.583L82.688,79.91L82.689,79.912L83.633,79.583ZM80.806,74.121C80.362,73.793 79.736,73.887 79.408,74.331C79.079,74.775 79.173,75.401 79.618,75.729L80.806,74.121ZM99.53,137.569C90.046,142.881 85.733,154.226 89.291,164.496L91.181,163.842C87.94,154.486 91.869,144.152 100.507,139.314L99.53,137.569ZM89.292,164.498L90.401,167.68L92.289,167.022L91.181,163.84L89.292,164.498ZM90.405,167.691C92.484,173.434 87.566,179.274 81.552,178.203L81.202,180.172C88.731,181.513 94.888,174.201 92.285,167.01L90.405,167.691ZM81.552,178.203C78.693,177.694 76.34,175.662 75.419,172.907L73.522,173.542C74.675,176.991 77.621,179.534 81.202,180.172L81.552,178.203ZM75.415,172.896L67.769,150.928L65.88,151.585L73.526,173.553L75.415,172.896ZM67.25,152.161C88.091,142.352 98.178,118.402 90.634,96.638L88.744,97.293C95.953,118.091 86.314,140.977 66.398,150.352L67.25,152.161ZM90.633,96.636L84.578,79.254L82.689,79.912L88.745,97.294L90.633,96.636ZM84.578,79.257C83.869,77.203 82.554,75.412 80.806,74.121L79.618,75.729C81.04,76.78 82.111,78.238 82.688,79.91L84.578,79.257Z" fill="#120071"/>
<path d="M100.507,139.314C100.989,139.044 101.161,138.435 100.891,137.953C100.621,137.471 100.012,137.299 99.53,137.569L100.507,139.314ZM90.236,164.169L89.291,164.496L89.292,164.498L90.236,164.169ZM91.345,167.351L90.4,167.68L90.405,167.691L91.345,167.351ZM81.377,179.188L81.202,180.172L81.202,180.172L81.377,179.188ZM74.471,173.225L75.419,172.907L75.415,172.896L74.471,173.225ZM66.824,151.257L66.398,150.352C65.935,150.57 65.712,151.102 65.88,151.585L66.824,151.257ZM89.689,96.965L90.634,96.638L90.633,96.636L89.689,96.965ZM83.633,79.583L82.688,79.91L82.689,79.912L83.633,79.583ZM80.806,74.121C80.362,73.793 79.736,73.887 79.408,74.331C79.079,74.775 79.173,75.401 79.618,75.729L80.806,74.121ZM99.53,137.569C90.046,142.881 85.733,154.226 89.291,164.496L91.181,163.842C87.94,154.486 91.869,144.152 100.507,139.314L99.53,137.569ZM89.292,164.498L90.401,167.68L92.289,167.022L91.181,163.84L89.292,164.498ZM90.405,167.691C92.484,173.434 87.566,179.274 81.552,178.203L81.202,180.172C88.731,181.513 94.888,174.201 92.285,167.01L90.405,167.691ZM81.552,178.203C78.693,177.694 76.34,175.662 75.419,172.907L73.522,173.542C74.675,176.991 77.621,179.534 81.202,180.172L81.552,178.203ZM75.415,172.896L67.769,150.928L65.88,151.585L73.526,173.553L75.415,172.896ZM67.25,152.161C88.091,142.352 98.178,118.402 90.634,96.638L88.744,97.293C95.953,118.091 86.314,140.977 66.398,150.352L67.25,152.161ZM90.633,96.636L84.578,79.254L82.689,79.912L88.745,97.294L90.633,96.636ZM84.578,79.257C83.869,77.203 82.554,75.412 80.806,74.121L79.618,75.729C81.04,76.78 82.111,78.238 82.688,79.91L84.578,79.257Z" fill="#000000" fill-opacity="0.2"/>
<path d="M24.236,95.629L25.181,95.299L25.18,95.299L24.236,95.629ZM19.872,104.661L19.543,103.717L19.543,103.717L19.872,104.661ZM9.833,108.155L10.145,109.105L10.162,109.099L9.833,108.155ZM0.684,99.97L-0.295,99.765L-0.295,99.765L0.684,99.97ZM5.175,94.769L4.846,93.825L4.83,93.831L5.175,94.769ZM15.216,91.276L15.545,92.22L15.545,92.22L15.216,91.276ZM23.292,95.958C24.401,99.136 22.722,102.611 19.543,103.717L20.2,105.606C24.423,104.137 26.654,99.521 25.181,95.299L23.292,95.958ZM19.543,103.717L9.505,107.21L10.162,109.099L20.2,105.606L19.543,103.717ZM9.521,107.205C5.069,108.667 0.703,104.762 1.663,100.175L-0.295,99.765C-1.569,105.859 4.231,111.048 10.145,109.105L9.521,107.205ZM1.663,100.175C2.093,98.12 3.55,96.432 5.52,95.708L4.83,93.831C2.213,94.793 0.276,97.036 -0.295,99.765L1.663,100.175ZM5.504,95.714L15.545,92.22L14.887,90.331L4.846,93.825L5.504,95.714ZM15.545,92.22C18.717,91.116 22.184,92.789 23.293,95.959L25.18,95.299C23.707,91.087 19.101,88.864 14.887,90.331L15.545,92.22Z" fill="#020064"/>
<path d="M24.236,95.629L25.181,95.299L25.18,95.299L24.236,95.629ZM19.872,104.661L19.543,103.717L19.543,103.717L19.872,104.661ZM9.833,108.155L10.145,109.105L10.162,109.099L9.833,108.155ZM0.684,99.97L-0.295,99.765L-0.295,99.765L0.684,99.97ZM5.175,94.769L4.846,93.825L4.83,93.831L5.175,94.769ZM15.216,91.276L15.545,92.22L15.545,92.22L15.216,91.276ZM23.292,95.958C24.401,99.136 22.722,102.611 19.543,103.717L20.2,105.606C24.423,104.137 26.654,99.521 25.181,95.299L23.292,95.958ZM19.543,103.717L9.505,107.21L10.162,109.099L20.2,105.606L19.543,103.717ZM9.521,107.205C5.069,108.667 0.703,104.762 1.663,100.175L-0.295,99.765C-1.569,105.859 4.231,111.048 10.145,109.105L9.521,107.205ZM1.663,100.175C2.093,98.12 3.55,96.432 5.52,95.708L4.83,93.831C2.213,94.793 0.276,97.036 -0.295,99.765L1.663,100.175ZM5.504,95.714L15.545,92.22L14.887,90.331L4.846,93.825L5.504,95.714ZM15.545,92.22C18.717,91.116 22.184,92.789 23.293,95.959L25.18,95.299C23.707,91.087 19.101,88.864 14.887,90.331L15.545,92.22Z" fill="#000000" fill-opacity="0.2"/>
<path d="M80.268,75.05L79.323,75.379L79.323,75.379L80.268,75.05ZM75.905,84.073L75.577,83.128L75.577,83.128L75.905,84.073ZM65.865,87.566L65.536,86.622L65.52,86.628L65.865,87.566ZM56.435,79.707L55.449,79.537L55.449,79.537L56.435,79.707ZM61.206,74.181L61.519,75.131L61.535,75.126L61.206,74.181ZM71.247,70.687L70.919,69.743L70.919,69.743L71.247,70.687ZM79.323,75.379C80.43,78.553 78.752,82.024 75.577,83.128L76.234,85.017C80.453,83.549 82.682,78.939 81.212,74.721L79.323,75.379ZM75.577,83.128L65.536,86.622L66.193,88.511L76.234,85.017L75.577,83.128ZM65.52,86.628C61.121,88.245 56.622,84.495 57.42,79.877L55.449,79.537C54.389,85.671 60.367,90.654 66.21,88.505L65.52,86.628ZM57.42,79.877C57.804,77.659 59.38,75.834 61.519,75.131L60.894,73.231C58.053,74.164 55.959,76.59 55.449,79.537L57.42,79.877ZM61.535,75.126L71.576,71.632L70.919,69.743L60.878,73.237L61.535,75.126ZM71.576,71.632C74.75,70.528 78.218,72.205 79.323,75.379L81.212,74.721C79.743,70.505 75.136,68.277 70.919,69.743L71.576,71.632Z" fill="#020064"/>
<path d="M80.268,75.05L79.323,75.379L79.323,75.379L80.268,75.05ZM75.905,84.073L75.577,83.128L75.577,83.128L75.905,84.073ZM65.865,87.566L65.536,86.622L65.52,86.628L65.865,87.566ZM56.435,79.707L55.449,79.537L55.449,79.537L56.435,79.707ZM61.206,74.181L61.519,75.131L61.535,75.126L61.206,74.181ZM71.247,70.687L70.919,69.743L70.919,69.743L71.247,70.687ZM79.323,75.379C80.43,78.553 78.752,82.024 75.577,83.128L76.234,85.017C80.453,83.549 82.682,78.939 81.212,74.721L79.323,75.379ZM75.577,83.128L65.536,86.622L66.193,88.511L76.234,85.017L75.577,83.128ZM65.52,86.628C61.121,88.245 56.622,84.495 57.42,79.877L55.449,79.537C54.389,85.671 60.367,90.654 66.21,88.505L65.52,86.628ZM57.42,79.877C57.804,77.659 59.38,75.834 61.519,75.131L60.894,73.231C58.053,74.164 55.959,76.59 55.449,79.537L57.42,79.877ZM61.535,75.126L71.576,71.632L70.919,69.743L60.878,73.237L61.535,75.126ZM71.576,71.632C74.75,70.528 78.218,72.205 79.323,75.379L81.212,74.721C79.743,70.505 75.136,68.277 70.919,69.743L71.576,71.632Z" fill="#000000" fill-opacity="0.2"/>
<path d="M125.866,150.429L126.366,151.295L126.366,151.295L125.866,150.429ZM108.451,120.266L107.951,119.4L107.951,119.4L108.451,120.266ZM98.744,135.348C98.744,149.523 114.089,158.383 126.366,151.295L125.366,149.563C114.422,155.881 100.744,147.984 100.744,135.348L98.744,135.348ZM126.366,151.295C132.063,148.006 135.573,141.927 135.573,135.348L133.573,135.348C133.573,141.212 130.444,146.631 125.366,149.563L126.366,151.295ZM135.573,135.348C135.573,121.172 120.227,112.312 107.951,119.4L108.951,121.132C119.894,114.814 133.573,122.712 133.573,135.348L135.573,135.348ZM107.951,119.4C102.253,122.69 98.744,128.769 98.744,135.348L100.744,135.348C100.744,129.483 103.872,124.064 108.951,121.132L107.951,119.4Z" fill="#020064"/>
<path d="M125.866,150.429L126.366,151.295L126.366,151.295L125.866,150.429ZM108.451,120.266L107.951,119.4L107.951,119.4L108.451,120.266ZM98.744,135.348C98.744,149.523 114.089,158.383 126.366,151.295L125.366,149.563C114.422,155.881 100.744,147.984 100.744,135.348L98.744,135.348ZM126.366,151.295C132.063,148.006 135.573,141.927 135.573,135.348L133.573,135.348C133.573,141.212 130.444,146.631 125.366,149.563L126.366,151.295ZM135.573,135.348C135.573,121.172 120.227,112.312 107.951,119.4L108.951,121.132C119.894,114.814 133.573,122.712 133.573,135.348L135.573,135.348ZM107.951,119.4C102.253,122.69 98.744,128.769 98.744,135.348L100.744,135.348C100.744,129.483 103.872,124.064 108.951,121.132L107.951,119.4Z" fill="#000000" fill-opacity="0.2"/>
<path d="M121.264,142.509L120.764,141.643L120.764,141.643L121.264,142.509ZM112.993,128.184L113.493,129.05L113.493,129.05L112.993,128.184ZM107.858,135.346C107.858,142.483 115.583,146.943 121.764,143.375L120.764,141.643C115.917,144.441 109.858,140.943 109.858,135.346L107.858,135.346ZM121.764,143.375C124.632,141.719 126.399,138.658 126.399,135.346L124.399,135.346C124.399,137.944 123.013,140.344 120.764,141.643L121.764,143.375ZM126.399,135.346C126.399,128.21 118.674,123.75 112.493,127.318L113.493,129.05C118.34,126.251 124.399,129.749 124.399,135.346L126.399,135.346ZM112.493,127.318C109.625,128.974 107.858,132.034 107.858,135.346L109.858,135.346C109.858,132.749 111.244,130.349 113.493,129.05L112.493,127.318Z" fill="#020064"/>
<path d="M121.264,142.509L120.764,141.643L120.764,141.643L121.264,142.509ZM112.993,128.184L113.493,129.05L113.493,129.05L112.993,128.184ZM107.858,135.346C107.858,142.483 115.583,146.943 121.764,143.375L120.764,141.643C115.917,144.441 109.858,140.943 109.858,135.346L107.858,135.346ZM121.764,143.375C124.632,141.719 126.399,138.658 126.399,135.346L124.399,135.346C124.399,137.944 123.013,140.344 120.764,141.643L121.764,143.375ZM126.399,135.346C126.399,128.21 118.674,123.75 112.493,127.318L113.493,129.05C118.34,126.251 124.399,129.749 124.399,135.346L126.399,135.346ZM112.493,127.318C109.625,128.974 107.858,132.034 107.858,135.346L109.858,135.346C109.858,132.749 111.244,130.349 113.493,129.05L112.493,127.318Z" fill="#000000" fill-opacity="0.2"/>
</svg>
