<svg width="106" height="106" viewBox="0 0 106 106" fill="none" xmlns="http://www.w3.org/2000/svg" xmlns:xlink="http://www.w3.org/1999/xlink">
<g opacity="0.6">
<path d="M18.85,105.126C18.85,105.618 18.432,105.609 17.862,105.609C17.289,105.609 16.783,105.619 16.783,105.126C16.783,104.63 17.246,104.233 17.817,104.233C18.386,104.233 18.85,104.628 18.85,105.126Z" fill="#C07929"/>
</g>
<rect  x="0.884" y="0" width="103.35" height="103.35" rx="20" fill="#17C2EC"/>
<path d="M98.933,0L7.067,0C3.162,0 0,3.162 0,7.067L0,98.933C0,102.838 3.162,106 7.067,106L98.933,106C102.838,106 106,102.838 106,98.933L106,7.067C106,3.162 102.838,0 98.933,0Z" fill="#0B153C"/>
<path d="M43.92,83.095C40.377,80.401 38.072,76.161 38.072,71.373C38.072,63.953 43.593,57.823 50.73,56.807C50.227,49.767 44.476,46.561 34.079,46.561L27.357,46.561C17.958,46.561 12.031,50.721 12.031,58.865L12.031,81.064C12.031,84.447 14.778,87.194 18.162,87.194L37.789,87.194C42.409,87.203 43.92,83.095 43.92,83.095Z" fill="#0B153C"/>
<path d="M31.402,43.372C38.827,43.372 44.847,37.353 44.847,29.928C44.847,22.503 38.827,16.483 31.402,16.483C23.977,16.483 17.958,22.503 17.958,29.928C17.958,37.353 23.977,43.372 31.402,43.372Z" fill="#0B153C"/>
<path d="M78.228,46.569L71.506,46.569C61.109,46.569 55.359,49.785 54.855,56.816C62.002,57.823 67.531,63.962 67.531,71.382C67.531,76.161 65.226,80.41 61.684,83.104C61.684,83.104 63.185,87.203 67.814,87.203L87.433,87.203C90.816,87.203 93.563,84.456 93.563,81.072L93.563,58.874C93.554,50.73 87.618,46.569 78.228,46.569Z" fill="#0B153C"/>
<path d="M74.174,43.372C81.599,43.372 87.618,37.353 87.618,29.928C87.618,22.503 81.599,16.483 74.174,16.483C66.749,16.483 60.729,22.503 60.729,29.928C60.729,37.353 66.749,43.372 74.174,43.372Z" fill="#0B153C"/>
<path d="M52.814,82.221C58.8,82.221 63.653,77.368 63.653,71.382C63.653,65.397 58.8,60.544 52.814,60.544C46.828,60.544 41.976,65.397 41.976,71.382C41.976,77.368 46.828,82.221 52.814,82.221Z" fill="#0B153C"/>
<path d="M42.047,94.313C41.163,94.313 40.501,93.474 40.73,92.626C41.932,88.236 46.87,84.667 52.788,84.667C58.733,84.667 63.679,88.139 64.863,92.635C65.084,93.483 64.43,94.322 63.547,94.322C63.547,94.313 42.047,94.313 42.047,94.313Z" fill="#0B153C"/>
</svg>
