<svg width="60" height="74" viewBox="0 0 60 74" fill="none" xmlns="http://www.w3.org/2000/svg" xmlns:xlink="http://www.w3.org/1999/xlink">
<rect  x="0" y="14" width="58" height="58" rx="13" stroke="#17C2EC" stroke-opacity="0.25" stroke-width="1" stroke-miterlimit="3.999327"/>
<path d="M34.464,44.819C35.172,45.667 36.433,45.781 37.281,45.074C38.129,44.366 38.243,43.105 37.536,42.257L34.464,44.819ZM24,29.154L22.464,27.872C21.845,28.614 21.845,29.693 22.464,30.435L24,29.154ZM37.536,16.05C38.243,15.202 38.129,13.941 37.281,13.233C36.433,12.526 35.172,12.64 34.464,13.488L37.536,16.05ZM37.536,42.257L25.536,27.872L22.464,30.435L34.464,44.819L37.536,42.257ZM25.536,30.435L37.536,16.05L34.464,13.488L22.464,27.872L25.536,30.435Z" fill="#000000"/>
</svg>
