<svg width="48" height="48" viewBox="0 0 48 48" fill="none" xmlns="http://www.w3.org/2000/svg" xmlns:xlink="http://www.w3.org/1999/xlink">
<path d="M42,24C42,33.941 33.941,42 24,42L24,46C36.15,46 46,36.15 46,24L42,24ZM24,42C14.059,42 6,33.941 6,24L2,24C2,36.15 11.85,46 24,46L24,42ZM6,24C6,14.059 14.059,6 24,6L24,2C11.85,2 2,11.85 2,24L6,24ZM24,6C33.941,6 42,14.059 42,24L46,24C46,11.85 36.15,2 24,2L24,6Z" fill="#17C2EC"/>
<path d="M16.293,17.336C15.927,18.378 16.474,19.52 17.516,19.887C18.558,20.253 19.7,19.706 20.067,18.664L16.293,17.336ZM29.84,20L27.84,19.997L27.84,20L29.84,20ZM23.207,24.103C22.16,24.452 21.593,25.585 21.943,26.632C22.292,27.68 23.424,28.247 24.472,27.897L23.207,24.103ZM20.067,18.664C20.38,17.773 20.999,17.021 21.813,16.543L19.786,13.094C18.158,14.051 16.92,15.554 16.293,17.336L20.067,18.664ZM21.813,16.543C22.628,16.064 23.585,15.889 24.516,16.049L25.192,12.106C23.33,11.787 21.415,12.137 19.786,13.094L21.813,16.543ZM24.516,16.049C25.447,16.208 26.292,16.692 26.9,17.415L29.96,14.839C28.743,13.394 27.054,12.426 25.192,12.106L24.516,16.049ZM26.9,17.415C27.508,18.138 27.841,19.052 27.84,19.997L31.84,20.003C31.843,18.114 31.177,16.284 29.96,14.839L26.9,17.415ZM27.84,20C27.84,20.938 27.11,21.916 25.731,22.836C25.102,23.255 24.459,23.578 23.965,23.797C23.721,23.906 23.521,23.986 23.386,24.037C23.318,24.063 23.268,24.081 23.237,24.092C23.222,24.098 23.212,24.101 23.206,24.103C23.204,24.104 23.203,24.104 23.203,24.104C23.203,24.104 23.203,24.104 23.204,24.104C23.204,24.104 23.205,24.104 23.206,24.103C23.206,24.103 23.206,24.103 23.206,24.103C23.207,24.103 23.207,24.103 23.84,26C24.472,27.897 24.473,27.897 24.474,27.897C24.474,27.897 24.474,27.897 24.475,27.897C24.476,27.896 24.477,27.896 24.478,27.896C24.48,27.895 24.483,27.894 24.486,27.893C24.492,27.891 24.499,27.888 24.508,27.885C24.525,27.879 24.549,27.871 24.577,27.861C24.634,27.841 24.713,27.812 24.81,27.775C25.003,27.702 25.271,27.594 25.59,27.453C26.221,27.172 27.078,26.745 27.949,26.164C29.57,25.084 31.84,23.062 31.84,20L27.84,20Z" fill="#17C2EC"/>
<line x1="24" y1="32" x2="24.02" y2="32" stroke="#17C2EC" stroke-width="2" stroke-miterlimit="3.999327" stroke-linecap="round" stroke-linejoin="round"/>
</svg>
