<svg width="60" height="60" viewBox="0 0 60 60" fill="none" xmlns="http://www.w3.org/2000/svg" xmlns:xlink="http://www.w3.org/1999/xlink">
<path d="M7.5,22.5L6.272,20.921C5.785,21.3 5.5,21.883 5.5,22.5L7.5,22.5ZM30,5L31.228,3.421C30.506,2.86 29.494,2.86 28.772,3.421L30,5ZM52.5,22.5L54.5,22.5C54.5,21.883 54.215,21.3 53.728,20.921L52.5,22.5ZM7.5,50L5.5,50L7.5,50ZM8.728,24.079L31.228,6.579L28.772,3.421L6.272,20.921L8.728,24.079ZM28.772,6.579L51.272,24.079L53.728,20.921L31.228,3.421L28.772,6.579ZM50.5,22.5L50.5,50L54.5,50L54.5,22.5L50.5,22.5ZM50.5,50C50.5,50.796 50.184,51.559 49.621,52.121L52.45,54.95C53.763,53.637 54.5,51.857 54.5,50L50.5,50ZM49.621,52.121C49.059,52.684 48.296,53 47.5,53L47.5,57C49.357,57 51.137,56.263 52.45,54.95L49.621,52.121ZM47.5,53L12.5,53L12.5,57L47.5,57L47.5,53ZM12.5,53C11.704,53 10.941,52.684 10.379,52.121L7.55,54.95C8.863,56.263 10.643,57 12.5,57L12.5,53ZM10.379,52.121C9.816,51.559 9.5,50.796 9.5,50L5.5,50C5.5,51.857 6.237,53.637 7.55,54.95L10.379,52.121ZM9.5,50L9.5,22.5L5.5,22.5L5.5,50L9.5,50Z" fill="#17C2EC" fill-opacity="0.5"/>
<path d="M20.5,55C20.5,56.105 21.395,57 22.5,57C23.605,57 24.5,56.105 24.5,55L20.5,55ZM22.5,30L22.5,28C21.395,28 20.5,28.895 20.5,30L22.5,30ZM37.5,30L39.5,30C39.5,28.895 38.605,28 37.5,28L37.5,30ZM35.5,55C35.5,56.105 36.395,57 37.5,57C38.605,57 39.5,56.105 39.5,55L35.5,55ZM24.5,55L24.5,30L20.5,30L20.5,55L24.5,55ZM22.5,32L37.5,32L37.5,28L22.5,28L22.5,32ZM35.5,30L35.5,55L39.5,55L39.5,30L35.5,30Z" fill="#17C2EC" fill-opacity="0.5"/>
</svg>
