<svg width="74" height="58" viewBox="0 0 74 58" fill="none" xmlns="http://www.w3.org/2000/svg" xmlns:xlink="http://www.w3.org/1999/xlink">
<path d="M10.047,21.19L8.988,19.494C8.403,19.86 8.047,20.501 8.047,21.19L10.047,21.19ZM37.093,4.291L38.153,2.595C37.504,2.19 36.681,2.19 36.033,2.595L37.093,4.291ZM64.138,21.19L66.138,21.19C66.138,20.501 65.783,19.86 65.198,19.494L64.138,21.19ZM10.047,47.747L8.047,47.747L10.047,47.747ZM11.107,22.887L38.153,5.987L36.033,2.595L8.988,19.494L11.107,22.887ZM36.033,5.987L63.078,22.887L65.198,19.494L38.153,2.595L36.033,5.987ZM62.138,21.19L62.138,47.747L66.138,47.747L66.138,21.19L62.138,21.19ZM62.138,47.747C62.138,48.338 61.849,49.021 61.125,49.602L63.63,52.72C65.161,51.491 66.138,49.717 66.138,47.747L62.138,47.747ZM61.125,49.602C60.39,50.193 59.316,50.575 58.128,50.575L58.128,54.575C60.128,54.575 62.111,53.941 63.63,52.72L61.125,49.602ZM58.128,50.575L16.057,50.575L16.057,54.575L58.128,54.575L58.128,50.575ZM16.057,50.575C14.869,50.575 13.795,50.193 13.06,49.602L10.555,52.72C12.074,53.941 14.058,54.575 16.057,54.575L16.057,50.575ZM13.06,49.602C12.337,49.021 12.047,48.338 12.047,47.747L8.047,47.747C8.047,49.717 9.024,51.491 10.555,52.72L13.06,49.602ZM12.047,47.747L12.047,21.19L8.047,21.19L8.047,47.747L12.047,47.747Z" transform="rotate(0.354 37.093 28.433)" fill="#17C2EC"/>
<path d="M26.04,52.575C26.04,53.68 26.935,54.575 28.04,54.575C29.144,54.575 30.04,53.68 30.04,52.575L26.04,52.575ZM28.04,28.433L28.04,26.433C26.935,26.433 26.04,27.328 26.04,28.433L28.04,28.433ZM46.07,28.433L48.07,28.433C48.07,27.328 47.175,26.433 46.07,26.433L46.07,28.433ZM44.07,52.575C44.07,53.68 44.966,54.575 46.07,54.575C47.175,54.575 48.07,53.68 48.07,52.575L44.07,52.575ZM30.04,52.575L30.04,28.433L26.04,28.433L26.04,52.575L30.04,52.575ZM28.04,30.433L46.07,30.433L46.07,26.433L28.04,26.433L28.04,30.433ZM44.07,28.433L44.07,52.575L48.07,52.575L48.07,28.433L44.07,28.433Z" transform="rotate(0.354 37.055 40.504)" fill="#17C2EC"/>
</svg>
