<svg width="60" height="62" viewBox="0 0 60 62" fill="none" xmlns="http://www.w3.org/2000/svg" xmlns:xlink="http://www.w3.org/1999/xlink">
<path d="M7.5,22.504L6.272,20.925C5.785,21.304 5.5,21.887 5.5,22.504L7.5,22.504ZM30,5.004L31.228,3.425C30.506,2.863 29.494,2.863 28.772,3.425L30,5.004ZM52.5,22.504L54.5,22.504C54.5,21.887 54.215,21.304 53.728,20.925L52.5,22.504ZM7.5,50.004L5.5,50.004L7.5,50.004ZM8.728,24.083L31.228,6.583L28.772,3.425L6.272,20.925L8.728,24.083ZM28.772,6.583L51.272,24.083L53.728,20.925L31.228,3.425L28.772,6.583ZM50.5,22.504L50.5,50.004L54.5,50.004L54.5,22.504L50.5,22.504ZM50.5,50.004C50.5,50.8 50.184,51.563 49.621,52.125L52.45,54.954C53.763,53.641 54.5,51.861 54.5,50.004L50.5,50.004ZM49.621,52.125C49.059,52.688 48.296,53.004 47.5,53.004L47.5,57.004C49.357,57.004 51.137,56.267 52.45,54.954L49.621,52.125ZM47.5,53.004L12.5,53.004L12.5,57.004L47.5,57.004L47.5,53.004ZM12.5,53.004C11.704,53.004 10.941,52.688 10.379,52.125L7.55,54.954C8.863,56.267 10.643,57.004 12.5,57.004L12.5,53.004ZM10.379,52.125C9.816,51.563 9.5,50.8 9.5,50.004L5.5,50.004C5.5,51.861 6.237,53.641 7.55,54.954L10.379,52.125ZM9.5,50.004L9.5,22.504L5.5,22.504L5.5,50.004L9.5,50.004Z" fill="#17C2EC" fill-opacity="0.5"/>
<path d="M20.5,55.004C20.5,56.109 21.395,57.004 22.5,57.004C23.605,57.004 24.5,56.109 24.5,55.004L20.5,55.004ZM22.5,30.004L22.5,28.004C21.395,28.004 20.5,28.899 20.5,30.004L22.5,30.004ZM37.5,30.004L39.5,30.004C39.5,28.899 38.605,28.004 37.5,28.004L37.5,30.004ZM35.5,55.004C35.5,56.109 36.395,57.004 37.5,57.004C38.605,57.004 39.5,56.109 39.5,55.004L35.5,55.004ZM24.5,55.004L24.5,30.004L20.5,30.004L20.5,55.004L24.5,55.004ZM22.5,32.004L37.5,32.004L37.5,28.004L22.5,28.004L22.5,32.004ZM35.5,30.004L35.5,55.004L39.5,55.004L39.5,30.004L35.5,30.004Z" fill="#17C2EC" fill-opacity="0.5"/>
</svg>
