<svg width="60" height="60" viewBox="0 0 60 60" fill="none" xmlns="http://www.w3.org/2000/svg" xmlns:xlink="http://www.w3.org/1999/xlink">
<path d="M12.5,9.5L47.5,9.5L47.5,5.5L12.5,5.5L12.5,9.5ZM47.5,9.5C49.157,9.5 50.5,10.843 50.5,12.5L54.5,12.5C54.5,8.634 51.366,5.5 47.5,5.5L47.5,9.5ZM50.5,12.5L50.5,47.5L54.5,47.5L54.5,12.5L50.5,12.5ZM50.5,47.5C50.5,49.157 49.157,50.5 47.5,50.5L47.5,54.5C51.366,54.5 54.5,51.366 54.5,47.5L50.5,47.5ZM47.5,50.5L12.5,50.5L12.5,54.5L47.5,54.5L47.5,50.5ZM12.5,50.5C10.843,50.5 9.5,49.157 9.5,47.5L5.5,47.5C5.5,51.366 8.634,54.5 12.5,54.5L12.5,50.5ZM9.5,47.5L9.5,12.5L5.5,12.5L5.5,47.5L9.5,47.5ZM9.5,12.5C9.5,10.843 10.843,9.5 12.5,9.5L12.5,5.5C8.634,5.5 5.5,8.634 5.5,12.5L9.5,12.5Z" fill="#17C2EC"/>
<path d="M23,21.25C23,22.216 22.216,23 21.25,23L21.25,27C24.426,27 27,24.426 27,21.25L23,21.25ZM21.25,23C20.284,23 19.5,22.216 19.5,21.25L15.5,21.25C15.5,24.426 18.074,27 21.25,27L21.25,23ZM19.5,21.25C19.5,20.284 20.284,19.5 21.25,19.5L21.25,15.5C18.074,15.5 15.5,18.074 15.5,21.25L19.5,21.25ZM21.25,19.5C22.216,19.5 23,20.284 23,21.25L27,21.25C27,18.074 24.426,15.5 21.25,15.5L21.25,19.5Z" fill="#17C2EC"/>
<path d="M51.086,38.914C51.867,39.695 53.133,39.695 53.914,38.914C54.695,38.133 54.695,36.867 53.914,36.086L51.086,38.914ZM40,25L41.414,23.586C40.633,22.805 39.367,22.805 38.586,23.586L40,25ZM11.086,51.086C10.305,51.867 10.305,53.133 11.086,53.914C11.867,54.695 13.133,54.695 13.914,53.914L11.086,51.086ZM53.914,36.086L41.414,23.586L38.586,26.414L51.086,38.914L53.914,36.086ZM38.586,23.586L11.086,51.086L13.914,53.914L41.414,26.414L38.586,23.586Z" fill="#17C2EC"/>
</svg>
