<svg width="182" height="136" viewBox="0 0 182 136" fill="none" xmlns="http://www.w3.org/2000/svg" xmlns:xlink="http://www.w3.org/1999/xlink">
<path d="M177.94,88.835C172.788,89.231 165.32,89.889 157.516,90.331C160.669,104.005 156.361,120.822 152.326,129.202C159.074,130.845 165.79,132.574 172.149,133.92C176.81,126.663 183.365,104.71 177.94,88.835Z" fill="#FECFC4"/>
<path d="M177.94,88.835L178.886,88.512C178.739,88.08 178.318,87.803 177.863,87.838L177.94,88.835ZM157.516,90.331L157.46,89.332C157.165,89.349 156.893,89.495 156.716,89.73C156.539,89.966 156.475,90.268 156.542,90.555L157.516,90.331ZM152.326,129.202L151.425,128.768C151.294,129.04 151.293,129.356 151.422,129.629C151.551,129.902 151.796,130.102 152.09,130.173L152.326,129.202ZM172.149,133.92L171.942,134.898C172.348,134.984 172.766,134.81 172.99,134.46L172.149,133.92ZM177.863,87.838C172.697,88.235 165.25,88.892 157.46,89.332L157.573,91.329C165.39,90.887 172.879,90.227 178.017,89.832L177.863,87.838ZM156.542,90.555C158.078,97.221 157.804,104.701 156.631,111.583C155.457,118.463 153.398,124.671 151.425,128.768L153.227,129.636C155.29,125.352 157.401,118.962 158.602,111.92C159.803,104.88 160.106,97.115 158.491,90.106L156.542,90.555ZM152.09,130.173C158.819,131.812 165.563,133.548 171.942,134.898L172.356,132.941C166.017,131.6 159.329,129.878 152.563,128.23L152.09,130.173ZM172.99,134.46C175.414,130.687 178.253,123.248 179.81,114.79C181.369,106.327 181.677,96.677 178.886,88.512L176.994,89.158C179.628,96.868 179.371,106.132 177.843,114.428C176.315,122.73 173.545,129.896 171.308,133.379L172.99,134.46Z" fill="#120071"/>
<path d="M62.041,54.643C62.593,54.64 63.038,54.189 63.035,53.637C63.031,53.085 62.581,52.64 62.028,52.643L62.041,54.643ZM8.497,53.971L8.491,52.971L8.491,52.971L8.497,53.971ZM8.614,66.958L8.608,65.958L8.608,65.958L8.614,66.958ZM39.346,66.771L39.405,67.769C39.946,67.737 40.363,67.28 40.346,66.738C40.328,66.196 39.882,65.767 39.34,65.771L39.346,66.771ZM8.308,68.614L8.356,69.613L8.368,69.612L8.308,68.614ZM9.441,81.566L9.381,80.568L9.369,80.569L9.441,81.566ZM11.422,82.15L11.321,81.155L11.319,81.156L11.422,82.15ZM13.343,95.038L13.443,96.034L13.445,96.033L13.343,95.038ZM27.106,93.638L27.806,94.352C28.11,94.055 28.192,93.598 28.012,93.214C27.832,92.829 27.428,92.6 27.005,92.643L27.106,93.638ZM25.772,94.945L25.941,95.931C26.141,95.896 26.326,95.802 26.472,95.659L25.772,94.945ZM20.496,95.848L20.645,96.837L20.665,96.834L20.496,95.848ZM15.32,102.027L14.344,102.242L14.344,102.242L15.32,102.027ZM22.798,106.304L22.946,107.293L22.955,107.291L22.798,106.304ZM59.227,100.498L59.311,99.501C59.23,99.495 59.149,99.498 59.07,99.51L59.227,100.498ZM93.523,117.228L93.909,116.306C93.875,116.291 93.84,116.279 93.804,116.268L93.523,117.228ZM131.558,124.891L131.717,123.904L131.704,123.902L131.558,124.891ZM152.329,129.203L152.082,130.171C152.543,130.289 153.024,130.065 153.23,129.636L152.329,129.203ZM157.516,90.331L158.491,90.107C158.381,89.632 157.946,89.305 157.46,89.333L157.516,90.331ZM123.399,87.665L122.768,88.441L122.768,88.442L123.399,87.665ZM108.081,72.835L107.372,73.54L107.372,73.54L108.081,72.835ZM96.245,61.094C95.801,60.766 95.175,60.859 94.846,61.303C94.518,61.747 94.611,62.374 95.055,62.702L96.245,61.094ZM62.028,52.643L8.491,52.971L8.503,54.971L62.041,54.643L62.028,52.643ZM8.491,52.971C6.197,52.985 3.973,53.75 2.315,55.141L3.601,56.673C4.868,55.61 6.629,54.982 8.503,54.971L8.491,52.971ZM2.315,55.141C0.652,56.536 -0.321,58.466 -0.302,60.522L1.698,60.504C1.685,59.115 2.339,57.731 3.601,56.673L2.315,55.141ZM-0.302,60.522C-0.283,62.577 0.723,64.493 2.409,65.866L3.672,64.315C2.389,63.27 1.71,61.893 1.698,60.504L-0.302,60.522ZM2.409,65.866C4.09,67.234 6.326,67.972 8.62,67.958L8.608,65.958C6.734,65.969 4.96,65.363 3.672,64.315L2.409,65.866ZM8.62,67.958L39.352,67.771L39.34,65.771L8.608,65.958L8.62,67.958ZM39.287,65.772L8.249,67.616L8.368,69.612L39.405,67.769L39.287,65.772ZM8.261,67.615C7.112,67.67 5.985,67.913 4.942,68.334L5.69,70.189C6.518,69.855 7.425,69.658 8.356,69.613L8.261,67.615ZM4.942,68.334C3.899,68.755 2.955,69.347 2.172,70.085L3.543,71.541C4.133,70.985 4.861,70.523 5.69,70.189L4.942,68.334ZM2.172,70.085C1.388,70.823 0.777,71.694 0.388,72.652L2.24,73.405C2.514,72.732 2.953,72.097 3.543,71.541L2.172,70.085ZM0.388,72.652C-0.002,73.611 -0.16,74.632 -0.071,75.652L1.921,75.478C1.86,74.781 1.967,74.077 2.24,73.405L0.388,72.652ZM-0.071,75.652C0.018,76.671 0.351,77.657 0.898,78.551L2.604,77.506C2.211,76.864 1.982,76.175 1.921,75.478L-0.071,75.652ZM0.898,78.551C1.445,79.443 2.192,80.224 3.088,80.855L4.24,79.22C3.55,78.734 2.998,78.149 2.604,77.506L0.898,78.551ZM3.088,80.855C3.983,81.486 5.011,81.957 6.111,82.248L6.622,80.314C5.739,80.081 4.929,79.706 4.24,79.22L3.088,80.855ZM6.111,82.248C7.211,82.539 8.366,82.646 9.512,82.564L9.369,80.569C8.44,80.635 7.506,80.548 6.622,80.314L6.111,82.248ZM9.5,82.564C15.582,82.202 20.158,81.914 23.247,81.721C24.792,81.625 25.963,81.552 26.764,81.507C27.165,81.484 27.469,81.468 27.68,81.459C27.786,81.454 27.862,81.452 27.913,81.451C28.001,81.449 27.953,81.454 27.874,81.443C27.855,81.44 27.819,81.434 27.775,81.423C27.744,81.415 27.639,81.388 27.521,81.319C27.447,81.276 27.04,81.026 27.026,80.482C27.012,79.973 27.365,79.703 27.415,79.665C27.514,79.589 27.604,79.55 27.633,79.538C27.673,79.521 27.705,79.511 27.722,79.506C27.756,79.495 27.781,79.49 27.787,79.488C27.802,79.485 27.788,79.489 27.712,79.499C27.578,79.517 27.35,79.543 27.019,79.579C26.363,79.649 25.342,79.752 23.955,79.89C21.184,80.166 16.965,80.58 11.321,81.155L11.524,83.145C17.164,82.57 21.38,82.156 24.153,81.88C25.538,81.743 26.567,81.639 27.233,81.567C27.564,81.532 27.815,81.503 27.978,81.481C28.05,81.471 28.138,81.459 28.211,81.443C28.23,81.439 28.267,81.43 28.31,81.417C28.331,81.411 28.367,81.399 28.409,81.381C28.441,81.368 28.533,81.328 28.633,81.251C28.685,81.211 29.038,80.941 29.025,80.431C29.011,79.886 28.603,79.635 28.528,79.591C28.407,79.521 28.301,79.493 28.267,79.485C28.219,79.472 28.18,79.466 28.157,79.463C28.044,79.447 27.915,79.45 27.877,79.451C27.802,79.452 27.706,79.456 27.594,79.46C27.369,79.47 27.053,79.487 26.65,79.51C25.842,79.556 24.666,79.629 23.123,79.725C20.033,79.918 15.46,80.206 9.381,80.568L9.5,82.564ZM11.319,81.156C9.046,81.392 6.938,82.367 5.477,83.918L6.932,85.29C8.027,84.128 9.672,83.338 11.526,83.145L11.319,81.156ZM5.477,83.918C4.008,85.477 3.314,87.497 3.617,89.533L5.596,89.239C5.39,87.863 5.846,86.443 6.932,85.29L5.477,83.918ZM3.617,89.533C3.92,91.562 5.174,93.351 7.018,94.544L8.104,92.865C6.673,91.939 5.802,90.622 5.596,89.239L3.617,89.533ZM7.018,94.544C8.859,95.735 11.167,96.26 13.443,96.033L13.244,94.043C11.389,94.228 9.539,93.793 8.104,92.865L7.018,94.544ZM13.445,96.033L27.208,94.633L27.005,92.643L13.242,94.044L13.445,96.033ZM26.407,92.923L25.072,94.23L26.472,95.659L27.806,94.352L26.407,92.923ZM25.603,93.959L20.327,94.862L20.665,96.834L25.941,95.931L25.603,93.959ZM20.347,94.859C18.46,95.143 16.74,96.041 15.594,97.41L17.127,98.694C17.921,97.746 19.177,97.058 20.645,96.837L20.347,94.859ZM15.594,97.41C14.439,98.788 13.968,100.531 14.344,102.242L16.297,101.813C16.064,100.751 16.34,99.633 17.127,98.694L15.594,97.41ZM14.344,102.242C14.529,103.083 14.91,103.873 15.454,104.571L17.031,103.34C16.66,102.864 16.414,102.345 16.297,101.812L14.344,102.242ZM15.454,104.571C15.997,105.267 16.692,105.857 17.491,106.313L18.484,104.577C17.894,104.24 17.403,103.817 17.031,103.34L15.454,104.571ZM17.491,106.313C18.289,106.77 19.181,107.088 20.113,107.254L20.465,105.285C19.747,105.157 19.074,104.915 18.484,104.577L17.491,106.313ZM20.113,107.254C21.046,107.421 22.008,107.434 22.946,107.293L22.649,105.315C21.926,105.424 21.183,105.414 20.465,105.285L20.113,107.254ZM22.955,107.291L59.385,101.486L59.07,99.51L22.64,105.316L22.955,107.291ZM59.144,101.494C60.499,101.608 62.334,102.351 64.671,103.6C66.981,104.835 69.631,106.478 72.604,108.273C78.512,111.841 85.607,115.956 93.243,118.188L93.804,116.268C86.445,114.117 79.55,110.131 73.638,106.561C70.702,104.788 67.984,103.103 65.614,101.836C63.271,100.584 61.115,99.652 59.311,99.501L59.144,101.494ZM93.138,118.151C107.53,124.168 115.757,123.566 131.412,125.88L131.704,123.902C115.744,121.543 107.993,122.195 93.909,116.306L93.138,118.151ZM131.399,125.878C138.382,127.003 145.286,128.436 152.082,130.171L152.577,128.234C145.722,126.483 138.759,125.038 131.717,123.904L131.399,125.878ZM153.23,129.636C155.291,125.352 157.402,118.962 158.603,111.92C159.803,104.88 160.107,97.115 158.491,90.107L156.542,90.556C158.079,97.221 157.805,104.701 156.631,111.583C155.458,118.463 153.399,124.671 151.428,128.769L153.23,129.636ZM157.46,89.333C150.32,89.738 142.931,89.959 136.792,89.639C133.722,89.479 130.992,89.185 128.775,88.72C126.528,88.248 124.935,87.624 124.029,86.889L122.768,88.442C124.056,89.487 126.037,90.189 128.364,90.677C130.721,91.172 133.565,91.474 136.688,91.637C142.936,91.962 150.412,91.736 157.573,91.33L157.46,89.333ZM124.029,86.889C117.688,81.739 115.171,78.548 108.79,72.13L107.372,73.54C113.644,79.848 116.317,83.202 122.768,88.441L124.029,86.889ZM108.79,72.13C105.893,69.217 101.41,64.917 96.245,61.094L95.055,62.702C100.101,66.436 104.502,70.655 107.372,73.54L108.79,72.13Z" fill="#120071"/>
<path d="M27.961,79.461C27.409,79.493 26.989,79.967 27.022,80.518C27.055,81.07 27.528,81.49 28.079,81.457L27.961,79.461ZM38.991,80.809C39.543,80.776 39.963,80.302 39.93,79.751C39.898,79.2 39.424,78.779 38.873,78.812L38.991,80.809ZM28.079,81.457L38.991,80.809L38.873,78.812L27.961,79.461L28.079,81.457Z" fill="#120071"/>
<path d="M28.064,110.452L28.621,109.622C28.204,109.342 27.645,109.415 27.313,109.792L28.064,110.452ZM23.723,115.385L22.972,114.724C22.777,114.947 22.69,115.245 22.735,115.538C22.78,115.831 22.953,116.088 23.208,116.241L23.723,115.385ZM29.327,118.757L28.812,119.614C29.226,119.863 29.758,119.781 30.078,119.418L29.327,118.757ZM33.668,113.829L34.418,114.49C34.62,114.261 34.706,113.953 34.652,113.653C34.599,113.353 34.411,113.093 34.143,112.949L33.668,113.829ZM27.313,109.792L22.972,114.724L24.474,116.045L28.815,111.113L27.313,109.792ZM23.208,116.241L28.812,119.614L29.843,117.9L24.239,114.528L23.208,116.241ZM30.078,119.418L34.418,114.49L32.918,113.168L28.577,118.096L30.078,119.418ZM34.143,112.949C32.233,111.919 30.39,110.808 28.621,109.622L27.507,111.283C29.33,112.505 31.228,113.649 33.193,114.709L34.143,112.949Z" fill="#120071"/>
<path d="M27.275,117.728C27.64,117.313 27.6,116.681 27.185,116.316C26.771,115.951 26.139,115.991 25.774,116.405L27.275,117.728ZM11.852,132.204C11.487,132.618 11.527,133.25 11.941,133.615C12.355,133.98 12.987,133.94 13.352,133.526L11.852,132.204ZM25.774,116.405L11.852,132.204L13.352,133.526L27.275,117.728L25.774,116.405Z" fill="#120071"/>
<path d="M82.478,59.725C87.855,63.441 91.085,66.99 89.988,68.236C88.671,69.729 81.629,67.344 74.258,62.906C66.887,58.47 61.978,53.662 63.294,52.169C64.392,50.924 69.47,52.376 75.4,55.464L73.102,58.071L80.179,62.332L82.478,59.725Z" clip-rule="evenodd" fill-rule="evenodd" fill="#FECFC4"/>
<path d="M39.576,79.079L40.363,78.462C40.18,78.228 39.902,78.088 39.605,78.08C39.308,78.071 39.022,78.195 38.826,78.418L39.576,79.079ZM19.855,101.46L19.104,100.799L19.104,100.799L19.855,101.46ZM46.547,117.527L45.797,116.866L45.797,116.866L46.547,117.527ZM66.892,94.444L67.643,95.105C67.845,94.875 67.931,94.565 67.876,94.264C67.821,93.963 67.631,93.703 67.36,93.56L66.892,94.444ZM42.702,81.646L43.169,80.762L43.169,80.762L42.702,81.646ZM38.826,78.418L19.104,100.799L20.605,102.121L40.327,79.74L38.826,78.418ZM19.104,100.799C18.32,101.689 18.676,102.835 19.094,103.616C19.555,104.478 20.359,105.441 21.379,106.44C23.435,108.454 26.573,110.81 30.301,113.054L31.332,111.341C27.691,109.149 24.69,106.883 22.778,105.011C21.814,104.067 21.177,103.271 20.858,102.673C20.494,101.994 20.731,101.979 20.605,102.121L19.104,100.799ZM30.301,113.054C34.031,115.3 37.7,117.04 40.631,118.033C42.091,118.528 43.41,118.852 44.484,118.945C45.02,118.991 45.537,118.984 45.998,118.888C46.456,118.793 46.94,118.594 47.297,118.188L45.797,116.866C45.825,116.834 45.801,116.886 45.592,116.93C45.387,116.972 45.081,116.989 44.656,116.952C43.809,116.879 42.66,116.609 41.273,116.139C38.51,115.203 34.972,113.532 31.332,111.341L30.301,113.054ZM47.297,118.188L67.643,95.105L66.142,93.783L45.797,116.866L47.297,118.188ZM67.36,93.56L43.169,80.762L42.234,82.53L66.425,95.328L67.36,93.56ZM43.169,80.762C42.032,80.161 41.078,79.373 40.363,78.462L38.79,79.697C39.692,80.845 40.869,81.808 42.234,82.53L43.169,80.762Z" fill="#120071"/>
<path d="M55.465,99.729C51.257,101.44 48.652,101.445 44.265,98.411C42.605,97.264 41.105,95.966 39.4,94.862C37.806,93.762 35.929,92.976 33.913,92.564C31.897,92.152 29.794,92.125 27.763,92.484L19.855,101.46C18.538,102.954 23.447,107.761 30.817,112.198C38.186,116.634 45.231,119.021 46.547,117.527L64.122,97.585C60.701,97.349 58.506,98.491 55.465,99.729Z" fill="#6153BD"/>
<path d="M55.465,99.729L55.842,100.655L55.842,100.655L55.465,99.729ZM44.265,98.411L44.834,97.589L44.834,97.588L44.265,98.411ZM39.4,94.862L38.832,95.685C38.84,95.691 38.848,95.696 38.857,95.702L39.4,94.862ZM27.763,92.484L27.589,91.499C27.366,91.538 27.163,91.653 27.013,91.823L27.763,92.484ZM19.855,101.46L19.104,100.799L19.104,100.799L19.855,101.46ZM46.547,117.527L45.797,116.866L45.797,116.866L46.547,117.527ZM64.122,97.585L64.872,98.246C65.124,97.961 65.192,97.557 65.047,97.205C64.902,96.853 64.571,96.614 64.191,96.588L64.122,97.585ZM55.089,98.803C53.04,99.636 51.515,99.995 50.027,99.854C48.541,99.712 46.958,99.058 44.834,97.589L43.697,99.234C45.959,100.798 47.872,101.658 49.837,101.845C51.801,102.032 53.682,101.533 55.842,100.655L55.089,98.803ZM44.834,97.588C44.028,97.031 43.261,96.438 42.455,95.825C41.659,95.218 40.831,94.597 39.943,94.023L38.857,95.702C39.674,96.231 40.449,96.811 41.244,97.416C42.03,98.015 42.843,98.644 43.697,99.234L44.834,97.588ZM39.968,94.039C38.256,92.858 36.253,92.022 34.114,91.585L33.713,93.544C35.606,93.931 37.355,94.666 38.832,95.685L39.968,94.039ZM34.114,91.585C31.974,91.147 29.744,91.118 27.589,91.499L27.937,93.468C29.844,93.131 31.821,93.157 33.713,93.544L34.114,91.585ZM27.013,91.823L19.104,100.799L20.605,102.121L28.513,93.145L27.013,91.823ZM19.104,100.799C18.32,101.689 18.676,102.835 19.094,103.616C19.555,104.478 20.359,105.441 21.379,106.44C23.435,108.454 26.573,110.81 30.301,113.054L31.332,111.341C27.691,109.149 24.69,106.883 22.778,105.011C21.814,104.067 21.177,103.271 20.858,102.673C20.494,101.994 20.731,101.979 20.605,102.121L19.104,100.799ZM30.301,113.054C34.031,115.3 37.7,117.04 40.631,118.033C42.091,118.528 43.41,118.852 44.484,118.945C45.02,118.991 45.537,118.984 45.998,118.888C46.456,118.793 46.94,118.594 47.297,118.188L45.797,116.866C45.825,116.834 45.801,116.886 45.592,116.93C45.387,116.972 45.081,116.989 44.656,116.952C43.809,116.879 42.66,116.609 41.273,116.139C38.51,115.203 34.972,113.532 31.332,111.341L30.301,113.054ZM47.297,118.188L64.872,98.246L63.372,96.924L45.797,116.866L47.297,118.188ZM64.191,96.588C60.488,96.332 58.049,97.597 55.088,98.803L55.842,100.655C58.962,99.385 60.915,98.366 64.053,98.583L64.191,96.588Z" fill="#120071"/>
<path d="M80.071,79.488L79.603,80.372C80.012,80.589 80.515,80.496 80.821,80.15L80.071,79.488ZM99.437,57.515L100.187,58.176C100.383,57.953 100.47,57.655 100.425,57.362C100.38,57.069 100.207,56.811 99.952,56.658L99.437,57.515ZM72.743,41.45L73.258,40.593C72.844,40.344 72.312,40.427 71.992,40.789L72.743,41.45ZM51.938,65.058L51.187,64.397C50.954,64.661 50.878,65.029 50.986,65.365C51.094,65.7 51.371,65.954 51.714,66.033L51.938,65.058ZM80.821,80.15L100.187,58.176L98.686,56.853L79.32,78.827L80.821,80.15ZM99.952,56.658L73.258,40.593L72.227,42.307L98.921,58.371L99.952,56.658ZM71.992,40.789L51.187,64.397L52.688,65.719L73.493,42.111L71.992,40.789ZM51.714,66.033C52.246,66.154 52.485,66.198 53.003,66.41C53.559,66.638 54.414,67.053 56.097,67.926C59.452,69.666 65.948,73.148 79.603,80.372L80.538,78.605C66.901,71.389 60.382,67.896 57.018,66.151C55.343,65.282 54.413,64.826 53.761,64.56C53.071,64.277 52.68,64.202 52.161,64.083L51.714,66.033Z" fill="#120071"/>
<path d="M62.988,54.026C63.353,53.612 63.313,52.98 62.899,52.615C62.484,52.25 61.852,52.29 61.487,52.704L62.988,54.026ZM89.681,70.093C90.046,69.679 90.006,69.047 89.592,68.682C89.178,68.317 88.546,68.356 88.181,68.771L89.681,70.093ZM61.487,52.704C60.704,53.594 61.06,54.74 61.477,55.521C61.938,56.383 62.742,57.346 63.762,58.345C65.818,60.359 68.956,62.715 72.685,64.959L73.716,63.246C70.074,61.054 67.073,58.788 65.162,56.916C64.198,55.972 63.561,55.176 63.241,54.578C62.878,53.898 63.114,53.883 62.988,54.026L61.487,52.704ZM72.685,64.959C76.416,67.205 80.085,68.945 83.015,69.938C84.475,70.433 85.794,70.757 86.868,70.849C87.404,70.896 87.921,70.888 88.382,70.793C88.839,70.698 89.324,70.499 89.681,70.093L88.181,68.771C88.209,68.739 88.185,68.791 87.976,68.834C87.772,68.877 87.465,68.894 87.04,68.857C86.193,68.784 85.044,68.514 83.657,68.044C80.894,67.108 77.356,65.437 73.716,63.246L72.685,64.959Z" fill="#120071"/>
<path d="M83.019,58.882C82.565,58.568 81.942,58.682 81.628,59.137C81.314,59.591 81.428,60.214 81.883,60.528L83.019,58.882ZM89.988,68.236L90.738,68.898L90.738,68.897L89.988,68.236ZM74.258,62.906L73.742,63.763L73.742,63.763L74.258,62.906ZM63.294,52.169L64.045,52.83L64.045,52.83L63.294,52.169ZM74.902,56.332C75.392,56.587 75.996,56.396 76.251,55.906C76.505,55.416 76.315,54.812 75.825,54.558L74.902,56.332ZM81.883,60.528C84.545,62.366 86.633,64.136 87.907,65.565C88.552,66.287 88.937,66.867 89.108,67.281C89.288,67.72 89.133,67.694 89.237,67.575L90.738,68.897C91.392,68.155 91.244,67.216 90.957,66.52C90.66,65.8 90.104,65.023 89.4,64.234C87.98,62.64 85.75,60.768 83.019,58.882L81.883,60.528ZM89.238,67.575C89.266,67.543 89.242,67.595 89.033,67.638C88.829,67.681 88.522,67.697 88.097,67.661C87.25,67.587 86.101,67.318 84.714,66.848C81.951,65.912 78.414,64.241 74.773,62.049L73.742,63.763C77.473,66.009 81.142,67.749 84.072,68.742C85.532,69.236 86.851,69.56 87.925,69.653C88.461,69.7 88.978,69.692 89.439,69.597C89.896,69.502 90.38,69.303 90.738,68.898L89.238,67.575ZM74.773,62.049C71.131,59.857 68.13,57.591 66.218,55.719C65.254,54.775 64.617,53.979 64.298,53.381C63.934,52.702 64.171,52.687 64.045,52.83L62.544,51.507C61.76,52.397 62.116,53.543 62.534,54.324C62.995,55.186 63.799,56.149 64.819,57.148C66.875,59.162 70.013,61.518 73.742,63.763L74.773,62.049ZM64.045,52.83C64.013,52.866 64.138,52.716 64.798,52.724C65.398,52.731 66.225,52.868 67.256,53.152C69.308,53.717 71.983,54.814 74.902,56.332L75.825,54.558C72.83,53 70.018,51.838 67.787,51.223C66.677,50.918 65.664,50.734 64.822,50.724C64.042,50.715 63.123,50.85 62.544,51.508L64.045,52.83Z" fill="#120071"/>
<path d="M84.818,44.724L82.499,47.353L89.576,51.616L91.9,48.982C97.294,52.706 100.536,56.266 99.437,57.513C98.121,59.007 91.079,56.62 83.708,52.184C76.337,47.748 71.428,42.938 72.743,41.446C73.838,40.203 78.901,41.647 84.818,44.724Z" clip-rule="evenodd" fill-rule="evenodd" fill="#FECFC4"/>
<path d="M84.818,44.724L85.568,45.386C85.771,45.155 85.857,44.843 85.801,44.541C85.744,44.239 85.552,43.979 85.279,43.837L84.818,44.724ZM82.499,47.353L81.749,46.691C81.553,46.914 81.466,47.212 81.511,47.505C81.556,47.798 81.729,48.056 81.983,48.21L82.499,47.353ZM89.576,51.616L89.06,52.473C89.474,52.722 90.007,52.64 90.326,52.278L89.576,51.616ZM91.9,48.982L92.469,48.159C92.052,47.871 91.486,47.941 91.151,48.32L91.9,48.982ZM99.437,57.513L98.687,56.852L98.687,56.852L99.437,57.513ZM72.743,41.446L71.993,40.785L71.993,40.785L72.743,41.446ZM84.068,44.063L81.749,46.691L83.249,48.014L85.568,45.386L84.068,44.063ZM81.983,48.21L89.06,52.473L90.092,50.76L83.015,46.496L81.983,48.21ZM90.326,52.278L92.65,49.644L91.151,48.32L88.826,50.955L90.326,52.278ZM91.332,49.805C93.995,51.643 96.083,53.412 97.357,54.842C98.001,55.564 98.386,56.144 98.557,56.558C98.738,56.997 98.582,56.971 98.687,56.852L100.187,58.174C100.842,57.432 100.693,56.493 100.406,55.797C100.11,55.077 99.553,54.3 98.85,53.511C97.429,51.917 95.2,50.045 92.469,48.159L91.332,49.805ZM98.687,56.852C98.715,56.82 98.691,56.873 98.483,56.916C98.278,56.959 97.971,56.975 97.547,56.938C96.699,56.865 95.551,56.595 94.164,56.125C91.401,55.189 87.864,53.518 84.224,51.327L83.192,53.041C86.923,55.286 90.592,57.027 93.522,58.02C94.981,58.514 96.301,58.838 97.375,58.931C97.911,58.977 98.428,58.97 98.889,58.874C99.346,58.78 99.83,58.58 100.187,58.174L98.687,56.852ZM84.224,51.327C80.581,49.135 77.58,46.869 75.668,44.996C74.704,44.052 74.066,43.256 73.747,42.658C73.383,41.978 73.62,41.964 73.493,42.107L71.993,40.785C71.209,41.674 71.566,42.821 71.983,43.601C72.444,44.463 73.248,45.426 74.268,46.425C76.325,48.439 79.464,50.796 83.192,53.041L84.224,51.327ZM73.493,42.107C73.461,42.143 73.587,41.993 74.248,42.001C74.848,42.008 75.675,42.145 76.707,42.429C78.759,42.994 81.436,44.093 84.356,45.611L85.279,43.837C82.283,42.279 79.47,41.116 77.238,40.501C76.127,40.195 75.114,40.011 74.272,40.001C73.491,39.992 72.572,40.127 71.993,40.785L73.493,42.107Z" fill="#120071"/>
<path d="M80.252,49.957L80.82,49.134C80.403,48.846 79.837,48.916 79.502,49.296L80.252,49.957ZM73.102,58.071L72.351,57.41C72.155,57.632 72.068,57.93 72.113,58.224C72.159,58.517 72.332,58.775 72.586,58.928L73.102,58.071ZM80.179,62.332L79.663,63.189C80.077,63.438 80.609,63.355 80.929,62.993L80.179,62.332ZM87.33,54.222L88.08,54.883C88.283,54.653 88.369,54.342 88.313,54.04C88.257,53.738 88.065,53.478 87.793,53.336L87.33,54.222ZM79.502,49.296L72.351,57.41L73.852,58.732L81.003,50.618L79.502,49.296ZM72.586,58.928L79.663,63.189L80.695,61.475L73.617,57.214L72.586,58.928ZM80.929,62.993L88.08,54.883L86.579,53.56L79.429,61.67L80.929,62.993ZM87.793,53.336C85.359,52.062 83.03,50.658 80.82,49.134L79.684,50.78C81.962,52.352 84.361,53.797 86.866,55.108L87.793,53.336Z" fill="#120071"/>
<path d="M115.786,9.617L116.536,10.278C116.697,10.095 116.786,9.86 116.786,9.617L115.786,9.617ZM82.499,47.352L81.749,46.691C81.553,46.913 81.466,47.211 81.511,47.505C81.556,47.798 81.729,48.056 81.983,48.209L82.499,47.352ZM89.576,51.616L89.06,52.472C89.474,52.721 90.007,52.639 90.326,52.277L89.576,51.616ZM122.864,13.877L123.614,14.538C123.818,14.308 123.904,13.997 123.848,13.695C123.792,13.392 123.6,13.133 123.328,12.99L122.864,13.877ZM115.786,9.615L116.354,8.792C116.048,8.581 115.65,8.557 115.321,8.73C114.992,8.902 114.786,9.243 114.786,9.615L115.786,9.615ZM115.036,8.955L81.749,46.691L83.249,48.014L116.536,10.278L115.036,8.955ZM81.983,48.209L89.06,52.472L90.092,50.759L83.015,46.496L81.983,48.209ZM90.326,52.277L123.614,14.538L122.115,13.215L88.826,50.954L90.326,52.277ZM123.328,12.99C120.893,11.718 118.563,10.316 116.354,8.792L115.219,10.438C117.496,12.009 119.896,13.454 122.401,14.763L123.328,12.99ZM114.786,9.615L114.786,9.617L116.786,9.617L116.786,9.615L114.786,9.615Z" fill="#120071"/>
<path d="M134.985,17.181C136.301,15.687 131.392,10.88 124.021,6.443C116.65,2.006 109.607,-0.38 108.29,1.114C106.975,2.607 111.883,7.415 119.254,11.852C126.625,16.288 133.668,18.674 134.985,17.18L134.985,17.181Z" fill="#FECFC4"/>
<path d="M134.985,17.181L133.985,17.181C133.985,17.597 134.242,17.97 134.631,18.117C135.02,18.264 135.46,18.154 135.735,17.842L134.985,17.181ZM124.021,6.443L123.505,7.3L123.505,7.3L124.021,6.443ZM108.29,1.114L107.54,0.453L107.54,0.453L108.29,1.114ZM119.254,11.852L118.739,12.709L118.739,12.709L119.254,11.852ZM134.985,17.18L135.985,17.18C135.985,16.765 135.727,16.392 135.338,16.245C134.949,16.098 134.509,16.207 134.234,16.519L134.985,17.18ZM135.735,17.842C136.519,16.953 136.163,15.806 135.745,15.026C135.285,14.164 134.48,13.2 133.46,12.201C131.404,10.187 128.265,7.831 124.536,5.586L123.505,7.3C127.148,9.492 130.149,11.758 132.061,13.63C133.025,14.574 133.662,15.37 133.982,15.968C134.345,16.648 134.109,16.663 134.234,16.52L135.735,17.842ZM124.536,5.586C120.806,3.34 117.136,1.6 114.206,0.607C112.746,0.113 111.427,-0.211 110.353,-0.304C109.817,-0.35 109.3,-0.343 108.839,-0.247C108.382,-0.153 107.897,0.047 107.54,0.453L109.041,1.775C109.012,1.807 109.036,1.754 109.245,1.711C109.45,1.668 109.757,1.652 110.181,1.688C111.028,1.762 112.177,2.031 113.564,2.501C116.327,3.437 119.865,5.108 123.505,7.3L124.536,5.586ZM107.54,0.453C106.756,1.342 107.113,2.489 107.53,3.269C107.991,4.131 108.795,5.094 109.815,6.093C111.871,8.107 115.01,10.464 118.739,12.709L119.77,10.995C116.127,8.803 113.126,6.537 111.214,4.664C110.251,3.72 109.614,2.924 109.294,2.326C108.93,1.646 109.167,1.632 109.041,1.775L107.54,0.453ZM118.739,12.709C122.469,14.954 126.139,16.694 129.069,17.687C130.529,18.181 131.848,18.505 132.922,18.598C133.458,18.644 133.975,18.637 134.436,18.541C134.893,18.447 135.377,18.247 135.735,17.842L134.234,16.519C134.263,16.487 134.239,16.54 134.03,16.583C133.825,16.626 133.518,16.642 133.094,16.605C132.246,16.532 131.098,16.263 129.711,15.793C126.948,14.857 123.41,13.186 119.77,10.995L118.739,12.709ZM133.985,17.18L133.985,17.181L135.985,17.181L135.985,17.18L133.985,17.18Z" fill="#120071"/>
<path d="M84.214,82.808C84.702,83.066 85.307,82.88 85.566,82.392C85.824,81.903 85.637,81.298 85.149,81.04L84.214,82.808ZM51.938,65.057L52.152,64.08L52.146,64.079L51.938,65.057ZM38.2,71.826L39.151,72.136L39.157,72.114L38.2,71.826ZM42.704,81.647L42.226,82.525L42.237,82.531L42.704,81.647ZM73.443,99.042C73.932,99.301 74.537,99.114 74.795,98.626C75.053,98.138 74.867,97.533 74.379,97.275L73.443,99.042ZM85.149,81.04C69.088,72.544 61.418,68.437 57.509,66.401C55.562,65.387 54.51,64.867 53.807,64.573C53.057,64.26 52.675,64.195 52.152,64.08L51.724,66.034C52.252,66.15 52.472,66.183 53.037,66.419C53.649,66.675 54.626,67.155 56.585,68.175C60.487,70.207 68.137,74.304 84.214,82.808L85.149,81.04ZM52.146,64.079C50.598,63.75 48.989,63.678 47.409,63.866L47.645,65.852C49.009,65.69 50.398,65.752 51.73,66.035L52.146,64.079ZM47.409,63.866C45.829,64.054 44.304,64.499 42.921,65.18L43.805,66.974C44.976,66.397 46.281,66.014 47.645,65.852L47.409,63.866ZM42.921,65.18C41.538,65.862 40.319,66.769 39.342,67.857L40.83,69.193C41.625,68.308 42.634,67.551 43.805,66.974L42.921,65.18ZM39.342,67.857C38.364,68.946 37.646,70.196 37.242,71.538L39.157,72.114C39.471,71.072 40.035,70.078 40.83,69.193L39.342,67.857ZM37.249,71.517C36.578,73.58 36.712,75.767 37.623,77.755L39.441,76.921C38.736,75.383 38.637,73.714 39.151,72.135L37.249,71.517ZM37.623,77.755C38.532,79.737 40.156,81.396 42.226,82.525L43.183,80.769C41.445,79.821 40.149,78.465 39.441,76.921L37.623,77.755ZM42.237,82.531L73.443,99.042L74.379,97.275L43.172,80.763L42.237,82.531Z" fill="#120071"/>
<path d="M74.701,97.546C74.362,97.11 73.734,97.03 73.298,97.369C72.861,97.708 72.782,98.336 73.121,98.772L74.701,97.546ZM85.391,112.494L84.705,113.222L84.705,113.222L85.391,112.494ZM93.232,118.196C93.741,118.41 94.327,118.171 94.542,117.662C94.756,117.153 94.517,116.567 94.008,116.352L93.232,118.196ZM73.121,98.772C83.095,111.625 82.952,111.57 84.705,113.222L86.077,111.767C84.472,110.255 84.767,110.516 74.701,97.546L73.121,98.772ZM84.705,113.222C86.989,115.373 90.339,116.976 93.232,118.196L94.008,116.352C91.121,115.136 88.073,113.647 86.076,111.767L84.705,113.222Z" fill="#120071"/>
</svg>
