<svg width="40" height="40" viewBox="0 0 40 40" fill="none" xmlns="http://www.w3.org/2000/svg" xmlns:xlink="http://www.w3.org/1999/xlink">
<path d="M8.333,20.801L31.667,20.801L31.667,16.801L8.333,16.801L8.333,20.801ZM31.667,20.801C32.449,20.801 33,21.407 33,22.055L37,22.055C37,19.108 34.567,16.801 31.667,16.801L31.667,20.801ZM33,22.055L33,33.444L37,33.444L37,22.055L33,22.055ZM33,33.444C33,34.092 32.449,34.698 31.667,34.698L31.667,38.698C34.567,38.698 37,36.391 37,33.444L33,33.444ZM31.667,34.698L8.333,34.698L8.333,38.698L31.667,38.698L31.667,34.698ZM8.333,34.698C7.551,34.698 7,34.092 7,33.444L3,33.444C3,36.391 5.433,38.698 8.333,38.698L8.333,34.698ZM7,33.444L7,22.055L3,22.055L3,33.444L7,33.444ZM7,22.055C7,21.407 7.551,20.801 8.333,20.801L8.333,16.801C5.433,16.801 3,19.108 3,22.055L7,22.055Z" fill="#000000" fill-opacity="0.25"/>
<path d="M9.667,18.801C9.667,19.905 10.562,20.801 11.667,20.801C12.771,20.801 13.667,19.905 13.667,18.801L9.667,18.801ZM11.667,12.292L9.667,12.292L11.667,12.292ZM26.333,18.801C26.333,19.905 27.229,20.801 28.333,20.801C29.438,20.801 30.333,19.905 30.333,18.801L26.333,18.801ZM13.667,18.801L13.667,12.292L9.667,12.292L9.667,18.801L13.667,18.801ZM13.667,12.292C13.667,10.681 14.322,9.125 15.505,7.971L12.71,5.109C10.767,7.005 9.667,9.589 9.667,12.292L13.667,12.292ZM15.505,7.971C16.689,6.815 18.305,6.157 20,6.157L20,2.157C17.275,2.157 14.652,3.213 12.71,5.109L15.505,7.971ZM20,6.157C21.695,6.157 23.311,6.815 24.496,7.971L27.29,5.109C25.348,3.213 22.725,2.157 20,2.157L20,6.157ZM24.496,7.971C25.678,9.125 26.333,10.681 26.333,12.292L30.333,12.292C30.333,9.589 29.233,7.005 27.29,5.109L24.496,7.971ZM26.333,12.292L26.333,18.801L30.333,18.801L30.333,12.292L26.333,12.292Z" fill="#000000" fill-opacity="0.25"/>
</svg>
