<svg width="60" height="60" viewBox="0 0 60 60" fill="none" xmlns="http://www.w3.org/2000/svg" xmlns:xlink="http://www.w3.org/1999/xlink">
<path d="M12.5,29.5L47.5,29.5L47.5,25.5L12.5,25.5L12.5,29.5ZM47.5,29.5C49.157,29.5 50.5,30.843 50.5,32.5L54.5,32.5C54.5,28.634 51.366,25.5 47.5,25.5L47.5,29.5ZM50.5,32.5L50.5,50L54.5,50L54.5,32.5L50.5,32.5ZM50.5,50C50.5,51.657 49.157,53 47.5,53L47.5,57C51.366,57 54.5,53.866 54.5,50L50.5,50ZM47.5,53L12.5,53L12.5,57L47.5,57L47.5,53ZM12.5,53C10.843,53 9.5,51.657 9.5,50L5.5,50C5.5,53.866 8.634,57 12.5,57L12.5,53ZM9.5,50L9.5,32.5L5.5,32.5L5.5,50L9.5,50ZM9.5,32.5C9.5,30.843 10.843,29.5 12.5,29.5L12.5,25.5C8.634,25.5 5.5,28.634 5.5,32.5L9.5,32.5Z" fill="#17C2EC"/>
<path d="M15.5,27.5C15.5,28.605 16.395,29.5 17.5,29.5C18.605,29.5 19.5,28.605 19.5,27.5L15.5,27.5ZM17.5,17.5L15.5,17.5L17.5,17.5ZM30,5L30,3L30,5ZM40.5,27.5C40.5,28.605 41.395,29.5 42.5,29.5C43.605,29.5 44.5,28.605 44.5,27.5L40.5,27.5ZM19.5,27.5L19.5,17.5L15.5,17.5L15.5,27.5L19.5,27.5ZM19.5,17.5C19.5,14.715 20.606,12.045 22.575,10.075L19.747,7.247C17.028,9.966 15.5,13.654 15.5,17.5L19.5,17.5ZM22.575,10.075C24.545,8.106 27.215,7 30,7L30,3C26.154,3 22.466,4.528 19.747,7.247L22.575,10.075ZM30,7C32.785,7 35.456,8.106 37.425,10.075L40.253,7.247C37.534,4.528 33.846,3 30,3L30,7ZM37.425,10.075C39.394,12.045 40.5,14.715 40.5,17.5L44.5,17.5C44.5,13.654 42.972,9.966 40.253,7.247L37.425,10.075ZM40.5,17.5L40.5,27.5L44.5,27.5L44.5,17.5L40.5,17.5Z" fill="#17C2EC"/>
</svg>
