<svg width="42" height="40" viewBox="0 0 42 40" fill="none" xmlns="http://www.w3.org/2000/svg" xmlns:xlink="http://www.w3.org/1999/xlink">
<path d="M8.335,20.801L31.669,20.801L31.669,16.801L8.335,16.801L8.335,20.801ZM31.669,20.801C32.451,20.801 33.002,21.407 33.002,22.055L37.002,22.055C37.002,19.108 34.569,16.801 31.669,16.801L31.669,20.801ZM33.002,22.055L33.002,33.444L37.002,33.444L37.002,22.055L33.002,22.055ZM33.002,33.444C33.002,34.092 32.451,34.699 31.669,34.699L31.669,38.699C34.569,38.699 37.002,36.391 37.002,33.444L33.002,33.444ZM31.669,34.699L8.335,34.699L8.335,38.699L31.669,38.699L31.669,34.699ZM8.335,34.699C7.553,34.699 7.002,34.092 7.002,33.444L3.002,33.444C3.002,36.391 5.435,38.699 8.335,38.699L8.335,34.699ZM7.002,33.444L7.002,22.055L3.002,22.055L3.002,33.444L7.002,33.444ZM7.002,22.055C7.002,21.407 7.553,20.801 8.335,20.801L8.335,16.801C5.435,16.801 3.002,19.108 3.002,22.055L7.002,22.055Z" fill="#000000" fill-opacity="0.25"/>
<path d="M9.669,18.8C9.669,19.905 10.564,20.8 11.669,20.8C12.773,20.8 13.669,19.905 13.669,18.8L9.669,18.8ZM11.669,12.292L9.669,12.292L11.669,12.292ZM26.335,18.8C26.335,19.905 27.231,20.8 28.335,20.8C29.44,20.8 30.335,19.905 30.335,18.8L26.335,18.8ZM13.669,18.8L13.669,12.292L9.669,12.292L9.669,18.8L13.669,18.8ZM13.669,12.292C13.669,10.681 14.324,9.125 15.507,7.971L12.712,5.108C10.769,7.005 9.669,9.588 9.669,12.292L13.669,12.292ZM15.507,7.971C16.691,6.815 18.307,6.157 20.002,6.157L20.002,2.157C17.277,2.157 14.654,3.213 12.712,5.108L15.507,7.971ZM20.002,6.157C21.697,6.157 23.313,6.815 24.497,7.971L27.292,5.108C25.35,3.213 22.727,2.157 20.002,2.157L20.002,6.157ZM24.497,7.971C25.68,9.125 26.335,10.681 26.335,12.292L30.335,12.292C30.335,9.588 29.235,7.005 27.292,5.108L24.497,7.971ZM26.335,12.292L26.335,18.8L30.335,18.8L30.335,12.292L26.335,12.292Z" fill="#000000" fill-opacity="0.25"/>
</svg>
