<svg width="60" height="60" viewBox="0 0 60 60" fill="none" xmlns="http://www.w3.org/2000/svg" xmlns:xlink="http://www.w3.org/1999/xlink">
<path d="M22.5,54.5C23.605,54.5 24.5,53.605 24.5,52.5C24.5,51.395 23.605,50.5 22.5,50.5L22.5,54.5ZM7.5,47.5L5.5,47.5L7.5,47.5ZM12.5,7.5L12.5,5.5L12.5,7.5ZM22.5,9.5C23.605,9.5 24.5,8.605 24.5,7.5C24.5,6.395 23.605,5.5 22.5,5.5L22.5,9.5ZM22.5,50.5L12.5,50.5L12.5,54.5L22.5,54.5L22.5,50.5ZM12.5,50.5C11.704,50.5 10.941,50.184 10.379,49.621L7.55,52.45C8.863,53.763 10.643,54.5 12.5,54.5L12.5,50.5ZM10.379,49.621C9.816,49.059 9.5,48.296 9.5,47.5L5.5,47.5C5.5,49.357 6.237,51.137 7.55,52.45L10.379,49.621ZM9.5,47.5L9.5,12.5L5.5,12.5L5.5,47.5L9.5,47.5ZM9.5,12.5C9.5,11.704 9.816,10.941 10.379,10.379L7.55,7.55C6.237,8.863 5.5,10.643 5.5,12.5L9.5,12.5ZM10.379,10.379C10.941,9.816 11.704,9.5 12.5,9.5L12.5,5.5C10.643,5.5 8.863,6.237 7.55,7.55L10.379,10.379ZM12.5,9.5L22.5,9.5L22.5,5.5L12.5,5.5L12.5,9.5Z" fill="#17C2EC"/>
<path d="M38.586,41.086C37.805,41.867 37.805,43.133 38.586,43.914C39.367,44.695 40.633,44.695 41.414,43.914L38.586,41.086ZM52.5,30L53.914,31.414C54.695,30.633 54.695,29.367 53.914,28.586L52.5,30ZM41.414,16.086C40.633,15.305 39.367,15.305 38.586,16.086C37.805,16.867 37.805,18.133 38.586,18.914L41.414,16.086ZM41.414,43.914L53.914,31.414L51.086,28.586L38.586,41.086L41.414,43.914ZM53.914,28.586L41.414,16.086L38.586,18.914L51.086,31.414L53.914,28.586Z" fill="#17C2EC"/>
<line x1="22.5" y1="28" x2="52.5" y2="28" stroke="#17C2EC" stroke-width="2" stroke-miterlimit="3.999327" stroke-linecap="round" stroke-linejoin="round"/>
</svg>
