<svg width="42" height="40" viewBox="0 0 42 40" fill="none" xmlns="http://www.w3.org/2000/svg" xmlns:xlink="http://www.w3.org/1999/xlink">
<path d="M6.669,8.667L33.335,8.667L33.335,4.667L6.669,4.667L6.669,8.667ZM33.335,8.667C34.064,8.667 34.669,9.271 34.669,10L38.669,10C38.669,7.062 36.273,4.667 33.335,4.667L33.335,8.667ZM34.669,10L34.669,30L38.669,30L38.669,10L34.669,10ZM34.669,30C34.669,30.729 34.064,31.333 33.335,31.333L33.335,35.333C36.273,35.333 38.669,32.938 38.669,30L34.669,30ZM33.335,31.333L6.669,31.333L6.669,35.333L33.335,35.333L33.335,31.333ZM6.669,31.333C5.94,31.333 5.335,30.729 5.335,30L1.335,30C1.335,32.938 3.731,35.333 6.669,35.333L6.669,31.333ZM5.335,30L5.335,10L1.335,10L1.335,30L5.335,30ZM5.335,10C5.335,9.271 5.94,8.667 6.669,8.667L6.669,4.667C3.731,4.667 1.335,7.062 1.335,10L5.335,10Z" fill="#000000" fill-opacity="0.25"/>
<path d="M37.815,11.638C38.72,11.005 38.94,9.758 38.307,8.853C37.674,7.948 36.427,7.728 35.522,8.362L37.815,11.638ZM20.002,21.667L18.855,23.305C19.544,23.787 20.46,23.787 21.149,23.305L20.002,21.667ZM4.482,8.362C3.577,7.728 2.33,7.948 1.697,8.853C1.063,9.758 1.283,11.005 2.188,11.638L4.482,8.362ZM35.522,8.362L18.855,20.028L21.149,23.305L37.815,11.638L35.522,8.362ZM21.149,20.028L4.482,8.362L2.188,11.638L18.855,23.305L21.149,20.028Z" fill="#000000" fill-opacity="0.25"/>
</svg>
