<svg width="40" height="40" viewBox="0 0 40 40" fill="none" xmlns="http://www.w3.org/2000/svg" xmlns:xlink="http://www.w3.org/1999/xlink">
<path d="M6.667,8.667L33.333,8.667L33.333,4.667L6.667,4.667L6.667,8.667ZM33.333,8.667C34.062,8.667 34.667,9.271 34.667,10L38.667,10C38.667,7.062 36.271,4.667 33.333,4.667L33.333,8.667ZM34.667,10L34.667,30L38.667,30L38.667,10L34.667,10ZM34.667,30C34.667,30.729 34.062,31.333 33.333,31.333L33.333,35.333C36.271,35.333 38.667,32.938 38.667,30L34.667,30ZM33.333,31.333L6.667,31.333L6.667,35.333L33.333,35.333L33.333,31.333ZM6.667,31.333C5.938,31.333 5.333,30.729 5.333,30L1.333,30C1.333,32.938 3.729,35.333 6.667,35.333L6.667,31.333ZM5.333,30L5.333,10L1.333,10L1.333,30L5.333,30ZM5.333,10C5.333,9.271 5.938,8.667 6.667,8.667L6.667,4.667C3.729,4.667 1.333,7.062 1.333,10L5.333,10Z" fill="#000000" fill-opacity="0.25"/>
<path d="M37.813,11.638C38.718,11.005 38.938,9.758 38.305,8.853C37.672,7.948 36.425,7.728 35.52,8.362L37.813,11.638ZM20,21.667L18.853,23.305C19.542,23.787 20.458,23.787 21.147,23.305L20,21.667ZM4.48,8.362C3.575,7.728 2.328,7.948 1.695,8.853C1.061,9.758 1.281,11.005 2.186,11.638L4.48,8.362ZM35.52,8.362L18.853,20.028L21.147,23.305L37.813,11.638L35.52,8.362ZM21.147,20.028L4.48,8.362L2.186,11.638L18.853,23.305L21.147,20.028Z" fill="#000000" fill-opacity="0.25"/>
</svg>
