<svg width="60" height="60" viewBox="0 0 60 60" fill="none" xmlns="http://www.w3.org/2000/svg" xmlns:xlink="http://www.w3.org/1999/xlink">
<path d="M2.5,15L1.508,13.264C0.885,13.62 0.5,14.282 0.5,15L2.5,15ZM2.5,55L0.5,55C0.5,55.713 0.88,56.372 1.496,56.73C2.113,57.088 2.873,57.09 3.492,56.736L2.5,55ZM20,45L20.894,43.211C20.296,42.912 19.588,42.932 19.008,43.264L20,45ZM40,55L39.106,56.789C39.704,57.088 40.412,57.068 40.992,56.736L40,55ZM57.5,45L58.492,46.736C59.115,46.38 59.5,45.718 59.5,45L57.5,45ZM57.5,5L59.5,5C59.5,4.287 59.12,3.628 58.504,3.27C57.887,2.912 57.127,2.91 56.508,3.264L57.5,5ZM40,15L39.106,16.789C39.704,17.088 40.412,17.068 40.992,16.736L40,15ZM20,5L20.894,3.211C20.296,2.912 19.588,2.932 19.008,3.264L20,5ZM0.5,15L0.5,55L4.5,55L4.5,15L0.5,15ZM3.492,56.736L20.992,46.736L19.008,43.264L1.508,53.264L3.492,56.736ZM19.106,46.789L39.106,56.789L40.894,53.211L20.894,43.211L19.106,46.789ZM40.992,56.736L58.492,46.736L56.508,43.264L39.008,53.264L40.992,56.736ZM59.5,45L59.5,5L55.5,5L55.5,45L59.5,45ZM56.508,3.264L39.008,13.264L40.992,16.736L58.492,6.736L56.508,3.264ZM40.894,13.211L20.894,3.211L19.106,6.789L39.106,16.789L40.894,13.211ZM19.008,3.264L1.508,13.264L3.492,16.736L20.992,6.736L19.008,3.264Z" fill="#17C2EC"/>
<line x1="18" y1="5" x2="18" y2="45" stroke="#17C2EC" stroke-width="2" stroke-miterlimit="3.999327" stroke-linecap="round" stroke-linejoin="round"/>
<line x1="38" y1="15" x2="38" y2="55" stroke="#17C2EC" stroke-width="2" stroke-miterlimit="3.999327" stroke-linecap="round" stroke-linejoin="round"/>
</svg>
