<svg width="48" height="48" viewBox="0 0 48 48" fill="none" xmlns="http://www.w3.org/2000/svg" xmlns:xlink="http://www.w3.org/1999/xlink">
<path d="M24,0C21.878,0 19.843,0.843 18.343,2.343L21.172,5.172C21.922,4.421 22.939,4 24,4L24,0ZM18.343,2.343C16.843,3.843 16,5.878 16,8L20,8C20,6.939 20.421,5.922 21.172,5.172L18.343,2.343ZM16,8L16,24L20,24L20,8L16,8ZM16,24C16,26.122 16.843,28.157 18.343,29.657L21.172,26.828C20.421,26.078 20,25.061 20,24L16,24ZM18.343,29.657C19.843,31.157 21.878,32 24,32L24,28C22.939,28 21.922,27.579 21.172,26.828L18.343,29.657ZM24,32C26.122,32 28.157,31.157 29.657,29.657L26.828,26.828C26.078,27.579 25.061,28 24,28L24,32ZM29.657,29.657C31.157,28.157 32,26.122 32,24L28,24C28,25.061 27.579,26.078 26.828,26.828L29.657,29.657ZM32,24L32,8L28,8L28,24L32,24ZM32,8C32,5.878 31.157,3.843 29.657,2.343L26.828,5.172C27.579,5.922 28,6.939 28,8L32,8ZM29.657,2.343C28.157,0.843 26.122,0 24,0L24,4C25.061,4 26.078,4.421 26.828,5.172L29.657,2.343Z" fill="#999999"/>
<path d="M40,20C40,18.895 39.105,18 38,18C36.895,18 36,18.895 36,20L40,20ZM38,24L40,24L40,24L38,24ZM24,38L24,36L24,38ZM10,24L8,24L8,24L10,24ZM12,20C12,18.895 11.105,18 10,18C8.895,18 8,18.895 8,20L12,20ZM36,20L36,24L40,24L40,20L36,20ZM36,24C36,27.183 34.736,30.235 32.485,32.485L35.314,35.314C38.314,32.313 40,28.243 40,24L36,24ZM32.485,32.485C30.235,34.736 27.183,36 24,36L24,40C28.243,40 32.313,38.314 35.314,35.314L32.485,32.485ZM24,36C20.817,36 17.765,34.736 15.515,32.485L12.686,35.314C15.687,38.314 19.757,40 24,40L24,36ZM15.515,32.485C13.264,30.235 12,27.183 12,24L8,24C8,28.243 9.686,32.313 12.686,35.314L15.515,32.485ZM12,24L12,20L8,20L8,24L12,24Z" fill="#999999"/>
<line x1="22" y1="38" x2="22" y2="46" stroke="#999999" stroke-width="2" stroke-miterlimit="3.999327" stroke-linecap="round" stroke-linejoin="round"/>
<line x1="16" y1="44" x2="32" y2="44" stroke="#999999" stroke-width="2" stroke-miterlimit="3.999327" stroke-linecap="round" stroke-linejoin="round"/>
</svg>
