<svg width="526" height="504" viewBox="0 0 526 504" fill="none" xmlns="http://www.w3.org/2000/svg" xmlns:xlink="http://www.w3.org/1999/xlink">
<path d="M350.825,483.856C178.326,484.125 146.309,483.586 146.309,483.586C146.033,482.778 158.177,470.922 158.729,470.384C160.937,468.228 340.061,470.114 340.337,470.384L350.825,483.856Z" fill="#38A1FF"/>
<path d="M522.497,497.867C526.085,497.867 524.429,502.447 521.945,502.986C170.321,501.639 29.01,500.022 3.894,498.675C-2.454,498.406 -1.903,496.52 4.721,496.52C59.921,495.981 511.733,497.867 522.497,497.867Z" fill="#191919"/>
<path d="M86.418,418.112C157.074,418.651 162.041,415.956 160.661,418.651C153.209,432.123 154.313,431.584 152.381,431.584C146.861,431.584 64.338,432.662 63.234,430.506C62.958,429.698 69.858,422.962 72.894,419.459C74.274,417.573 74.826,418.112 86.418,418.112Z" fill="#38A1FF"/>
<path d="M124.506,442.092C134.994,441.823 176.118,441.823 180.258,441.553C181.362,441.553 181.362,442.092 181.086,442.9C173.634,455.295 175.014,456.103 172.806,456.103C108.774,456.373 107.945,457.45 109.601,455.295C121.745,439.667 118.986,442.092 124.506,442.092Z" fill="#38A1FF"/>
<path d="M90.558,469.575C93.318,469.575 88.35,472.539 78.138,483.047C76.206,484.933 74.826,483.317 61.578,483.856C55.23,484.125 37.566,483.856 25.422,483.317C18.246,482.778 15.763,483.317 17.695,481.431C33.427,463.378 16.038,472 90.558,469.575Z" fill="#38A1FF"/>
<path d="M482.756,438.859C488.276,438.589 488.276,438.859 491.036,443.17C492.968,446.134 494.348,449.098 496.556,452.061C497.936,453.678 502.076,453.409 437.216,453.678C435.008,453.678 436.109,452.6 427.829,441.014C425.621,438.05 428.384,440.475 482.756,438.859Z" fill="#38A1FF"/>
<path d="M112.638,442.361C102.15,454.486 102.977,453.678 102.149,454.756C99.941,457.989 40.325,456.642 40.049,456.103C39.773,455.295 49.158,445.864 49.158,445.325C50.814,442.361 53.298,442.092 56.334,442.361C70.962,442.9 111.258,441.284 112.638,442.361Z" fill="#38A1FF"/>
<path d="M485.516,484.125C459.02,484.125 453.224,483.856 435.008,484.125C432.8,484.125 433.352,484.125 424.796,471.461C422.588,467.959 426.173,470.923 457.361,470.114C462.881,469.845 468.401,470.653 473.921,470.114C475.301,470.114 475.853,470.653 476.681,471.731C483.029,481.161 484.688,482.239 485.516,484.125Z" fill="#38A1FF"/>
<path d="M149.07,469.575C148.794,470.384 149.07,469.575 134.994,483.048C134.442,483.586 133.614,483.856 132.786,483.856C130.026,483.586 88.074,483.856 88.074,483.586C87.798,483.048 88.35,482.778 88.626,482.509C101.322,468.498 99.666,469.306 102.426,469.306C108.774,469.575 148.794,469.575 149.07,469.575Z" fill="#38A1FF"/>
<path d="M85.038,168.337C85.59,174.804 85.867,193.395 86.695,244.051C89.179,384.969 87.798,384.969 87.798,384.969C87.798,385.779 86.695,386.317 86.695,385.239C85.867,373.653 81.726,190.162 82.278,168.337C82.278,165.643 84.486,163.218 85.038,168.337Z" fill="#191919"/>
<path d="M427.553,453.678C383.393,453.678 384.773,454.486 383.393,452.6C380.909,448.559 378.149,444.786 375.389,441.014C375.113,440.745 374.837,440.475 374.837,439.936C375.113,439.397 416.513,439.397 417.065,439.397C418.721,439.397 420.101,440.475 420.377,442.092C420.929,444.517 428.105,452.331 427.553,453.678Z" fill="#38A1FF"/>
<path d="M459.848,176.151C459.848,175.343 460.952,175.073 461.228,175.882C464.54,186.39 463.712,225.729 464.54,303.599C465.644,391.438 466.472,391.168 463.436,391.438C462.056,391.438 461.228,363.145 459.848,176.151Z" fill="#191919"/>
<path d="M242.635,455.025C242.635,455.025 213.931,455.025 183.295,455.564C181.087,455.564 182.191,455.025 187.159,441.822C187.435,441.014 187.71,441.014 188.262,441.014C217.518,442.361 189.367,437.242 242.635,455.025Z" fill="#38A1FF"/>
<path d="M427.001,483.856C425.621,484.125 415.685,484.125 414.029,484.125C397.469,483.856 396.089,485.203 394.709,483.317C386.429,470.384 385.049,469.845 387.533,469.845C421.481,471.731 411.269,463.648 427.001,483.856Z" fill="#38A1FF"/>
<path d="M390.017,483.586C388.913,484.394 374.009,483.856 372.905,483.856C363.245,483.317 360.485,485.742 358.553,482.239C356.069,477.389 349.997,470.653 350.273,469.845C350.273,469.845 379.529,469.036 380.357,470.383C383.393,474.694 388.361,480.622 390.017,483.586Z" fill="#38A1FF"/>
<path d="M512.285,484.394C508.697,483.856 496.829,483.856 492.965,484.125C491.033,484.125 491.861,484.394 482.753,471.731C481.649,470.383 481.373,469.575 483.029,469.845C491.033,470.922 506.489,468.497 508.145,470.922C518.081,486.011 518.909,483.856 512.285,484.394Z" fill="#38A1FF"/>
<path d="M423.137,419.728C452.945,420.267 445.493,415.148 452.393,428.62C453.221,430.237 452.945,429.428 439.973,429.967C434.453,430.237 428.933,429.428 423.413,429.967C422.585,429.967 422.033,429.698 421.481,428.889C417.065,418.92 415.133,419.728 423.137,419.728Z" fill="#38A1FF"/>
<path d="M102.701,174.534C106.289,165.643 118.434,162.409 126.714,166.182C136.65,171.032 137.201,179.923 131.957,186.121C120.917,199.323 96.353,190.162 102.701,174.534ZM117.606,189.354C127.542,189.354 133.062,182.079 132.234,176.151C130.578,166.182 115.673,164.026 107.669,172.379C101.045,179.385 106.566,189.623 117.606,189.354Z" fill="#38A1FF"/>
<path d="M335.921,453.947C367.385,443.17 366.005,440.475 367.385,442.631C374.837,453.139 376.217,454.217 374.285,454.217C369.869,453.678 335.921,455.025 335.921,453.947Z" fill="#38A1FF"/>
<path d="M335.347,153.375C335.241,152.441 335.137,151.508 335.035,150.575C397.829,150.295 450.025,150.231 455.981,150.554C465.365,150.823 464.813,151.632 457.913,152.171C446.585,152.774 395.495,153.152 335.347,153.375ZM221.785,151.247C163.68,151.681 114.151,152.214 101.045,152.709C96.629,152.979 96.077,153.518 101.045,153.518C105.221,153.625 157.811,153.69 221.525,153.627C221.569,153.501 221.613,153.376 221.657,153.249C221.805,152.818 221.83,152.121 221.785,151.247Z" clip-rule="evenodd" fill-rule="evenodd" fill="#191919"/>
<path d="M482.477,429.698C468.677,430.506 476.681,429.967 463.709,429.967C461.501,429.967 462.053,429.428 457.361,420.536C456.257,418.381 456.809,419.189 475.025,418.65C476.681,418.92 475.853,418.381 482.477,429.698Z" fill="#38A1FF"/>
<path d="M405.473,173.996C406.025,171.032 404.645,170.762 407.957,170.762C440.525,171.301 439.421,171.032 439.145,172.648C438.869,175.343 439.973,175.612 436.937,175.612C405.473,174.534 405.197,176.151 405.473,173.996Z" fill="#38A1FF"/>
<path d="M188.538,178.576C187.71,181.27 140.238,180.462 139.134,179.923C138.582,179.654 137.754,179.923 137.754,178.845C138.03,176.151 183.846,177.498 188.538,178.576Z" fill="#38A1FF"/>
<path d="M357.449,170.223C373.181,170.223 373.181,169.685 372.905,171.84C372.905,174.265 372.905,174.265 370.421,174.265C367.661,174.265 364.901,174.535 362.141,174.265C348.893,173.187 348.341,174.265 348.341,172.11C348.341,169.685 348.893,170.223 357.449,170.223Z" fill="#38A1FF"/>
<path d="M392.501,174.534C378.701,174.534 378.977,175.073 378.977,173.187C378.977,169.145 378.701,170.223 399.125,170.493C399.953,170.493 400.229,170.762 400.229,171.57C400.229,174.804 400.229,174.804 396.917,174.804C392.501,174.804 392.501,175.073 392.501,174.534Z" fill="#38A1FF"/>
<path d="M170.598,170.762C165.906,172.918 138.582,175.073 138.582,171.57C138.582,170.493 141.618,170.223 142.722,170.223C164.526,169.684 167.01,169.415 170.598,170.762Z" fill="#38A1FF"/>
<path d="M333.602,137.999C395.888,138.247 448.774,138.701 463.432,140.046C471.712,140.854 479.44,148.129 479.992,158.637C480.018,159.152 480.04,159.835 480.062,160.673C481.644,160.33 483.278,160.068 484.958,159.893C484.79,155.826 484.602,153.024 484.408,152.171C479.846,133.716 472.204,133.798 415.296,134.405C399.914,134.569 380.936,134.772 357.448,134.657C357.448,134.657 348.256,134.605 333.178,134.529C333.324,135.68 333.464,136.837 333.602,137.999ZM218.431,134.061C219.444,134.907 220.611,135.655 221.934,136.274C221.678,136.662 221.482,137.124 221.333,137.643C168.008,137.443 119.853,137.109 93.949,136.237C94.177,135.541 94.389,134.827 94.584,134.093C121.247,133.866 170.05,133.919 218.431,134.061ZM164.661,409.374C168.468,410.664 172.357,411.438 176.118,411.376C177.774,411.376 191.574,411.376 197.094,410.836C196.789,411.446 196.49,412.014 196.196,412.548C195.715,412.548 195.236,412.55 194.757,412.552C137.558,412.746 92.418,412.9 86.141,412.992C74.825,413.262 68.753,404.64 68.753,395.478C68.753,395.478 68.491,365.836 68.987,158.252C70.246,157.851 71.463,157.428 72.637,156.979C72.75,217.502 72.52,263.045 72.345,297.428C71.885,388.176 71.819,401.206 79.517,406.794C83.984,410.136 116.165,410.108 164.661,409.374ZM396.958,411.76C398.194,410.626 399.4,409.472 400.574,408.296C423.322,407.884 461.224,407.334 461.224,407.334C472.816,407.334 480.82,396.826 479.992,385.508C479.894,383.536 479.976,354.986 480.082,318.712L480.082,318.628C480.176,286.766 480.286,248.958 480.304,217.975C480.652,218.045 481.008,218.115 481.376,218.185C482.958,218.251 484.486,218.245 485.962,218.17C485.968,224.409 485.916,228.868 485.788,230.039C485.708,276.921 485.834,310.057 485.922,333.725C486.114,384.84 486.14,391.8 483.6,397.712C483.2,398.642 482.736,399.546 482.2,400.594L482.2,400.598C479.164,406.526 475.024,410.298 468.124,411.106C466,411.326 437.516,411.55 396.958,411.76Z" clip-rule="evenodd" fill-rule="evenodd" fill="#191919"/>
<path d="M136.723,390.475C116.7,390.898 101.802,391.477 94.974,392.245C91.662,392.515 88.625,393.323 95.249,393.592C102.297,393.641 118.279,393.73 139.78,393.821C138.479,392.552 137.503,391.45 136.926,390.628C136.858,390.577 136.79,390.526 136.723,390.475ZM412.53,393.652C413.214,392.606 413.874,391.545 414.508,390.467C433.724,390.758 447.218,391.092 451.84,391.437C454.876,391.706 453.22,392.515 452.668,392.515C447.966,393.029 433.354,393.398 412.53,393.652Z" clip-rule="evenodd" fill-rule="evenodd" fill="#191919"/>
<path d="M283.481,165.643C282.653,169.954 275.477,178.576 262.781,181.54C254.224,183.426 252.292,180.732 252.016,183.157C249.256,202.826 250.636,192.587 245.944,214.143C239.872,243.243 265.817,244.859 294.521,194.473C295.625,192.587 293.141,193.935 293.141,177.768C293.141,171.571 293.417,156.482 295.073,150.554C295.625,148.399 294.521,145.704 297.833,144.626C302.525,143.01 312.737,140.585 315.497,133.579C318.257,126.305 310.529,119.838 298.661,124.957C293.417,127.382 284.033,128.999 282.929,128.46C281.549,127.921 283.205,132.771 277.409,137.082C269.129,143.279 256.156,138.968 253.948,126.843C253.672,125.227 252.568,125.496 251.74,125.496C236.284,123.071 243.46,126.574 237.94,132.771C231.04,140.585 218.068,139.507 213.376,126.574C211.996,122.532 214.204,115.527 217.24,113.102C221.932,109.33 228.28,109.33 232.696,111.755C241.804,116.874 239.32,123.879 241.528,123.071C249.808,120.915 253.12,125.227 253.672,122.802C257.536,106.366 279.617,108.521 282.101,124.957C282.377,126.035 282.653,126.035 283.481,125.765C293.969,123.34 295.073,123.88 294.245,122.532C289.277,114.718 284.309,97.474 283.481,88.313C256.432,115.796 197.644,99.63 211.72,78.074C229.384,51.13 270.233,49.513 292.865,66.758C302.801,74.302 297.557,73.224 303.629,74.841C330.953,81.846 331.505,127.113 336.749,167.529C338.957,184.504 339.233,182.349 336.473,187.468C327.089,204.173 303.905,200.94 307.217,205.521C322.949,227.076 319.637,262.104 312.737,287.702C312.185,290.126 337.025,297.402 309.425,353.176C304.733,362.876 290.933,355.6 295.901,349.942C296.729,349.134 297.557,348.596 298.661,349.134C306.665,351.29 306.665,353.446 307.493,351.56C314.117,337.01 325.985,306.562 314.393,293.898C301.973,280.426 284.033,308.988 277.409,338.626C277.133,339.704 277.685,339.974 278.513,340.242C292.865,343.746 283.205,354.792 275.201,346.71C271.061,342.398 284.033,295.516 304.181,288.51C307.493,287.432 309.701,288.778 309.977,287.162C315.497,262.374 318.809,216.837 298.937,200.401C295.349,197.437 295.349,196.36 294.797,197.707C292.313,202.826 289.277,210.101 281.825,218.723C251.188,254.29 236.56,234.89 242.632,212.257C245.392,202.287 245.668,202.287 244.288,202.287C230.764,202.018 212.824,197.976 208.96,185.312C207.856,182.349 213.928,173.457 220.828,153.518C221.656,151.093 219.724,144.357 220.552,138.699C220.552,137.891 221.656,137.891 221.656,138.699C221.656,138.968 220.276,175.882 251.464,180.193C255.604,180.732 263.333,179.924 270.785,176.151C280.445,171.032 282.101,165.913 283.481,165.643ZM256.156,125.227C256.984,139.238 276.857,143.279 279.893,129.268C283.481,112.294 256.708,106.635 256.156,125.227ZM215.584,122.532C215.86,136.543 235.456,140.585 238.492,127.113C241.804,110.677 216.136,105.827 215.584,122.532Z" fill="#191919"/>
<path d="M313.289,206.598C321.293,206.868 352.757,223.304 359.933,227.615C401.609,252.135 427.553,308.987 425.345,355.062C423.689,390.359 400.229,414.608 369.041,431.852C328.193,454.756 290.105,452.06 244.566,442.092C228.006,438.588 205.374,431.852 191.574,422.422C186.33,418.92 197.094,421.614 204.27,392.514C205.926,385.778 205.65,379.312 209.238,379.312C214.758,379.042 274.925,373.653 358.553,350.481C366.005,348.326 333.713,365.301 260.574,375.809C228.006,380.389 222.486,381.467 210.342,380.928C207.03,380.659 211.998,382.814 204.27,405.178C202.062,411.376 198.474,416.764 192.954,420.536C196.266,426.194 263.333,449.906 314.117,445.324C343.925,442.63 363.245,432.662 384.773,417.302C408.785,400.059 422.033,377.156 421.205,348.326C420.101,307.37 399.401,266.415 378.149,247.553C350.549,222.765 315.773,210.909 313.289,206.598Z" fill="#191919"/>
<path d="M187.433,320.573C186.881,320.034 186.328,320.034 185.5,319.764C128.368,312.22 111.809,306.292 114.017,310.873C131.129,345.9 132.233,346.17 133.337,348.864C129.473,349.134 112.637,314.376 110.705,309.526C107.945,302.52 139.961,311.412 168.113,315.184C188.261,317.878 188.813,317.878 190.469,320.034C207.581,339.703 214.204,352.098 228.28,370.689C232.972,376.617 231.041,383.622 187.433,320.573Z" fill="#191919"/>
<path d="M206.2,252.135C205.924,249.44 206.476,247.285 207.304,245.129C208.408,242.704 208.684,240.009 209.788,237.584C222.484,209.293 239.32,203.904 225.244,208.485C163.972,229.232 153.208,252.135 150.172,248.632C148.516,247.015 167.284,229.232 200.128,214.682C204.82,212.526 237.388,200.402 235.18,205.79C234.352,207.676 228.28,213.335 220,226.268C211.72,239.201 208.408,251.057 206.2,252.135Z" fill="#191919"/>
<path d="M155.97,309.795C153.486,310.873 146.586,304.406 145.758,295.784C145.206,291.473 147.414,286.354 151.83,284.737C152.934,284.198 152.657,283.659 152.381,282.851C121.193,224.112 126.99,221.148 150.45,270.996C156.246,283.39 156.522,283.39 158.178,283.12C161.766,282.851 169.77,285.276 169.218,286.893C168.666,288.779 159.558,284.737 158.454,286.084C157.902,286.623 158.73,287.162 158.73,287.701C162.318,295.245 166.734,302.52 169.218,309.256C167.286,309.256 155.694,289.587 154.866,288.24C152.934,284.737 147.689,290.665 148.241,295.784C149.345,304.945 155.418,308.718 155.97,309.795Z" fill="#191919"/>
<path d="M357.449,281.773C357.173,303.867 346.685,353.714 340.889,351.559C339.785,351.02 339.785,350.212 343.649,339.164C351.653,314.645 357.725,259.14 357.449,281.773Z" fill="#191919"/>
<path d="M186.329,270.457C186.605,257.523 199.025,251.865 208.685,257.793C219.449,263.99 220.001,278.809 209.789,285.007C199.577,290.934 185.501,280.965 186.329,270.457ZM189.089,268.032C188.261,287.162 212.825,290.126 215.033,273.69C216.413,263.451 205.925,255.098 196.541,258.871C191.573,260.757 189.089,264.798 189.089,268.032Z" fill="#191919"/>
<path d="M163.698,344.015C165.63,344.823 172.53,365.031 199.578,388.203C200.958,389.55 199.578,390.359 198.474,389.82C178.878,380.389 160.11,343.476 163.698,344.015Z" fill="#191919"/>
<path d="M175.84,412.992C156.52,413.261 135.545,393.592 137.201,391.976C138.857,390.359 146.584,404.37 176.669,410.837C177.497,411.106 179.153,411.106 178.877,412.184C178.877,412.992 177.772,412.992 175.84,412.992Z" fill="#191919"/>
<path d="M127.817,361.259C131.957,366.648 136.649,370.689 141.341,375.27C147.413,381.198 154.59,384.97 163.146,386.048C166.734,386.586 165.905,390.359 154.589,387.125C141.341,383.353 126.713,364.762 127.817,361.259Z" fill="#191919"/>
<path d="M160.66,394.4C162.868,394.67 164.248,395.478 162.316,396.556C158.176,398.981 136.648,391.437 126.436,375.809C118.708,364.223 136.924,390.089 160.66,394.4Z" fill="#191919"/>
<path d="M167.837,381.198C146.861,377.156 127.818,349.134 135.546,355.87C149.898,368.264 150.725,371.498 167.009,378.773C168.665,379.581 169.769,379.85 169.769,380.659C169.493,381.467 168.665,381.198 167.837,381.198Z" fill="#191919"/>
<path d="M144.378,307.64C140.514,307.909 131.682,297.671 134.166,288.51C137.202,275.846 155.97,281.235 144.102,283.39C132.786,285.276 135.27,300.096 144.102,307.101C144.102,307.101 144.102,307.37 144.378,307.64Z" fill="#191919"/>
<path d="M184.121,303.059C183.845,306.293 179.981,312.49 176.669,313.029C175.565,313.298 175.566,312.759 176.117,312.221C182.465,306.562 183.293,296.862 175.565,292.282C174.737,291.743 173.357,291.743 174.185,290.396C175.289,287.971 184.121,293.09 184.121,303.059Z" fill="#191919"/>
<path d="M131.406,306.293C128.922,305.484 123.954,297.94 123.954,291.473C123.954,286.893 128.922,282.312 132.234,282.582C133.89,282.582 134.442,283.929 132.51,284.468C119.814,288.24 131.406,304.676 131.406,306.293Z" fill="#191919"/>
<path d="M264.989,106.365C262.505,106.096 262.505,103.94 264.713,103.402C270.785,101.246 279.341,106.365 278.513,108.252C277.961,109.329 273.545,107.443 264.989,106.365Z" fill="#191919"/>
<path d="M244.289,146.512C231.593,146.782 241.253,132.501 241.253,132.501C241.529,131.963 242.909,131.963 242.357,133.04C239.597,142.201 237.389,142.201 246.773,144.626C249.257,145.165 246.773,146.782 244.289,146.512Z" fill="#191919"/>
<path d="M220.001,106.635C221.933,103.671 227.73,102.863 231.87,103.402C234.354,103.671 234.63,106.366 232.146,106.635C230.766,106.635 221.105,107.444 220.001,106.635Z" fill="#191919"/>
<path d="M252.294,157.829C251.742,158.099 249.81,156.751 252.294,155.674C257.814,152.71 258.918,146.243 259.746,146.243C261.678,146.243 259.746,157.021 252.294,157.829Z" fill="#191919"/>
<path d="M273.821,127.652C273.821,129.268 272.441,126.843 263.609,126.574C261.4,126.574 261.677,124.957 263.333,124.418C268.025,123.34 273.545,125.496 273.821,127.652Z" fill="#191919"/>
<path d="M221.105,126.844C220.277,123.61 232.973,121.185 232.973,124.418C232.697,126.574 228.281,124.419 221.105,126.844Z" fill="#191919"/>
<path d="M248.154,369.073C248.154,307.909 296.729,206.329 301.421,208.215C303.353,209.023 285.965,241.087 275.753,268.301C250.914,334.854 250.913,370.42 248.429,370.42C247.877,370.151 247.878,369.612 248.154,369.073Z" fill="#191919"/>
<path d="M118.71,7.75C90.282,26.611 91.386,65.141 125.61,79.961C154.59,92.355 189.366,72.147 189.09,41.969C189.09,5.325 145.482,-10.303 118.71,7.75ZM154.315,26.611C153.487,44.125 154.59,59.483 151.002,69.722C147.966,78.075 133.891,82.655 134.167,50.591C134.167,46.011 135.547,22.031 135.547,21.761C135.547,21.222 135.547,20.414 136.375,20.683C137.755,20.683 137.478,21.222 136.65,41.969C136.65,44.125 136.651,42.778 149.899,43.047C152.107,43.047 151.278,43.316 152.382,22.3C152.382,21.492 152.382,20.683 153.21,20.683C154.59,20.414 154.591,21.222 154.315,26.611ZM155.695,18.797C154.591,18.797 132.235,19.875 132.235,17.989C132.235,17.18 133.063,17.18 133.615,16.911C157.075,16.103 157.627,16.372 157.627,17.719C157.627,19.067 156.523,18.797 155.695,18.797Z" fill="#38A1FF"/>
<path d="M140.792,48.436C140.792,47.627 140.792,46.28 139.688,46.28C134.444,46.011 141.62,82.924 140.792,48.436Z" fill="#38A1FF"/>
<path d="M140.515,66.219C138.859,66.489 139.963,71.338 141.895,70.53C143.827,69.722 142.171,65.95 140.515,66.219Z" fill="#38A1FF"/>
<path d="M437.768,47.089C395.264,62.447 402.164,122.264 450.74,124.419C470.612,124.15 485.516,114.18 492.14,98.553C505.112,65.95 471.44,34.964 437.768,47.089ZM478.616,83.464C475.028,91.547 470.336,99.091 464.54,106.097C458.468,113.102 457.364,117.683 452.948,114.18C445.772,108.252 425.897,92.355 423.689,82.117C421.205,70.261 428.384,63.525 439.7,63.256C447.704,62.986 450.185,70.261 451.841,67.836C458.741,57.328 475.58,59.214 479.168,69.183C480.548,74.033 480.548,78.614 478.616,83.464Z" fill="#38A1FF"/>
<path d="M434.177,71.608C432.797,70.8 431.141,72.686 430.865,74.303C427.829,85.619 437.765,91.278 443.009,96.936C443.285,96.128 443.837,96.128 438.041,88.314C430.865,79.153 435.833,72.417 434.177,71.608Z" fill="#38A1FF"/>
<path d="M442.735,68.644C437.491,65.411 435.557,71.608 440.801,70.8C444.389,70.8 444.115,69.453 442.735,68.644Z" fill="#38A1FF"/>
<path d="M30.942,107.983C13.278,131.155 30.666,162.949 66.822,158.907C83.658,154.057 93.594,145.704 95.802,127.652C95.25,92.624 49.158,83.733 30.942,107.983ZM83.658,130.616C70.134,144.627 45.846,141.124 35.358,129.807C30.942,124.957 58.819,103.941 83.107,122.802C88.075,126.843 86.97,127.382 83.658,130.616Z" fill="#38A1FF"/>
<path d="M82.002,126.575C78.69,124.419 75.102,122.533 71.514,121.186C64.338,118.491 71.514,123.88 65.994,135.736C70.686,135.736 77.862,131.963 82.278,128.191C82.554,127.652 82.83,127.113 82.002,126.575Z" fill="#38A1FF"/>
<path d="M52.471,120.646C53.023,117.413 41.155,125.227 38.671,127.113C36.187,128.999 48.607,134.388 53.023,135.466C56.059,136.274 50.815,133.31 52.471,120.646Z" fill="#38A1FF"/>
<path d="M56.335,121.724C52.471,121.185 56.059,132.232 56.611,128.999C57.439,125.227 58.543,121.994 56.335,121.724Z" fill="#38A1FF"/>
<path d="M487.172,159.715C458.744,161.332 442.46,187.468 464.54,211.718C467.852,213.335 468.68,215.76 481.376,218.184C526.364,220.071 528.848,162.949 487.172,159.715ZM475.304,190.163C466.472,188.277 471.716,177.768 476.684,170.493C477.236,169.685 478.064,169.146 478.892,170.493C485.24,180.193 485.792,192.588 475.304,190.163ZM491.312,207.676C479.996,207.676 483.032,192.049 490.484,182.618C492.692,180.193 492.968,182.618 496.556,189.624C500.972,198.515 500.972,207.407 491.312,207.676Z" fill="#38A1FF"/>
<path d="M486.896,197.168C486.896,198.246 487.172,201.21 488.276,200.941C488.828,200.941 488,200.671 491.312,190.701C492.14,188.546 487.448,186.39 486.896,197.168Z" fill="#38A1FF"/>
<path d="M476.408,175.343C475.028,175.074 474.2,179.385 475.028,179.654C475.304,180.193 478.064,175.882 476.408,175.343Z" fill="#38A1FF"/>
<path d="M359.108,13.678C338.132,12.331 322.4,28.497 322.676,46.011C323.504,84.811 385.328,80.5 386.432,42.239C386.708,26.072 374.012,14.486 359.108,13.678ZM370.424,38.736C366.008,63.525 337.856,73.764 337.856,51.669C341.72,17.989 374.564,15.294 370.424,38.736Z" fill="#38A1FF"/>
<path d="M345.308,41.161C344.48,40.622 343.928,40.622 343.652,41.7C335.648,62.178 350.828,68.375 362.42,49.514C363.524,47.628 361.04,48.975 345.308,41.161Z" fill="#38A1FF"/>
<path d="M350.828,37.928C359.384,28.498 362.42,29.575 361.868,28.228C360.764,25.803 347.789,32 347.789,37.928C347.789,39.275 349.172,39.814 350.828,37.928Z" fill="#38A1FF"/>
<path d="M9.138,205.252C0.306,219.263 7.758,238.393 30.39,239.471C38.394,239.74 52.194,234.621 55.23,220.34C60.75,195.552 23.214,183.427 9.138,205.252ZM21.835,224.113C17.143,220.61 17.419,216.568 18.247,211.449C19.351,204.713 26.802,201.749 31.77,207.946C38.67,216.838 29.563,230.04 21.835,224.113ZM43.362,224.113C32.874,224.382 38.671,221.957 40.327,219.263C41.155,217.915 40.051,217.915 38.395,217.915C37.015,217.915 36.738,216.568 38.118,216.299C39.774,215.76 41.707,215.76 42.535,217.107C43.915,219.532 40.878,220.61 40.878,221.957L43.362,221.957C45.294,222.227 45.294,224.113 43.362,224.113Z" fill="#38A1FF"/>
<path d="M21.559,209.832C19.351,212.796 19.075,219.532 24.043,223.035C27.907,225.729 31.219,220.61 31.495,215.76C31.771,209.024 25.423,204.443 21.559,209.832Z" fill="#38A1FF"/>
</svg>
