<svg width="104" height="180" viewBox="0 0 104 180" fill="none" xmlns="http://www.w3.org/2000/svg" xmlns:xlink="http://www.w3.org/1999/xlink">
<path d="M7.011,30.848C9.907,32.087 16.984,31.926 16.984,31.926C16.984,31.926 15.491,27.408 15.341,27.131C13.849,23.969 8.877,18.722 4.891,19.261C4.231,19.366 3.601,19.606 3.042,19.965C2.483,20.324 2.008,20.793 1.648,21.343C1.287,21.893 1.049,22.511 0.95,23.157C0.85,23.803 0.891,24.462 1.069,25.091C1.711,27.787 4.548,29.798 7.011,30.848Z" fill="#263238"/>
<path d="M9.459,50.917C12.445,51.339 18.775,49.547 19.283,49.459C20.345,52.941 21.647,56.35 23.179,59.661C24.045,61.629 24.985,63.582 25.956,65.491L24.776,63.844C22.418,61.191 16.267,57.402 12.55,58.947C11.94,59.219 11.397,59.613 10.955,60.104C10.512,60.595 10.181,61.172 9.982,61.796C9.784,62.421 9.722,63.079 9.802,63.728C9.881,64.377 10.1,65.003 10.445,65.564C11.818,67.998 15.087,69.193 17.76,69.572C20.432,69.951 25.866,68.537 27.299,68.114L28.419,70.344C30.255,73.9 32.092,77.442 33.794,80.969C34.391,82.208 34.928,83.446 35.481,84.685C34.958,83.957 34.525,83.344 34.45,83.228C32.092,80.575 25.941,76.801 22.239,78.331C21.63,78.603 21.086,78.997 20.644,79.488C20.201,79.979 19.869,80.555 19.669,81.178C19.469,81.802 19.406,82.46 19.484,83.11C19.561,83.759 19.777,84.385 20.119,84.948C21.492,87.382 24.776,88.591 27.434,88.97C30.091,89.349 35.018,88.067 36.72,87.6C37.242,88.897 37.765,90.18 38.213,91.462C38.496,92.337 38.825,93.153 39.064,94.057C39.302,94.96 39.571,95.806 39.81,96.665C40.228,98.356 40.661,100.09 41.019,101.737C41.288,102.874 41.512,103.982 41.736,105.075C41.154,103.836 39.974,101.431 39.84,101.242C37.929,98.327 32.375,93.619 28.539,94.581C27.894,94.759 27.295,95.067 26.781,95.486C26.266,95.905 25.848,96.425 25.554,97.012C25.259,97.599 25.095,98.241 25.072,98.894C25.048,99.548 25.167,100.199 25.418,100.805C26.389,103.413 29.449,105.089 32.017,105.862C34.854,106.707 41.124,105.935 41.9,105.862C42.273,107.684 42.617,109.476 42.915,111.152C43.975,116.982 44.632,121.908 45.035,125.348C45.11,125.945 45.169,126.499 45.229,127.009L33.092,127.009L34.585,179.797L61.173,179.797L62.666,127.009L51.246,127.009L51.499,126.499C52.992,123.351 55.202,118.818 57.471,113.266C58.217,111.517 58.964,109.637 59.725,107.698C60.487,107.844 66.682,109.156 69.578,108.441C72.206,107.858 75.371,106.416 76.55,103.88C76.83,103.3 76.984,102.671 77.002,102.031C77.021,101.391 76.904,100.754 76.659,100.16C76.413,99.566 76.045,99.028 75.577,98.58C75.109,98.132 74.551,97.782 73.938,97.554C70.116,96.301 64.279,100.469 62.144,103.384C62.009,103.559 60.86,105.512 60.143,106.765C60.442,105.964 60.755,105.191 61.054,104.375C61.666,102.757 62.218,101.111 62.831,99.362L63.637,96.753C63.92,95.893 64.099,94.946 64.353,94.027C64.861,91.9 65.294,89.655 65.667,87.513C67.16,88.023 72.31,89.786 75.013,89.611C77.715,89.436 81.059,88.46 82.611,86.128C82.994,85.593 83.258,84.985 83.385,84.344C83.512,83.703 83.5,83.044 83.35,82.407C83.199,81.771 82.913,81.173 82.511,80.652C82.109,80.13 81.599,79.697 81.014,79.38C77.431,77.573 70.997,80.838 68.459,83.374C68.295,83.534 66.667,85.516 65.801,86.624C66.01,85.283 66.234,83.957 66.399,82.616C66.891,78.71 67.279,74.746 67.667,70.796C67.787,69.586 67.921,68.377 68.056,67.167C68.563,67.356 74.699,69.586 77.73,69.382C80.402,69.193 83.701,68.231 85.314,65.914C85.699,65.379 85.964,64.771 86.093,64.13C86.221,63.489 86.21,62.828 86.059,62.191C85.908,61.555 85.622,60.956 85.218,60.435C84.814,59.913 84.303,59.481 83.716,59.166C80.133,57.358 73.714,60.623 71.161,63.159C70.967,63.348 68.638,66.19 68.071,66.948C68.369,64.296 68.683,61.643 69.101,59.049C69.644,55.541 70.417,52.07 71.415,48.658C71.654,48.745 78.043,51.106 81.133,50.887C83.821,50.713 87.18,49.751 88.732,47.419C89.118,46.884 89.383,46.277 89.511,45.635C89.64,44.994 89.628,44.333 89.478,43.696C89.327,43.06 89.04,42.461 88.637,41.94C88.233,41.418 87.721,40.986 87.135,40.671C83.552,38.864 77.133,42.128 74.58,44.664C74.386,44.854 71.863,47.929 71.459,48.512C71.459,48.322 71.549,48.104 71.609,47.914C72.722,44.521 74.135,41.23 75.834,38.077C76.744,36.328 77.73,34.71 78.715,33.15C79.85,33.704 85.12,36.197 87.911,36.299C90.703,36.401 94.062,35.818 95.853,33.675C96.297,33.184 96.63,32.608 96.831,31.983C97.032,31.359 97.095,30.7 97.018,30.05C96.94,29.399 96.723,28.772 96.381,28.209C96.039,27.646 95.58,27.16 95.032,26.782C91.673,24.61 84.911,27.233 82.104,29.419C81.94,29.536 80.521,30.877 79.506,31.926C79.969,31.241 80.417,30.469 80.865,29.842C82.552,27.364 84.254,25.207 85.776,23.298C86.657,22.22 87.463,21.258 88.24,20.383C89.658,20.383 95.361,20.194 97.854,19.043C100.347,17.891 103.064,15.851 103.646,13.125C103.808,12.491 103.83,11.831 103.713,11.188C103.595,10.545 103.34,9.933 102.964,9.393C102.588,8.852 102.099,8.395 101.53,8.051C100.961,7.708 100.324,7.485 99.66,7.398C95.659,6.975 90.897,12.338 89.434,15.545C89.3,15.822 87.837,20.383 87.941,20.383L88.031,20.383C87.269,21.229 86.463,22.132 85.612,23.153C84.045,25.033 82.283,27.16 80.536,29.624C78.625,32.243 76.87,34.968 75.281,37.785C73.496,40.94 71.997,44.241 70.803,47.652C70.803,47.652 70.803,47.739 70.803,47.783C70.803,46.632 70.803,43.411 70.803,43.163C70.34,39.68 67.339,33.209 63.338,32.495C62.676,32.391 62,32.426 61.353,32.595C60.705,32.765 60.102,33.065 59.582,33.478C59.062,33.891 58.637,34.406 58.335,34.99C58.033,35.574 57.861,36.213 57.829,36.867C57.605,39.636 59.651,42.405 61.666,44.154C63.92,46.136 70.205,48.045 70.698,48.191C69.571,51.691 68.683,55.26 68.041,58.874C67.667,60.987 67.339,63.115 67.041,65.258C67.041,64.267 67.041,63.363 67.041,63.246C66.578,59.763 63.592,53.292 59.576,52.578C58.916,52.479 58.242,52.517 57.597,52.688C56.953,52.86 56.352,53.161 55.835,53.573C55.317,53.985 54.893,54.499 54.592,55.08C54.29,55.662 54.116,56.299 54.082,56.95C53.843,59.719 55.903,62.503 57.904,64.238C59.904,65.972 65.249,67.735 66.667,68.173L66.354,70.65C65.876,74.6 65.398,78.535 64.861,82.383C64.652,83.753 64.398,85.079 64.159,86.405C64.159,85.531 64.159,84.773 64.159,84.671C63.696,81.187 60.696,74.716 56.695,74.002C56.033,73.899 55.356,73.933 54.709,74.103C54.062,74.272 53.459,74.573 52.939,74.986C52.419,75.399 51.994,75.914 51.692,76.498C51.39,77.082 51.217,77.721 51.186,78.375C50.962,81.144 53.007,83.913 55.023,85.662C57.038,87.411 61.845,88.999 63.532,89.539C63.234,90.894 62.95,92.249 62.592,93.546C62.338,94.436 62.159,95.295 61.845,96.17C61.532,97.044 61.263,97.904 60.994,98.764C60.382,100.382 59.77,102.058 59.143,103.632C58.71,104.725 58.277,105.76 57.844,106.809C58.068,105.468 58.426,102.816 58.441,102.583C58.379,99.509 57.522,96.501 55.948,93.838C55.985,93.494 55.985,93.147 55.948,92.803C55.864,92.155 55.64,91.531 55.293,90.972C54.945,90.413 54.481,89.932 53.931,89.559C53.38,89.187 52.756,88.932 52.098,88.81C51.44,88.688 50.763,88.703 50.111,88.854C46.215,89.874 43.751,96.534 43.557,100.047C43.557,100.251 43.692,102.51 43.796,103.938C43.602,103.107 43.423,102.306 43.214,101.46C42.811,99.77 42.348,98.108 41.855,96.316C41.601,95.456 41.333,94.596 41.049,93.707C40.765,92.818 40.422,91.943 40.109,91.054C39.347,88.999 38.466,86.944 37.526,84.904C39.019,84.554 44.363,83.228 46.483,81.625C48.603,80.022 50.872,77.413 50.857,74.629C50.874,73.976 50.75,73.327 50.494,72.724C50.237,72.121 49.854,71.577 49.368,71.128C48.882,70.678 48.306,70.334 47.675,70.116C47.044,69.898 46.374,69.812 45.707,69.863C41.691,70.286 38.242,76.524 37.496,79.963C37.496,80.182 37.212,82.703 37.108,84.088C36.526,82.864 35.973,81.639 35.346,80.43C33.555,76.903 31.629,73.39 29.718,69.892C29.136,68.814 28.568,67.735 28.001,66.657C28.539,66.54 34.913,65.097 37.317,63.29C39.452,61.702 41.706,59.078 41.691,56.309C41.708,55.656 41.584,55.007 41.327,54.404C41.071,53.801 40.687,53.257 40.202,52.808C39.716,52.359 39.139,52.014 38.509,51.796C37.878,51.578 37.207,51.492 36.541,51.543C32.525,51.966 29.076,58.189 28.33,61.643C28.33,61.891 27.927,65.535 27.897,66.453C26.628,64.092 25.403,61.716 24.284,59.326C22.694,56.081 21.327,52.736 20.193,49.313C20.447,49.313 27.105,47.856 29.569,45.947C31.704,44.344 33.958,41.735 33.943,38.951C33.96,38.298 33.836,37.649 33.579,37.046C33.323,36.443 32.939,35.899 32.453,35.45C31.968,35.001 31.391,34.656 30.76,34.438C30.13,34.22 29.459,34.134 28.792,34.185C24.776,34.608 21.328,40.846 20.581,44.285C20.581,44.562 20.163,48.468 20.148,49.182C20.148,48.978 19.999,48.789 19.939,48.585C18.944,45.162 18.26,41.66 17.894,38.12C17.67,36.167 17.566,34.287 17.506,32.451C18.775,32.305 24.582,31.547 26.971,30.134C29.36,28.72 31.823,26.417 32.107,23.648C32.197,23.001 32.147,22.342 31.96,21.715C31.773,21.088 31.453,20.506 31.021,20.007C30.589,19.509 30.054,19.104 29.452,18.82C28.849,18.536 28.192,18.378 27.523,18.358C23.493,18.358 19.342,24.187 18.223,27.51C18.223,27.7 17.76,29.609 17.491,31.008C17.491,30.177 17.491,29.332 17.491,28.545C17.491,25.63 17.7,22.832 17.879,20.427C17.999,19.057 18.133,17.818 18.282,16.667C19.447,15.88 24.105,12.674 25.538,10.371C26.971,8.068 28.091,4.891 27.031,2.311C26.804,1.697 26.448,1.135 25.985,0.663C25.523,0.191 24.964,-0.181 24.345,-0.429C23.727,-0.678 23.061,-0.797 22.393,-0.779C21.724,-0.762 21.066,-0.608 20.462,-0.327C16.879,1.48 15.983,8.52 16.536,11.989C16.536,12.295 17.939,16.886 18.028,16.842C17.879,17.949 17.715,19.145 17.581,20.442C17.327,22.861 17.073,25.586 17.013,28.574C16.891,31.792 16.966,35.013 17.237,38.222C17.524,41.815 18.138,45.376 19.074,48.862L19.074,48.993C18.432,48.016 16.565,45.364 16.401,45.174C14.042,42.507 7.892,38.732 4.189,40.263C3.581,40.535 3.037,40.929 2.595,41.42C2.152,41.91 1.82,42.486 1.62,43.11C1.42,43.734 1.357,44.392 1.434,45.042C1.512,45.691 1.728,46.317 2.069,46.88C3.517,49.27 6.757,50.479 9.459,50.917ZM49.424,102.481C51.484,104.667 56.784,107.217 57.456,107.538C56.739,109.272 55.963,110.948 55.321,112.508C52.903,117.958 50.678,122.389 49.066,125.479C48.752,126.106 48.454,126.645 48.185,127.155L47.916,127.155C47.842,126.557 47.752,125.901 47.648,125.158C47.155,121.689 46.394,116.749 45.199,110.875C44.826,109.024 44.378,107.042 43.915,105.046C45.804,104.279 47.643,103.403 49.424,102.422L49.424,102.481Z" fill="#263238"/>
<path d="M78.581,32.363C78.581,32.363 79.865,27.773 79.909,27.481C80.402,23.998 79.267,16.987 75.64,15.282C75.029,15.015 74.368,14.876 73.699,14.874C73.029,14.872 72.367,15.007 71.755,15.271C71.143,15.534 70.594,15.921 70.144,16.405C69.695,16.889 69.355,17.46 69.146,18.081C68.175,20.689 69.414,23.91 70.862,26.096C72.579,28.691 78.581,32.363 78.581,32.363Z" fill="#263238"/>
</svg>
