<svg width="200" height="202" viewBox="0 0 200 202" fill="none" xmlns="http://www.w3.org/2000/svg" xmlns:xlink="http://www.w3.org/1999/xlink">
<path d="M7.404,107.877C7.404,176.578 81.775,219.515 141.271,185.165C168.884,169.223 185.894,139.761 185.894,107.877C185.894,39.176 111.523,-3.762 52.026,30.588C24.414,46.53 7.404,75.993 7.404,107.877Z" fill="#FECFC4"/>
<path d="M175.898,140.964C175.87,147.155 170.828,152.149 164.638,152.12L106.519,151.85C100.328,151.825 95.331,146.783 95.363,140.592L95.941,15.952C95.968,9.762 101.01,4.767 107.2,4.796L165.318,5.062C171.507,5.092 176.501,10.133 176.474,16.322L175.898,140.964Z" fill="#FFFFFF"/>
<path d="M95.941,15.952L96.941,15.957L96.941,15.956L95.941,15.952ZM107.2,4.796L107.204,3.796L107.204,3.796L107.2,4.796ZM165.318,5.066L165.313,6.066L165.314,6.066L165.318,5.066ZM176.474,16.324L175.474,16.32L175.474,16.32L176.474,16.324ZM175.896,140.969L174.896,140.964L174.896,140.964L175.896,140.969ZM164.64,152.124L164.644,151.124L164.644,151.124L164.64,152.124ZM106.519,151.857L106.524,150.857L106.524,150.857L106.519,151.857ZM95.363,140.598L94.363,140.593L94.363,140.594L95.363,140.598ZM96.941,15.956C96.967,10.319 101.558,5.77 107.195,5.796L107.204,3.796C100.463,3.765 94.972,9.206 94.941,15.947L96.941,15.956ZM107.195,5.796L165.313,6.066L165.323,4.066L107.204,3.796L107.195,5.796ZM165.314,6.066C170.951,6.091 175.501,10.682 175.474,16.32L177.474,16.329C177.506,9.587 172.065,4.096 165.322,4.066L165.314,6.066ZM175.474,16.32L174.896,140.964L176.896,140.973L177.474,16.329L175.474,16.32ZM174.896,140.964C174.871,146.601 170.281,151.15 164.644,151.124L164.635,153.124C171.377,153.155 176.866,147.714 176.896,140.973L174.896,140.964ZM164.644,151.124L106.524,150.857L106.514,152.857L164.635,153.124L164.644,151.124ZM106.524,150.857C100.886,150.831 96.338,146.24 96.363,140.603L94.363,140.594C94.332,147.335 99.773,152.826 106.514,152.857L106.524,150.857ZM96.363,140.603L96.941,15.957L94.941,15.947L94.363,140.593L96.363,140.603Z" fill="#020064"/>
<path d="M102.421,129.073L102.899,25.782L169.426,26.09L168.948,129.381L102.421,129.073Z" fill="#FFFFFF"/>
<path d="M122.204,25.869L122.204,57.533L102.827,57.533L102.9,25.78L122.204,25.869Z" fill="#B0D9FF" stroke="#020064" stroke-width="1" stroke-miterlimit="3.999327" stroke-linecap="round" stroke-linejoin="round"/>
<path d="M169.426,26.088L169.281,57.533L132.608,57.533L132.608,25.918L169.426,26.088Z" fill="#B0D9FF" stroke="#020064" stroke-width="1" stroke-miterlimit="3.999327" stroke-linecap="round" stroke-linejoin="round"/>
<path d="M169.102,95.862L168.949,129.38L132.608,129.213L132.608,95.768L169.102,95.862Z" fill="#B0D9FF" stroke="#020064" stroke-width="1" stroke-miterlimit="3.999327" stroke-linecap="round" stroke-linejoin="round"/>
<path d="M122.407,68.653L122.204,129.164L102.423,129.072L102.702,68.674L122.407,68.653Z" fill="#B0D9FF" stroke="#020064" stroke-width="1" stroke-miterlimit="3.999327" stroke-linecap="round" stroke-linejoin="round"/>
<path d="M144.908,68.549L144.908,86.331L132.608,86.331L132.608,68.5L144.908,68.549Z" fill="#B0D9FF" stroke="#020064" stroke-width="1" stroke-miterlimit="3.999327" stroke-linecap="round" stroke-linejoin="round"/>
<path d="M169.229,68.549L169.147,86.331L154.417,86.331L154.417,68.5L169.229,68.549Z" fill="#B0D9FF" stroke="#020064" stroke-width="1" stroke-miterlimit="3.999327" stroke-linecap="round" stroke-linejoin="round"/>
<path d="M102.421,129.073L101.421,129.068C101.42,129.334 101.524,129.588 101.711,129.777C101.898,129.965 102.152,130.072 102.417,130.073L102.421,129.073ZM102.899,25.782L102.904,24.782C102.352,24.779 101.902,25.225 101.899,25.777L102.899,25.782ZM169.426,26.09L170.426,26.094C170.427,25.829 170.323,25.574 170.136,25.386C169.95,25.197 169.696,25.091 169.431,25.09L169.426,26.09ZM168.948,129.381L168.944,130.381C169.496,130.383 169.946,129.938 169.948,129.385L168.948,129.381ZM103.421,129.078L103.899,25.787L101.899,25.777L101.421,129.068L103.421,129.078ZM102.895,26.782L169.421,27.09L169.431,25.09L102.904,24.782L102.895,26.782ZM168.426,26.085L167.948,129.376L169.948,129.385L170.426,26.094L168.426,26.085ZM168.953,128.381L102.426,128.073L102.417,130.073L168.944,130.381L168.953,128.381Z" fill="#020064"/>
<path d="M132.715,14.414C132.163,14.412 131.713,14.857 131.71,15.41C131.708,15.962 132.154,16.412 132.706,16.414L132.715,14.414ZM151.963,16.503C152.515,16.506 152.965,16.06 152.967,15.508C152.97,14.956 152.524,14.506 151.972,14.504L151.963,16.503ZM132.706,16.414L151.963,16.503L151.972,14.504L132.715,14.414L132.706,16.414Z" fill="#020064"/>
<path d="M122.202,13.616C120.856,13.616 120.014,15.074 120.687,16.24C121,16.781 121.577,17.114 122.202,17.114C123.549,17.114 124.39,15.657 123.717,14.491C123.404,13.95 122.827,13.616 122.202,13.616Z" fill="#020064"/>
<path d="M129.504,140.605C129.504,145.321 134.61,148.269 138.695,145.911C140.59,144.816 141.758,142.794 141.758,140.605C141.758,135.889 136.652,132.941 132.568,135.299C130.672,136.394 129.504,138.416 129.504,140.605Z" fill="#FFFFFF" stroke="#020064" stroke-width="1" stroke-miterlimit="3.999327" stroke-linecap="round" stroke-linejoin="round"/>
<path d="M196.623,85.67C197.185,86.376 196.772,87.425 195.88,87.558C195.825,87.567 195.769,87.571 195.713,87.571L151.291,87.571L151.291,65.215C151.291,63.921 152.34,62.873 153.634,62.873L195.713,62.873C196.614,62.873 197.178,63.849 196.727,64.63C196.698,64.681 196.664,64.73 196.627,64.776L188.854,74.492C188.511,74.919 188.511,75.527 188.854,75.954L196.623,85.67Z" fill="#FFFFFF" stroke="#020064" stroke-width="1" stroke-miterlimit="3.999327" stroke-linecap="round" stroke-linejoin="round"/>
<line x1="150.291" y1="87.573" x2="150.291" y2="115.221" stroke="#020064" stroke-width="1" stroke-miterlimit="3.999327" stroke-linecap="round" stroke-linejoin="round"/>
<path d="M103.851,138.064L95.743,118.601C93.56,113.363 88.442,109.951 82.767,109.951L51.288,109.951C43.301,109.951 35.999,114.463 32.428,121.607L24.199,138.064L10.639,144.844C7.464,146.431 5.458,149.676 5.458,153.226L5.458,173.204L129.62,173.204L129.62,154.302C129.62,151.546 128.009,149.046 125.501,147.905L103.851,138.064Z" fill="#FFFFFF"/>
<path d="M103.851,138.064L102.927,138.448C103.025,138.681 103.207,138.869 103.437,138.974L103.851,138.064ZM95.743,118.601L96.666,118.217L96.666,118.217L95.743,118.601ZM82.767,109.951L82.767,110.951L82.767,110.951L82.767,109.951ZM51.288,109.951L51.288,110.951L51.288,110.951L51.288,109.951ZM32.428,121.607L33.322,122.054L33.322,122.054L32.428,121.607ZM24.199,138.064L24.647,138.958C24.84,138.861 24.997,138.704 25.094,138.511L24.199,138.064ZM10.639,144.844L11.086,145.738L11.086,145.738L10.639,144.844ZM5.458,153.226L6.458,153.226L6.458,153.226L5.458,153.226ZM5.458,173.204L4.458,173.204C4.458,173.756 4.906,174.204 5.458,174.204L5.458,173.204ZM129.62,173.204L129.62,174.204C130.172,174.204 130.62,173.756 130.62,173.204L129.62,173.204ZM129.62,154.302L130.62,154.302L130.62,154.301L129.62,154.302ZM125.501,147.905L125.915,146.995L125.915,146.995L125.501,147.905ZM104.774,137.679L96.666,118.217L94.82,118.986L102.927,138.448L104.774,137.679ZM96.666,118.217C94.328,112.606 88.845,108.951 82.766,108.951L82.767,110.951C88.038,110.951 92.792,114.12 94.82,118.986L96.666,118.217ZM82.767,108.951L51.288,108.951L51.288,110.951L82.767,110.951L82.767,108.951ZM51.288,108.951C42.922,108.951 35.274,113.677 31.533,121.16L33.322,122.054C36.724,115.249 43.68,110.951 51.288,110.951L51.288,108.951ZM31.533,121.16L23.305,137.616L25.094,138.511L33.322,122.054L31.533,121.16ZM23.752,137.169L10.192,143.95L11.086,145.738L24.647,138.958L23.752,137.169ZM10.192,143.95C6.678,145.706 4.458,149.298 4.458,153.226L6.458,153.226C6.458,150.055 8.25,147.156 11.086,145.738L10.192,143.95ZM4.458,153.226L4.458,173.204L6.458,173.204L6.458,153.226L4.458,153.226ZM5.458,174.204L129.62,174.204L129.62,172.204L5.458,172.204L5.458,174.204ZM130.62,173.204L130.62,154.302L128.62,154.302L128.62,173.204L130.62,173.204ZM130.62,154.301C130.62,151.154 128.78,148.298 125.915,146.995L125.087,148.815C127.239,149.794 128.62,151.939 128.62,154.302L130.62,154.301ZM125.915,146.995L104.264,137.153L103.437,138.974L125.088,148.815L125.915,146.995Z" fill="#020064"/>
<path d="M129.732,175.547L108.536,175.547L108.536,166.176L129.732,166.176C130.964,166.176 131.963,167.175 131.963,168.407L131.963,173.316C131.963,174.548 130.964,175.547 129.732,175.547Z" fill="#B0D9FF"/>
<path d="M26.543,175.547L5.347,175.547C4.115,175.547 3.116,174.548 3.116,173.316L3.116,168.407C3.116,167.175 4.115,166.176 5.347,166.176L26.543,166.176L26.543,175.547Z" fill="#B0D9FF"/>
<path d="M108.536,175.547L107.536,175.547C107.536,176.099 107.984,176.547 108.536,176.547L108.536,175.547ZM108.536,166.176L108.536,165.176C107.984,165.176 107.536,165.624 107.536,166.176L108.536,166.176ZM129.732,174.547L108.536,174.547L108.536,176.547L129.732,176.547L129.732,174.547ZM109.536,175.547L109.536,166.176L107.536,166.176L107.536,175.547L109.536,175.547ZM108.536,167.176L129.732,167.176L129.732,165.176L108.536,165.176L108.536,167.176ZM129.732,167.176C130.412,167.176 130.963,167.727 130.963,168.407L132.963,168.407C132.963,166.622 131.516,165.176 129.732,165.176L129.732,167.176ZM130.963,168.407L130.963,173.316L132.963,173.316L132.963,168.407L130.963,168.407ZM130.963,173.316C130.963,173.995 130.412,174.547 129.732,174.547L129.732,176.547C131.516,176.547 132.963,175.1 132.963,173.316L130.963,173.316Z" fill="#020064"/>
<path d="M26.543,175.547L26.543,176.547C27.095,176.547 27.543,176.099 27.543,175.547L26.543,175.547ZM5.347,175.547L5.347,174.547L5.347,174.547L5.347,175.547ZM5.347,166.176L5.347,167.176L5.347,167.176L5.347,166.176ZM26.543,166.176L27.543,166.176C27.543,165.624 27.095,165.176 26.543,165.176L26.543,166.176ZM26.543,174.547L5.347,174.547L5.347,176.547L26.543,176.547L26.543,174.547ZM5.347,174.547C4.667,174.547 4.116,173.996 4.116,173.316L2.116,173.316C2.116,175.1 3.562,176.547 5.347,176.547L5.347,174.547ZM4.116,173.316L4.116,168.407L2.116,168.407L2.116,173.316L4.116,173.316ZM4.116,168.407C4.116,167.727 4.667,167.176 5.347,167.176L5.347,165.176C3.562,165.176 2.116,166.623 2.116,168.407L4.116,168.407ZM5.347,167.176L26.543,167.176L26.543,165.176L5.347,165.176L5.347,167.176ZM25.543,166.176L25.543,175.547L27.543,175.547L27.543,166.176L25.543,166.176Z" fill="#020064"/>
<path d="M73.82,98.238L70.632,98.238C69.515,98.238 68.554,99.026 68.336,100.121L66.368,109.951L78.082,109.951L76.125,100.121C75.906,99.023 74.94,98.233 73.82,98.238Z" fill="#B0D9FF" stroke="#020064" stroke-width="1" stroke-miterlimit="3.999327" stroke-linecap="round" stroke-linejoin="round"/>
<path d="M5.458,184.273C5.458,187.383 58.168,189.327 100.337,187.772C119.907,187.05 131.963,185.716 131.963,184.273C131.963,181.162 79.252,179.218 37.084,180.773C17.514,181.495 5.458,182.829 5.458,184.273Z" fill="#B0D9FF"/>
<path d="M120.25,166.176L129.62,166.176L129.62,156.805L122.592,156.805C121.299,156.806 120.251,157.855 120.25,159.148L120.25,166.176Z" fill="#B0D9FF" stroke="#020064" stroke-width="1" stroke-miterlimit="3.999327" stroke-linecap="round" stroke-linejoin="round"/>
<path d="M5.458,156.805L8.024,156.805C10.488,156.805 12.486,158.803 12.486,161.267L12.486,166.176L5.458,166.176Z" fill="#B0D9FF" stroke="#020064" stroke-width="1" stroke-miterlimit="3.999327" stroke-linecap="round" stroke-linejoin="round"/>
<path d="M68.71,138.064L96.823,138.064L89.308,121.154C88.18,118.616 85.663,116.98 82.885,116.979L68.71,116.979L68.71,138.064Z" fill="#B0D9FF"/>
<path d="M68.71,138.064L67.71,138.064C67.71,138.616 68.158,139.064 68.71,139.064L68.71,138.064ZM96.823,138.064L96.823,139.064C97.161,139.064 97.477,138.892 97.661,138.609C97.846,138.325 97.874,137.967 97.736,137.658L96.823,138.064ZM89.308,121.154L90.222,120.748L90.222,120.748L89.308,121.154ZM82.885,116.979L82.885,115.979L82.885,115.979L82.885,116.979ZM68.71,116.979L68.71,115.979C68.158,115.979 67.71,116.427 67.71,116.979L68.71,116.979ZM68.71,139.064L96.823,139.064L96.823,137.064L68.71,137.064L68.71,139.064ZM97.736,137.658L90.222,120.748L88.394,121.56L95.909,138.47L97.736,137.658ZM90.222,120.748C88.933,117.848 86.058,115.98 82.885,115.979L82.885,117.979C85.267,117.98 87.427,119.383 88.394,121.56L90.222,120.748ZM82.885,115.979L68.71,115.979L68.71,117.979L82.885,117.979L82.885,115.979ZM67.71,116.979L67.71,138.064L69.71,138.064L69.71,116.979L67.71,116.979Z" fill="#020064"/>
<path d="M61.683,138.064L33.57,138.064L41.096,121.154C42.224,118.616 44.742,116.98 47.519,116.979L61.691,116.979L61.683,138.064Z" fill="#B0D9FF"/>
<path d="M61.683,138.064L61.683,139.064C62.235,139.064 62.682,138.616 62.683,138.064L61.683,138.064ZM33.57,138.064L32.657,137.657C32.519,137.966 32.547,138.324 32.732,138.608C32.916,138.892 33.232,139.064 33.57,139.064L33.57,138.064ZM41.096,121.154L42.01,121.56L42.01,121.56L41.096,121.154ZM47.519,116.979L47.519,115.979L47.519,115.979L47.519,116.979ZM61.691,116.979L62.691,116.98C62.692,116.715 62.586,116.46 62.399,116.273C62.211,116.085 61.957,115.979 61.691,115.979L61.691,116.979ZM61.683,137.064L33.57,137.064L33.57,139.064L61.683,139.064L61.683,137.064ZM34.484,138.47L42.01,121.56L40.182,120.747L32.657,137.657L34.484,138.47ZM42.01,121.56C42.978,119.383 45.137,117.98 47.519,117.979L47.519,115.979C44.346,115.98 41.471,117.848 40.182,120.748L42.01,121.56ZM47.519,117.979L61.691,117.979L61.691,115.979L47.519,115.979L47.519,117.979ZM60.691,116.979L60.683,138.063L62.683,138.064L62.691,116.98L60.691,116.979Z" fill="#020064"/>
<path d="M14.829,170.861C14.829,181.682 26.543,188.444 35.913,183.034C40.262,180.523 42.941,175.883 42.941,170.861C42.941,160.041 31.228,153.278 21.857,158.688C17.508,161.199 14.829,165.84 14.829,170.861Z" fill="#B0D9FF"/>
<path d="M35.913,183.034L35.413,182.168L35.413,182.168L35.913,183.034ZM21.857,158.688L22.357,159.554L22.357,159.554L21.857,158.688ZM13.829,170.861C13.829,182.451 26.376,189.695 36.413,183.9L35.413,182.168C26.709,187.193 15.829,180.912 15.829,170.861L13.829,170.861ZM36.413,183.9C41.072,181.211 43.941,176.24 43.941,170.861L41.941,170.861C41.941,175.526 39.453,179.836 35.413,182.168L36.413,183.9ZM43.941,170.861C43.941,159.271 31.395,152.027 21.357,157.822L22.357,159.554C31.061,154.529 41.941,160.811 41.941,170.861L43.941,170.861ZM21.357,157.822C16.699,160.512 13.829,165.482 13.829,170.861L15.829,170.861C15.829,166.197 18.318,161.886 22.357,159.554L21.357,157.822Z" fill="#020064"/>
<path d="M24.2,170.861C24.2,174.468 28.104,176.722 31.228,174.919C32.678,174.082 33.571,172.535 33.571,170.861C33.571,167.254 29.666,165 26.543,166.803C25.093,167.64 24.2,169.187 24.2,170.861Z" fill="#FFFFFF"/>
<path d="M31.228,174.919L31.728,175.785L31.728,175.785L31.228,174.919ZM26.543,166.803L26.043,165.937L26.042,165.937L26.543,166.803ZM23.2,170.861C23.2,175.238 27.938,177.973 31.728,175.785L30.728,174.053C28.271,175.471 25.2,173.698 25.2,170.861L23.2,170.861ZM31.728,175.785C33.487,174.769 34.571,172.892 34.571,170.861L32.571,170.861C32.571,172.178 31.868,173.394 30.728,174.053L31.728,175.785ZM34.571,170.861C34.571,166.484 29.833,163.749 26.043,165.937L27.043,167.669C29.499,166.251 32.571,168.024 32.571,170.861L34.571,170.861ZM26.042,165.937C24.284,166.953 23.2,168.83 23.2,170.861L25.2,170.861C25.2,169.545 25.902,168.328 27.043,167.669L26.042,165.937Z" fill="#020064"/>
<path d="M87.452,170.861C87.452,181.682 99.166,188.444 108.536,183.034C112.885,180.523 115.564,175.883 115.564,170.861C115.564,160.041 103.851,153.278 94.48,158.688C90.131,161.199 87.452,165.84 87.452,170.861Z" fill="#B0D9FF"/>
<path d="M108.536,183.034L108.036,182.168L108.036,182.168L108.536,183.034ZM94.48,158.688L94.98,159.554L94.98,159.554L94.48,158.688ZM86.452,170.861C86.452,182.451 98.999,189.695 109.036,183.9L108.036,182.168C99.332,187.193 88.452,180.912 88.452,170.861L86.452,170.861ZM109.036,183.9C113.695,181.211 116.564,176.24 116.564,170.861L114.564,170.861C114.564,175.526 112.076,179.836 108.036,182.168L109.036,183.9ZM116.564,170.861C116.564,159.271 104.018,152.027 93.98,157.822L94.98,159.554C103.684,154.529 114.564,160.811 114.564,170.861L116.564,170.861ZM93.98,157.822C89.322,160.512 86.452,165.482 86.452,170.861L88.452,170.861C88.452,166.197 90.941,161.887 94.98,159.554L93.98,157.822Z" fill="#020064"/>
<path d="M96.823,170.861C96.823,174.468 100.727,176.722 103.851,174.919C105.3,174.082 106.194,172.535 106.194,170.861C106.194,167.254 102.289,165 99.165,166.803C97.716,167.64 96.823,169.187 96.823,170.861Z" fill="#FFFFFF"/>
<path d="M103.851,174.919L104.351,175.785L104.351,175.785L103.851,174.919ZM99.165,166.803L98.665,165.937L98.665,165.937L99.165,166.803ZM95.823,170.861C95.823,175.238 100.56,177.973 104.351,175.785L103.351,174.053C100.894,175.471 97.823,173.698 97.823,170.861L95.823,170.861ZM104.351,175.785C106.11,174.769 107.194,172.892 107.194,170.861L105.194,170.861C105.194,172.178 104.491,173.394 103.351,174.053L104.351,175.785ZM107.194,170.861C107.194,166.484 102.456,163.749 98.665,165.937L99.665,167.669C102.122,166.251 105.194,168.024 105.194,170.861L107.194,170.861ZM98.665,165.937C96.906,166.953 95.823,168.83 95.823,170.861L97.823,170.861C97.823,169.544 98.525,168.328 99.665,167.669L98.665,165.937Z" fill="#020064"/>
<path d="M77.507,152.622L77.508,151.622L77.507,151.622L77.507,152.622ZM70.373,152.622L69.373,152.622C69.373,153.175 69.821,153.622 70.373,153.622L70.373,152.622ZM69.354,144.47L69.356,143.47L69.354,143.47L69.354,144.47ZM63.24,144.47L63.24,143.47L63.238,143.47L63.24,144.47ZM62.221,152.622L62.221,153.622C62.773,153.622 63.221,153.175 63.221,152.622L62.221,152.622ZM55.088,152.622L55.088,151.622L55.087,151.622L55.088,152.622ZM62.221,160.774L63.221,160.774C63.221,160.222 62.773,159.774 62.221,159.774L62.221,160.774ZM63.24,168.934L63.238,169.934L63.24,169.934L63.24,168.934ZM69.354,168.934L69.354,169.934L69.356,169.934L69.354,168.934ZM70.373,160.774L70.373,159.774C69.821,159.774 69.373,160.222 69.373,160.774L70.373,160.774ZM79.525,153.642C79.525,152.528 78.622,151.624 77.508,151.622L77.505,153.622C77.51,153.622 77.512,153.623 77.513,153.623C77.514,153.624 77.517,153.626 77.519,153.628C77.522,153.631 77.523,153.633 77.524,153.635C77.524,153.636 77.525,153.638 77.525,153.642L79.525,153.642ZM77.507,151.622L70.373,151.622L70.373,153.622L77.507,153.622L77.507,151.622ZM71.373,152.622L71.373,145.49L69.373,145.49L69.373,152.622L71.373,152.622ZM71.373,145.49C71.373,144.376 70.47,143.472 69.356,143.47L69.353,145.47C69.358,145.47 69.36,145.471 69.361,145.472C69.362,145.472 69.365,145.474 69.367,145.476C69.37,145.479 69.371,145.481 69.372,145.483C69.372,145.484 69.373,145.486 69.373,145.49L71.373,145.49ZM69.354,143.47L63.24,143.47L63.24,145.47L69.354,145.47L69.354,143.47ZM63.238,143.47C62.124,143.472 61.221,144.376 61.221,145.49L63.221,145.49C63.221,145.486 63.222,145.484 63.222,145.483C63.223,145.481 63.225,145.479 63.227,145.476C63.23,145.474 63.232,145.472 63.234,145.472C63.235,145.471 63.237,145.47 63.241,145.47L63.238,143.47ZM61.221,145.49L61.221,152.622L63.221,152.622L63.221,145.49L61.221,145.49ZM62.221,151.622L55.088,151.622L55.088,153.622L62.221,153.622L62.221,151.622ZM55.087,151.622C53.972,151.624 53.069,152.528 53.069,153.642L55.069,153.642C55.069,153.638 55.07,153.636 55.07,153.635C55.071,153.633 55.073,153.631 55.075,153.628C55.078,153.626 55.08,153.624 55.082,153.623C55.083,153.623 55.085,153.622 55.089,153.622L55.087,151.622ZM53.069,153.642L53.069,159.756L55.069,159.756L55.069,153.642L53.069,153.642ZM53.069,159.756C53.069,160.871 53.973,161.774 55.088,161.774L55.088,159.774C55.083,159.774 55.082,159.774 55.081,159.773C55.079,159.773 55.077,159.771 55.075,159.769C55.072,159.766 55.071,159.764 55.07,159.763C55.07,159.762 55.069,159.76 55.069,159.756L53.069,159.756ZM55.088,161.774L62.221,161.774L62.221,159.774L55.088,159.774L55.088,161.774ZM61.221,160.774L61.221,167.914L63.221,167.914L63.221,160.774L61.221,160.774ZM61.221,167.914C61.221,169.029 62.124,169.933 63.238,169.934L63.241,167.934C63.237,167.934 63.235,167.934 63.234,167.933C63.232,167.932 63.23,167.931 63.227,167.928C63.225,167.926 63.223,167.923 63.222,167.922C63.222,167.921 63.221,167.919 63.221,167.914L61.221,167.914ZM63.24,169.934L69.354,169.934L69.354,167.934L63.24,167.934L63.24,169.934ZM69.356,169.934C70.47,169.933 71.373,169.029 71.373,167.914L69.373,167.914C69.373,167.919 69.372,167.921 69.372,167.922C69.371,167.923 69.37,167.926 69.367,167.928C69.365,167.931 69.362,167.932 69.361,167.933C69.36,167.934 69.358,167.934 69.353,167.934L69.356,169.934ZM71.373,167.914L71.373,160.774L69.373,160.774L69.373,167.914L71.373,167.914ZM70.373,161.774L77.507,161.774L77.507,159.774L70.373,159.774L70.373,161.774ZM77.507,161.774C78.621,161.774 79.525,160.87 79.525,159.756L77.525,159.756C77.525,159.76 77.524,159.762 77.524,159.763C77.523,159.764 77.522,159.766 77.52,159.769C77.517,159.771 77.515,159.773 77.513,159.773C77.513,159.774 77.511,159.774 77.507,159.774L77.507,161.774ZM79.525,159.756L79.525,153.642L77.525,153.642L77.525,159.756L79.525,159.756Z" transform="rotate(-0.651 66.297 156.702)" fill="#FECFC4"/>
<path d="M77.507,152.622L77.508,151.622L77.507,151.622L77.507,152.622ZM70.373,152.622L69.373,152.622C69.373,153.175 69.821,153.622 70.373,153.622L70.373,152.622ZM69.354,144.47L69.356,143.47L69.354,143.47L69.354,144.47ZM63.24,144.47L63.24,143.47L63.238,143.47L63.24,144.47ZM62.221,152.622L62.221,153.622C62.773,153.622 63.221,153.175 63.221,152.622L62.221,152.622ZM55.088,152.622L55.088,151.622L55.087,151.622L55.088,152.622ZM62.221,160.774L63.221,160.774C63.221,160.222 62.773,159.774 62.221,159.774L62.221,160.774ZM63.24,168.934L63.238,169.934L63.24,169.934L63.24,168.934ZM69.354,168.934L69.354,169.934L69.356,169.934L69.354,168.934ZM70.373,160.774L70.373,159.774C69.821,159.774 69.373,160.222 69.373,160.774L70.373,160.774ZM79.525,153.642C79.525,152.528 78.622,151.624 77.508,151.622L77.505,153.622C77.51,153.622 77.512,153.623 77.513,153.623C77.514,153.624 77.517,153.626 77.519,153.628C77.522,153.631 77.523,153.633 77.524,153.635C77.524,153.636 77.525,153.638 77.525,153.642L79.525,153.642ZM77.507,151.622L70.373,151.622L70.373,153.622L77.507,153.622L77.507,151.622ZM71.373,152.622L71.373,145.49L69.373,145.49L69.373,152.622L71.373,152.622ZM71.373,145.49C71.373,144.376 70.47,143.472 69.356,143.47L69.353,145.47C69.358,145.47 69.36,145.471 69.361,145.472C69.362,145.472 69.365,145.474 69.367,145.476C69.37,145.479 69.371,145.481 69.372,145.483C69.372,145.484 69.373,145.486 69.373,145.49L71.373,145.49ZM69.354,143.47L63.24,143.47L63.24,145.47L69.354,145.47L69.354,143.47ZM63.238,143.47C62.124,143.472 61.221,144.376 61.221,145.49L63.221,145.49C63.221,145.486 63.222,145.484 63.222,145.483C63.223,145.481 63.225,145.479 63.227,145.476C63.23,145.474 63.232,145.472 63.234,145.472C63.235,145.471 63.237,145.47 63.241,145.47L63.238,143.47ZM61.221,145.49L61.221,152.622L63.221,152.622L63.221,145.49L61.221,145.49ZM62.221,151.622L55.088,151.622L55.088,153.622L62.221,153.622L62.221,151.622ZM55.087,151.622C53.972,151.624 53.069,152.528 53.069,153.642L55.069,153.642C55.069,153.638 55.07,153.636 55.07,153.635C55.071,153.633 55.073,153.631 55.075,153.628C55.078,153.626 55.08,153.624 55.082,153.623C55.083,153.623 55.085,153.622 55.089,153.622L55.087,151.622ZM53.069,153.642L53.069,159.756L55.069,159.756L55.069,153.642L53.069,153.642ZM53.069,159.756C53.069,160.871 53.973,161.774 55.088,161.774L55.088,159.774C55.083,159.774 55.082,159.774 55.081,159.773C55.079,159.773 55.077,159.771 55.075,159.769C55.072,159.766 55.071,159.764 55.07,159.763C55.07,159.762 55.069,159.76 55.069,159.756L53.069,159.756ZM55.088,161.774L62.221,161.774L62.221,159.774L55.088,159.774L55.088,161.774ZM61.221,160.774L61.221,167.914L63.221,167.914L63.221,160.774L61.221,160.774ZM61.221,167.914C61.221,169.029 62.124,169.933 63.238,169.934L63.241,167.934C63.237,167.934 63.235,167.934 63.234,167.933C63.232,167.932 63.23,167.931 63.227,167.928C63.225,167.926 63.223,167.923 63.222,167.922C63.222,167.921 63.221,167.919 63.221,167.914L61.221,167.914ZM63.24,169.934L69.354,169.934L69.354,167.934L63.24,167.934L63.24,169.934ZM69.356,169.934C70.47,169.933 71.373,169.029 71.373,167.914L69.373,167.914C69.373,167.919 69.372,167.921 69.372,167.922C69.371,167.923 69.37,167.926 69.367,167.928C69.365,167.931 69.362,167.932 69.361,167.933C69.36,167.934 69.358,167.934 69.353,167.934L69.356,169.934ZM71.373,167.914L71.373,160.774L69.373,160.774L69.373,167.914L71.373,167.914ZM70.373,161.774L77.507,161.774L77.507,159.774L70.373,159.774L70.373,161.774ZM77.507,161.774C78.621,161.774 79.525,160.87 79.525,159.756L77.525,159.756C77.525,159.76 77.524,159.762 77.524,159.763C77.523,159.764 77.522,159.766 77.52,159.769C77.517,159.771 77.515,159.773 77.513,159.773C77.513,159.774 77.511,159.774 77.507,159.774L77.507,161.774ZM79.525,159.756L79.525,153.642L77.525,153.642L77.525,159.756L79.525,159.756Z" transform="rotate(-0.651 66.297 156.702)" fill="#000000" fill-opacity="0.2"/>
</svg>
