<svg width="792" height="1424" viewBox="0 0 792 1424" fill="none" xmlns="http://www.w3.org/2000/svg" xmlns:xlink="http://www.w3.org/1999/xlink">
<path d="M555.698,66.008C572.696,64.38 585.982,50.26 585.982,33.082C585.982,14.811 570.952,0 552.412,0C533.872,0 518.842,14.811 518.842,33.082C518.842,49.308 530.696,62.806 546.334,65.624C545.5,69.425 543.172,74.333 537.278,79.064C537.278,79.064 551.238,77.679 555.698,66.008ZM322.1,59.211L322.1,64.702C311.178,72.202 302.626,89.121 302.626,103.793L302.626,121.286L291.914,145.732L359.342,107.364L348.63,95.11L348.63,77.617C348.63,63.01 340.14,55.824 329.3,60.629L329.3,55.106C329.3,52.84 327.688,51.928 325.708,53.061C324.658,53.735 323.786,54.643 323.16,55.712C322.532,56.78 322.17,57.979 322.1,59.211ZM237.466,231.088C236.948,231.08 236.446,230.906 236.038,230.592C235.63,230.28 235.338,229.842 235.204,229.35C235.07,228.856 235.102,228.334 235.298,227.862C235.494,227.388 235.84,226.992 236.284,226.73L395.912,135.869C396.456,135.56 397.102,135.477 397.708,135.638C398.314,135.798 398.832,136.19 399.144,136.726C399.458,137.262 399.542,137.899 399.38,138.496C399.216,139.094 398.818,139.603 398.274,139.912L238.646,230.774C238.286,230.976 237.88,231.084 237.466,231.088ZM152.815,477.058C128.727,469.9 113.738,448.302 113.738,448.302L190.902,404.774L190.902,445.376C190.902,467.824 178.722,484.75 152.815,477.058ZM236.03,265.45C236.442,265.762 236.946,265.932 237.466,265.932C237.874,265.952 238.28,265.872 238.646,265.696L398.274,174.756C398.818,174.447 399.216,173.938 399.38,173.34C399.542,172.743 399.458,172.106 399.144,171.57C398.832,171.034 398.316,170.642 397.708,170.482C397.102,170.321 396.456,170.404 395.912,170.713L236.284,261.59C235.836,261.848 235.484,262.242 235.286,262.716C235.088,263.188 235.054,263.712 235.188,264.208C235.322,264.702 235.618,265.138 236.03,265.45ZM237.466,300.762C236.946,300.76 236.442,300.59 236.03,300.278C235.618,299.966 235.322,299.53 235.188,299.036C235.054,298.542 235.088,298.018 235.286,297.544C235.484,297.072 235.836,296.676 236.284,296.42L395.912,205.558C396.452,205.28 397.08,205.22 397.664,205.388C398.248,205.556 398.742,205.938 399.048,206.458C399.352,206.976 399.442,207.592 399.298,208.174C399.154,208.756 398.788,209.262 398.274,209.584L238.646,300.446C238.286,300.65 237.88,300.758 237.466,300.762ZM236.03,335.108C236.442,335.418 236.946,335.588 237.466,335.59C237.882,335.594 238.29,335.484 238.646,335.274L398.274,244.412C398.788,244.09 399.154,243.584 399.298,243.002C399.442,242.42 399.352,241.806 399.048,241.286C398.742,240.768 398.248,240.384 397.664,240.216C397.08,240.048 396.452,240.11 395.912,240.386L236.284,331.248C235.836,331.504 235.484,331.9 235.286,332.372C235.088,332.846 235.054,333.37 235.188,333.864C235.322,334.358 235.618,334.796 236.03,335.108ZM237.466,370.418C236.946,370.416 236.442,370.248 236.03,369.936C235.618,369.624 235.322,369.186 235.188,368.692C235.054,368.198 235.088,367.674 235.286,367.202C235.484,366.728 235.836,366.332 236.284,366.076L395.912,275.214C396.452,274.938 397.08,274.876 397.664,275.044C398.248,275.212 398.742,275.596 399.048,276.114C399.352,276.634 399.442,277.248 399.298,277.83C399.154,278.412 398.788,278.918 398.274,279.242L238.646,370.104C238.29,370.312 237.882,370.422 237.466,370.418ZM341.11,345.286C341.47,345.49 341.878,345.598 342.294,345.594C342.706,345.596 343.114,345.494 343.474,345.296L398.306,314.07C398.82,313.746 399.186,313.242 399.33,312.658C399.474,312.076 399.384,311.462 399.08,310.942C398.774,310.424 398.278,310.04 397.694,309.872C397.112,309.706 396.484,309.766 395.944,310.042L341.112,341.284C340.58,341.592 340.19,342.096 340.03,342.684C339.868,343.272 339.948,343.898 340.25,344.43C340.454,344.786 340.752,345.082 341.11,345.286ZM325.628,138.134C321.51,140.478 318.158,138.7 317.966,134.185L333.274,125.549C333.05,128.08 332.244,130.528 330.92,132.708C329.596,134.888 327.786,136.743 325.628,138.134ZM20,1291.792C8.954,1291.792 0,1300.746 0,1311.792L0,1403.792C0,1414.838 8.954,1423.792 20,1423.792L772,1423.792C783.046,1423.792 792,1414.838 792,1403.792L792,1311.792C792,1300.746 783.046,1291.792 772,1291.792L20,1291.792Z" clip-rule="evenodd" fill-rule="evenodd" fill="#17C2EC"/>
</svg>
