<svg width="74" height="58" viewBox="0 0 74 58" fill="none" xmlns="http://www.w3.org/2000/svg" xmlns:xlink="http://www.w3.org/1999/xlink">
<path d="M58.626,50.025C58.626,51.129 59.521,52.025 60.626,52.025C61.73,52.025 62.626,51.129 62.626,50.025L58.626,50.025ZM48.605,35.539L48.605,33.539L48.605,35.539ZM24.564,35.539L24.564,33.539L24.564,35.539ZM12.543,45.196L10.543,45.196L12.543,45.196ZM10.543,50.025C10.543,51.129 11.438,52.025 12.543,52.025C13.648,52.025 14.543,51.129 14.543,50.025L10.543,50.025ZM62.626,50.025L62.626,45.196L58.626,45.196L58.626,50.025L62.626,50.025ZM62.626,45.196C62.626,41.945 61.015,38.943 58.357,36.808L55.852,39.926C57.703,41.413 58.626,43.324 58.626,45.196L62.626,45.196ZM58.357,36.808C55.711,34.682 52.199,33.539 48.605,33.539L48.605,37.539C51.387,37.539 53.99,38.43 55.852,39.926L58.357,36.808ZM48.605,33.539L24.564,33.539L24.564,37.539L48.605,37.539L48.605,33.539ZM24.564,33.539C20.97,33.539 17.457,34.682 14.811,36.808L17.316,39.926C19.179,38.43 21.781,37.539 24.564,37.539L24.564,33.539ZM14.811,36.808C12.153,38.943 10.543,41.945 10.543,45.196L14.543,45.196C14.543,43.324 15.466,41.413 17.316,39.926L14.811,36.808ZM10.543,45.196L10.543,50.025L14.543,50.025L14.543,45.196L10.543,45.196Z" transform="rotate(0.354 36.584 42.782)" fill="#17C2EC" fill-opacity="0.5"/>
<path d="M46.686,16.225C46.686,20.067 42.63,23.882 36.666,23.882L36.666,27.882C43.978,27.882 50.686,23.049 50.686,16.225L46.686,16.225ZM36.666,23.882C30.701,23.882 26.645,20.067 26.645,16.225L22.645,16.225C22.645,23.049 29.353,27.882 36.666,27.882L36.666,23.882ZM26.645,16.225C26.645,12.383 30.701,8.568 36.666,8.568L36.666,4.568C29.353,4.568 22.645,9.401 22.645,16.225L26.645,16.225ZM36.666,8.568C42.63,8.568 46.686,12.383 46.686,16.225L50.686,16.225C50.686,9.401 43.978,4.568 36.666,4.568L36.666,8.568Z" transform="rotate(0.354 36.666 16.225)" fill="#17C2EC" fill-opacity="0.5"/>
</svg>
