<svg width="60" height="62" viewBox="0 0 60 62" fill="none" xmlns="http://www.w3.org/2000/svg" xmlns:xlink="http://www.w3.org/1999/xlink">
<path d="M48,52.504C48,53.608 48.895,54.504 50,54.504C51.105,54.504 52,53.608 52,52.504L48,52.504ZM40,37.504L40,35.504L40,37.504ZM20,37.504L20,35.504L20,37.504ZM10,47.504L8,47.504L10,47.504ZM8,52.504C8,53.608 8.895,54.504 10,54.504C11.105,54.504 12,53.608 12,52.504L8,52.504ZM52,52.504L52,47.504L48,47.504L48,52.504L52,52.504ZM52,47.504C52,44.321 50.736,41.269 48.485,39.019L45.657,41.847C47.157,43.347 48,45.382 48,47.504L52,47.504ZM48.485,39.019C46.235,36.768 43.183,35.504 40,35.504L40,39.504C42.122,39.504 44.157,40.347 45.657,41.847L48.485,39.019ZM40,35.504L20,35.504L20,39.504L40,39.504L40,35.504ZM20,35.504C16.817,35.504 13.765,36.768 11.515,39.019L14.343,41.847C15.843,40.347 17.878,39.504 20,39.504L20,35.504ZM11.515,39.019C9.264,41.269 8,44.321 8,47.504L12,47.504C12,45.382 12.843,43.347 14.343,41.847L11.515,39.019ZM8,47.504L8,52.504L12,52.504L12,47.504L8,47.504Z" fill="#17C2EC" fill-opacity="0.5"/>
<path d="M38,17.504C38,21.922 34.418,25.504 30,25.504L30,29.504C36.627,29.504 42,24.131 42,17.504L38,17.504ZM30,25.504C25.582,25.504 22,21.922 22,17.504L18,17.504C18,24.131 23.373,29.504 30,29.504L30,25.504ZM22,17.504C22,13.086 25.582,9.504 30,9.504L30,5.504C23.373,5.504 18,10.876 18,17.504L22,17.504ZM30,9.504C34.418,9.504 38,13.086 38,17.504L42,17.504C42,10.876 36.627,5.504 30,5.504L30,9.504Z" fill="#17C2EC" fill-opacity="0.5"/>
</svg>
