<svg width="526" height="332" viewBox="0 0 526 332" fill="none" xmlns="http://www.w3.org/2000/svg" xmlns:xlink="http://www.w3.org/1999/xlink">
<path d="M3.681,253.146C3.752,255.186 4.119,257.214 4.2,259.256C4.246,260.402 4.718,260.682 5.811,260.752C55.789,263.932 50.071,262.908 55.861,263.282C52.701,265.414 28.029,267.372 7.222,263.956C4.696,263.54 4.785,263.536 5.27,266.044C10.542,293.244 29.128,316.856 56.905,323.77C84.088,330.536 114.313,322.718 140.809,313.304C146.653,311.156 153.024,310.782 159.091,312.226C162.88,313.112 173.879,315.886 176.045,319.086C167.489,319.178 153.965,309.818 136.682,317.278C115.505,326.44 87.455,333.07 64.71,329.47C19.12,322.266 -3.984,280.822 0.308,240.073C4.867,196.757 44.291,164.289 86.144,154.805C101.029,151.434 102.489,154.94 102.836,151.717C104.085,141.578 105.943,131.52 108.401,121.593C108.61,119.935 108.686,118.263 108.627,116.592C108.671,116 108.365,115.784 107.821,115.488C93.505,107.97 83.964,89.95 96.455,72.415C98.696,69.27 93.814,69.963 95.31,62.534C98.812,45.117 124.776,34.986 131.742,52.177C140.234,49.329 147.808,51.816 154.871,56.278C164.947,62.642 171.803,71.218 172.96,83.295C173.368,87.563 172.642,91.532 168.058,93.614C167.064,94.064 167.478,94.865 167.445,95.5C166.764,108.682 159.372,119.599 161.511,112.669C163.276,107.556 164.539,102.291 165.284,96.945C165.756,92.518 163.567,95.867 157.391,93.752C148.237,90.972 140.157,85.56 134.207,78.224C130.544,87.611 125.767,94.099 116.129,98.621C124.892,104.565 133.666,110.037 144.005,112.632C145.269,112.95 145.605,112.756 145.503,111.524C145.241,108.291 145.945,101.137 148.098,99.631C148.272,102.72 148.087,105.817 147.546,108.865C147.154,113.391 147.049,113.397 151.57,114.437C154.448,115.231 157.397,115.759 160.377,116.013C162.248,116.094 162.806,116.892 162.585,118.813C161.128,131.528 153.725,139.705 140.596,142.669C139.921,142.723 139.29,143.017 138.823,143.496C138.356,143.974 138.085,144.603 138.062,145.264C134.535,165.62 133.975,165.472 133.111,166.264C130.216,163.675 133.914,149.419 135.283,145.426C135.874,143.701 135.708,143.283 133.735,143.149C115.276,141.888 111.155,126.742 109.916,125.948C105.1,153.269 102.48,161.112 112.16,168.075C115.215,170.53 118.989,171.974 122.938,172.203C126.888,172.429 130.81,171.429 134.14,169.344C134.005,170.263 133.62,171.13 133.025,171.855C132.43,172.58 131.646,173.135 130.757,173.464C119.087,179.286 103.317,169.764 102.729,157.233C102.696,156.532 102.685,155.885 101.694,155.939C67.489,157.763 1.426,189.17 3.681,253.146ZM115.29,100.076C116.289,106.429 116.2,111.845 110.766,115.644C108.726,117.072 112.212,135.747 128.949,140.072C132.375,140.85 135.929,140.93 139.388,140.306C142.848,139.682 146.138,138.368 149.053,136.446C151.968,134.524 154.446,132.035 156.33,129.136C158.215,126.236 159.467,122.988 160.007,119.594C160.253,117.953 160.007,117.708 158.404,117.608C142.362,116.921 127.087,110.709 115.29,100.076ZM114.064,105.039C114.328,103.211 113.979,101.349 113.069,99.731C112.158,98.113 110.735,96.826 109.013,96.064C106.736,94.778 105.665,95.196 105.036,97.756C103.88,102.471 106.516,108.881 108.798,113.189C110.752,116.91 114.042,109.722 114.064,105.039ZM103.675,74.322C105.009,74.01 110.396,65.291 121.306,61.319C122.267,60.971 124.133,60.998 123.743,59.716C122.521,55.747 105.682,65.382 103.664,74.336L103.675,74.322Z" fill="#191919"/>
<path d="M64.558,222.979C62.441,239.668 61.375,256.471 61.364,273.287C61.312,275.93 61.041,274.456 105.919,285.269C131.695,291.482 145.489,282.693 175.609,290.041C182.205,291.657 191.211,297.566 191.443,299.983C185.332,300.743 183.116,291.749 151.531,290.9C131.512,290.361 127.163,294.486 102.102,288.311C60.426,278.04 55.273,275.825 44.026,275.752C43.355,275.752 42.282,275.995 42.207,275.003C42.133,274.011 43.256,274.028 43.899,273.925C56.068,272.12 59.355,276.773 58.861,272.327C57.097,256.234 62.684,223.065 64.558,222.979Z" fill="#191919"/>
<path d="M214.192,304.076C213.333,308.635 207.383,288.157 191.267,258.632C176.581,231.723 171.091,226.765 168.941,221.807C168.827,221.532 168.815,221.228 168.907,220.945C169,220.662 169.191,220.422 169.448,220.263C169.704,220.104 170.01,220.04 170.311,220.077C170.612,220.118 170.889,220.258 171.094,220.476C177.467,226.428 200.629,259.529 214.192,304.076Z" fill="#191919"/>
<path d="M145.015,162.086C144.57,164.027 144.288,166 144.171,167.986C138.927,212.668 107.775,218.372 97.3,180.626C95.048,172.895 94.197,164.842 94.786,156.826C95.108,156.653 95.465,156.549 95.832,156.521C96.199,156.493 96.568,156.542 96.914,156.664C97.935,204.407 127.384,219.983 139.68,178.44C141.485,172.949 142.409,167.215 142.418,161.447C142.493,158.494 145.636,159.93 145.015,162.086Z" fill="#38A1FF"/>
<path d="M229.433,212.223C222.284,203.094 207.488,187.453 206.671,186.693C183.493,165.154 155.799,159.493 146.053,159.194C145.874,159.188 145.697,159.233 145.543,159.322C145.389,159.411 145.265,159.542 145.184,159.698C145.104,159.854 145.072,160.03 145.091,160.204C145.11,160.378 145.179,160.543 145.291,160.679C146.873,162.915 174.271,162.026 202.456,187.286C205.942,190.409 205.799,190.393 203.196,194.418C197.617,203.226 191.244,211.528 184.152,219.229C184.006,219.406 183.933,219.627 183.946,219.854C183.958,220.08 184.056,220.296 184.221,220.455C184.385,220.616 184.604,220.711 184.836,220.721C185.068,220.735 185.296,220.662 185.477,220.519C205.189,205.161 206.453,190.705 208.915,193.537C231.674,219.625 228.235,213.401 245.449,253.103C245.539,253.308 245.702,253.472 245.906,253.566C246.111,253.663 246.345,253.682 246.563,253.623C246.782,253.564 246.972,253.429 247.097,253.246C247.223,253.06 247.275,252.839 247.246,252.618C245.661,242.347 236.457,221.209 229.433,212.223Z" fill="#191919"/>
<path d="M185.411,306.994C178.036,305.873 174.321,300.528 156.199,298.046C155.492,297.949 154.515,298.1 154.427,297.119C154.165,294.196 168.114,295.521 175.577,299.698C182.833,303.758 184.169,304.844 185.411,306.994Z" fill="#191919"/>
<path d="M180.304,313.545C174.812,312.696 167.484,307.431 155.522,306.213C154.733,306.132 153.665,306.283 153.59,305.184C153.419,302.352 167.987,303.343 178.201,310.707C178.743,311.001 179.213,311.408 179.576,311.898C179.939,312.389 180.188,312.949 180.304,313.545Z" fill="#191919"/>
<path d="M133.196,212.25C132.098,212.28 131.034,211.881 130.237,211.143C129.44,210.404 128.975,209.389 128.946,208.316C128.917,207.244 129.325,206.207 130.08,205.428C130.836,204.649 131.877,204.196 132.975,204.167C133.519,204.153 134.06,204.242 134.568,204.434C135.076,204.625 135.541,204.911 135.935,205.274C136.33,205.641 136.647,206.077 136.869,206.562C137.09,207.047 137.211,207.57 137.226,208.101C137.24,208.632 137.148,209.16 136.953,209.655C136.758,210.151 136.466,210.604 136.091,210.989C135.717,211.374 135.269,211.684 134.772,211.903C134.275,212.118 133.74,212.237 133.196,212.25Z" fill="#38A1FF"/>
<path d="M147.419,177.686C152.961,177.686 151.962,186.009 147.325,185.901C142.23,185.788 141.744,177.686 147.419,177.686Z" fill="#38A1FF"/>
<path d="M115.896,207.616C116.942,207.602 117.951,207.993 118.704,208.704C119.456,209.413 119.892,210.383 119.917,211.404C119.942,212.425 119.553,213.414 118.836,214.158C118.118,214.899 117.129,215.338 116.084,215.373C115.559,215.392 115.034,215.308 114.542,215.125C114.05,214.944 113.6,214.67 113.217,214.319C112.835,213.966 112.528,213.543 112.313,213.074C112.1,212.606 111.983,212.099 111.97,211.587C111.958,211.073 112.05,210.563 112.241,210.084C112.432,209.607 112.719,209.17 113.084,208.801C113.449,208.432 113.886,208.136 114.369,207.934C114.851,207.729 115.37,207.621 115.896,207.616Z" fill="#38A1FF"/>
<path d="M100.461,197.843C101.502,197.87 102.495,198.279 103.237,198.993C103.979,199.707 104.414,200.672 104.454,201.688C104.465,202.461 104.241,203.221 103.808,203.868C103.376,204.517 102.757,205.026 102.028,205.328C101.299,205.632 100.494,205.716 99.716,205.573C98.938,205.428 98.221,205.061 97.657,204.517C97.093,203.975 96.707,203.28 96.548,202.523C96.389,201.766 96.465,200.979 96.766,200.262C97.067,199.548 97.578,198.934 98.236,198.503C98.894,198.074 99.668,197.843 100.461,197.843Z" fill="#38A1FF"/>
<path d="M150.11,164.604C151.081,164.624 152.006,165.009 152.692,165.68C153.378,166.35 153.771,167.253 153.789,168.202C153.799,169.223 153.417,170.212 152.717,170.971C152.018,171.731 151.052,172.208 150.011,172.308C148.995,172.251 148.041,171.815 147.346,171.09C146.653,170.362 146.272,169.403 146.285,168.409C146.298,167.417 146.703,166.466 147.415,165.758C148.128,165.049 149.093,164.635 150.11,164.604Z" fill="#38A1FF"/>
<path d="M146.387,196.002C146.436,201.661 139.064,200.583 138.948,196.002C138.917,195.507 138.991,195.011 139.164,194.545C139.336,194.079 139.605,193.65 139.954,193.289C140.302,192.928 140.722,192.64 141.189,192.443C141.656,192.246 142.159,192.144 142.667,192.144C143.176,192.144 143.679,192.246 144.145,192.443C144.612,192.64 145.032,192.928 145.381,193.289C145.729,193.65 145.998,194.079 146.171,194.545C146.344,195.011 146.417,195.507 146.387,196.002Z" fill="#38A1FF"/>
<path d="M89.326,175.382C84.468,175.382 85.034,168.107 89.298,168.078C90.26,168.118 91.169,168.52 91.836,169.196C92.504,169.875 92.878,170.777 92.882,171.718C92.885,172.658 92.518,173.563 91.855,174.245C91.193,174.927 90.287,175.334 89.326,175.382Z" fill="#38A1FF"/>
<path d="M93.234,190.867C89.038,190.756 88.442,183.455 93.449,183.619C94.34,183.676 95.179,184.047 95.81,184.667C96.44,185.284 96.818,186.103 96.874,186.973C96.878,187.949 96.506,188.892 95.831,189.614C95.157,190.333 94.23,190.783 93.234,190.867Z" fill="#38A1FF"/>
<path d="M137.104,86.45C140.441,86.677 142.398,88.668 141.49,89.759C141.36,89.943 141.164,90.074 140.941,90.127C140.718,90.18 140.483,90.15 140.281,90.045C136.163,87.862 131.394,90.783 131.071,89.554C130.726,88.231 135.274,86.553 137.104,86.45Z" fill="#191919"/>
<path d="M158.461,104.654C158.301,105.621 158.008,106.54 156.656,106.653C155.21,106.763 154.834,105.575 154.845,104.414C154.862,103.053 155.199,101.671 156.921,101.571C158.525,101.479 158.718,103.104 158.461,104.654Z" fill="#191919"/>
<path d="M137.032,100.458C136.933,104.042 133.135,103.662 133.405,100.728C133.516,99.531 133.659,98.27 135.235,98.206C136.695,98.157 137.068,99.197 137.032,100.458Z" fill="#191919"/>
<path d="M107.134,97.944C108.284,98.535 109.283,99.371 110.057,100.39C110.831,101.409 111.36,102.585 111.605,103.832C111.92,104.909 110.924,105.362 110.501,104.64C109.012,102.602 107.875,100.34 107.134,97.944Z" fill="#191919"/>
<path d="M401.007,194.27C401.062,188.498 412.193,154.068 416.78,141.098C421.525,127.677 427.224,114.6 431.842,101.134C432.918,97.997 433.931,97.547 437.235,98.054C453.284,100.519 475.646,111.257 495.282,132.206C540.156,180.059 534.612,269.876 465.9,310.241C424.848,334.355 377.028,336.757 344.477,324.487C322.808,315.535 302.218,304.269 283.086,290.9C277.82,286.988 285.04,286.74 290.894,277.555C301.076,261.587 293.549,257.381 299.29,255.552C308.691,252.553 335.096,251.987 345.675,252.289C389.175,253.537 437.629,276.299 438.899,270.751C439.147,269.673 437.925,269.431 437.169,269.054C433.053,266.968 428.792,265.166 424.417,263.665C419.571,262.048 430.313,258.37 449.119,219.002C450.45,216.219 459.718,196.999 458.832,193.747C456.276,193.542 442.272,224.041 417.2,259.462C415.671,261.617 415.82,260.132 397.695,255.126C397.353,255.078 397.024,254.962 396.729,254.787C396.434,254.614 396.177,254.385 395.973,254.11C395.771,253.838 395.625,253.531 395.545,253.202C395.465,252.874 395.454,252.534 395.509,252.203C395.277,241.692 395.793,231.178 397.055,220.74C398.849,207.05 398.269,205.953 399.539,204.175C427.451,165.374 442.551,154.866 451.664,143.665C455.194,139.333 447.615,135.876 455.804,123.654C457.722,120.722 459.445,117.673 460.96,114.525C458.28,116.047 456.006,118.164 454.319,120.703C451.59,124.311 448.327,127.682 447.933,132.527C447.739,133.68 447.739,134.857 447.933,136.01C448.344,137.419 448.322,138.914 447.869,140.31C447.416,141.706 446.555,142.942 445.391,143.865C416.631,170.405 403.695,194.671 401.007,194.27Z" fill="#38A1FF"/>
<path d="M285.788,183.84C302.724,190.226 322.963,204.39 335.079,216.542C338.51,219.98 341.736,223.61 345.172,227.277C345.545,226.759 345.722,226.132 345.672,225.501C345.622,224.871 345.346,224.278 344.897,223.825C338.825,215.629 337.941,215.718 337.952,213.161C338.002,203.048 338.209,190.527 335.791,180.264C333.155,169.077 334.135,199.298 334.433,210.625C304.424,183.075 297.173,190.554 299.724,181.364C310.372,142.876 337.56,123.751 371.588,109.072C381.32,104.871 385.419,106.647 383.363,111.036C376.441,125.836 375.27,124.508 367.744,148.642C363.237,163.095 363.159,170.403 362.224,172.243C359.936,169.805 359.778,159.139 351.512,139.23C351.032,138.072 350.604,136.027 349.252,136.436C348.018,136.811 348.918,138.735 349.163,139.939C356.911,177.392 357.314,179.515 358.639,183.546C361.884,193.427 358.12,218.261 359.566,243.144C359.961,249.967 360.079,248.935 353.996,248.598C303.607,245.817 299.779,254.526 293.039,248.867C280.674,238.615 271.356,225.307 266.063,210.337C265.842,209.981 265.707,209.58 265.668,209.162C265.632,208.747 265.696,208.33 265.853,207.942C266.01,207.554 266.256,207.206 266.573,206.928C266.891,206.648 267.272,206.446 267.683,206.336C285.405,198.126 285.184,184.61 285.788,183.84Z" fill="#38A1FF"/>
<path d="M391.231,100.479C390.276,109.716 392.175,118.74 393.439,128.216C422.695,98.162 425.314,98.685 423.655,95.443C417.716,83.857 414.909,70.345 413.049,64.854C411.539,72.129 410.289,84.59 398.291,93.145C384.234,103.168 360.67,98.925 346.883,71.468C337.061,51.904 342.652,43.985 338.297,45.063C328.386,47.566 311.525,34.7 315.201,18.779C319.118,1.836 339.434,-3.138 356.425,1.284C374.536,5.994 385.096,-8.381 402.704,8.756C407.998,13.89 411.608,20.445 413.076,27.587C413.22,28.261 413.22,28.743 414.219,28.805C423.385,29.36 424.809,38.626 419.584,46.076C417.581,48.909 416.319,52.179 415.914,55.599C415.505,59.018 415.966,62.483 417.252,65.689C420.142,75.721 423.567,85.598 427.514,95.279C427.864,96.093 427.92,96.999 427.674,97.848C427.428,98.697 426.893,99.439 426.159,99.954C421.304,104.914 416.667,110.069 411.578,114.819C403.403,122.444 394.444,131.223 393.538,131.869C392.023,132.947 390.461,132.46 390.226,130.652C388.645,119.103 387.436,110.888 390.707,100.342L391.231,100.479ZM354.92,74.551C358.009,74.184 360.247,74.012 362.455,73.64C375.64,71.485 386.34,65.662 393.21,54.011C394.408,51.982 395.142,50.414 392.84,48.73C389.567,46.338 382.794,20.978 361.583,26.248C352.169,28.584 340.027,37.074 341.659,46.421C343.033,55.003 345.732,63.333 349.663,71.126C351.023,73.748 352.423,75.653 354.92,74.551ZM353.433,77.059C373.214,104.812 406.149,99.154 410.603,60.92C410.935,58.083 404.222,61.601 403.364,42.474C394.905,55.278 393.955,60.666 387.971,65.721C378.372,73.679 366.007,77.737 353.433,77.059ZM419.444,38.238C419.32,31.933 415.781,30.311 413.305,31.998C404.959,37.68 403.811,50.616 410.068,56.035C411.001,56.843 412.174,57.129 412.386,55.593C413.317,48.795 419.535,42.813 419.444,38.238ZM341.581,9.101C336.76,8.251 331.789,9.024 327.475,11.291C325.568,12.152 323.934,13.497 322.739,15.186C321.547,16.874 320.843,18.845 320.696,20.891C320.575,21.751 320.454,22.777 321.524,23.147C322.725,23.567 323.042,22.532 323.399,21.756C328.367,11.003 340.384,11.205 341.581,9.101Z" fill="#191919"/>
<path d="M247.466,158.644C245.04,157.073 243.635,159.695 245.228,161.131C246.757,162.511 245.128,162.16 240.635,169.484C237.917,173.916 235.907,166.423 232.065,172.157C222.334,186.677 229.899,173.814 213.353,199.287C206.673,209.569 201.242,214.96 205.517,217.032C209.232,218.832 204.62,220.209 196.025,236.289C195.545,237.186 194.284,238.598 195.567,239.331C196.787,240.024 197.447,238.356 198.087,237.472C209.662,221.535 208.208,219.277 210.59,220.098C217.117,222.354 216.535,221.626 238.292,188.636C238.646,188.086 239.057,187.571 239.52,187.105C240.828,183.923 248.14,178.704 242.598,173.647C241.234,172.402 242.004,172.464 246.956,165.097C249.321,161.576 250.45,165.668 251.901,163.211C252.525,162.155 251.896,161.514 247.466,158.644ZM222.452,203.053C220.228,207.809 214.578,216.814 212.823,215.448C211.719,214.602 211.41,214.101 220.341,203.097C221.122,202.145 222.706,202.512 222.452,203.053ZM227.884,199.766C226.595,201.922 226.043,200.553 220.219,196.956C219.093,196.261 218.988,195.549 219.739,194.466C222.996,189.775 226.087,184.963 229.468,180.356C231.475,177.632 232.822,180.641 237.928,182.301C238.012,182.328 238.102,182.328 238.187,182.304C238.272,182.279 238.347,182.231 238.403,182.164C238.459,182.096 238.492,182.015 238.5,181.929C238.507,181.843 238.487,181.757 238.444,181.681C237.447,180.269 236.132,179.1 234.602,178.262C231.127,175.732 234.111,171.796 236.258,172.706C238.173,173.523 239.95,174.617 241.529,175.953C244.83,178.742 239.454,180.45 227.884,199.766Z" fill="#38A1FF"/>
<path d="M285.082,184.519C284.61,185.413 284.334,186.58 283.362,186.58C264.71,178.408 266.25,155.308 248.675,154.81C243.183,154.656 241.737,157.755 239.178,162.624C238.176,164.534 237.304,162.098 237.246,160.654C236.832,150.798 250.436,145.458 262.243,155.966C272.364,164.973 273.181,176.419 284.706,182.789C284.985,182.975 285.178,183.258 285.247,183.581C285.316,183.902 285.258,184.239 285.082,184.519Z" fill="#191919"/>
<path d="M266.592,200.535C265.097,201.289 263.813,201.866 262.599,202.566C256.453,206.107 245.178,206.161 244.201,199.271C251.973,199.659 260.209,196.175 261.722,191.603C252.47,194.876 249.282,196.401 245.338,195.733C242.68,195.283 240.955,193.64 241.022,191.748C241.165,187.626 245.225,195.768 256.478,187.631C257.192,187.275 257.778,186.715 258.159,186.028C258.54,185.338 258.696,184.554 258.608,183.775C256.914,184.508 255.365,185.198 253.803,185.847C242.448,190.587 240.831,184.104 238.347,191.104C237.613,196.967 241.811,196.528 241.436,198.967C239.895,209.038 256.37,212.134 264.067,205.498C264.895,204.959 265.566,204.215 266.007,203.345C266.452,202.475 266.653,201.505 266.592,200.535Z" fill="#191919"/>
<path d="M260.864,243.055C261.206,242.91 261.281,242.84 261.336,242.851C269.615,244.583 278.171,245.359 285.821,249.35C288.617,250.807 296.017,256.719 293.607,258.804C292.49,259.772 291.675,258.616 291.016,257.926C283.762,250.161 277.453,251.476 264.953,246.071C263.291,245.526 261.854,244.467 260.864,243.055Z" fill="#191919"/>
<path d="M262.623,287.241C256.144,287.308 249.652,284.291 250.204,282.841C250.66,281.685 251.86,282.72 252.708,282.841C277.039,286.497 281.229,279.284 282.534,281.346C283.663,283.129 276.503,287.093 262.623,287.241Z" fill="#191919"/>
<path d="M245.013,259.176C249.404,260.122 253.262,261.897 257.372,262.916C262.891,264.284 268.858,264.451 268.798,266.098C268.765,267.003 267.754,267.035 267.067,267.159C255.401,269.266 245.399,262.479 245.013,259.176Z" fill="#191919"/>
<path d="M266.052,259.133C260.256,258.632 259.624,258.19 250.417,253.394C249.705,253.022 248.783,252.489 249.106,251.583C249.768,249.719 251.891,252.259 268.87,256.22C269.515,256.371 270.25,256.581 270.308,257.387C270.396,258.761 268.522,258.767 266.052,259.133Z" fill="#191919"/>
<path d="M244.367,270.105C244.946,269.027 245.962,270.045 246.674,270.315C256.61,274.063 264.489,272.899 264.589,274.701C264.807,278.6 241.852,274.814 244.367,270.105Z" fill="#191919"/>
<path d="M376.264,35.169C369.656,35.115 367.81,38.941 366.452,37.864C365.82,37.357 366.146,36.635 366.397,36.042C367.931,32.459 375.331,30.855 378.348,33.442C378.795,33.825 379.377,34.283 379.176,34.87C378.958,35.517 378.839,35.188 376.264,35.169Z" fill="#191919"/>
<path d="M370.225,68.574C370.225,70.037 368.464,70.019 367.611,68.127C366.112,64.491 364.824,60.776 363.747,56.999C363.595,56.52 363.416,55.965 364.045,55.652C366.066,54.701 369.59,66.535 370.225,68.574Z" fill="#191919"/>
<path d="M343.505,51.357C343.152,50.26 343.08,49.095 343.298,47.964C343.514,46.834 344.013,45.773 344.75,44.875C345.487,43.977 346.436,43.271 347.521,42.817C348.603,42.363 349.784,42.177 350.957,42.274C352.186,42.293 352.693,43.996 351.035,44.61C345.799,46.545 346.853,46.116 343.505,51.357Z" fill="#191919"/>
<path d="M373.981,53.089C374.186,49.5 378.748,50.934 378.767,54.205C378.792,57.84 374.086,56.767 373.981,53.089Z" fill="#191919"/>
<path d="M353.29,61.343C353.455,58.414 358.029,60.068 357.849,63.45C357.686,66.562 353.08,65.107 353.29,61.343Z" fill="#191919"/>
<path d="M415.627,37.602C415.997,39.593 412.696,40.531 410.25,46.421C408.412,50.851 406.464,41.994 415.627,37.602Z" fill="#191919"/>
<path d="M254.416,173.806C254.466,175.153 251.275,174.929 247.273,176.848C246.721,177.117 246.371,176.953 246.144,176.341C245.75,175.279 244.692,174.272 246.061,173.647C247.351,172.973 248.797,172.631 250.26,172.66C251.723,172.687 253.154,173.081 254.416,173.806Z" fill="#191919"/>
</svg>
