<svg width="506" height="576" viewBox="0 0 506 576" fill="none" xmlns="http://www.w3.org/2000/svg" xmlns:xlink="http://www.w3.org/1999/xlink">
<path d="M352.139,187.264C352.883,192.004 353.589,196.75 354.261,201.503C359.079,233.934 362.487,262.542 365.003,290.637C368.171,304.801 371.829,318.855 375.969,332.772C373.425,334.754 370.949,336.812 368.541,338.944C368.679,341.286 368.811,343.64 368.939,346.004C372.417,342.744 376.007,339.61 379.703,336.604C381.363,335.324 381.051,334.332 380.051,331.172C379.917,330.738 379.767,330.267 379.607,329.747C377.657,323.367 375.083,312.257 373.203,304.135L373.149,303.905C366.381,274.695 355.895,222.799 356.949,173.705C357.803,134.302 369.285,117.04 394.101,161.358C435.071,234.517 467.391,401.474 450.893,466.234C449.963,469.888 449.253,471.692 449.315,473.464C449.409,476.046 451.133,478.568 456.185,486.642C471.303,510.8 483.333,531.806 492.753,548.966C494.919,552.9 501.897,564.682 503.819,563.834C505.419,563.126 501.119,553.73 499.889,551.426C486.497,526.112 469.235,495.924 454.325,473.55C453.723,472.644 453.947,472.018 454.533,470.372C455.153,468.622 456.183,465.724 457.067,460.122C476.007,339.958 405.023,119.053 367.295,130.816C362.195,132.411 358.479,137.474 356.559,144.132C353.219,155.716 352.091,171.399 352.139,187.264ZM326.015,470.414C324.647,470.792 323.235,471.168 321.777,471.546C321.959,472.348 322.149,473.146 322.347,473.946C325.025,484.964 330.881,499.162 334.547,503.528C336.009,505.272 337.955,505.074 333.707,494.582C330.407,486.438 327.843,478.38 326.015,470.414ZM99.352,393.762C89.987,398.81 80.788,404.168 71.814,409.92C61.491,416.54 47.598,429.334 52.23,439.782C55.206,446.488 63.987,447.668 71.268,447.602C84.697,447.486 98.088,446.572 111.372,444.872C111.871,446.64 112.363,448.324 112.847,449.92C108.558,450.582 104.255,451.17 99.942,451.678C75.939,454.514 48.018,457.14 46.299,437C44.775,419.144 74.91,400.684 93.18,391.908C93.24,391.878 93.286,391.826 93.31,391.762C93.334,391.702 93.334,391.632 93.31,391.568C93.285,391.506 93.238,391.454 93.178,391.424C93.118,391.396 93.049,391.39 92.985,391.408C65.895,400.306 30.222,406.582 18.267,395.136C15.632,392.47 13.996,388.962 13.641,385.216C13.285,381.47 14.231,377.714 16.317,374.59C22.437,364.822 31.89,357.716 41.436,351.34C55.903,341.674 71.012,333.176 86.477,325.316C86.82,327.298 87.163,329.269 87.507,331.226C56.518,347.874 27.118,366.026 20.757,377.06C10.995,393.956 34.86,397.482 54.438,394.562C64.793,393.018 81.426,388.198 97.185,383.1C97.912,386.738 98.635,390.294 99.352,393.762ZM71.078,227.344C49.903,236.698 32.416,246.311 22.368,253.74C15.915,258.507 1.974,270.007 6.639,279.821C12.484,292.126 46.012,288.467 79.42,282.773C79.693,284.491 79.966,286.205 80.241,287.914C34.224,295.824 -3.891,298.712 0.117,273.781C2.058,261.7 13.821,252.651 23.121,246.171C33.369,239.033 50.129,230.226 70.28,221.688C70.544,223.573 70.81,225.458 71.078,227.344ZM196.914,486.592C199.113,486.55 201.313,486.496 203.511,486.432C222.557,509.96 253.101,529.724 296.439,539.66C296.855,539.754 297.231,539.978 297.515,540.298C297.801,540.616 297.977,541.018 298.025,541.446C298.251,543.45 298.587,546.23 298.955,549.314C300.063,558.506 301.491,570.378 301.325,572.294C301.167,574.148 300.687,575.604 299.555,575.534C297.015,575.376 295.125,560.682 294.015,546.53C248.615,535.858 216.303,513.442 196.914,486.592Z" clip-rule="evenodd" fill-rule="evenodd" fill="#38A1FF"/>
<path d="M322.647,53.241C337.659,101.84 348.791,151.59 355.935,202.014C368.529,286.522 371.571,345.232 374.147,436.026C374.549,450.292 374.015,455.11 360.005,461.162C345.357,467.482 321.579,477.148 266.277,484.248C233.873,488.082 201.25,489.7 168.63,489.09C151.581,488.6 131.076,485.758 118.899,470.174C102.15,448.758 60.582,202.418 51.999,73.119C50.751,54.286 65.433,42.377 82.278,34.169C103.992,23.594 116.566,20.361 138.384,14.75L139.716,14.407C184.155,2.98 286.875,-5.267 302.445,5.676C308.057,9.614 310.959,17.897 313.127,24.095L313.355,24.742C313.575,25.383 313.797,26.024 314.013,26.665C312.501,25.83 311.001,25.049 309.539,24.337C308.087,20.409 306.675,16.902 305.307,13.896C302.999,8.818 299.859,5.982 291.131,4.638C275.207,2.187 222.63,4.324 187.707,9.078C155.889,13.409 118.065,21.628 88.527,34.309C71.526,41.611 67.077,43.993 66.927,62.151C66.426,121.909 110.751,397.488 138.762,473.388C142.989,484.838 156.564,485.428 168.778,485.958L168.806,485.958C169.248,485.976 169.689,485.996 170.127,486.014C192.033,486.992 266.523,482.19 302.823,474.448C315.707,471.7 360.291,461.578 368.043,450.766L368.135,450.64L368.309,450.4C371.009,446.708 371.205,446.442 368.043,378.332C364.559,303.272 358.721,245.624 350.493,194.633C345.203,161.835 332.501,101.691 319.971,57.296C320.223,56.908 320.477,56.514 320.735,56.113C320.825,55.972 320.915,55.836 320.999,55.704C321.683,54.64 322.205,53.831 322.647,53.241ZM300.981,37.6C299.801,35.033 299.093,35.111 297.993,35.232C297.891,35.243 297.785,35.255 297.675,35.265C288.375,36.106 227.589,44.286 194.574,48.741C165.048,52.721 101.754,64.911 88.404,68.766L87.946,68.898C86.277,69.376 85.187,69.688 84.521,70.403C83.266,71.748 83.513,74.519 84.227,82.509C84.388,84.318 84.574,86.395 84.771,88.783C94.437,205.854 128.514,403.826 147.771,449.88C147.916,450.226 148.039,450.542 148.153,450.83C148.5,451.718 148.746,452.344 149.182,452.782C150.241,453.842 152.421,453.764 159.904,453.5L160.896,453.464C229.545,451.042 358.575,432.43 358.941,423.354C359.591,406.966 352.581,250.06 321.335,111.854C320.957,111.899 320.549,111.922 320.109,111.922C319.077,111.867 318.047,111.756 317.031,111.59C338.981,210.634 352.769,341.286 355.313,421.382C355.383,423.538 285.369,441.026 152.313,451.114C152.202,451.124 152.099,451.134 152.003,451.142C151.379,451.202 151.049,451.236 150.87,450.628C113.349,322.93 84.3,73.605 86.583,73.061C89.233,72.428 91.3,71.912 92.933,71.504L92.935,71.504C95.056,70.974 96.445,70.627 97.425,70.446C185.202,54.167 293.375,39.653 297.293,39.217C297.711,40.422 298.125,41.64 298.539,42.872C300.437,39.798 300.935,38.346 300.981,37.6ZM308.087,74.835C308.205,74.668 308.325,74.498 308.447,74.324C309.213,73.235 310.083,71.994 311.069,70.574C313.187,78.309 315.215,86.163 317.159,94.104C315.401,92.325 313.587,90.602 311.723,88.937C310.533,84.132 309.321,79.428 308.087,74.835ZM238.707,471.262C234.645,469.388 234.069,466.38 235.293,464.038C241.242,452.646 291.437,444.866 300.393,453.412C311.999,464.494 254.873,478.718 238.707,471.262ZM239.781,465.088C235.62,469.352 262.551,469.878 278.519,465.538C286.187,463.454 303.143,457.77 295.805,454.876C284.939,450.588 247.968,456.702 239.781,465.076L239.781,465.088ZM158.228,34.134C158.515,34.446 158.889,34.664 159.3,34.759C166.818,37.35 203.232,31.851 211.947,27.136C212.396,26.919 212.759,26.554 212.975,26.101C213.192,25.648 213.249,25.135 213.138,24.645C213.027,24.155 212.755,23.718 212.365,23.405C211.975,23.092 211.491,22.922 210.993,22.923C198.051,21.234 168.153,24.276 158.721,30.858C158.355,31.071 158.062,31.39 157.878,31.773C157.694,32.157 157.63,32.587 157.692,33.008C157.754,33.429 157.941,33.822 158.228,34.134ZM245.799,22.963C245.798,23.828 245.626,24.684 245.292,25.481C244.958,26.278 244.469,26.999 243.855,27.603C243.24,28.206 242.512,28.679 241.713,28.993C240.914,29.308 240.061,29.458 239.203,29.435C238.346,29.412 237.502,29.216 236.721,28.858C235.94,28.5 235.238,27.989 234.657,27.353C234.075,26.717 233.625,25.971 233.334,25.157C233.043,24.343 232.917,23.479 232.962,22.615C232.985,21.746 233.186,20.891 233.552,20.103C233.918,19.316 234.442,18.614 235.089,18.04C235.737,17.466 236.495,17.034 237.317,16.77C238.138,16.506 239.005,16.415 239.862,16.505C241.473,16.637 242.976,17.374 244.075,18.57C245.174,19.765 245.789,21.333 245.799,22.963ZM242.637,22.818C242.621,21.924 242.266,21.069 241.644,20.432C241.022,19.794 240.181,19.422 239.295,19.392C238.456,19.55 237.692,19.982 237.12,20.62C236.548,21.259 236.199,22.069 236.127,22.927C236.189,23.764 236.566,24.545 237.181,25.111C237.796,25.676 238.601,25.983 239.433,25.97C240.265,25.956 241.06,25.621 241.656,25.036C242.251,24.45 242.602,23.656 242.637,22.818Z" clip-rule="evenodd" fill-rule="evenodd" fill="#38A1FF"/>
<path d="M232.8,270.258C211.83,269.542 193.548,257.772 178.137,245.552C172.953,241.43 158.484,270.21 147.714,281.51C147.116,282.066 146.352,282.404 145.543,282.476C144.733,282.546 143.923,282.344 143.24,281.9C142.557,281.456 142.038,280.796 141.767,280.024C141.495,279.252 141.485,278.41 141.738,277.63C142.515,275.602 143.391,274.156 153.978,259.336C164.778,244.226 165.828,244.184 165.741,241.178C165.93,239.626 166.347,238.11 166.977,236.68C168.477,234.33 159.735,229.488 149.601,214.122C135.384,192.559 124.599,174.071 119.838,144.616C118.314,135.189 117,132.928 136.638,117.01C154.744,102.956 174.061,90.566 194.358,79.988C203.847,75.089 205.806,75.086 213.666,76.417C228.246,78.884 239.529,82.794 242.55,83.281C245.223,83.711 245.328,83.139 246.336,81.943C248.436,79.459 252.087,74.184 252.594,73.315C253.161,72.341 252.777,71.89 251.289,70.289C240.627,58.816 243.837,52.079 254.427,54.307C263.331,56.795 271.809,60.634 279.57,65.692C280.8,66.551 281.142,66.209 281.466,65.74C300.813,37.813 301.017,38.83 299.85,37.165C297.957,34.469 290.67,30.205 290.694,24.052C290.694,20.708 293.493,18.568 298.251,19.576C310.671,22.206 335.751,38.694 341.451,47.292C342.193,48.21 342.649,49.329 342.763,50.509C342.877,51.688 342.643,52.874 342.087,53.919C339.267,58.217 331.065,55.351 325.791,53.084C322.905,51.843 324.141,51.595 317.232,61.86C303.975,81.532 303.039,81.414 304.932,82.772C309.867,86.578 314.508,90.76 318.81,95.28C323.437,100.761 326.811,107.316 324.655,110.563C321.823,114.825 310.311,110.963 306.99,108.829C305.415,107.816 303.639,110.394 304.242,112.406C306.588,120.257 307.932,144.183 305.622,158.87C301.923,182.367 300.117,188.301 293.829,205.585C285.087,229.584 257.448,271.106 232.8,270.258ZM183.9,199.405C186.825,201.793 190.428,205.034 193.179,206.971C199.128,211.165 210.279,218.12 215.649,216.437C219.363,215.272 222.207,212.007 225.849,207.334C265.584,156.491 291.816,117.53 298.476,109.241C299.739,107.67 299.757,106.662 299.676,106.551C296.313,104.228 292.806,102.127 289.176,100.262C272.34,89.972 258.132,75.827 257.115,77.304C253.875,82.001 252.669,82.921 254.082,83.919C260.571,88.498 268.863,94.369 271.182,98.446C272.382,100.564 270.687,101.639 266.532,100.386C264.183,99.675 251.055,90.027 249.849,89.552C248.643,89.076 248.007,90.302 245.631,93.743C245.286,94.242 245.538,94.769 246.114,95.117C248.824,96.739 251.357,98.645 253.671,100.803C256.176,102.967 255.528,104.266 254.55,105.019C253.572,105.773 251.529,105.927 248.211,104.075C241.269,100.222 242.247,98.776 241.281,100.086C237.474,105.258 237.6,104.928 238.512,105.779C238.587,105.848 249.942,114.504 246.54,116.531C245.604,117.088 242.568,116.02 238.932,113.557C234.18,110.333 234.231,109.819 232.932,111.692C230.394,115.357 230.076,115.651 231.591,116.607C234.548,118.46 237.171,120.807 239.349,123.546C239.451,123.909 239.455,124.293 239.361,124.658C239.266,125.023 239.077,125.356 238.812,125.623C238.548,125.889 238.218,126.08 237.856,126.174C237.494,126.269 237.114,126.264 236.754,126.161C233.734,124.886 230.902,123.196 228.339,121.141C226.761,120.172 226.989,120.057 223.956,124.276C222.531,126.258 222.321,126.667 223.473,127.396C239.223,137.383 241.113,141.117 240.114,142.67C239.651,143.236 239.009,143.624 238.296,143.771C237.584,143.918 236.842,143.815 236.196,143.478C230.365,140.872 224.915,137.474 219.996,133.379C218.346,131.942 217.983,132.71 216.846,134.329C213.36,139.293 213.246,138.942 214.446,140.034C219.327,144.465 219.48,144.595 220.398,146.526C221.265,148.341 218.841,148.514 217.134,148.075C211.572,146.65 211.23,142.24 209.301,144.949C205.722,149.973 204.927,150.862 205.734,151.546C207.882,153.174 209.909,154.957 211.8,156.882C213,158.477 211.701,160.008 209.73,160.105C207.945,159.924 206.245,159.248 204.816,158.153C202.437,156.691 201.795,155.499 201.036,156.558C197.574,161.4 197.37,161.512 198.213,162.199C200.822,164.041 203.021,166.411 204.669,169.16C205.242,170.609 203.334,171.653 202.083,171.369C199.428,170.423 196.997,168.928 194.946,166.981C194.1,166.324 193.542,167.017 190.671,170.988C186.687,176.496 187.071,175.878 188.223,177.125C192.828,182.146 201.018,186.507 203.28,189.693C204.039,190.756 202.482,193.513 199.257,192.587C193.334,190.447 188.035,186.846 183.843,182.112C182.943,181.138 183.18,181.274 178.845,186.918C175.947,190.695 177.108,191.845 178.269,193.613C179.851,195.815 181.749,197.767 183.9,199.405ZM212.805,128.355C211.038,119.241 208.764,110.233 205.995,101.375C205.662,100.331 205.155,100.238 204.15,100.719C180,112.273 155.067,130.362 145.44,140.906C144.411,142.031 144.387,142.603 144.84,144.807C149.062,165.842 157.871,185.667 170.628,202.843C173.61,207.08 173.982,207.364 174.696,206.245C178.275,200.625 177.96,200.997 176.844,200.001C174.545,197.901 172.862,195.205 171.978,192.205C171.582,189.497 172.533,185.302 178.161,178.696C178.722,178.036 199.563,147.648 212.01,130.407C212.497,129.834 212.776,129.11 212.802,128.355L212.805,128.355ZM281.823,141.335C280.923,141.798 281.454,141.072 259.428,171.009C231.69,208.702 234.087,202.661 234.6,210.56C234.6,210.636 236.931,233.374 236.952,243.68C236.952,244.404 237.618,244.612 238.41,244.144C270.144,225.32 284.7,178.357 281.82,141.335L281.823,141.335ZM306.51,42.262C305.376,41.426 304.71,40.24 303.459,41.072C303.045,41.348 281.733,71.744 280.461,74.041C279.96,74.949 281.481,76.883 284.718,79.422C287.484,81.414 290.382,83.213 293.391,84.806C294.189,85.236 295.401,86.077 297.144,84.047C298.698,82.231 319.407,52.306 319.479,51.613C319.687,49.558 314.22,47.942 306.507,42.262L306.51,42.262ZM315,107.943C317.925,109.087 320.023,108.851 320.805,107.728C324.033,103.149 307.455,90.95 302.943,87.654C300.393,85.796 300.468,86.344 299.796,87.2C298.554,88.786 297.396,90.556 295.743,89.96C288.687,87.412 278.541,80.134 276.843,76.808C276.414,76.205 276.195,75.478 276.216,74.737C276.237,73.996 276.501,73.283 276.963,72.707C278.424,70.325 278.577,69.55 277.584,68.945C259.584,57.929 251.241,56.71 249.513,58.256C244.569,62.681 287.334,97.114 315,107.943ZM230.754,246.09C234.078,245.93 229.026,217.745 228.117,214.379C226.998,210.233 224.61,225.88 209.337,221.004C207.951,220.56 207.597,220.612 206.589,221.912C204.608,224.604 202.428,227.138 200.067,229.496C198.642,231.048 198.483,231.424 210.441,237.668C217.164,241.178 227.376,246.254 230.754,246.09ZM200.325,217.978C198.843,216.256 199.962,218.492 183.672,206.193C182.49,205.3 182.04,206.859 181.788,207.376C174.309,222.912 174.588,222.246 174.408,223.08C173.604,226.5 180.654,231.856 183.873,233.37C187.041,234.86 186.195,234.078 193.884,225.41C196.275,223.16 198.434,220.67 200.325,217.978ZM295.125,26.858C305.235,40.174 336.525,57.372 338.961,51.976C339.331,51.159 340.531,47.891 319.479,33.437C313.41,29.569 307.014,26.249 300.366,23.513C294.738,21.201 293.025,24.079 295.134,26.861L295.125,26.858ZM219.105,120.163C220.428,118.562 219.228,120.227 228.351,107.289C228.984,106.381 229.764,105.404 228.621,104.94C228.543,104.91 215.145,101.527 213.09,101.433C213.234,104.269 212.88,101.63 215.979,111.45C218.766,120.284 217.875,119.195 219.105,120.163Z" fill="#38A1FF"/>
<path d="M196.332,394.259C193.716,394.151 194.646,394.638 193.224,388.612C192.855,387.042 191.04,389.296 187.695,389.118C186.837,389.072 185.706,389.03 185.523,387.813C184.641,381.96 185.061,382.094 183.471,382.411C179.217,383.268 179.712,383.413 179.097,382.284C178.101,380.468 179.34,379.996 177.201,375.98C177.093,375.778 175.92,375.79 175.701,375.902C173.73,376.894 170.451,376.788 169.38,377.778C168.933,378.19 169.428,378.643 169.494,379.088C170.295,384.642 170.433,384.463 169.134,384.666C161.73,385.816 162.834,386.539 161.703,379.848C161.559,378.992 161.301,379.243 156.348,380.081C155.148,380.287 154.89,380.184 154.509,379.019C152.295,372.234 155.244,373.011 159.681,372.421C160.824,372.27 161.415,372.267 161.646,373.105C162.735,377.04 161.961,377.72 163.128,377.391C167.478,376.159 168.411,377.279 168.255,376.162C167.541,370.984 165.771,370.109 175.104,369.465C176.322,369.38 176.769,369.192 177.633,371.698C178.173,373.263 177.609,374.724 179.04,374.473C183.981,373.638 184.764,373.142 185.184,374.624C187.074,381.282 185.649,381.01 190.188,380.184C191.436,379.957 191.343,379.957 191.211,378.625C190.734,373.819 189.684,374.028 190.713,372.915C191.585,372.152 192.705,371.737 193.86,371.756C194.809,371.498 195.802,371.453 196.77,371.628C197.613,371.889 199.284,370.509 199.596,372.306C200.691,378.586 200.475,378.734 201.204,378.643C208.785,377.72 206.304,378.762 205.269,367.053C205.23,366.614 205.359,366.399 205.836,366.317C215.136,364.74 211.665,363.975 213.957,371.432C214.125,371.982 214.353,372.119 214.812,372.037C220.41,371.174 219.912,372.2 218.628,365.751C218.277,363.99 218.682,364.22 225.462,363.515C226.266,363.433 226.662,363.839 226.938,364.604C227.579,366.311 227.982,368.103 228.138,369.922C228.186,370.684 228.831,370.905 229.059,371.462C229.245,371.919 231.21,370.288 235.218,371.208C236.118,371.411 235.956,371.813 237.138,379.379C237.159,379.536 237.144,379.694 237.095,379.845C237.046,379.993 236.964,380.132 236.855,380.244C236.747,380.359 236.614,380.444 236.467,380.499C236.32,380.553 236.163,380.574 236.007,380.559C234.767,380.68 233.543,380.931 232.356,381.313C231.318,381.488 231.516,381.679 232.029,386.781C232.101,387.517 232.893,389.726 230.829,390.032C219.87,391.648 221.769,394.592 219.84,386.585C219.627,385.704 222.123,385.634 223.788,385.268C225.288,384.938 224.559,383.667 224.37,382.687C223.866,380.039 224.289,380.568 221.772,380.602C219.399,380.632 218.664,381.685 218.346,380.741C217.227,377.427 218.52,376.461 216.495,376.428C214.635,376.468 212.804,376.894 211.116,377.684C210.549,378.138 211.218,378.74 211.272,379.285C211.401,380.577 211.722,381.848 211.956,383.129C212.646,386.884 210.651,385.55 204.663,386.63C202.302,387.054 201.69,387.217 201.171,385.023C200.01,380.069 200.388,379.769 198.975,379.963C195.321,380.462 192.165,380.717 192.78,381.394C193.589,382.672 194.093,384.124 194.25,385.631C194.898,387.729 199.179,383.716 200.088,387.995C201.357,393.996 200.355,393.572 196.32,394.281L196.332,394.259Z" fill="#38A1FF"/>
<path d="M222.531,408.722C222.807,410.792 220.248,411.313 217.26,411.939C215.508,412.309 215.76,412.312 214.341,407.742C214.32,407.678 214.191,406.779 213.624,406.931C210.816,407.678 210.357,407.763 210.624,408.444C210.846,409.049 212.1,410.895 210.342,411.51C207.549,412.484 205.941,412.814 205.29,410.514C203.727,405.018 204.177,404.461 203.154,404.906C201.054,405.814 199.992,405.324 200.28,406.798C200.28,406.861 201.255,408.989 199.08,409.394C199.02,409.394 197.634,409.491 197.331,409.851C197.028,410.211 198.63,412.227 196.917,412.781C195.877,413.25 194.756,413.513 193.617,413.556C193.176,413.537 192.755,413.368 192.422,413.074C192.09,412.781 191.867,412.384 191.79,411.946C191.523,405.944 187.917,401.417 191.601,400.282C194.749,399.247 198.022,398.651 201.33,398.508C200.766,395.818 200.49,395.543 201.846,395.116C205.407,393.999 205.854,394.668 205.446,392.114C204.795,388.14 203.727,388.546 210.078,387.359C213.522,386.715 211.878,391.968 213.807,391.708C214.738,391.754 215.671,391.66 216.573,391.424C216.929,391.342 217.295,391.312 217.659,391.336C217.919,391.282 218.189,391.336 218.41,391.484C218.631,391.633 218.785,391.863 218.838,392.126C221.067,399.649 221.295,398.651 216.039,400.233C214.71,400.633 214.269,400.512 214.659,401.789C215.916,405.908 215.292,403.22 219.882,403.378C221.52,403.429 222.486,407.046 222.531,408.722ZM208.389,402.367C207.555,397.782 208.026,399.431 204.876,399.498C203.01,399.537 202.929,399.498 203.577,401.278C203.686,401.889 203.9,402.476 204.21,403.012C204.645,403.505 205.338,402.872 205.935,402.987C206.66,403.042 207.389,402.939 208.071,402.685C208.227,402.639 208.332,402.431 208.389,402.379L208.389,402.367Z" fill="#38A1FF"/>
<path d="M181.996,390.216C183.547,390.38 183.631,390.791 184.138,392.205C184.534,393.306 188.764,411.27 188.368,417.568C188.236,419.687 175.398,420.825 173.994,420.982C166.632,421.811 161.715,421.642 161.301,419.793C159.363,411.113 156.501,399.931 157.323,394.471C157.425,393.793 163.386,391.82 169.536,390.9C173.663,390.319 177.831,390.089 181.996,390.216ZM178.954,393.793C168.048,394.635 171.93,394.925 162.72,395.782C161.691,395.875 161.559,396.033 161.82,397.068C161.946,397.561 164.178,411.174 164.865,415.365C165.015,416.291 165.36,417.568 167.067,417.411C169.395,417.196 174.216,416.691 184.054,415.759C184.855,415.683 184.675,415.435 183.754,410.033C181.831,398.629 182.044,399.08 181.219,395.673C180.688,393.43 181.201,393.914 178.954,393.793Z" fill="#38A1FF"/>
<path d="M208.872,362.552C207.728,362.531 206.595,362.328 205.515,361.947C205.029,361.85 204.584,361.608 204.242,361.248C203.899,360.885 203.675,360.428 203.601,359.935C202.101,352.92 197.649,336.256 200.028,334.114C202.506,331.88 225.528,326.817 226.635,331.296C227.742,335.775 231.258,348.138 231.357,355.81C231.387,358.164 231.444,358.231 229.341,359.254C225.9,360.906 216.423,361.62 208.872,362.552ZM221.319,334.053C211.755,334.722 220.641,334.186 205.2,335.99C203.4,336.199 203.946,336.008 205.245,344.113C207.075,355.528 207.306,355.086 207.171,357.341C207.117,358.291 208.875,357.456 218.676,356.802C219.036,356.778 226.632,356.088 226.698,356.043C227.379,355.586 226.557,354.917 226.605,354.321C226.605,354.163 226.104,350.913 226.083,350.768C223.602,333.43 223.761,334.014 221.319,334.053Z" fill="#38A1FF"/>
<path d="M178.437,362.129C179.247,364.786 176.127,366.063 173.61,366.599C169.758,367.44 161.043,368.883 157.41,369.365C154.497,369.749 151.428,369.555 150.714,366.756C148.434,357.84 144.273,343.06 146.619,341.313C150.363,338.532 162.789,337.134 167.652,336.774C170.409,336.571 172.611,336.444 172.977,337.748C175.216,345.774 177.039,353.912 178.437,362.129ZM155.583,364.743C173.805,362.02 174.438,363.079 174.12,361.862C173.262,358.588 171.6,348.546 169.737,341.232C169.545,340.472 169.287,340.493 167.697,340.669C162.122,341.102 156.588,341.967 151.146,343.259C150.054,343.486 150.351,343.341 151.938,351.073C153.921,360.74 154.188,361.887 154.422,363.957C154.515,364.774 154.473,364.78 155.583,364.743Z" fill="#38A1FF"/>
<path d="M198.618,353.743C198.618,356.351 198.957,355.976 194.418,356.884C191.826,357.405 196.032,361.805 193.119,363.109C191.481,363.842 188.568,364.477 188.103,362.728C187.503,360.476 187.902,359.808 186.993,360.14C181.593,362.111 184.557,356.624 182.58,356.872C181.614,356.993 179.919,357.671 179.55,355.816C178.527,350.692 179.742,352.054 184.452,350.616C183.42,345.995 184.125,347.956 179.505,347.962C177.873,347.962 178.023,347.133 177.363,342.872C177.341,342.781 177.338,342.687 177.354,342.594C177.37,342.503 177.404,342.415 177.454,342.336C177.505,342.258 177.571,342.188 177.648,342.137C177.725,342.085 177.812,342.049 177.903,342.031C178.926,341.661 179.992,341.428 181.074,341.335C185.01,341.335 180.114,336.892 183.027,335.718C185.893,335.064 188.799,334.61 191.727,334.356C195.96,333.584 195.099,336.692 196.542,342.473C197.477,346.18 198.17,349.945 198.618,353.743ZM192,345.677C192.741,345.517 192.3,343.184 192.057,341.586C191.901,340.611 190.539,341.165 187.557,341.619C186.84,341.728 186.987,342.224 187.437,345.69C187.533,346.513 191.148,345.859 192,345.677ZM191.769,355.707C191.677,354.369 191.418,353.047 190.998,351.772C190.596,350.892 190.584,350.892 189.621,351.113C188.04,351.476 187.221,351.485 187.38,352.447C188.001,356.152 187.857,356.905 188.862,356.83C191.523,356.618 191.919,356.575 191.763,355.707L191.769,355.707Z" fill="#38A1FF"/>
<path d="M237.633,401.259C237.456,404.007 237.57,404.331 233.052,405.221C231.426,405.542 234.531,409.028 232.752,409.552C225.78,411.612 226.452,412.529 223.797,395.782C223.557,394.268 224.493,394.02 228.378,393.597C229.947,393.424 230.112,393.482 230.946,397.428C231.111,398.206 231.246,398.033 235.578,397.534C237,397.377 236.829,397.891 237.633,401.259Z" fill="#38A1FF"/>
<path d="M174.741,397.933C177.507,397.903 178.539,397.679 178.827,398.935C179.783,403.087 180.236,407.339 180.177,411.603C180.132,412.209 179.769,412.478 179.16,412.599C175.693,413.446 172.113,413.728 168.558,413.434C167.478,413.213 167.106,409.3 166.617,406.728C165.363,400.112 165.684,399.607 167.052,399.256C169.541,398.457 172.13,398.012 174.741,397.933Z" fill="#38A1FF"/>
<path d="M222.531,349.621C222.531,351.63 222.765,352.726 221.007,353.004C209.415,354.82 210.336,354.611 209.364,349.557C207.48,339.788 207.234,340.23 208.764,339.7C212.285,338.599 215.959,338.078 219.645,338.154C220.632,338.084 220.827,338.305 221.109,339.231C221.926,342.639 222.402,346.119 222.531,349.621Z" fill="#38A1FF"/>
<path d="M169.5,356.842C169.5,358.657 169.587,359.078 168.12,359.456C164.85,360.398 161.45,360.797 158.052,360.646C157.215,360.373 156.795,359.341 155.622,353.743C154.542,348.58 153.705,347.085 155.106,346.703C158.628,345.426 162.344,344.782 166.086,344.797C166.707,344.767 167.067,344.576 167.49,345.526C167.844,346.286 169.599,356.827 169.5,356.842Z" fill="#38A1FF"/>
<path d="M382.425,231.49C378.825,228.782 377.733,228.809 376.203,230.761C375.687,231.418 339.066,283.882 305.517,333.502C304.212,335.427 303.798,335.252 302.565,333.95C281.607,311.822 274.095,303.938 270.963,301.045C267.831,298.152 267.27,298.339 265.119,300.536C263.676,302.013 250.119,316.664 249.114,318.558C248.109,320.453 249.288,321.539 250.344,322.774C253.839,326.872 263.526,337.07 289.572,365.666C293.946,370.469 308.112,390.14 316.494,376.918C321.498,369.023 392.622,254.624 395.328,249.89C398.679,244.025 398.169,243.136 395.988,241.365C395.298,240.824 383.1,231.996 382.425,231.49Z" fill="#38A1FF"/>
</svg>
