<svg width="188" height="190" viewBox="0 0 188 190" fill="none" xmlns="http://www.w3.org/2000/svg" xmlns:xlink="http://www.w3.org/1999/xlink">
<path d="M110.977,106.546L116.099,141.721C121.895,138.326 127.105,134.017 131.526,128.958L127.908,104.084L110.977,106.546Z" fill="#FECFC4"/>
<path d="M113.792,49.936L109.493,46.784L102.089,56.882L106.388,60.034L113.792,49.936Z" fill="#FECFC4"/>
<path d="M115.195,70.754C110.537,71.871 108.636,69.746 105.946,68.418C104.628,67.699 103.127,67.388 101.633,67.524C96.174,68.186 89.111,75.869 82.089,70.322C80.035,68.7 78.74,67.17 75.829,66.692L71.503,72.593C72.357,71.428 73.638,70.651 75.065,70.432C76.492,70.212 77.947,70.569 79.111,71.422L99.279,86.211C100.368,87.01 101.122,88.186 101.392,89.51C101.663,90.834 101.431,92.212 100.742,93.374L113.548,75.916C114.643,74.42 115.222,72.608 115.195,70.754Z" fill="#FECFC4"/>
<path d="M31.597,56.273C27.061,63.815 24.193,72.242 23.188,80.985L49.893,72.873L31.597,56.273Z" fill="#FECFC4"/>
<path d="M141.22,80.609L144.706,72.033C143.804,68.681 142.62,65.411 141.167,62.258L132.558,83.436C132.342,83.965 132.346,84.558 132.567,85.084C132.789,85.61 133.211,86.027 133.74,86.243L146.736,91.524C146.893,88.614 146.847,85.695 146.598,82.791L141.22,80.609Z" fill="#FECFC4"/>
<path d="M45.781,119.223C46.015,119.055 46.208,118.838 46.346,118.585C46.485,118.332 46.564,118.052 46.579,117.765C46.593,117.477 46.543,117.19 46.431,116.925C46.319,116.66 46.149,116.423 45.933,116.232C45.717,116.042 45.461,115.903 45.184,115.825C44.907,115.749 44.616,115.734 44.332,115.785C44.049,115.835 43.781,115.95 43.548,116.119C43.314,116.287 43.122,116.507 42.986,116.76C38.613,113.53 33.193,112.044 27.784,112.593C32.641,123.895 40.737,133.503 51.05,140.207C52.076,136.554 52.129,132.695 51.205,129.014C50.281,125.334 48.411,121.958 45.781,119.223Z" fill="#FECFC4"/>
<path d="M99.279,86.211L79.112,71.422C78.536,70.995 77.881,70.686 77.185,70.512C76.489,70.339 75.765,70.305 75.056,70.412C74.347,70.519 73.666,70.765 73.052,71.136C72.438,71.507 71.903,71.996 71.479,72.575C71.055,73.153 70.749,73.81 70.58,74.507C70.41,75.204 70.38,75.927 70.491,76.636C70.602,77.345 70.852,78.025 71.226,78.636C71.601,79.248 72.093,79.78 72.674,80.201L92.841,94.989C93.931,95.788 95.279,96.154 96.624,96.014C97.968,95.874 99.212,95.239 100.114,94.232L100.742,93.374C101.431,92.211 101.663,90.834 101.393,89.51C101.122,88.186 100.368,87.01 99.279,86.211Z" fill="#6153BD"/>
<path d="M89.295,92.389L76.368,82.91L54.66,112.512L67.588,121.992L89.295,92.389Z" fill="#6153BD"/>
<path d="M75.501,127.795L46.577,106.584L44.856,108.93L73.781,130.141L75.501,127.795Z" fill="#6153BD"/>
<path d="M162.689,52.239L158.116,50.38C155.93,49.492 153.439,50.544 152.55,52.729L149.397,60.488C148.509,62.673 149.561,65.165 151.745,66.053L156.319,67.912C158.505,68.8 160.996,67.748 161.885,65.563L165.038,57.804C165.926,55.619 164.874,53.127 162.689,52.239Z" fill="#6153BD"/>
<path d="M127.42,10.083C129.748,10.083 131.636,8.196 131.636,5.867C131.636,3.539 129.748,1.651 127.42,1.651C125.091,1.651 123.204,3.539 123.204,5.867C123.204,8.196 125.091,10.083 127.42,10.083Z" fill="#6153BD"/>
<path d="M115.908,18.594C116.917,18.594 117.735,17.776 117.735,16.768C117.735,15.759 116.917,14.941 115.908,14.941C114.9,14.941 114.082,15.759 114.082,16.768C114.082,17.776 114.9,18.594 115.908,18.594Z" fill="#6153BD"/>
<path d="M146.6,82.798L147.596,82.711C147.564,82.337 147.324,82.013 146.976,81.871L146.6,82.798ZM141.22,80.611L140.294,80.234C140.086,80.746 140.332,81.329 140.844,81.537L141.22,80.611ZM144.706,72.034L145.633,72.41C145.715,72.208 145.729,71.985 145.672,71.775L144.706,72.034ZM139.178,58.302L138.643,57.458C138.197,57.741 138.048,58.322 138.302,58.784L139.178,58.302ZM139.925,57.829L139.39,56.984L139.389,56.984L139.925,57.829ZM140.788,53.981L139.942,54.515L139.943,54.517L140.788,53.981ZM139.043,52.753L138.824,53.729L138.825,53.729L139.043,52.753ZM136.941,53.118L136.406,52.273L136.406,52.273L136.941,53.118ZM136.274,53.541L135.445,54.099C135.747,54.548 136.352,54.675 136.81,54.385L136.274,53.541ZM117.498,35.446L116.971,36.296L116.971,36.296L117.498,35.446ZM92.945,26.668L91.945,26.668C91.945,27.17 92.317,27.594 92.814,27.66L92.945,26.668ZM92.945,25.242L93.945,25.242L93.945,25.223L92.945,25.242ZM92.11,23.304L91.41,24.018L91.41,24.018L92.11,23.304ZM88.204,23.304L88.904,24.018L88.904,24.018L88.204,23.304ZM87.369,25.242L86.369,25.223L86.369,25.242L87.369,25.242ZM87.369,26.194L87.325,27.193C87.598,27.205 87.863,27.105 88.06,26.916C88.257,26.727 88.369,26.466 88.369,26.194L87.369,26.194ZM51.414,35.88L50.59,36.446C50.896,36.891 51.499,37.013 51.954,36.722L51.414,35.88ZM50.738,34.895L51.562,34.328L51.56,34.326L50.738,34.895ZM48.945,33.737L49.125,32.753L49.125,32.753L48.945,33.737ZM45.701,35.977L46.685,36.157L46.685,36.157L45.701,35.977ZM46.149,38.064L46.972,37.495L46.972,37.495L46.149,38.064ZM46.858,39.091L47.47,39.882C47.89,39.557 47.983,38.96 47.681,38.523L46.858,39.091ZM27,65.641L27.932,66.004L27.932,66.004L27,65.641ZM23.659,98.626L24.033,99.554C24.469,99.378 24.724,98.921 24.644,98.457L23.659,98.626ZM20.901,99.739L21.26,100.673L21.275,100.667L20.901,99.739ZM19.347,101.232L20.264,101.63L20.265,101.629L19.347,101.232ZM19.117,102.305L18.117,102.293L18.117,102.293L19.117,102.305ZM19.32,103.385L20.247,103.011L20.247,103.01L19.32,103.385ZM20.836,104.916L20.452,105.839L20.452,105.839L20.836,104.916ZM22.99,104.91L22.615,103.983L22.601,103.989L22.99,104.91ZM24.861,104.154L25.827,103.896C25.753,103.619 25.564,103.388 25.308,103.26C25.052,103.132 24.753,103.12 24.487,103.227L24.861,104.154ZM45.246,135.929L44.609,136.699L44.609,136.7L45.246,135.929ZM80.268,150.022L81.268,150.059C81.287,149.521 80.878,149.065 80.342,149.025L80.268,150.022ZM80.209,151.638L81.209,151.675L81.209,151.674L80.209,151.638ZM80.953,153.638L80.22,154.319L80.221,154.32L80.953,153.638ZM82.893,154.527L82.856,155.526L82.857,155.526L82.893,154.527ZM84.893,153.783L84.213,153.051L84.213,153.051L84.893,153.783ZM85.782,151.843L86.781,151.879L86.781,151.879L85.782,151.843ZM85.843,150.174L85.826,149.174C85.295,149.183 84.863,149.606 84.843,150.137L85.843,150.174ZM116.095,141.716L115.59,140.853L115.59,140.853L116.095,141.716ZM138.324,119.523L138.795,118.641C138.321,118.388 137.733,118.555 137.462,119.017L138.324,119.523ZM141.279,121.099L140.809,121.982L140.811,121.983L141.279,121.099ZM142.322,121.413L142.418,120.417L142.416,120.417L142.322,121.413ZM143.404,121.303L143.697,122.259L143.698,122.259L143.404,121.303ZM144.363,120.788L143.728,120.016L143.726,120.017L144.363,120.788ZM145.051,119.946L145.934,120.417L145.935,120.413L145.051,119.946ZM145.364,118.904L146.36,119L146.36,118.998L145.364,118.904ZM145.255,117.821L146.212,117.53L146.211,117.528L145.255,117.821ZM144.74,116.863L145.512,116.227L145.511,116.226L144.74,116.863ZM143.897,116.174L144.365,115.291L144.365,115.29L143.897,116.174ZM140.924,114.598L140.019,114.172C139.792,114.655 139.984,115.231 140.455,115.481L140.924,114.598ZM146.976,81.871L141.597,79.684L140.844,81.537L146.223,83.724L146.976,81.871ZM142.147,80.987L145.633,72.41L143.78,71.657L140.294,80.234L142.147,80.987ZM145.672,71.775C144.367,66.914 142.481,62.229 140.054,57.82L138.302,58.784C140.651,63.053 142.477,67.588 143.741,72.293L145.672,71.775ZM139.714,59.147L140.461,58.673L139.389,56.984L138.643,57.458L139.714,59.147ZM140.46,58.673C141.308,58.136 141.91,57.283 142.129,56.302L140.178,55.865C140.074,56.327 139.791,56.73 139.39,56.984L140.46,58.673ZM142.129,56.302C142.349,55.323 142.171,54.295 141.633,53.446L139.943,54.517C140.197,54.917 140.281,55.402 140.178,55.865L142.129,56.302ZM141.634,53.448C141.368,53.026 141.02,52.662 140.614,52.376L139.463,54.011C139.655,54.147 139.818,54.318 139.942,54.515L141.634,53.448ZM140.614,52.376C140.207,52.09 139.748,51.886 139.262,51.777L138.825,53.729C139.054,53.78 139.271,53.876 139.463,54.011L140.614,52.376ZM139.262,51.777C138.283,51.557 137.255,51.736 136.406,52.273L137.476,53.963C137.877,53.709 138.362,53.625 138.824,53.729L139.262,51.777ZM136.406,52.273L135.739,52.696L136.81,54.385L137.477,53.963L136.406,52.273ZM137.104,52.983C132.12,45.571 125.617,39.304 118.025,34.596L116.971,36.296C124.322,40.854 130.618,46.922 135.445,54.099L137.104,52.983ZM118.025,34.596C110.435,29.889 101.93,26.849 93.076,25.677L92.814,27.66C101.387,28.794 109.622,31.738 116.971,36.296L118.025,34.596ZM93.945,26.668L93.945,25.242L91.945,25.242L91.945,26.668L93.945,26.668ZM93.945,25.223C93.926,24.231 93.519,23.286 92.811,22.59L91.41,24.018C91.744,24.346 91.936,24.793 91.945,25.261L93.945,25.223ZM92.811,22.591C92.102,21.895 91.149,21.506 90.157,21.506L90.157,23.506C90.625,23.506 91.075,23.69 91.41,24.018L92.811,22.591ZM90.157,21.506C89.164,21.506 88.211,21.895 87.503,22.591L88.904,24.018C89.238,23.69 89.688,23.506 90.157,23.506L90.157,21.506ZM87.503,22.59C86.795,23.286 86.387,24.231 86.369,25.223L88.368,25.261C88.377,24.793 88.57,24.346 88.904,24.018L87.503,22.59ZM86.369,25.242L86.369,26.194L88.369,26.194L88.369,25.242L86.369,25.242ZM87.412,25.195C74.51,24.637 61.751,28.074 50.875,35.038L51.954,36.722C62.482,29.98 74.835,26.653 87.325,27.193L87.412,25.195ZM52.239,35.313L51.562,34.328L49.913,35.461L50.59,36.446L52.239,35.313ZM51.56,34.326C50.99,33.5 50.114,32.934 49.125,32.753L48.765,34.72C49.232,34.806 49.645,35.073 49.915,35.463L51.56,34.326ZM49.125,32.753C48.137,32.572 47.117,32.791 46.291,33.362L47.427,35.008C47.817,34.738 48.299,34.635 48.765,34.72L49.125,32.753ZM46.291,33.362C45.464,33.933 44.898,34.809 44.717,35.797L46.685,36.157C46.77,35.691 47.037,35.277 47.427,35.008L46.291,33.362ZM44.717,35.797C44.536,36.786 44.756,37.805 45.326,38.632L46.972,37.495C46.703,37.105 46.599,36.624 46.685,36.157L44.717,35.797ZM45.326,38.632L46.036,39.659L47.681,38.523L46.972,37.495L45.326,38.632ZM46.247,38.3C37.197,45.294 30.221,54.62 26.069,65.277L27.932,66.004C31.953,55.685 38.707,46.655 47.47,39.882L46.247,38.3ZM26.069,65.277C21.916,75.935 20.742,87.522 22.673,98.795L24.644,98.457C22.774,87.542 23.911,76.323 27.932,66.004L26.069,65.277ZM23.284,97.699L20.526,98.812L21.275,100.667L24.033,99.554L23.284,97.699ZM20.541,98.806C20.071,98.987 19.643,99.261 19.281,99.608L20.666,101.051C20.838,100.886 21.04,100.757 21.26,100.673L20.541,98.806ZM19.281,99.608C18.919,99.956 18.629,100.372 18.429,100.835L20.265,101.629C20.359,101.411 20.495,101.215 20.666,101.051L19.281,99.608ZM18.43,100.833C18.229,101.294 18.123,101.791 18.117,102.293L20.117,102.318C20.12,102.081 20.17,101.847 20.264,101.63L18.43,100.833ZM18.117,102.293C18.111,102.796 18.204,103.294 18.393,103.76L20.247,103.01C20.158,102.79 20.114,102.556 20.117,102.318L18.117,102.293ZM18.392,103.759C18.581,104.227 18.86,104.65 19.213,105.007L20.635,103.6C20.467,103.43 20.336,103.231 20.247,103.011L18.392,103.759ZM19.213,105.007C19.567,105.365 19.989,105.647 20.452,105.839L21.219,103.992C20.999,103.901 20.801,103.768 20.635,103.6L19.213,105.007ZM20.452,105.839C20.916,106.032 21.413,106.131 21.916,106.13L21.911,104.13C21.674,104.13 21.439,104.084 21.219,103.992L20.452,105.839ZM21.916,106.13C22.419,106.128 22.916,106.026 23.379,105.831L22.601,103.989C22.382,104.081 22.147,104.129 21.911,104.13L21.916,106.13ZM23.364,105.837L25.236,105.082L24.487,103.227L22.615,103.983L23.364,105.837ZM23.895,104.413C27.282,117.065 34.521,128.348 44.609,136.699L45.884,135.159C36.116,127.072 29.106,116.146 25.827,103.896L23.895,104.413ZM44.609,136.7C54.697,145.05 67.134,150.056 80.195,151.02L80.342,149.025C67.695,148.092 55.652,143.245 45.884,135.159L44.609,136.7ZM79.269,149.986L79.21,151.601L81.209,151.674L81.268,150.059L79.269,149.986ZM79.21,151.601C79.173,152.605 79.536,153.583 80.22,154.319L81.686,152.958C81.363,152.61 81.191,152.148 81.209,151.675L79.21,151.601ZM80.221,154.32C80.904,155.054 81.852,155.489 82.856,155.526L82.93,153.528C82.456,153.51 82.008,153.305 81.685,152.957L80.221,154.32ZM82.857,155.526C83.86,155.562 84.838,155.2 85.574,154.516L84.213,153.051C83.866,153.373 83.404,153.545 82.929,153.528L82.857,155.526ZM85.574,154.516C86.31,153.832 86.744,152.883 86.781,151.879L84.782,151.806C84.765,152.28 84.56,152.728 84.213,153.051L85.574,154.516ZM86.781,151.879L86.842,150.211L84.843,150.137L84.782,151.806L86.781,151.879ZM85.859,151.174C96.673,150.994 107.259,148.035 116.599,142.58L115.59,140.853C106.547,146.135 96.297,149 85.826,149.174L85.859,151.174ZM116.599,142.58C125.939,137.126 133.717,129.36 139.187,120.029L137.462,119.017C132.165,128.052 124.634,135.572 115.59,140.853L116.599,142.58ZM137.854,120.406L140.809,121.982L141.75,120.217L138.795,118.641L137.854,120.406ZM140.811,121.983C141.248,122.215 141.73,122.361 142.227,122.408L142.416,120.417C142.184,120.395 141.957,120.327 141.748,120.216L140.811,121.983ZM142.225,122.408C142.722,122.456 143.221,122.405 143.697,122.259L143.111,120.347C142.886,120.416 142.651,120.44 142.418,120.417L142.225,122.408ZM143.698,122.259C144.171,122.114 144.614,121.877 144.999,121.559L143.726,120.017C143.546,120.166 143.337,120.278 143.111,120.347L143.698,122.259ZM144.998,121.56C145.383,121.243 145.7,120.854 145.934,120.417L144.169,119.475C144.057,119.684 143.907,119.868 143.728,120.016L144.998,121.56ZM145.935,120.413C146.167,119.974 146.312,119.495 146.36,119L144.369,118.807C144.346,119.041 144.278,119.269 144.167,119.478L145.935,120.413ZM146.36,118.998C146.407,118.503 146.356,118.004 146.212,117.53L144.298,118.112C144.367,118.337 144.391,118.575 144.369,118.809L146.36,118.998ZM146.211,117.528C146.065,117.051 145.827,116.61 145.512,116.227L143.968,117.498C144.118,117.68 144.23,117.889 144.299,118.114L146.211,117.528ZM145.511,116.226C145.195,115.843 144.805,115.524 144.365,115.291L143.428,117.057C143.634,117.167 143.818,117.317 143.969,117.499L145.511,116.226ZM144.365,115.29L141.392,113.714L140.455,115.481L143.428,117.058L144.365,115.29ZM141.829,115.023C146.566,104.949 148.556,93.802 147.596,82.711L145.603,82.884C146.533,93.623 144.606,104.417 140.019,114.172L141.829,115.023Z" fill="#120071"/>
<path d="M53.139,61.121C53.605,61.418 54.223,61.28 54.52,60.814C54.816,60.348 54.679,59.73 54.213,59.434L53.139,61.121ZM49.817,57.823L50.354,56.979L50.332,56.965L49.817,57.823ZM48.54,56.074L49.513,55.844L49.513,55.844L48.54,56.074ZM48.504,54.969L49.49,55.136L49.49,55.135L48.504,54.969ZM48.9,53.938L48.055,53.402L48.055,53.402L48.9,53.938ZM49.665,53.141L49.096,52.319L49.095,52.319L49.665,53.141ZM50.68,52.704L50.475,51.726L50.474,51.726L50.68,52.704ZM52.806,53.118L52.248,53.948L52.269,53.962L52.806,53.118ZM56.129,56.417C56.595,56.713 57.213,56.575 57.509,56.109C57.806,55.643 57.668,55.025 57.202,54.729L56.129,56.417ZM54.213,59.434L50.354,56.979L49.281,58.666L53.139,61.121L54.213,59.434ZM50.332,56.965C50.128,56.843 49.95,56.68 49.809,56.487L48.194,57.667C48.492,58.075 48.869,58.42 49.303,58.68L50.332,56.965ZM49.809,56.487C49.668,56.295 49.568,56.076 49.513,55.844L47.566,56.304C47.683,56.796 47.896,57.259 48.194,57.667L49.809,56.487ZM49.513,55.844C49.458,55.612 49.45,55.371 49.49,55.136L47.518,54.803C47.434,55.302 47.45,55.812 47.566,56.304L49.513,55.844ZM49.49,55.135C49.529,54.9 49.616,54.676 49.744,54.474L48.055,53.402C47.784,53.828 47.601,54.305 47.518,54.803L49.49,55.135ZM49.744,54.474C49.872,54.273 50.038,54.099 50.235,53.963L49.095,52.319C48.68,52.607 48.326,52.975 48.055,53.402L49.744,54.474ZM50.234,53.963C50.431,53.827 50.652,53.732 50.885,53.683L50.474,51.726C49.98,51.83 49.511,52.031 49.096,52.319L50.234,53.963ZM50.885,53.683C51.119,53.634 51.36,53.632 51.594,53.678L51.976,51.715C51.48,51.618 50.969,51.622 50.475,51.726L50.885,53.683ZM51.594,53.678C51.828,53.723 52.051,53.815 52.249,53.948L53.363,52.288C52.944,52.006 52.472,51.811 51.976,51.715L51.594,53.678ZM52.269,53.962L56.129,56.417L57.202,54.729L53.343,52.274L52.269,53.962Z" fill="#120071"/>
<path d="M132.365,88.391C131.853,88.183 131.27,88.429 131.062,88.941C130.854,89.453 131.1,90.036 131.612,90.244L132.365,88.391ZM136.224,91.039L136.601,90.113L136.601,90.113L136.224,91.039ZM137.132,91.638L136.429,92.349L136.431,92.35L137.132,91.638ZM137.963,93.604L138.963,93.598L138.963,93.596L137.963,93.604ZM137.758,94.672L138.684,95.048L138.685,95.046L137.758,94.672ZM137.159,95.581L137.87,96.284L137.871,96.282L137.159,95.581ZM136.259,96.19L135.871,95.268L135.868,95.27L136.259,96.19ZM135.194,96.41L135.188,95.41L135.186,95.41L135.194,96.41ZM134.125,96.205L134.502,95.279L134.501,95.279L134.125,96.205ZM130.266,93.557C129.754,93.349 129.171,93.595 128.963,94.107C128.755,94.618 129.001,95.202 129.513,95.41L130.266,93.557ZM131.612,90.244L135.847,91.966L136.601,90.113L132.365,88.391L131.612,90.244ZM135.847,91.966C136.065,92.054 136.263,92.185 136.429,92.349L137.835,90.927C137.481,90.576 137.061,90.3 136.601,90.113L135.847,91.966ZM136.431,92.35C136.597,92.514 136.73,92.71 136.822,92.928L138.664,92.148C138.47,91.692 138.19,91.276 137.834,90.925L136.431,92.35ZM136.822,92.928C136.913,93.143 136.961,93.375 136.963,93.612L138.963,93.596C138.959,93.1 138.859,92.608 138.664,92.148L136.822,92.928ZM136.963,93.609C136.964,93.844 136.919,94.078 136.83,94.298L138.685,95.046C138.87,94.587 138.965,94.095 138.963,93.598L136.963,93.609ZM136.831,94.295C136.743,94.512 136.613,94.71 136.446,94.879L137.871,96.282C138.219,95.929 138.496,95.511 138.684,95.048L136.831,94.295ZM136.448,94.878C136.282,95.046 136.086,95.178 135.871,95.268L136.646,97.112C137.107,96.919 137.522,96.636 137.87,96.284L136.448,94.878ZM135.868,95.27C135.653,95.361 135.421,95.409 135.188,95.41L135.199,97.41C135.697,97.407 136.191,97.305 136.649,97.111L135.868,95.27ZM135.186,95.41C134.952,95.412 134.719,95.367 134.502,95.279L133.748,97.131C134.209,97.319 134.703,97.414 135.202,97.41L135.186,95.41ZM134.501,95.279L130.266,93.557L129.513,95.41L133.748,97.132L134.501,95.279Z" fill="#120071"/>
<path d="M105.448,124.888C105.283,124.361 104.722,124.067 104.195,124.232C103.668,124.397 103.374,124.958 103.539,125.485L105.448,124.888ZM105.859,129.551L104.904,129.85L104.912,129.872L105.859,129.551ZM105.999,130.645L106.996,130.72L106.996,130.717L105.999,130.645ZM105.018,132.572L104.373,131.808L104.371,131.809L105.018,132.572ZM104.051,133.104L104.348,134.059L104.352,134.058L104.051,133.104ZM102.954,133.218L103.05,132.223L103.047,132.223L102.954,133.218ZM101.898,132.899L101.423,133.779L101.425,133.781L101.898,132.899ZM100.54,131.217L101.5,130.938L101.494,130.918L100.54,131.217ZM100.128,126.552C99.963,126.025 99.402,125.732 98.875,125.897C98.348,126.062 98.054,126.623 98.219,127.15L100.128,126.552ZM103.539,125.485L104.904,129.85L106.813,129.252L105.448,124.888L103.539,125.485ZM104.912,129.872C104.988,130.097 105.018,130.335 105.001,130.574L106.996,130.717C107.032,130.215 106.968,129.709 106.806,129.23L104.912,129.872ZM105.002,130.571C104.984,130.81 104.919,131.043 104.811,131.255L106.593,132.162C106.823,131.712 106.959,131.221 106.996,130.72L105.002,130.571ZM104.811,131.255C104.703,131.467 104.554,131.655 104.373,131.808L105.663,133.336C106.049,133.011 106.365,132.611 106.593,132.162L104.811,131.255ZM104.371,131.809C104.19,131.962 103.979,132.078 103.751,132.15L104.352,134.058C104.831,133.907 105.278,133.663 105.664,133.335L104.371,131.809ZM103.754,132.149C103.525,132.221 103.285,132.246 103.05,132.223L102.858,134.214C103.362,134.262 103.868,134.208 104.348,134.059L103.754,132.149ZM103.047,132.223C102.812,132.201 102.582,132.131 102.37,132.018L101.425,133.781C101.869,134.018 102.357,134.167 102.861,134.214L103.047,132.223ZM102.373,132.019C102.162,131.905 101.976,131.751 101.826,131.566L100.271,132.824C100.588,133.216 100.98,133.54 101.423,133.779L102.373,132.019ZM101.826,131.566C101.678,131.383 101.567,131.169 101.5,130.938L99.579,131.495C99.719,131.977 99.953,132.43 100.271,132.824L101.826,131.566ZM101.494,130.918L100.128,126.552L98.219,127.15L99.585,131.515L101.494,130.918Z" fill="#120071"/>
<path d="M22.497,48.017L21.54,48.308C21.593,48.481 21.691,48.636 21.825,48.758L22.497,48.017ZM13.005,16.768L13.962,16.477C13.802,15.949 13.243,15.65 12.715,15.811L13.005,16.768ZM0.5,20.566L0.209,19.609C-0.044,19.686 -0.257,19.861 -0.382,20.095C-0.507,20.329 -0.534,20.603 -0.457,20.857L0.5,20.566ZM9.992,51.816L10.962,52.057C11.006,51.882 11.001,51.698 10.949,51.525L9.992,51.816ZM1.047,87.71L0.076,87.468C-0.011,87.817 0.097,88.187 0.358,88.435C0.619,88.683 0.993,88.771 1.337,88.667L1.047,87.71ZM49.893,72.873L50.184,73.83C50.528,73.725 50.79,73.444 50.869,73.092C50.948,72.741 50.832,72.374 50.565,72.132L49.893,72.873ZM23.454,47.727L13.962,16.477L12.048,17.058L21.54,48.308L23.454,47.727ZM12.715,15.811L0.209,19.609L0.791,21.523L13.296,17.724L12.715,15.811ZM-0.457,20.857L9.035,52.106L10.949,51.525L1.457,20.275L-0.457,20.857ZM9.022,51.574L0.076,87.468L2.017,87.952L10.962,52.057L9.022,51.574ZM1.337,88.667L50.184,73.83L49.603,71.916L0.756,86.753L1.337,88.667ZM50.565,72.132L23.169,47.277L21.825,48.758L49.221,73.614L50.565,72.132Z" fill="#120071"/>
<path d="M31.597,56.273L32.269,55.533C32.047,55.332 31.747,55.24 31.451,55.284C31.155,55.327 30.894,55.501 30.74,55.758L31.597,56.273ZM23.188,80.985L22.194,80.871C22.156,81.206 22.288,81.537 22.547,81.753C22.806,81.969 23.156,82.04 23.478,81.942L23.188,80.985ZM49.893,72.873L50.184,73.83C50.528,73.725 50.79,73.444 50.869,73.092C50.948,72.741 50.832,72.375 50.565,72.133L49.893,72.873ZM30.74,55.758C26.13,63.422 23.216,71.986 22.194,80.871L24.181,81.099C25.17,72.498 27.991,64.208 32.454,56.789L30.74,55.758ZM23.478,81.942L50.184,73.83L49.602,71.916L22.897,80.028L23.478,81.942ZM50.565,72.133L32.269,55.533L30.925,57.014L49.221,73.614L50.565,72.133Z" fill="#120071"/>
<path d="M8.012,57.637C7.484,57.798 7.185,58.356 7.346,58.885C7.506,59.413 8.065,59.711 8.593,59.551L8.012,57.637ZM15.196,57.545C15.725,57.385 16.023,56.826 15.862,56.298C15.702,55.769 15.143,55.471 14.615,55.632L15.196,57.545ZM8.593,59.551L15.196,57.545L14.615,55.632L8.012,57.637L8.593,59.551Z" fill="#120071"/>
<path d="M6.866,62.234C6.338,62.395 6.039,62.953 6.2,63.482C6.36,64.01 6.919,64.308 7.447,64.148L6.866,62.234ZM14.599,61.976C15.127,61.815 15.426,61.257 15.265,60.728C15.105,60.2 14.546,59.902 14.018,60.062L14.599,61.976ZM7.447,64.148L14.599,61.976L14.018,60.062L6.866,62.234L7.447,64.148Z" fill="#120071"/>
<path d="M131.424,187.691L131.281,186.702L131.28,186.702L131.424,187.691ZM137.048,184.342L136.247,183.744L136.246,183.744L137.048,184.342ZM138.657,177.998L139.646,177.854L139.646,177.854L138.657,177.998ZM127.904,104.083L128.893,103.94C128.855,103.677 128.714,103.441 128.502,103.282C128.289,103.123 128.022,103.056 127.76,103.094L127.904,104.083ZM110.978,106.546L110.834,105.557C110.287,105.636 109.908,106.144 109.988,106.69L110.978,106.546ZM121.73,180.46L122.72,180.316L122.72,180.316L121.73,180.46ZM122.845,183.605L121.986,184.117L121.986,184.117L122.845,183.605ZM131.568,188.681C134.076,188.317 136.335,186.971 137.849,184.94L136.246,183.744C135.048,185.35 133.263,186.414 131.281,186.702L131.568,188.681ZM137.849,184.94C139.365,182.91 140.01,180.361 139.646,177.854L137.667,178.141C137.955,180.124 137.444,182.14 136.247,183.744L137.849,184.94ZM139.646,177.854L128.893,103.94L126.914,104.227L137.667,178.142L139.646,177.854ZM127.76,103.094L110.834,105.557L111.122,107.536L128.048,105.073L127.76,103.094ZM109.988,106.69L120.741,180.604L122.72,180.316L111.967,106.402L109.988,106.69ZM120.741,180.604C120.921,181.845 121.345,183.039 121.986,184.117L123.705,183.094C123.197,182.241 122.863,181.297 122.72,180.316L120.741,180.604ZM121.986,184.117C122.628,185.195 123.476,186.135 124.481,186.885L125.678,185.282C124.882,184.689 124.212,183.945 123.705,183.094L121.986,184.117ZM124.481,186.885C125.487,187.636 126.63,188.18 127.846,188.488L128.337,186.55C127.376,186.306 126.473,185.876 125.678,185.282L124.481,186.885ZM127.846,188.488C129.062,188.797 130.327,188.861 131.568,188.681L131.28,186.702C130.299,186.845 129.298,186.793 128.337,186.55L127.846,188.488Z" fill="#120071"/>
<path d="M110.978,106.546L110.834,105.557C110.571,105.595 110.335,105.736 110.176,105.948C110.017,106.161 109.95,106.428 109.988,106.69L110.978,106.546ZM116.1,141.72L115.11,141.864C115.158,142.193 115.367,142.477 115.666,142.621C115.966,142.766 116.318,142.751 116.605,142.583L116.1,141.72ZM131.527,128.958L132.28,129.616C132.472,129.396 132.558,129.103 132.516,128.814L131.527,128.958ZM127.909,104.083L128.898,103.94C128.819,103.393 128.311,103.014 127.765,103.094L127.909,104.083ZM109.988,106.69L115.11,141.864L117.089,141.576L111.967,106.402L109.988,106.69ZM116.605,142.583C122.494,139.134 127.788,134.755 132.28,129.616L130.774,128.3C126.424,133.277 121.297,137.517 115.594,140.857L116.605,142.583ZM132.516,128.814L128.898,103.94L126.919,104.227L130.537,129.102L132.516,128.814ZM127.765,103.094L110.834,105.557L111.121,107.536L128.053,105.073L127.765,103.094Z" fill="#120071"/>
<path d="M111.915,112.987C111.369,113.066 110.99,113.574 111.069,114.12C111.149,114.667 111.656,115.046 112.203,114.966L111.915,112.987ZM118.214,114.092C118.76,114.013 119.139,113.505 119.059,112.959C118.98,112.412 118.473,112.034 117.926,112.113L118.214,114.092ZM112.203,114.966L118.214,114.092L117.926,112.113L111.915,112.987L112.203,114.966Z" fill="#120071"/>
<path d="M112.685,118.283C112.139,118.363 111.76,118.87 111.84,119.417C111.919,119.963 112.427,120.342 112.973,120.262L112.685,118.283ZM118.984,119.388C119.53,119.308 119.909,118.801 119.829,118.254C119.75,117.708 119.242,117.329 118.696,117.409L118.984,119.388ZM112.973,120.262L118.984,119.388L118.696,117.409L112.685,118.283L112.973,120.262Z" fill="#120071"/>
<path d="M113.452,123.556C112.905,123.636 112.527,124.143 112.606,124.69C112.686,125.236 113.193,125.615 113.74,125.535L113.452,123.556ZM119.751,124.661C120.298,124.581 120.677,124.074 120.597,123.527C120.518,122.981 120.01,122.602 119.463,122.682L119.751,124.661ZM113.74,125.535L119.751,124.661L119.463,122.682L113.452,123.556L113.74,125.535Z" fill="#120071"/>
<path d="M106.516,106.185C105.969,106.265 105.591,106.772 105.67,107.319C105.75,107.865 106.257,108.244 106.804,108.164L106.516,106.185ZM132.365,104.446C132.911,104.366 133.29,103.859 133.21,103.312C133.131,102.766 132.623,102.387 132.077,102.466L132.365,104.446ZM106.804,108.164L132.365,104.446L132.077,102.466L106.516,106.185L106.804,108.164Z" fill="#120071"/>
<path d="M165.155,66.789L165.784,66.011L165.784,66.011L165.155,66.789ZM164.865,66.337L165.834,66.09L165.833,66.085L164.865,66.337ZM164.901,65.802L163.974,65.426L163.974,65.426L164.901,65.802ZM165.248,65.393L164.729,64.539L164.728,64.539L165.248,65.393ZM165.772,65.273L165.679,66.268L165.679,66.268L165.772,65.273ZM169.909,64.303L170.835,64.68C170.935,64.435 170.933,64.159 170.83,63.915C170.727,63.67 170.531,63.477 170.285,63.377L169.909,64.303ZM144.528,53.988L144.904,53.061C144.393,52.854 143.81,53.099 143.602,53.611L144.528,53.988ZM146.753,57.518L146.121,58.293L146.121,58.293L146.753,57.518ZM147.051,57.982L148.02,57.737L148.019,57.732L147.051,57.982ZM146.12,59.079L146.031,60.075L146.032,60.075L146.12,59.079ZM142.062,60.055L142.989,60.431L142.989,60.431L142.062,60.055ZM132.558,83.442L133.484,83.818L133.484,83.818L132.558,83.442ZM132.399,84.266L133.399,84.263L133.399,84.259L132.399,84.266ZM132.567,85.089L133.49,84.702L133.489,84.702L132.567,85.089ZM133.74,86.247L133.363,87.174L133.363,87.174L133.74,86.247ZM155.131,94.941L154.755,95.868L154.755,95.868L155.131,94.941ZM156.779,94.931L157.167,95.853L157.168,95.853L156.779,94.931ZM157.937,93.759L158.863,94.137L158.864,94.136L157.937,93.759ZM167.442,70.372L166.516,69.994L166.516,69.996L167.442,70.372ZM165.784,66.011C165.808,66.031 165.826,66.059 165.834,66.09L163.896,66.584C163.995,66.971 164.216,67.315 164.526,67.566L165.784,66.011ZM165.833,66.085C165.841,66.117 165.839,66.15 165.827,66.178L163.974,65.426C163.825,65.793 163.797,66.201 163.898,66.589L165.833,66.085ZM165.827,66.178C165.815,66.208 165.794,66.232 165.769,66.247L164.728,64.539C164.389,64.745 164.124,65.056 163.974,65.426L165.827,66.178ZM165.768,66.248C165.741,66.264 165.71,66.271 165.679,66.268L165.864,64.277C165.468,64.24 165.069,64.332 164.729,64.539L165.768,66.248ZM165.679,66.268C166.851,66.377 167.914,66.36 168.768,66.168C169.584,65.985 170.47,65.576 170.835,64.68L168.983,63.926C168.982,63.926 168.982,63.927 168.981,63.93C168.979,63.932 168.976,63.936 168.971,63.943C168.959,63.956 168.934,63.98 168.886,64.011C168.785,64.076 168.609,64.154 168.329,64.217C167.764,64.344 166.936,64.376 165.864,64.277L165.679,66.268ZM170.285,63.377L144.904,53.061L144.151,54.914L169.532,65.23L170.285,63.377ZM143.602,53.611C143.24,54.499 143.579,55.399 144.026,56.095C144.493,56.82 145.227,57.563 146.121,58.293L147.386,56.744C146.569,56.077 146.014,55.487 145.708,55.012C145.556,54.777 145.488,54.603 145.463,54.49C145.451,54.436 145.45,54.402 145.451,54.385C145.452,54.37 145.454,54.365 145.454,54.365L143.602,53.611ZM146.121,58.293C146.102,58.278 146.089,58.257 146.083,58.233L148.019,57.732C147.918,57.343 147.696,56.997 147.385,56.743L146.121,58.293ZM146.081,58.228C146.076,58.206 146.077,58.181 146.087,58.156L147.94,58.909C148.091,58.535 148.118,58.124 148.02,57.737L146.081,58.228ZM146.087,58.156C146.096,58.133 146.113,58.113 146.134,58.1L147.179,59.806C147.521,59.596 147.788,59.282 147.94,58.909L146.087,58.156ZM146.134,58.1C146.157,58.086 146.183,58.08 146.207,58.082L146.032,60.075C146.433,60.11 146.835,60.016 147.179,59.806L146.134,58.1ZM146.209,58.083C145.058,57.979 144.013,58 143.172,58.194C142.366,58.381 141.496,58.791 141.136,59.679L142.989,60.431C142.989,60.431 142.991,60.425 143.001,60.413C143.012,60.4 143.037,60.377 143.083,60.346C143.18,60.283 143.35,60.206 143.622,60.143C144.172,60.016 144.981,59.981 146.031,60.075L146.209,58.083ZM141.136,59.678L131.631,83.065L133.484,83.818L142.989,60.431L141.136,59.678ZM131.631,83.065C131.476,83.448 131.396,83.859 131.399,84.273L133.399,84.259C133.398,84.109 133.427,83.959 133.484,83.818L131.631,83.065ZM131.399,84.27C131.4,84.687 131.486,85.097 131.645,85.476L133.489,84.702C133.43,84.56 133.399,84.411 133.399,84.263L131.399,84.27ZM131.645,85.476C131.806,85.86 132.042,86.206 132.335,86.496L133.741,85.074C133.633,84.966 133.547,84.84 133.49,84.702L131.645,85.476ZM132.335,86.496C132.63,86.787 132.979,87.017 133.363,87.174L134.116,85.321C133.976,85.264 133.849,85.18 133.741,85.074L132.335,86.496ZM133.363,87.174L154.755,95.868L155.508,94.015L134.116,85.321L133.363,87.174ZM154.755,95.868C155.528,96.182 156.396,96.178 157.167,95.853L156.391,94.01C156.11,94.128 155.792,94.13 155.507,94.015L154.755,95.868ZM157.168,95.853C157.938,95.528 158.548,94.911 158.863,94.137L157.012,93.381C156.896,93.665 156.672,93.891 156.39,94.01L157.168,95.853ZM158.864,94.136L168.369,70.749L166.516,69.996L157.011,93.383L158.864,94.136ZM168.368,70.75C168.735,69.852 168.384,68.94 167.927,68.239C167.449,67.505 166.699,66.751 165.784,66.011L164.526,67.566C165.364,68.243 165.935,68.845 166.252,69.331C166.409,69.571 166.48,69.749 166.507,69.866C166.52,69.922 166.52,69.956 166.52,69.974C166.519,69.982 166.518,69.988 166.518,69.99C166.517,69.992 166.517,69.993 166.516,69.994L168.368,70.75Z" fill="#120071"/>
<path d="M162.689,52.239L163.066,51.313L163.066,51.313L162.689,52.239ZM158.116,50.38L158.492,49.454L158.492,49.454L158.116,50.38ZM152.55,52.729L151.624,52.352L151.624,52.353L152.55,52.729ZM149.397,60.488L150.323,60.864L150.324,60.864L149.397,60.488ZM151.745,66.053L151.369,66.979L151.369,66.979L151.745,66.053ZM156.319,67.912L155.943,68.838L155.943,68.838L156.319,67.912ZM161.885,65.563L162.811,65.94L162.811,65.939L161.885,65.563ZM165.038,57.804L164.111,57.428L164.111,57.428L165.038,57.804ZM163.066,51.313L158.492,49.454L157.739,51.307L162.313,53.166L163.066,51.313ZM158.492,49.454C155.795,48.358 152.72,49.656 151.624,52.352L153.477,53.106C154.157,51.432 156.065,50.627 157.739,51.307L158.492,49.454ZM151.624,52.353L148.471,60.111L150.324,60.864L153.477,53.106L151.624,52.353ZM148.471,60.111C147.374,62.808 148.673,65.883 151.369,66.979L152.122,65.126C150.449,64.446 149.643,62.538 150.323,60.864L148.471,60.111ZM151.369,66.979L155.943,68.838L156.696,66.985L152.122,65.126L151.369,66.979ZM155.943,68.838C158.64,69.934 161.714,68.636 162.811,65.94L160.958,65.186C160.278,66.86 158.37,67.665 156.696,66.985L155.943,68.838ZM162.811,65.939L165.964,58.181L164.111,57.428L160.958,65.186L162.811,65.939ZM165.964,58.181C167.061,55.484 165.762,52.409 163.066,51.313L162.313,53.166C163.986,53.846 164.792,55.754 164.111,57.428L165.964,58.181Z" fill="#120071"/>
<path d="M158.783,73.197L159.709,73.574C159.917,73.062 159.671,72.479 159.159,72.271L158.783,73.197ZM146.295,68.122L146.672,67.196C146.426,67.096 146.151,67.098 145.906,67.201C145.662,67.304 145.469,67.5 145.369,67.746L146.295,68.122ZM141.22,80.61L140.294,80.233C140.086,80.745 140.332,81.328 140.844,81.536L141.22,80.61ZM153.708,85.685L153.331,86.611C153.577,86.711 153.852,86.709 154.097,86.606C154.341,86.503 154.534,86.307 154.634,86.061L153.708,85.685ZM159.159,72.271L146.672,67.196L145.919,69.048L158.406,74.124L159.159,72.271ZM145.369,67.746L140.294,80.233L142.147,80.986L147.222,68.499L145.369,67.746ZM140.844,81.536L153.331,86.611L154.084,84.758L141.597,79.683L140.844,81.536ZM154.634,86.061L159.709,73.574L157.856,72.821L152.781,85.308L154.634,86.061Z" fill="#120071"/>
<path d="M147.695,73.312C147.184,73.104 146.6,73.35 146.392,73.862C146.184,74.373 146.431,74.957 146.942,75.165L147.695,73.312ZM153.292,77.746C153.804,77.953 154.387,77.707 154.595,77.196C154.803,76.684 154.557,76.101 154.045,75.893L153.292,77.746ZM146.942,75.165L153.292,77.746L154.045,75.893L147.695,73.312L146.942,75.165Z" fill="#120071"/>
<path d="M146.471,76.325C145.959,76.117 145.376,76.364 145.168,76.875C144.96,77.387 145.206,77.97 145.718,78.178L146.471,76.325ZM152.067,80.759C152.579,80.967 153.162,80.721 153.37,80.209C153.578,79.697 153.332,79.114 152.82,78.906L152.067,80.759ZM145.718,78.178L152.067,80.759L152.82,78.906L146.471,76.325L145.718,78.178Z" fill="#120071"/>
<path d="M80.599,104.253C80.153,103.927 79.528,104.023 79.201,104.468C78.874,104.914 78.97,105.54 79.416,105.866L80.599,104.253ZM87.92,110.863L87.329,111.669C87.543,111.826 87.81,111.891 88.072,111.851C88.334,111.811 88.57,111.668 88.727,111.454L87.92,110.863ZM113.545,75.919L114.352,76.51L114.353,76.509L113.545,75.919ZM115.098,69.545L114.109,69.697L114.109,69.697L115.098,69.545ZM111.7,63.932L112.293,63.127L112.292,63.126L111.7,63.932ZM96.606,52.861L97.198,52.055L97.197,52.054L96.606,52.861ZM90.233,51.302L90.385,52.29L90.385,52.29L90.233,51.302ZM84.623,54.705L83.817,54.114L83.817,54.114L84.623,54.705ZM58.995,89.65L58.189,89.058C58.032,89.272 57.966,89.54 58.007,89.802C58.047,90.064 58.19,90.299 58.404,90.456L58.995,89.65ZM66.488,96.384C66.933,96.711 67.559,96.614 67.886,96.169C68.212,95.724 68.116,95.098 67.671,94.771L66.488,96.384ZM79.416,105.866L87.329,111.669L88.512,110.056L80.599,104.253L79.416,105.866ZM88.727,111.454L114.352,76.51L112.739,75.328L87.114,110.271L88.727,111.454ZM114.353,76.509C115.849,74.459 116.472,71.901 116.086,69.392L114.109,69.697C114.415,71.682 113.921,73.707 112.737,75.33L114.353,76.509ZM116.086,69.392C115.7,66.885 114.337,64.632 112.293,63.127L111.107,64.737C112.724,65.928 113.804,67.711 114.109,69.697L116.086,69.392ZM112.292,63.126L97.198,52.055L96.015,53.667L111.109,64.738L112.292,63.126ZM97.197,52.054C95.15,50.554 92.59,49.927 90.081,50.314L90.385,52.29C92.37,51.985 94.395,52.48 96.015,53.668L97.197,52.054ZM90.081,50.314C87.572,50.7 85.319,52.067 83.817,54.114L85.43,55.297C86.618,53.677 88.4,52.596 90.385,52.29L90.081,50.314ZM83.817,54.114L58.189,89.058L59.802,90.241L85.43,55.296L83.817,54.114ZM58.404,90.456L66.488,96.384L67.671,94.771L59.586,88.843L58.404,90.456Z" fill="#120071"/>
<path d="M115.195,70.754L116.195,70.74C116.191,70.436 116.049,70.151 115.809,69.965C115.569,69.778 115.258,69.711 114.962,69.782L115.195,70.754ZM105.947,68.418L105.468,69.295C105.48,69.302 105.492,69.308 105.504,69.314L105.947,68.418ZM101.633,67.523L101.543,66.527C101.533,66.528 101.523,66.529 101.513,66.531L101.633,67.523ZM82.09,70.322L82.71,69.537L82.71,69.537L82.09,70.322ZM75.83,66.692L75.992,65.705C75.62,65.644 75.246,65.797 75.023,66.101L75.83,66.692ZM71.503,72.592L70.697,72.001C70.37,72.446 70.467,73.072 70.912,73.399C71.357,73.725 71.983,73.629 72.31,73.184L71.503,72.592ZM75.065,70.432L75.217,71.42L75.217,71.42L75.065,70.432ZM79.112,71.422L78.521,72.228L78.521,72.229L79.112,71.422ZM99.279,86.211L99.87,85.404L99.87,85.404L99.279,86.211ZM101.393,89.51L102.372,89.309L102.372,89.309L101.393,89.51ZM100.743,93.374L99.882,92.864C99.61,93.323 99.747,93.914 100.191,94.208C100.636,94.502 101.234,94.395 101.549,93.965L100.743,93.374ZM113.548,75.916L114.355,76.507L114.355,76.507L113.548,75.916ZM114.962,69.782C112.833,70.292 111.405,70.054 110.204,69.574C109.58,69.324 108.999,69.001 108.377,68.637C107.77,68.282 107.103,67.873 106.389,67.521L105.504,69.314C106.135,69.626 106.714,69.981 107.366,70.363C108.002,70.735 108.691,71.123 109.461,71.431C111.048,72.066 112.899,72.333 115.428,71.727L114.962,69.782ZM106.426,67.54C104.935,66.726 103.234,66.374 101.543,66.527L101.724,68.519C103.021,68.401 104.325,68.672 105.468,69.295L106.426,67.54ZM101.513,66.531C99.972,66.718 98.378,67.388 96.837,68.116C95.244,68.868 93.703,69.682 92.081,70.321C90.477,70.952 88.91,71.362 87.366,71.318C85.848,71.275 84.298,70.792 82.71,69.537L81.47,71.106C83.393,72.625 85.358,73.262 87.309,73.317C89.236,73.372 91.092,72.86 92.814,72.182C94.517,71.511 96.205,70.626 97.691,69.925C99.228,69.199 100.564,68.66 101.754,68.516L101.513,66.531ZM82.71,69.537C80.79,68.021 79.23,66.237 75.992,65.705L75.668,67.679C78.252,68.103 79.282,69.378 81.47,71.107L82.71,69.537ZM75.023,66.101L70.697,72.001L72.31,73.184L76.636,67.283L75.023,66.101ZM72.31,73.184C73.007,72.234 74.053,71.599 75.217,71.42L74.913,69.443C73.224,69.703 71.708,70.623 70.697,72.001L72.31,73.184ZM75.217,71.42C76.382,71.241 77.57,71.532 78.521,72.228L79.703,70.616C78.325,69.605 76.602,69.183 74.913,69.443L75.217,71.42ZM78.521,72.229L98.688,87.017L99.87,85.404L79.703,70.616L78.521,72.229ZM98.687,87.017C99.577,87.669 100.192,88.629 100.413,89.71L102.372,89.309C102.052,87.742 101.16,86.35 99.87,85.404L98.687,87.017ZM100.413,89.71C100.634,90.791 100.444,91.915 99.882,92.864L101.603,93.883C102.418,92.508 102.693,90.877 102.372,89.309L100.413,89.71ZM101.549,93.965L114.355,76.507L112.742,75.324L99.936,92.782L101.549,93.965ZM114.355,76.507C115.579,74.836 116.225,72.811 116.195,70.74L114.195,70.769C114.219,72.405 113.708,74.005 112.742,75.325L114.355,76.507Z" fill="#120071"/>
<path d="M99.279,86.211L99.87,85.404L99.87,85.404L99.279,86.211ZM79.112,71.422L78.516,72.225L78.521,72.229L79.112,71.422ZM77.185,70.512L77.427,69.542L77.427,69.542L77.185,70.512ZM73.052,71.136L73.569,71.992L73.569,71.992L73.052,71.136ZM71.479,72.575L70.673,71.983L70.673,71.983L71.479,72.575ZM70.58,74.507L71.551,74.743L71.551,74.743L70.58,74.507ZM70.491,76.636L69.503,76.791L69.503,76.791L70.491,76.636ZM71.226,78.636L72.079,78.114L72.079,78.114L71.226,78.636ZM72.674,80.201L73.265,79.394L73.26,79.391L72.674,80.201ZM92.841,94.99L92.25,95.796L92.25,95.796L92.841,94.99ZM96.624,96.014L96.727,97.009L96.728,97.009L96.624,96.014ZM100.114,94.232L100.859,94.899C100.881,94.875 100.901,94.849 100.921,94.823L100.114,94.232ZM100.742,93.374L101.549,93.965C101.568,93.939 101.586,93.912 101.603,93.884L100.742,93.374ZM101.393,89.51L102.372,89.31L102.372,89.31L101.393,89.51ZM99.87,85.404L79.703,70.616L78.521,72.229L98.687,87.017L99.87,85.404ZM79.708,70.619C79.026,70.113 78.25,69.747 77.427,69.542L76.943,71.482C77.511,71.624 78.046,71.876 78.516,72.225L79.708,70.619ZM77.427,69.542C76.603,69.336 75.746,69.296 74.907,69.423L75.205,71.4C75.784,71.313 76.375,71.341 76.943,71.482L77.427,69.542ZM74.907,69.423C74.067,69.55 73.261,69.841 72.534,70.281L73.569,71.992C74.07,71.689 74.626,71.488 75.205,71.4L74.907,69.423ZM72.534,70.28C71.808,70.72 71.175,71.299 70.673,71.983L72.286,73.166C72.632,72.694 73.068,72.295 73.569,71.992L72.534,70.28ZM70.673,71.983C70.171,72.668 69.809,73.445 69.608,74.27L71.551,74.743C71.69,74.174 71.939,73.638 72.286,73.166L70.673,71.983ZM69.608,74.27C69.407,75.095 69.372,75.952 69.503,76.791L71.479,76.482C71.388,75.903 71.413,75.312 71.551,74.743L69.608,74.27ZM69.503,76.791C69.634,77.63 69.93,78.434 70.374,79.159L72.079,78.114C71.773,77.615 71.569,77.06 71.479,76.481L69.503,76.791ZM70.374,79.159C70.817,79.883 71.399,80.512 72.087,81.011L73.26,79.391C72.786,79.048 72.385,78.614 72.079,78.114L70.374,79.159ZM72.082,81.007L92.25,95.796L93.433,94.183L73.265,79.395L72.082,81.007ZM92.25,95.796C93.54,96.742 95.136,97.174 96.727,97.009L96.521,95.019C95.423,95.134 94.322,94.835 93.433,94.183L92.25,95.796ZM96.728,97.009C98.318,96.842 99.791,96.091 100.859,94.899L99.369,93.565C98.633,94.386 97.617,94.904 96.52,95.019L96.728,97.009ZM100.921,94.823L101.549,93.965L99.936,92.783L99.307,93.641L100.921,94.823ZM101.603,93.884C102.418,92.508 102.693,90.877 102.372,89.31L100.413,89.71C100.634,90.791 100.444,91.915 99.882,92.864L101.603,93.884ZM102.372,89.31C102.052,87.742 101.16,86.35 99.87,85.404L98.687,87.017C99.577,87.669 100.192,88.629 100.413,89.71L102.372,89.31Z" fill="#120071"/>
<path d="M89.295,92.389L90.102,92.981C90.428,92.535 90.332,91.909 89.887,91.583L89.295,92.389ZM76.368,82.909L76.959,82.103C76.514,81.776 75.888,81.873 75.562,82.318L76.368,82.909ZM54.66,112.512L53.854,111.92C53.527,112.366 53.623,112.991 54.069,113.318L54.66,112.512ZM67.588,121.992L66.996,122.798C67.21,122.955 67.477,123.02 67.74,122.98C68.002,122.94 68.237,122.797 68.394,122.583L67.588,121.992ZM89.887,91.583L76.959,82.103L75.777,83.716L88.704,93.196L89.887,91.583ZM75.562,82.318L53.854,111.92L55.467,113.103L77.175,83.501L75.562,82.318ZM54.069,113.318L66.996,122.798L68.179,121.185L55.252,111.705L54.069,113.318ZM68.394,122.583L90.102,92.981L88.489,91.798L66.781,121.4L68.394,122.583Z" fill="#120071"/>
<path d="M75.501,127.795L76.308,128.387C76.465,128.173 76.53,127.906 76.49,127.643C76.45,127.381 76.307,127.146 76.093,126.989L75.501,127.795ZM46.577,106.584L47.168,105.778C46.723,105.451 46.097,105.548 45.77,105.993L46.577,106.584ZM44.856,108.93L44.05,108.338C43.893,108.552 43.828,108.82 43.868,109.082C43.908,109.344 44.051,109.579 44.265,109.736L44.856,108.93ZM73.781,130.141L73.19,130.947C73.635,131.274 74.261,131.178 74.588,130.732L73.781,130.141ZM76.093,126.989L47.168,105.778L45.985,107.391L74.91,128.602L76.093,126.989ZM45.77,105.993L44.05,108.338L45.663,109.521L47.383,107.176L45.77,105.993ZM44.265,109.736L73.19,130.947L74.373,129.334L45.448,108.123L44.265,109.736ZM74.588,130.732L76.308,128.387L74.695,127.204L72.975,129.549L74.588,130.732Z" fill="#120071"/>
<path d="M113.793,49.936L114.599,50.528C114.926,50.082 114.829,49.456 114.384,49.13L113.793,49.936ZM109.494,46.784L110.085,45.977C109.871,45.82 109.604,45.755 109.342,45.795C109.08,45.836 108.844,45.978 108.688,46.192L109.494,46.784ZM102.089,56.882L101.283,56.29C100.956,56.736 101.053,57.361 101.498,57.688L102.089,56.882ZM106.388,60.034L105.797,60.84C106.011,60.997 106.278,61.063 106.54,61.022C106.802,60.982 107.038,60.839 107.195,60.625L106.388,60.034ZM114.384,49.13L110.085,45.977L108.903,47.59L113.201,50.743L114.384,49.13ZM108.688,46.192L101.283,56.29L102.896,57.473L110.3,47.375L108.688,46.192ZM101.498,57.688L105.797,60.84L106.979,59.228L102.681,56.075L101.498,57.688ZM107.195,60.625L114.599,50.528L112.986,49.345L105.582,59.443L107.195,60.625Z" fill="#120071"/>
<path d="M83.662,56.397C83.217,56.07 82.591,56.166 82.264,56.612C81.938,57.057 82.034,57.683 82.48,58.01L83.662,56.397ZM86.376,60.866C86.822,61.193 87.448,61.096 87.774,60.651C88.101,60.206 88.004,59.58 87.559,59.253L86.376,60.866ZM82.48,58.01L86.376,60.866L87.559,59.253L83.662,56.397L82.48,58.01Z" fill="#120071"/>
<path d="M81.494,59.353C81.049,59.026 80.423,59.123 80.096,59.568C79.77,60.013 79.866,60.639 80.312,60.966L81.494,59.353ZM84.208,63.822C84.654,64.149 85.28,64.052 85.606,63.607C85.933,63.162 85.836,62.536 85.391,62.209L84.208,63.822ZM80.312,60.966L84.208,63.822L85.391,62.209L81.494,59.353L80.312,60.966Z" fill="#120071"/>
<path d="M79.17,62.521C78.725,62.194 78.099,62.29 77.773,62.736C77.446,63.181 77.542,63.807 77.988,64.134L79.17,62.521ZM81.885,66.991C82.33,67.318 82.956,67.222 83.282,66.776C83.609,66.331 83.513,65.705 83.067,65.378L81.885,66.991ZM77.988,64.134L81.885,66.991L83.067,65.378L79.17,62.521L77.988,64.134Z" fill="#120071"/>
<path d="M55.511,85.855C55.066,85.528 54.44,85.624 54.114,86.07C53.787,86.515 53.883,87.141 54.329,87.467L55.511,85.855ZM58.404,90.456C58.849,90.783 59.475,90.686 59.801,90.241C60.128,89.796 60.032,89.17 59.586,88.843L58.404,90.456ZM54.329,87.467L58.404,90.456L59.586,88.843L55.511,85.855L54.329,87.467Z" fill="#120071"/>
<path d="M88.512,110.053C88.066,109.727 87.441,109.823 87.114,110.268C86.787,110.714 86.884,111.339 87.329,111.666L88.512,110.053ZM91.226,114.524C91.671,114.85 92.297,114.754 92.624,114.309C92.95,113.863 92.854,113.237 92.409,112.911L91.226,114.524ZM87.329,111.666L91.226,114.524L92.409,112.911L88.512,110.053L87.329,111.666Z" fill="#120071"/>
<path d="M128.887,26.729C129.215,26.284 129.121,25.658 128.677,25.33C128.233,25.002 127.607,25.096 127.278,25.54L128.887,26.729ZM110.857,47.778C110.529,48.222 110.623,48.848 111.067,49.177C111.511,49.505 112.137,49.41 112.466,48.966L110.857,47.778ZM127.278,25.54L110.857,47.778L112.466,48.966L128.887,26.729L127.278,25.54Z" fill="#120071"/>
<path d="M50.683,141.44L49.737,141.115C49.723,141.157 49.711,141.2 49.703,141.243L50.683,141.44ZM51.351,129.643L52.328,129.427L52.328,129.427L51.351,129.643ZM45.781,119.223L45.199,118.409C44.963,118.578 44.812,118.841 44.785,119.13C44.758,119.419 44.858,119.706 45.059,119.915L45.781,119.223ZM46.347,118.585L45.47,118.104L45.469,118.105L46.347,118.585ZM46.579,117.765L47.578,117.816L47.578,117.816L46.579,117.765ZM45.934,116.232L45.273,116.983L45.273,116.983L45.934,116.232ZM44.333,115.785L44.507,116.77L44.51,116.769L44.333,115.785ZM43.548,116.119L44.134,116.929L44.136,116.928L43.548,116.119ZM42.986,116.76L42.392,117.565C42.625,117.737 42.922,117.799 43.204,117.736C43.487,117.673 43.729,117.49 43.866,117.235L42.986,116.76ZM27.859,112.588L27.956,113.583L27.956,113.583L27.859,112.588ZM13.829,119.617L13.095,120.296C13.285,120.502 13.553,120.618 13.832,120.617C14.112,120.616 14.379,120.498 14.568,120.291L13.829,119.617ZM10.776,119.766L9.98,119.16L9.979,119.162L10.776,119.766ZM10.415,120.551L11.393,120.762L11.393,120.762L10.415,120.551ZM10.42,121.415L9.445,121.636L9.445,121.637L10.42,121.415ZM10.789,122.195L11.58,121.582L11.578,121.58L10.789,122.195ZM11.454,122.746L12.301,123.278C12.45,123.04 12.492,122.751 12.418,122.481C12.344,122.211 12.16,121.985 11.91,121.857L11.454,122.746ZM8.3,131.51L7.309,131.38L7.309,131.38L8.3,131.51ZM9.08,140.792L9.411,141.735C9.918,141.558 10.194,141.011 10.036,140.498L9.08,140.792ZM7.919,141.858L7.007,141.449L7.007,141.449L7.919,141.858ZM7.895,143.434L6.97,143.815L6.971,143.816L7.895,143.434ZM8.345,144.101L7.645,144.815L7.647,144.817L8.345,144.101ZM9.023,144.536L8.663,145.469L8.663,145.469L9.023,144.536ZM9.817,144.668L9.853,145.667L9.857,145.667L9.817,144.668ZM10.598,144.475L11.485,144.013C11.236,143.535 10.654,143.341 10.169,143.572L10.598,144.475ZM18.792,153.148L18.28,154.007L18.28,154.007L18.792,153.148ZM30.32,156.222L31.317,156.301C31.339,156.02 31.242,155.743 31.049,155.538C30.856,155.332 30.586,155.218 30.304,155.223L30.32,156.222ZM30.442,157.08L29.506,157.432L29.506,157.433L30.442,157.08ZM31.652,158.26L31.983,157.317L31.98,157.315L31.652,158.26ZM32.513,158.361L32.614,159.356L32.617,159.355L32.513,158.361ZM33.962,157.489L34.792,158.047L34.793,158.045L33.962,157.489ZM34.277,156.681L33.288,156.529L33.288,156.53L34.277,156.681ZM34.219,155.818L34.025,154.837C33.75,154.891 33.51,155.059 33.364,155.299C33.219,155.539 33.181,155.829 33.26,156.099L34.219,155.818ZM42.808,152.077L43.394,152.887L43.394,152.887L42.808,152.077ZM49.047,145.089L49.456,144.177C48.985,143.965 48.43,144.148 48.176,144.598L49.047,145.089ZM49.807,145.264L49.777,146.263L49.781,146.263L49.807,145.264ZM50.575,145.134L50.932,146.068L50.932,146.068L50.575,145.134ZM51.236,144.72L51.92,145.449L51.923,145.447L51.236,144.72ZM51.732,142.557L52.666,142.201L52.666,142.201L51.732,142.557ZM51.318,141.896L52.046,141.21L52.044,141.208L51.318,141.896ZM50.682,141.445L49.702,141.248C49.61,141.706 49.847,142.166 50.273,142.357L50.682,141.445ZM51.629,141.764C52.99,137.794 53.232,133.526 52.328,129.427L50.375,129.858C51.2,133.598 50.979,137.493 49.737,141.115L51.629,141.764ZM52.328,129.427C51.423,125.329 49.408,121.559 46.502,118.531L45.059,119.915C47.71,122.679 49.549,126.119 50.375,129.858L52.328,129.427ZM46.362,120.036C46.718,119.782 47.013,119.45 47.224,119.064L45.469,118.105C45.403,118.225 45.312,118.329 45.199,118.409L46.362,120.036ZM47.224,119.065C47.434,118.681 47.555,118.253 47.578,117.816L45.58,117.714C45.573,117.85 45.535,117.984 45.47,118.104L47.224,119.065ZM47.578,117.816C47.6,117.378 47.523,116.94 47.353,116.536L45.51,117.313C45.563,117.439 45.587,117.576 45.58,117.714L47.578,117.816ZM47.353,116.536C47.183,116.134 46.924,115.772 46.594,115.482L45.273,116.983C45.375,117.073 45.456,117.186 45.51,117.313L47.353,116.536ZM46.594,115.482C46.265,115.192 45.875,114.981 45.455,114.863L44.914,116.788C45.047,116.826 45.17,116.892 45.273,116.983L46.594,115.482ZM45.455,114.863C45.031,114.744 44.587,114.723 44.155,114.801L44.51,116.769C44.645,116.745 44.783,116.751 44.914,116.788L45.455,114.863ZM44.158,114.8C43.725,114.877 43.315,115.052 42.96,115.31L44.136,116.928C44.247,116.847 44.374,116.793 44.507,116.77L44.158,114.8ZM42.962,115.309C42.606,115.566 42.314,115.901 42.106,116.286L43.866,117.235C43.932,117.114 44.024,117.009 44.134,116.929L42.962,115.309ZM43.58,115.956C39.028,112.595 33.392,111.04 27.761,111.592L27.956,113.583C33.095,113.079 38.238,114.497 42.392,117.565L43.58,115.956ZM27.761,111.592C22.13,112.143 16.903,114.763 13.09,118.943L14.568,120.291C18.047,116.476 22.817,114.086 27.956,113.583L27.761,111.592ZM14.563,118.938C14.265,118.616 13.901,118.365 13.497,118.2L12.74,120.051C12.876,120.106 12.997,120.19 13.095,120.296L14.563,118.938ZM13.497,118.2C13.091,118.034 12.655,117.96 12.22,117.981L12.315,119.978C12.462,119.971 12.607,119.996 12.74,120.051L13.497,118.2ZM12.22,117.981C11.782,118.001 11.355,118.119 10.968,118.323L11.901,120.092C12.03,120.024 12.171,119.985 12.315,119.978L12.22,117.981ZM10.968,118.323C10.581,118.527 10.244,118.814 9.98,119.16L11.572,120.371C11.66,120.255 11.773,120.159 11.901,120.092L10.968,118.323ZM9.979,119.162C9.715,119.51 9.53,119.912 9.438,120.34L11.393,120.762C11.423,120.62 11.485,120.486 11.573,120.369L9.979,119.162ZM9.438,120.339C9.345,120.767 9.348,121.21 9.445,121.636L11.395,121.193C11.363,121.05 11.362,120.904 11.393,120.762L9.438,120.339ZM9.445,121.637C9.542,122.062 9.731,122.463 10,122.809L11.578,121.58C11.49,121.467 11.427,121.335 11.395,121.193L9.445,121.637ZM9.999,122.807C10.267,123.154 10.608,123.436 10.997,123.636L11.91,121.857C11.781,121.79 11.668,121.697 11.58,121.582L9.999,122.807ZM10.607,122.215C8.862,124.998 7.737,128.124 7.309,131.38L9.292,131.641C9.683,128.669 10.709,125.817 12.301,123.278L10.607,122.215ZM7.309,131.38C6.88,134.636 7.158,137.947 8.124,141.086L10.036,140.498C9.155,137.633 8.901,134.612 9.292,131.641L7.309,131.38ZM8.749,139.848C8.365,139.982 8.013,140.194 7.713,140.469L9.066,141.942C9.166,141.85 9.283,141.78 9.411,141.735L8.749,139.848ZM7.713,140.469C7.413,140.745 7.173,141.079 7.007,141.449L8.832,142.268C8.887,142.144 8.967,142.033 9.066,141.942L7.713,140.469ZM7.007,141.449C6.84,141.82 6.751,142.221 6.745,142.628L8.745,142.659C8.747,142.524 8.776,142.391 8.832,142.267L7.007,141.449ZM6.745,142.628C6.739,143.035 6.816,143.439 6.97,143.815L8.82,143.054C8.768,142.928 8.743,142.794 8.745,142.659L6.745,142.628ZM6.971,143.816C7.126,144.192 7.356,144.531 7.645,144.815L9.046,143.387C8.947,143.291 8.871,143.177 8.819,143.053L6.971,143.816ZM7.647,144.817C7.938,145.101 8.284,145.323 8.663,145.469L9.383,143.603C9.256,143.554 9.14,143.48 9.044,143.386L7.647,144.817ZM8.663,145.469C9.044,145.616 9.449,145.682 9.853,145.667L9.78,143.668C9.642,143.673 9.507,143.651 9.382,143.603L8.663,145.469ZM9.857,145.667C10.263,145.651 10.661,145.552 11.027,145.378L10.169,143.572C10.045,143.63 9.911,143.663 9.777,143.669L9.857,145.667ZM9.711,144.937C11.671,148.697 14.638,151.837 18.28,154.007L19.304,152.289C15.98,150.308 13.273,147.443 11.485,144.013L9.711,144.937ZM18.28,154.007C21.923,156.177 26.097,157.29 30.336,157.222L30.304,155.223C26.436,155.285 22.627,154.268 19.304,152.289L18.28,154.007ZM29.323,156.144C29.289,156.582 29.351,157.021 29.506,157.432L31.378,156.729C31.327,156.592 31.306,156.446 31.317,156.301L29.323,156.144ZM29.506,157.433C29.66,157.842 29.903,158.215 30.218,158.522L31.614,157.089C31.51,156.988 31.429,156.864 31.377,156.727L29.506,157.433ZM30.218,158.522C30.532,158.827 30.91,159.062 31.325,159.205L31.98,157.315C31.843,157.268 31.718,157.191 31.614,157.089L30.218,158.522ZM31.322,159.204C31.739,159.35 32.18,159.4 32.614,159.356L32.412,157.366C32.264,157.381 32.118,157.364 31.983,157.317L31.322,159.204ZM32.617,159.355C33.053,159.31 33.474,159.169 33.85,158.943L32.819,157.229C32.694,157.304 32.554,157.351 32.408,157.366L32.617,159.355ZM33.85,158.943C34.226,158.717 34.547,158.411 34.792,158.047L33.132,156.931C33.051,157.052 32.944,157.154 32.819,157.229L33.85,158.943ZM34.793,158.045C35.037,157.681 35.198,157.269 35.265,156.833L33.288,156.53C33.266,156.674 33.213,156.81 33.131,156.933L34.793,158.045ZM35.265,156.834C35.332,156.4 35.302,155.957 35.179,155.536L33.26,156.099C33.301,156.239 33.31,156.386 33.288,156.529L35.265,156.834ZM34.413,156.799C37.654,156.158 40.718,154.824 43.394,152.887L42.222,151.267C39.779,153.034 36.983,154.252 34.025,154.837L34.413,156.799ZM43.394,152.887C46.071,150.951 48.296,148.458 49.918,145.58L48.176,144.598C46.696,147.225 44.664,149.5 42.222,151.267L43.394,152.887ZM48.638,146.002C48.997,146.163 49.384,146.251 49.777,146.263L49.837,144.264C49.705,144.26 49.576,144.231 49.456,144.177L48.638,146.002ZM49.781,146.263C50.17,146.274 50.562,146.209 50.932,146.068L50.219,144.199C50.099,144.245 49.968,144.268 49.833,144.264L49.781,146.263ZM50.932,146.068C51.299,145.928 51.635,145.717 51.92,145.449L50.551,143.991C50.455,144.082 50.341,144.153 50.219,144.199L50.932,146.068ZM51.923,145.447C52.208,145.177 52.438,144.853 52.6,144.494L50.775,143.675C50.721,143.795 50.644,143.903 50.549,143.993L51.923,145.447ZM52.6,144.494C52.761,144.135 52.849,143.748 52.861,143.354L50.862,143.296C50.858,143.427 50.828,143.556 50.775,143.675L52.6,144.494ZM52.861,143.354C52.872,142.961 52.806,142.569 52.666,142.201L50.797,142.912C50.843,143.035 50.865,143.165 50.862,143.296L52.861,143.354ZM52.666,142.201C52.526,141.833 52.315,141.497 52.046,141.21L50.59,142.581C50.68,142.677 50.75,142.79 50.797,142.913L52.666,142.201ZM52.044,141.208C51.774,140.924 51.451,140.694 51.092,140.532L50.273,142.357C50.392,142.411 50.501,142.488 50.591,142.583L52.044,141.208ZM51.663,141.641L51.664,141.636L49.703,141.243L49.702,141.248L51.663,141.641Z" fill="#120071"/>
<path d="M41.983,139.12C42.176,138.602 41.912,138.026 41.395,137.834C40.877,137.641 40.301,137.905 40.109,138.422L41.983,139.12ZM18.19,130.304C17.998,130.822 18.262,131.397 18.779,131.59C19.297,131.782 19.873,131.518 20.065,131L18.19,130.304ZM40.109,138.422C39.541,139.946 38.235,140.48 37.41,140.174L36.715,142.049C38.915,142.864 41.171,141.302 41.983,139.12L40.109,138.422ZM37.41,140.174C36.583,139.868 35.94,138.611 36.504,137.088L34.628,136.394C33.819,138.578 34.515,141.234 36.715,142.049L37.41,140.174ZM36.504,137.088C37.313,134.903 36.617,132.247 34.417,131.432L33.722,133.308C34.549,133.614 35.192,134.871 34.628,136.394L36.504,137.088ZM34.417,131.432C32.216,130.617 29.957,132.186 29.149,134.364L31.024,135.06C31.588,133.54 32.897,133.002 33.722,133.308L34.417,131.432ZM29.149,134.364C28.584,135.884 27.276,136.421 26.451,136.115L25.756,137.991C27.957,138.806 30.215,137.237 31.024,135.06L29.149,134.364ZM26.451,136.115C25.625,135.809 24.981,134.552 25.545,133.029L23.67,132.334C22.86,134.519 23.556,137.176 25.756,137.991L26.451,136.115ZM25.545,133.029C26.354,130.843 25.657,128.188 23.457,127.373L22.763,129.249C23.589,129.555 24.233,130.812 23.67,132.334L25.545,133.029ZM23.457,127.373C21.256,126.558 18.999,128.127 18.19,130.304L20.065,131C20.629,129.48 21.938,128.943 22.763,129.249L23.457,127.373Z" fill="#120071"/>
<path d="M45.781,119.223L45.199,118.409C44.963,118.578 44.812,118.842 44.785,119.131C44.758,119.42 44.858,119.707 45.06,119.916L45.781,119.223ZM46.346,118.585L45.47,118.104L45.469,118.105L46.346,118.585ZM46.579,117.765L47.577,117.816L47.577,117.816L46.579,117.765ZM46.431,116.925L47.353,116.536L47.353,116.536L46.431,116.925ZM45.933,116.232L46.596,115.483L46.594,115.482L45.933,116.232ZM45.184,115.825L45.454,114.863L45.451,114.862L45.184,115.825ZM44.332,115.785L44.507,116.77L44.51,116.769L44.332,115.785ZM43.548,116.119L44.133,116.929L44.135,116.928L43.548,116.119ZM42.986,116.76L42.392,117.565C42.625,117.737 42.921,117.799 43.204,117.736C43.487,117.673 43.729,117.49 43.866,117.235L42.986,116.76ZM27.784,112.593L27.683,111.599C27.366,111.631 27.083,111.812 26.922,112.086C26.76,112.361 26.739,112.696 26.865,112.988L27.784,112.593ZM51.05,140.207L50.505,141.046C50.772,141.219 51.105,141.255 51.403,141.143C51.701,141.031 51.927,140.784 52.013,140.478L51.05,140.207ZM51.205,129.014L52.175,128.771L52.175,128.771L51.205,129.014ZM46.362,120.036C46.718,119.782 47.013,119.45 47.224,119.064L45.469,118.105C45.403,118.225 45.311,118.329 45.199,118.409L46.362,120.036ZM47.223,119.065C47.434,118.681 47.555,118.253 47.577,117.816L45.58,117.714C45.573,117.85 45.535,117.984 45.47,118.104L47.223,119.065ZM47.577,117.816C47.6,117.378 47.523,116.94 47.353,116.536L45.51,117.313C45.563,117.439 45.587,117.576 45.58,117.714L47.577,117.816ZM47.353,116.536C47.182,116.132 46.923,115.773 46.596,115.483L45.271,116.981C45.375,117.074 45.457,117.187 45.51,117.313L47.353,116.536ZM46.594,115.482C46.265,115.192 45.875,114.981 45.454,114.863L44.914,116.788C45.047,116.826 45.17,116.892 45.273,116.983L46.594,115.482ZM45.451,114.862C45.032,114.746 44.589,114.722 44.154,114.801L44.51,116.769C44.642,116.745 44.781,116.752 44.917,116.789L45.451,114.862ZM44.158,114.8C43.724,114.877 43.315,115.052 42.96,115.31L44.135,116.928C44.246,116.847 44.373,116.793 44.507,116.77L44.158,114.8ZM42.962,115.308C42.606,115.566 42.313,115.901 42.106,116.286L43.866,117.235C43.932,117.113 44.023,117.009 44.133,116.929L42.962,115.308ZM43.58,115.956C39.007,112.578 33.339,111.024 27.683,111.599L27.885,113.588C33.046,113.064 38.218,114.482 42.392,117.565L43.58,115.956ZM26.865,112.988C31.8,124.471 40.027,134.234 50.505,141.046L51.596,139.369C41.448,132.772 33.482,123.319 28.702,112.199L26.865,112.988ZM52.013,140.478C53.086,136.656 53.142,132.621 52.175,128.771L50.235,129.258C51.117,132.77 51.066,136.451 50.088,139.937L52.013,140.478ZM52.175,128.771C51.208,124.922 49.252,121.391 46.501,118.53L45.06,119.916C47.569,122.526 49.353,125.747 50.235,129.258L52.175,128.771Z" fill="#120071"/>
<line x1="48.954" y1="9.709" x2="48.954" y2="19.902" stroke="#120071" stroke-width="1" stroke-miterlimit="3.999327" stroke-linecap="round" stroke-linejoin="round"/>
<line x1="44.857" y1="13.805" x2="55.051" y2="13.805" stroke="#120071" stroke-width="1" stroke-miterlimit="3.999327" stroke-linecap="round" stroke-linejoin="round"/>
<line x1="166.3" y1="94.148" x2="166.3" y2="104.342" stroke="#120071" stroke-width="1" stroke-miterlimit="3.999327" stroke-linecap="round" stroke-linejoin="round"/>
<line x1="162.204" y1="98.245" x2="172.398" y2="98.245" stroke="#120071" stroke-width="1" stroke-miterlimit="3.999327" stroke-linecap="round" stroke-linejoin="round"/>
<line x1="182.892" y1="69.237" x2="182.892" y2="76.774" stroke="#120071" stroke-width="1" stroke-miterlimit="3.999327" stroke-linecap="round" stroke-linejoin="round"/>
<line x1="180.123" y1="72.006" x2="187.66" y2="72.006" stroke="#120071" stroke-width="1" stroke-miterlimit="3.999327" stroke-linecap="round" stroke-linejoin="round"/>
<path d="M109.689,161.673C109.298,161.282 108.665,161.282 108.274,161.673C107.884,162.063 107.884,162.696 108.274,163.087L109.689,161.673ZM112.266,167.078C112.656,167.469 113.289,167.469 113.68,167.078C114.071,166.688 114.071,166.055 113.68,165.664L112.266,167.078ZM108.274,163.087L112.266,167.078L113.68,165.664L109.689,161.673L108.274,163.087Z" fill="#120071"/>
<path d="M108.274,165.664C107.884,166.055 107.884,166.688 108.274,167.078C108.665,167.469 109.298,167.469 109.689,167.078L108.274,165.664ZM113.68,163.087C114.071,162.696 114.071,162.063 113.68,161.673C113.289,161.282 112.656,161.282 112.266,161.673L113.68,163.087ZM109.689,167.078L113.68,163.087L112.266,161.673L108.274,165.664L109.689,167.078Z" fill="#120071"/>
<path d="M1.492,152.159C1.101,151.769 0.468,151.769 0.078,152.159C-0.313,152.55 -0.313,153.183 0.078,153.573L1.492,152.159ZM9.591,163.087C9.982,163.477 10.615,163.477 11.005,163.087C11.396,162.696 11.396,162.063 11.005,161.673L9.591,163.087ZM0.078,153.573L9.591,163.087L11.005,161.673L1.492,152.159L0.078,153.573Z" fill="#120071"/>
<path d="M0.078,161.673C-0.313,162.063 -0.313,162.696 0.078,163.087C0.468,163.477 1.101,163.477 1.492,163.087L0.078,161.673ZM11.005,153.573C11.396,153.183 11.396,152.55 11.005,152.159C10.615,151.769 9.982,151.769 9.591,152.159L11.005,153.573ZM1.492,163.087L11.005,153.573L9.591,152.159L0.078,161.673L1.492,163.087Z" fill="#120071"/>
<path d="M127.42,11.083C130.301,11.083 132.636,8.748 132.636,5.867L130.636,5.867C130.636,7.643 129.196,9.083 127.42,9.083L127.42,11.083ZM132.636,5.867C132.636,2.986 130.301,0.651 127.42,0.651L127.42,2.651C129.196,2.651 130.636,4.091 130.636,5.867L132.636,5.867ZM127.42,0.651C124.539,0.651 122.204,2.986 122.204,5.867L124.204,5.867C124.204,4.091 125.643,2.651 127.42,2.651L127.42,0.651ZM122.204,5.867C122.204,8.748 124.539,11.083 127.42,11.083L127.42,9.083C125.643,9.083 124.204,7.643 124.204,5.867L122.204,5.867Z" fill="#120071"/>
<path d="M115.908,19.594C117.469,19.594 118.735,18.329 118.735,16.768L116.735,16.768C116.735,17.224 116.365,17.594 115.908,17.594L115.908,19.594ZM118.735,16.768C118.735,15.207 117.469,13.941 115.908,13.941L115.908,15.941C116.365,15.941 116.735,16.311 116.735,16.768L118.735,16.768ZM115.908,13.941C114.347,13.941 113.082,15.207 113.082,16.768L115.082,16.768C115.082,16.311 115.452,15.941 115.908,15.941L115.908,13.941ZM113.082,16.768C113.082,18.329 114.347,19.594 115.908,19.594L115.908,17.594C115.452,17.594 115.082,17.224 115.082,16.768L113.082,16.768Z" fill="#120071"/>
</svg>
