<svg width="700" height="640" viewBox="0 0 700 640" fill="none" xmlns="http://www.w3.org/2000/svg" xmlns:xlink="http://www.w3.org/1999/xlink">
<path d="M351.691,638.515C543.801,638.515 699.537,625 699.537,608.329C699.537,591.657 543.801,578.142 351.691,578.142C159.581,578.142 3.845,591.657 3.845,608.329C3.845,625 159.581,638.515 351.691,638.515Z" fill="#263238"/>
<path d="M443.011,432.39C445.907,433.659 452.984,433.495 452.984,433.495C452.984,433.495 451.491,428.867 451.341,428.584C449.849,425.344 444.877,419.97 440.891,420.522C440.231,420.63 439.601,420.875 439.042,421.243C438.483,421.61 438.008,422.091 437.648,422.655C437.287,423.218 437.049,423.851 436.95,424.513C436.85,425.174 436.891,425.849 437.069,426.494C437.711,429.255 440.548,431.316 443.011,432.39Z" fill="#263238"/>
<path d="M445.459,452.948C448.445,453.381 454.775,451.544 455.283,451.455C456.345,455.022 457.647,458.513 459.179,461.905C460.045,463.921 460.985,465.921 461.956,467.877L460.776,466.19C458.418,463.473 452.267,459.591 448.55,461.174C447.94,461.452 447.397,461.856 446.955,462.359C446.512,462.862 446.181,463.452 445.982,464.092C445.784,464.732 445.722,465.406 445.802,466.071C445.881,466.736 446.1,467.377 446.445,467.951C447.818,470.444 451.087,471.669 453.76,472.057C456.432,472.445 461.866,470.997 463.299,470.564L464.419,472.848C466.255,476.491 468.092,480.118 469.794,483.731C470.391,485 470.928,486.269 471.481,487.538C470.958,486.792 470.525,486.165 470.45,486.045C468.092,483.328 461.941,479.462 458.239,481.029C457.63,481.308 457.086,481.712 456.644,482.214C456.201,482.717 455.869,483.307 455.669,483.946C455.469,484.585 455.406,485.259 455.484,485.924C455.561,486.589 455.777,487.231 456.119,487.807C457.492,490.3 460.776,491.539 463.434,491.927C466.091,492.315 471.018,491.002 472.72,490.524C473.242,491.853 473.765,493.166 474.213,494.48C474.496,495.376 474.825,496.212 475.064,497.138C475.302,498.063 475.571,498.929 475.81,499.81C476.228,501.542 476.661,503.318 477.019,505.005C477.288,506.17 477.512,507.304 477.736,508.424C477.154,507.155 475.974,504.692 475.84,504.498C473.929,501.512 468.375,496.69 464.539,497.675C463.894,497.857 463.295,498.173 462.781,498.602C462.266,499.031 461.848,499.563 461.554,500.165C461.259,500.767 461.095,501.423 461.072,502.093C461.048,502.762 461.167,503.429 461.418,504.05C462.389,506.722 465.449,508.439 468.017,509.23C470.854,510.096 477.124,509.305 477.9,509.23C478.273,511.096 478.617,512.932 478.915,514.649C479.975,520.621 480.632,525.667 481.035,529.19C481.11,529.802 481.169,530.37 481.229,530.892L469.092,530.892L470.585,584.965L497.173,584.965L498.666,530.892L487.246,530.892L487.499,530.37C488.992,527.145 491.202,522.502 493.471,516.814C494.217,515.023 494.964,513.097 495.725,511.111C496.487,511.26 502.682,512.604 505.578,511.873C508.206,511.275 511.371,509.797 512.55,507.2C512.83,506.606 512.984,505.962 513.002,505.306C513.021,504.65 512.904,503.998 512.659,503.39C512.413,502.781 512.045,502.23 511.577,501.771C511.109,501.312 510.551,500.954 509.938,500.721C506.116,499.437 500.279,503.706 498.144,506.692C498.009,506.871 496.86,508.872 496.143,510.156C496.442,509.335 496.755,508.543 497.054,507.707C497.666,506.05 498.218,504.363 498.831,502.572L499.637,499.899C499.92,499.019 500.099,498.048 500.353,497.108C500.861,494.928 501.294,492.629 501.667,490.434C503.16,490.957 508.31,492.763 511.013,492.584C513.715,492.405 517.059,491.405 518.611,489.016C518.994,488.468 519.258,487.845 519.385,487.189C519.512,486.532 519.5,485.857 519.35,485.205C519.199,484.553 518.913,483.941 518.511,483.407C518.109,482.872 517.599,482.429 517.014,482.104C513.431,480.253 506.997,483.597 504.459,486.195C504.295,486.359 502.667,488.389 501.801,489.524C502.01,488.15 502.234,486.792 502.399,485.418C502.891,481.417 503.279,477.357 503.667,473.311C503.787,472.072 503.921,470.833 504.056,469.594C504.563,469.788 510.699,472.072 513.73,471.863C516.402,471.669 519.701,470.683 521.314,468.31C521.699,467.762 521.964,467.14 522.093,466.483C522.221,465.826 522.21,465.149 522.059,464.497C521.908,463.845 521.622,463.231 521.218,462.697C520.814,462.163 520.303,461.72 519.716,461.398C516.133,459.546 509.714,462.89 507.161,465.488C506.967,465.682 504.638,468.593 504.071,469.37C504.369,466.653 504.683,463.935 505.101,461.278C505.644,457.684 506.417,454.129 507.415,450.634C507.654,450.723 514.043,453.142 517.133,452.918C519.821,452.739 523.18,451.753 524.732,449.365C525.118,448.817 525.383,448.195 525.511,447.538C525.64,446.881 525.628,446.204 525.478,445.552C525.327,444.9 525.04,444.287 524.637,443.752C524.233,443.218 523.721,442.776 523.135,442.453C519.552,440.601 513.133,443.946 510.58,446.543C510.386,446.737 507.863,449.887 507.459,450.484C507.459,450.29 507.549,450.066 507.609,449.872C508.722,446.397 510.135,443.025 511.834,439.795C512.744,438.004 513.73,436.347 514.715,434.749C515.85,435.317 521.12,437.869 523.911,437.974C526.703,438.078 530.062,437.481 531.853,435.287C532.297,434.784 532.63,434.194 532.831,433.554C533.032,432.914 533.095,432.239 533.018,431.573C532.94,430.907 532.723,430.264 532.381,429.688C532.039,429.111 531.58,428.613 531.032,428.225C527.673,426.001 520.911,428.688 518.104,430.927C517.94,431.047 516.521,432.42 515.506,433.495C515.969,432.794 516.417,432.002 516.865,431.36C518.552,428.822 520.254,426.613 521.776,424.657C522.657,423.552 523.463,422.567 524.24,421.671C525.658,421.671 531.361,421.477 533.854,420.298C536.347,419.119 539.064,417.029 539.646,414.237C539.808,413.587 539.83,412.911 539.713,412.252C539.595,411.593 539.34,410.967 538.964,410.413C538.588,409.86 538.099,409.391 537.53,409.039C536.961,408.687 536.324,408.459 535.66,408.37C531.659,407.937 526.897,413.431 525.434,416.715C525.3,416.999 523.837,421.671 523.941,421.671L524.031,421.671C523.269,422.537 522.463,423.463 521.612,424.508C520.045,426.434 518.283,428.613 516.536,431.136C514.625,433.819 512.87,436.611 511.281,439.497C509.496,442.728 507.997,446.11 506.803,449.604C506.803,449.604 506.803,449.693 506.803,449.738C506.803,448.559 506.803,445.259 506.803,445.005C506.34,441.437 503.339,434.809 499.338,434.077C498.676,433.972 498,434.007 497.353,434.18C496.705,434.354 496.102,434.662 495.582,435.085C495.062,435.508 494.637,436.035 494.335,436.633C494.033,437.232 493.861,437.887 493.829,438.556C493.605,441.393 495.651,444.229 497.666,446.021C499.92,448.051 506.205,450.007 506.698,450.156C505.571,453.741 504.683,457.396 504.041,461.099C503.667,463.264 503.339,465.443 503.041,467.638C503.041,466.623 503.041,465.697 503.041,465.578C502.578,462.01 499.592,455.381 495.576,454.65C494.916,454.549 494.242,454.587 493.597,454.763C492.953,454.938 492.352,455.247 491.835,455.669C491.317,456.091 490.893,456.617 490.592,457.213C490.29,457.809 490.116,458.461 490.082,459.128C489.843,461.965 491.903,464.816 493.904,466.593C495.904,468.369 501.249,470.176 502.667,470.624L502.354,473.162C501.876,477.207 501.398,481.238 500.861,485.179C500.652,486.583 500.398,487.941 500.159,489.3C500.159,488.404 500.159,487.628 500.159,487.523C499.696,483.955 496.696,477.327 492.695,476.595C492.033,476.489 491.356,476.525 490.709,476.698C490.062,476.872 489.459,477.18 488.939,477.603C488.419,478.025 487.994,478.553 487.692,479.151C487.39,479.749 487.217,480.405 487.186,481.074C486.962,483.91 489.007,486.747 491.023,488.538C493.038,490.33 497.845,491.957 499.532,492.51C499.234,493.898 498.95,495.286 498.592,496.615C498.338,497.526 498.159,498.407 497.845,499.302C497.532,500.198 497.263,501.079 496.994,501.96C496.382,503.617 495.77,505.334 495.143,506.946C494.71,508.066 494.277,509.126 493.844,510.2C494.068,508.827 494.426,506.11 494.441,505.871C494.379,502.723 493.522,499.641 491.948,496.914C491.985,496.561 491.985,496.206 491.948,495.854C491.864,495.189 491.64,494.55 491.293,493.978C490.945,493.405 490.481,492.912 489.931,492.531C489.38,492.149 488.756,491.888 488.098,491.763C487.44,491.639 486.763,491.654 486.111,491.808C482.215,492.853 479.751,499.675 479.557,503.273C479.557,503.482 479.692,505.796 479.796,507.259C479.602,506.408 479.423,505.587 479.214,504.721C478.811,502.99 478.348,501.288 477.855,499.452C477.601,498.571 477.333,497.69 477.049,496.779C476.765,495.869 476.422,494.973 476.109,494.062C475.347,491.957 474.466,489.852 473.526,487.762C475.019,487.404 480.363,486.045 482.483,484.403C484.603,482.761 486.872,480.089 486.857,477.237C486.874,476.568 486.75,475.904 486.494,475.286C486.237,474.668 485.854,474.111 485.368,473.651C484.882,473.19 484.306,472.837 483.675,472.614C483.044,472.391 482.374,472.303 481.707,472.355C477.691,472.788 474.242,479.178 473.496,482.701C473.496,482.925 473.212,485.508 473.108,486.926C472.526,485.672 471.973,484.418 471.346,483.179C469.555,479.566 467.629,475.968 465.718,472.385C465.136,471.281 464.568,470.176 464.001,469.071C464.539,468.952 470.913,467.474 473.317,465.622C475.452,463.995 477.706,461.308 477.691,458.471C477.708,457.803 477.584,457.138 477.327,456.52C477.071,455.902 476.687,455.345 476.202,454.885C475.716,454.425 475.139,454.072 474.509,453.849C473.878,453.625 473.207,453.537 472.541,453.59C468.525,454.023 465.076,460.397 464.33,463.935C464.33,464.189 463.927,467.922 463.897,468.862C462.628,466.444 461.403,464.01 460.284,461.562C458.694,458.238 457.327,454.811 456.193,451.306C456.447,451.306 463.105,449.813 465.569,447.857C467.704,446.215 469.958,443.542 469.943,440.691C469.96,440.022 469.836,439.357 469.579,438.74C469.323,438.122 468.939,437.565 468.453,437.104C467.968,436.644 467.391,436.291 466.76,436.068C466.13,435.845 465.459,435.757 464.792,435.809C460.776,436.242 457.328,442.632 456.581,446.155C456.581,446.439 456.163,450.44 456.148,451.171C456.148,450.962 455.999,450.768 455.939,450.559C454.944,447.053 454.26,443.466 453.894,439.84C453.67,437.84 453.566,435.914 453.506,434.033C454.775,433.883 460.582,433.107 462.971,431.659C465.36,430.211 467.823,427.852 468.107,425.016C468.197,424.353 468.147,423.678 467.96,423.036C467.773,422.393 467.453,421.797 467.021,421.286C466.589,420.775 466.054,420.361 465.452,420.07C464.849,419.779 464.192,419.617 463.523,419.596C459.493,419.596 455.342,425.568 454.223,428.972C454.223,429.166 453.76,431.121 453.491,432.555C453.491,431.704 453.491,430.838 453.491,430.032C453.491,427.046 453.7,424.179 453.879,421.716C453.999,420.313 454.133,419.044 454.282,417.865C455.447,417.058 460.105,413.774 461.538,411.415C462.971,409.056 464.091,405.802 463.031,403.159C462.804,402.53 462.448,401.955 461.985,401.472C461.523,400.988 460.964,400.607 460.345,400.352C459.727,400.098 459.061,399.975 458.393,399.994C457.724,400.012 457.066,400.17 456.462,400.457C452.879,402.309 451.983,409.519 452.536,413.072C452.536,413.386 453.939,418.088 454.028,418.044C453.879,419.178 453.715,420.402 453.581,421.731C453.327,424.209 453.073,427.001 453.013,430.062C452.891,433.357 452.966,436.658 453.237,439.945C453.524,443.625 454.138,447.272 455.074,450.843L455.074,450.977C454.432,449.977 452.565,447.26 452.401,447.066C450.042,444.334 443.892,440.467 440.189,442.035C439.581,442.314 439.037,442.717 438.595,443.22C438.152,443.722 437.82,444.312 437.62,444.951C437.42,445.591 437.357,446.265 437.434,446.93C437.512,447.595 437.728,448.236 438.069,448.812C439.517,451.261 442.757,452.5 445.459,452.948ZM485.424,505.767C487.484,508.006 492.784,510.618 493.456,510.947C492.739,512.723 491.963,514.44 491.321,516.038C488.903,521.621 486.678,526.16 485.066,529.325C484.752,529.966 484.454,530.519 484.185,531.041L483.916,531.041C483.842,530.429 483.752,529.757 483.648,528.996C483.155,525.443 482.394,520.382 481.199,514.366C480.826,512.47 480.378,510.439 479.915,508.394C481.804,507.609 483.643,506.712 485.424,505.707L485.424,505.767Z" fill="#263238"/>
<path d="M514.581,433.943C514.581,433.943 515.865,429.241 515.909,428.942C516.402,425.374 515.267,418.193 511.64,416.446C511.029,416.172 510.368,416.03 509.699,416.028C509.029,416.026 508.367,416.164 507.755,416.434C507.143,416.705 506.594,417.1 506.144,417.596C505.695,418.092 505.355,418.677 505.146,419.313C504.175,421.985 505.414,425.284 506.862,427.524C508.579,430.181 514.581,433.943 514.581,433.943Z" fill="#263238"/>
<path d="M641.463,76.632L526.584,76.632L526.584,160.578L641.463,160.578L641.463,76.632Z" fill="#999999" stroke="#263238" stroke-width="1" stroke-miterlimit="3.999327" stroke-linecap="round" stroke-linejoin="round"/>
<path d="M523.941,156.159L644.105,156.159C650.044,156.159 655.74,158.518 659.94,162.718C664.139,166.917 666.498,172.613 666.498,178.552L666.498,382.781C666.498,387.137 664.768,391.313 661.689,394.393C658.609,397.473 654.432,399.203 650.077,399.203L517.97,399.203C513.614,399.203 509.437,397.473 506.358,394.393C503.278,391.313 501.548,387.137 501.548,382.781L501.548,178.552C501.548,172.613 503.907,166.917 508.107,162.718C512.306,158.518 518.002,156.159 523.941,156.159Z" fill="#999999" stroke="#263238" stroke-width="1" stroke-miterlimit="3.999327" stroke-linecap="round" stroke-linejoin="round"/>
<path d="M651.764,76.632L516.268,76.632L516.268,131.123L651.764,131.123L651.764,76.632Z" fill="#DBDBDB" stroke="#263238" stroke-width="1" stroke-miterlimit="3.999327" stroke-linecap="round" stroke-linejoin="round"/>
<path d="M540.229,76.632L520.911,76.632L520.911,131.123L540.229,131.123L540.229,76.632Z" fill="#263238" stroke="#263238" stroke-width="1" stroke-miterlimit="3.999327" stroke-linecap="round" stroke-linejoin="round"/>
<path d="M550.052,76.632L545.484,76.632L545.484,131.123L550.052,131.123L550.052,76.632Z" fill="#263238" stroke="#263238" stroke-width="1" stroke-miterlimit="3.999327" stroke-linecap="round" stroke-linejoin="round"/>
<path d="M629.041,77.841L613.948,77.841L613.948,129.914L629.041,129.914L629.041,77.841Z" fill="#FFFFFF"/>
<path d="M659.123,76.632L508.908,76.632L508.908,106.087L659.123,106.087L659.123,76.632Z" fill="#17C2EC" stroke="#263238" stroke-width="1" stroke-miterlimit="3.999327" stroke-linecap="round" stroke-linejoin="round"/>
<path d="M666.424,176.761L501.622,176.761C501.622,177.254 501.548,177.731 501.548,178.254L501.548,382.961L666.498,382.961L666.498,178.254C666.498,177.746 666.454,177.268 666.424,176.761Z" fill="#FFFFFF" stroke="#263238" stroke-width="1" stroke-miterlimit="3.999327" stroke-linecap="round" stroke-linejoin="round"/>
<path d="M80.997,424.761L78.071,424.761L78.071,480.297L80.997,480.297L80.997,424.761Z" transform="rotate(180 79.534 452.529)" fill="#FFFFFF" stroke="#263238" stroke-width="1" stroke-miterlimit="3.999327" stroke-linecap="round" stroke-linejoin="round"/>
<path d="M55.663,412.102L52.737,412.102L52.737,467.638L55.663,467.638L55.663,412.102Z" fill="#FFFFFF" stroke="#263238" stroke-width="1" stroke-miterlimit="3.999327" stroke-linecap="round" stroke-linejoin="round"/>
<path d="M54.2,456.426C56.352,456.426 58.097,454.682 58.097,452.53C58.097,450.378 56.352,448.633 54.2,448.633C52.048,448.633 50.304,450.378 50.304,452.53C50.304,454.682 52.048,456.426 54.2,456.426Z" fill="#263238" stroke="#263238" stroke-width="1" stroke-miterlimit="3.999327" stroke-linecap="round" stroke-linejoin="round"/>
<path d="M66.86,455.456L74.653,455.456L74.653,607.926C74.653,608.959 74.242,609.95 73.512,610.681C72.781,611.412 71.79,611.822 70.756,611.822C69.723,611.822 68.732,611.412 68.001,610.681C67.27,609.95 66.86,608.959 66.86,607.926L66.86,455.456L66.86,455.456Z" fill="#FFFFFF" stroke="#263238" stroke-width="1" stroke-miterlimit="3.999327" stroke-linecap="round" stroke-linejoin="round"/>
<path d="M66.86,597.759L66.86,607.985C66.86,609.019 67.27,610.01 68.001,610.741C68.732,611.471 69.723,611.882 70.756,611.882C71.79,611.882 72.781,611.471 73.512,610.741C74.242,610.01 74.653,609.019 74.653,607.985L74.653,597.759L66.86,597.759Z" fill="#263238" stroke="#263238" stroke-width="1" stroke-miterlimit="3.999327" stroke-linecap="round" stroke-linejoin="round"/>
<path d="M213.493,455.456L221.286,455.456L221.286,607.926C221.286,608.437 221.185,608.944 220.989,609.417C220.793,609.889 220.506,610.319 220.144,610.681C219.783,611.043 219.353,611.33 218.88,611.525C218.408,611.721 217.901,611.822 217.389,611.822L217.389,611.822C216.877,611.822 216.371,611.721 215.898,611.525C215.425,611.33 214.996,611.043 214.634,610.681C214.272,610.319 213.985,609.889 213.789,609.417C213.593,608.944 213.493,608.437 213.493,607.926L213.493,455.456L213.493,455.456Z" fill="#FFFFFF" stroke="#263238" stroke-width="1" stroke-miterlimit="3.999327" stroke-linecap="round" stroke-linejoin="round"/>
<path d="M213.493,597.759L213.493,607.985C213.493,609.019 213.903,610.01 214.634,610.741C215.365,611.471 216.356,611.882 217.389,611.882C218.423,611.882 219.414,611.471 220.144,610.741C220.875,610.01 221.286,609.019 221.286,607.985L221.286,597.759L213.493,597.759Z" fill="#263238" stroke="#263238" stroke-width="1" stroke-miterlimit="3.999327" stroke-linecap="round" stroke-linejoin="round"/>
<path d="M70.278,459.83L217.882,459.83L217.882,557.227C217.882,560.495 217.238,563.731 215.987,566.75C214.736,569.77 212.903,572.513 210.592,574.824C208.281,577.135 205.538,578.968 202.519,580.219C199.499,581.47 196.263,582.113 192.995,582.113L95.15,582.113C88.552,582.109 82.226,579.486 77.562,574.819C72.898,570.152 70.278,563.824 70.278,557.227L70.278,459.83Z" fill="#17C2EC" stroke="#263238" stroke-width="1" stroke-miterlimit="3.999327" stroke-linecap="round" stroke-linejoin="round"/>
<path d="M86.357,392.127L49.811,424.269L30.956,424.269C30.157,424.25 29.397,423.919 28.84,423.347C28.282,422.775 27.969,422.007 27.97,421.209L27.97,412.072C27.97,409.755 28.636,407.486 29.888,405.536C31.139,403.585 32.925,402.035 35.031,401.069L69.741,385.185C72.389,383.975 75.265,383.349 78.176,383.349C80.364,383.353 82.462,384.224 84.009,385.771C85.557,387.318 86.428,389.416 86.432,391.604L86.357,392.127Z" fill="#17C2EC" stroke="#263238" stroke-width="1" stroke-miterlimit="3.999327" stroke-linecap="round" stroke-linejoin="round"/>
<path d="M216.18,424.761L213.254,424.761L213.254,480.297L216.18,480.297L216.18,424.761Z" transform="rotate(180 214.717 452.529)" fill="#FFFFFF" stroke="#263238" stroke-width="1" stroke-miterlimit="3.999327" stroke-linecap="round" stroke-linejoin="round"/>
<path d="M241.5,412.087L238.573,412.087L238.573,467.623L241.5,467.623L241.5,412.087Z" transform="rotate(360 240.036 439.855)" fill="#FFFFFF" stroke="#263238" stroke-width="1" stroke-miterlimit="3.999327" stroke-linecap="round" stroke-linejoin="round"/>
<path d="M236.14,452.53C236.14,451.759 236.368,451.006 236.796,450.365C237.224,449.724 237.833,449.225 238.545,448.93C239.257,448.635 240.04,448.558 240.796,448.708C241.552,448.858 242.246,449.229 242.791,449.774C243.336,450.319 243.707,451.014 243.858,451.769C244.008,452.525 243.931,453.309 243.636,454.021C243.341,454.733 242.842,455.341 242.201,455.769C241.56,456.197 240.807,456.426 240.036,456.426C239.524,456.426 239.018,456.325 238.545,456.129C238.072,455.934 237.643,455.647 237.281,455.285C236.919,454.923 236.632,454.493 236.436,454.021C236.24,453.548 236.14,453.041 236.14,452.53L236.14,452.53Z" fill="#263238" stroke="#263238" stroke-width="1" stroke-miterlimit="3.999327" stroke-linecap="round" stroke-linejoin="round"/>
<path d="M207.894,392.127L242.932,422.955C243.897,423.806 245.14,424.273 246.426,424.269L261.056,424.269C262.458,424.269 263.802,423.712 264.793,422.721C265.784,421.73 266.341,420.386 266.341,418.984L266.341,412.072C266.344,409.754 265.68,407.484 264.428,405.533C263.176,403.582 261.389,402.032 259.28,401.069L224.57,385.185C221.922,383.975 219.046,383.349 216.135,383.349L216.135,383.349C213.948,383.353 211.852,384.224 210.307,385.772C208.762,387.32 207.894,389.417 207.894,391.604L207.894,392.127Z" fill="#17C2EC" stroke="#263238" stroke-width="1" stroke-miterlimit="3.999327" stroke-linecap="round" stroke-linejoin="round"/>
<path d="M87.328,407.713L65.053,440.422C63.947,442.053 63.255,443.929 63.037,445.888C62.818,447.846 63.08,449.829 63.799,451.664L63.799,451.664C64.692,453.93 66.246,455.875 68.259,457.246C70.271,458.617 72.65,459.351 75.086,459.352L212,459.352C214.64,459.346 217.239,458.704 219.578,457.48C221.917,456.256 223.926,454.486 225.436,452.32C227.056,450.004 228.054,447.31 228.334,444.497C228.613,441.684 228.166,438.847 227.033,436.257L209.492,409.176L87.328,407.713Z" fill="#17C2EC" stroke="#263238" stroke-width="1" stroke-miterlimit="3.999327" stroke-linecap="round" stroke-linejoin="round"/>
<path d="M99.032,220.652L196.429,220.652C200.586,220.652 204.573,222.304 207.513,225.243C210.453,228.183 212.104,232.17 212.104,236.328L212.104,429.15L83.356,429.15L83.356,236.328C83.356,232.17 85.008,228.183 87.948,225.243C90.887,222.304 94.875,220.652 99.032,220.652L99.032,220.652Z" fill="#17C2EC" stroke="#263238" stroke-width="1" stroke-miterlimit="3.999327" stroke-linecap="round" stroke-linejoin="round"/>
<path d="M73.906,321.289L68.771,347.743C68.771,347.743 35.927,382.483 34.031,386.827C32.135,391.171 29.298,417.611 29.298,419.671C29.298,421.731 36.405,427.135 36.405,427.135L42.66,429.464L46.601,427.09C46.601,427.09 46.601,418.805 47.392,416.819C48.542,414.613 49.865,412.502 51.349,410.504C51.349,410.504 50.154,419.984 51.737,419.984C53.319,419.984 54.902,410.907 54.902,404.981C54.902,399.054 48.243,388.753 48.243,388.753C48.243,388.753 79.43,380.467 83.386,374.54C87.342,368.614 98.778,331.112 98.778,331.112L73.906,321.289Z" fill="#FFFFFF" stroke="#263238" stroke-width="1" stroke-miterlimit="3.999327" stroke-linecap="round" stroke-linejoin="round"/>
<path d="M69.753,347.929C69.856,347.386 69.499,346.863 68.956,346.76C68.414,346.658 67.891,347.014 67.788,347.557L69.753,347.929ZM79.03,358.237C79.376,357.807 79.307,357.177 78.877,356.831C78.446,356.485 77.817,356.554 77.471,356.985L79.03,358.237ZM68.771,347.743C67.788,347.557 67.788,347.557 67.788,347.558C67.788,347.558 67.788,347.558 67.788,347.558C67.788,347.559 67.787,347.56 67.787,347.561C67.787,347.562 67.787,347.564 67.786,347.567C67.785,347.572 67.784,347.58 67.782,347.589C67.779,347.608 67.774,347.634 67.768,347.668C67.757,347.735 67.741,347.832 67.722,347.954C67.685,348.2 67.637,348.55 67.593,348.977C67.504,349.829 67.427,351.002 67.48,352.273C67.533,353.538 67.716,354.939 68.167,356.229C68.618,357.521 69.361,358.762 70.57,359.609L71.718,357.971C70.957,357.438 70.418,356.608 70.055,355.569C69.691,354.529 69.527,353.341 69.479,352.189C69.431,351.043 69.5,349.972 69.582,349.184C69.623,348.792 69.666,348.473 69.7,348.254C69.716,348.145 69.73,348.061 69.74,348.006C69.744,347.978 69.748,347.957 69.75,347.944C69.751,347.938 69.752,347.933 69.753,347.931C69.753,347.929 69.753,347.929 69.753,347.928C69.753,347.928 69.753,347.928 69.753,347.928C69.753,347.928 69.753,347.928 69.753,347.928C69.753,347.929 69.753,347.929 68.771,347.743ZM70.57,359.609C72.905,361.245 75.085,360.897 76.622,360.131C77.369,359.759 77.963,359.291 78.368,358.923C78.571,358.737 78.731,358.573 78.843,358.452C78.898,358.392 78.942,358.342 78.974,358.305C78.989,358.287 79.002,358.272 79.011,358.26C79.016,358.255 79.02,358.25 79.023,358.246C79.025,358.244 79.026,358.242 79.027,358.241C79.028,358.24 79.028,358.239 79.029,358.239C79.029,358.238 79.029,358.238 79.03,358.238C79.03,358.238 79.03,358.237 78.25,357.611C77.471,356.985 77.471,356.985 77.471,356.984C77.471,356.984 77.472,356.984 77.472,356.984C77.472,356.983 77.472,356.983 77.473,356.983C77.473,356.982 77.473,356.982 77.473,356.982C77.473,356.982 77.473,356.983 77.471,356.984C77.468,356.988 77.463,356.994 77.454,357.004C77.438,357.024 77.41,357.056 77.371,357.098C77.294,357.182 77.176,357.304 77.021,357.444C76.709,357.729 76.265,358.074 75.729,358.341C74.698,358.856 73.325,359.097 71.718,357.971L70.57,359.609Z" fill="#263238"/>
<path d="M44.88,408.355C44.987,407.813 44.635,407.287 44.093,407.18C43.552,407.072 43.025,407.425 42.918,407.966L44.88,408.355ZM43.727,428.882C43.875,429.414 44.427,429.725 44.959,429.577C45.491,429.428 45.802,428.877 45.653,428.345L43.727,428.882ZM43.899,408.161C42.918,407.966 42.918,407.966 42.918,407.967C42.918,407.967 42.918,407.967 42.918,407.967C42.918,407.968 42.918,407.968 42.917,407.969C42.917,407.971 42.917,407.974 42.916,407.977C42.915,407.984 42.913,407.994 42.91,408.007C42.905,408.034 42.897,408.073 42.887,408.125C42.867,408.227 42.838,408.377 42.802,408.568C42.729,408.95 42.626,409.496 42.506,410.155C42.267,411.472 41.959,413.242 41.688,415.051C41.417,416.855 41.178,418.718 41.081,420.213C41.033,420.957 41.017,421.642 41.057,422.195C41.077,422.47 41.113,422.744 41.178,422.99C41.236,423.21 41.35,423.541 41.614,423.801L43.019,422.378C43.14,422.497 43.14,422.587 43.112,422.48C43.09,422.399 43.067,422.26 43.052,422.05C43.021,421.631 43.031,421.052 43.077,420.343C43.168,418.933 43.397,417.135 43.666,415.348C43.933,413.567 44.237,411.818 44.474,410.513C44.592,409.86 44.694,409.32 44.766,408.943C44.802,408.755 44.831,408.607 44.85,408.507C44.86,408.457 44.867,408.419 44.872,408.393C44.875,408.38 44.877,408.371 44.878,408.364C44.879,408.361 44.879,408.359 44.88,408.357C44.88,408.356 44.88,408.356 44.88,408.355C44.88,408.355 44.88,408.355 44.88,408.355C44.88,408.355 44.88,408.355 43.899,408.161ZM41.614,423.801C41.772,423.957 42.003,424.312 42.272,424.867C42.528,425.395 42.776,426.015 42.994,426.618C43.212,427.218 43.396,427.786 43.526,428.205C43.59,428.414 43.641,428.585 43.676,428.703C43.693,428.762 43.706,428.808 43.715,428.838C43.719,428.853 43.722,428.865 43.724,428.872C43.725,428.876 43.726,428.879 43.726,428.88C43.727,428.881 43.727,428.882 43.727,428.882C43.727,428.882 43.727,428.882 43.727,428.882C43.727,428.882 43.727,428.882 43.727,428.882C43.727,428.882 43.727,428.882 44.69,428.613C45.653,428.345 45.653,428.345 45.653,428.344C45.653,428.344 45.653,428.344 45.653,428.344C45.653,428.344 45.653,428.344 45.653,428.343C45.653,428.342 45.653,428.341 45.652,428.34C45.651,428.338 45.65,428.334 45.649,428.329C45.647,428.32 45.643,428.307 45.638,428.29C45.628,428.255 45.614,428.205 45.595,428.142C45.558,428.016 45.504,427.835 45.436,427.614C45.3,427.175 45.106,426.575 44.874,425.936C44.644,425.3 44.37,424.61 44.072,423.996C43.789,423.409 43.436,422.789 43.019,422.378L41.614,423.801Z" fill="#263238"/>
<path d="M40.155,407.101C40.238,406.555 39.862,406.045 39.316,405.963C38.77,405.88 38.26,406.256 38.178,406.802L40.155,407.101ZM40.006,429.342C40.376,429.753 41.008,429.785 41.419,429.416C41.829,429.046 41.861,428.413 41.492,428.003L40.006,429.342ZM39.166,406.951C38.178,406.802 38.178,406.802 38.178,406.802C38.178,406.802 38.178,406.802 38.178,406.802C38.178,406.803 38.177,406.803 38.177,406.804C38.177,406.806 38.177,406.808 38.176,406.811C38.175,406.818 38.174,406.827 38.172,406.84C38.168,406.865 38.163,406.901 38.155,406.95C38.141,407.046 38.12,407.187 38.093,407.368C38.039,407.73 37.962,408.249 37.869,408.88C37.684,410.14 37.437,411.846 37.191,413.627C36.944,415.407 36.697,417.266 36.511,418.831C36.328,420.37 36.196,421.693 36.196,422.358L38.196,422.358C38.196,421.836 38.31,420.64 38.497,419.067C38.68,417.521 38.926,415.677 39.172,413.902C39.418,412.128 39.663,410.427 39.848,409.17C39.94,408.541 40.017,408.024 40.071,407.664C40.098,407.483 40.119,407.343 40.133,407.247C40.14,407.199 40.146,407.162 40.15,407.138C40.151,407.126 40.153,407.116 40.154,407.11C40.154,407.107 40.155,407.105 40.155,407.103C40.155,407.102 40.155,407.102 40.155,407.101C40.155,407.101 40.155,407.101 40.155,407.101C40.155,407.101 40.155,407.101 39.166,406.951ZM36.196,422.358C36.196,423.172 36.491,424.023 36.847,424.774C37.212,425.545 37.689,426.309 38.15,426.975C38.614,427.644 39.076,428.233 39.42,428.654C39.593,428.865 39.738,429.035 39.84,429.153C39.891,429.212 39.931,429.258 39.96,429.29C39.974,429.306 39.985,429.319 39.993,429.328C39.997,429.332 40,429.335 40.002,429.338C40.003,429.339 40.004,429.34 40.005,429.341C40.005,429.341 40.005,429.342 40.006,429.342C40.006,429.342 40.006,429.342 40.006,429.342C40.006,429.342 40.006,429.342 40.749,428.673C41.492,428.003 41.492,428.003 41.492,428.003C41.492,428.003 41.492,428.004 41.492,428.004C41.492,428.004 41.492,428.004 41.492,428.003C41.492,428.003 41.491,428.003 41.491,428.002C41.489,428.001 41.487,427.999 41.485,427.995C41.479,427.989 41.47,427.979 41.458,427.966C41.435,427.939 41.399,427.898 41.353,427.845C41.261,427.738 41.128,427.582 40.967,427.386C40.646,426.994 40.219,426.449 39.794,425.836C39.367,425.22 38.956,424.554 38.655,423.918C38.344,423.263 38.196,422.731 38.196,422.358L36.196,422.358Z" fill="#263238"/>
<path d="M34.695,407.863C34.762,407.314 34.371,406.816 33.823,406.75C33.274,406.683 32.776,407.074 32.71,407.622L34.695,407.863ZM35.632,427.645C35.938,428.104 36.559,428.229 37.018,427.923C37.478,427.617 37.603,426.996 37.297,426.536L35.632,427.645ZM33.702,407.742C32.71,407.622 32.71,407.622 32.71,407.622C32.71,407.623 32.71,407.623 32.71,407.623C32.71,407.623 32.71,407.624 32.709,407.624C32.709,407.626 32.709,407.628 32.709,407.63C32.708,407.635 32.707,407.642 32.706,407.652C32.704,407.671 32.7,407.699 32.696,407.736C32.687,407.81 32.675,407.918 32.659,408.056C32.627,408.332 32.581,408.729 32.528,409.212C32.422,410.179 32.285,411.493 32.16,412.884C32.035,414.272 31.922,415.745 31.866,417.026C31.811,418.273 31.804,419.438 31.925,420.152L33.897,419.817C33.817,419.344 33.808,418.385 33.864,417.114C33.918,415.877 34.028,414.438 34.152,413.063C34.275,411.689 34.411,410.389 34.516,409.431C34.569,408.952 34.614,408.559 34.645,408.286C34.661,408.15 34.674,408.044 34.682,407.972C34.686,407.936 34.69,407.908 34.692,407.89C34.693,407.881 34.694,407.874 34.694,407.869C34.695,407.867 34.695,407.865 34.695,407.864C34.695,407.864 34.695,407.863 34.695,407.863C34.695,407.863 34.695,407.863 34.695,407.863C34.695,407.863 34.695,407.863 33.702,407.742ZM31.925,420.152C32.048,420.874 32.364,421.709 32.725,422.508C33.094,423.323 33.541,424.166 33.969,424.92C34.397,425.677 34.812,426.356 35.119,426.845C35.273,427.09 35.4,427.289 35.489,427.427C35.534,427.495 35.569,427.549 35.593,427.586C35.605,427.605 35.615,427.619 35.621,427.629C35.625,427.633 35.627,427.637 35.629,427.64C35.63,427.641 35.63,427.642 35.631,427.643C35.631,427.643 35.631,427.644 35.632,427.644C35.632,427.644 35.632,427.644 35.632,427.644C35.632,427.644 35.632,427.645 36.464,427.09C37.297,426.536 37.297,426.536 37.297,426.536C37.297,426.536 37.297,426.536 37.297,426.536C37.297,426.536 37.297,426.536 37.297,426.536C37.296,426.536 37.296,426.535 37.295,426.534C37.294,426.532 37.292,426.529 37.289,426.525C37.284,426.517 37.275,426.504 37.264,426.487C37.242,426.454 37.209,426.404 37.167,426.338C37.083,426.208 36.961,426.018 36.813,425.782C36.517,425.31 36.119,424.658 35.709,423.935C35.299,423.21 34.883,422.424 34.547,421.684C34.205,420.928 33.976,420.281 33.897,419.817L31.925,420.152Z" fill="#263238"/>
<path d="M199.414,274.695C199.414,274.695 209.282,302.329 214.806,316.153C220.33,329.977 238.543,375.317 238.14,379.795C237.737,384.274 218.001,384.14 213.672,380.587C209.342,377.034 184.485,327.992 184.485,327.992L199.414,274.695Z" fill="#FFFFFF" stroke="#263238" stroke-width="1" stroke-miterlimit="3.999327" stroke-linecap="round" stroke-linejoin="round"/>
<path d="M118.514,264.842L89.701,274.71L63.247,323.647L99.181,338.651L103.511,332.336L106.287,356.417C106.287,356.417 80.624,399.845 77.071,415.252C73.518,430.659 83.386,448.812 95.628,453.933C107.87,459.054 184.456,454.724 194.324,452.365C204.192,450.007 213.731,433.406 212.88,420.776C212.03,408.146 200.236,379.318 199.056,376.556C197.877,373.794 184.844,352.087 184.844,352.087L188.009,329.977L195.115,271.142L163.137,261.274L128.382,261.677L118.514,264.842Z" fill="#263238" stroke="#263238" stroke-width="1" stroke-miterlimit="3.999327" stroke-linecap="round" stroke-linejoin="round"/>
<path d="M184.844,352.087L188.009,329.977L195.115,271.142L163.137,261.274L128.382,261.677L118.514,264.842L89.701,274.71L63.247,323.647L99.181,338.651L103.511,332.336L106.287,356.417C106.287,356.417 92.164,380.303 83.416,398.949L132.144,398.949C159.017,398.949 190.114,396.994 203.804,399.427C205.297,399.696 206.64,399.95 207.954,400.218C204.266,389.036 199.803,378.198 199.101,376.556C197.922,373.824 184.844,352.087 184.844,352.087Z" fill="#FFFFFF" stroke="#263238" stroke-width="1" stroke-miterlimit="3.999327" stroke-linecap="round" stroke-linejoin="round"/>
<path d="M168.192,330.842C167.688,331.068 167.463,331.659 167.689,332.163C167.915,332.667 168.507,332.892 169.01,332.666L168.192,330.842ZM175.564,329.725C176.068,329.499 176.293,328.907 176.067,328.403C175.841,327.9 175.249,327.674 174.745,327.901L175.564,329.725ZM169.01,332.666L175.564,329.725L174.745,327.901L168.192,330.842L169.01,332.666Z" fill="#263238"/>
<path d="M131.826,347.099C131.321,347.324 131.096,347.916 131.321,348.42C131.546,348.924 132.138,349.15 132.642,348.924L131.826,347.099ZM165.023,334.443C165.527,334.218 165.753,333.626 165.528,333.122C165.302,332.618 164.711,332.392 164.207,332.618L165.023,334.443ZM132.642,348.924L165.023,334.443L164.207,332.618L131.826,347.099L132.642,348.924Z" fill="#263238"/>
<path d="M121.239,348.087C120.728,348.297 120.485,348.882 120.695,349.392C120.905,349.903 121.49,350.147 122,349.937L121.239,348.087ZM147.753,339.337C148.263,339.127 148.507,338.542 148.297,338.032C148.087,337.521 147.502,337.277 146.992,337.487L147.753,339.337ZM122,349.937L147.753,339.337L146.992,337.487L121.239,348.087L122,349.937Z" fill="#263238"/>
<path d="M94.044,297.578C94.174,298.115 94.715,298.444 95.251,298.314C95.788,298.184 96.118,297.644 95.988,297.107L94.044,297.578ZM94.615,291.434C94.485,290.897 93.944,290.568 93.407,290.698C92.87,290.827 92.541,291.368 92.671,291.905L94.615,291.434ZM95.988,297.107L94.615,291.434L92.671,291.905L94.044,297.578L95.988,297.107Z" fill="#263238"/>
<path d="M102.538,332.572C102.669,333.108 103.209,333.438 103.746,333.308C104.283,333.178 104.612,332.637 104.482,332.1L102.538,332.572ZM97.152,301.869C97.022,301.332 96.481,301.003 95.945,301.133C95.408,301.263 95.078,301.804 95.208,302.341L97.152,301.869ZM104.482,332.1L97.152,301.869L95.208,302.341L102.538,332.572L104.482,332.1Z" fill="#263238"/>
<path d="M189.576,312.6L202.609,272.336L192.353,269.963L189.576,312.6Z" fill="#FFFFFF" stroke="#263238" stroke-width="1" stroke-miterlimit="3.999327" stroke-linecap="round" stroke-linejoin="round"/>
<path d="M118.021,588.921C118.021,588.921 114.603,598.177 108.765,603.537C102.928,608.896 96.583,618.152 99.509,622.541C102.435,626.93 116.066,625.527 121.425,622.048C126.785,618.57 127.277,613.285 132.622,610.852C137.966,608.418 141.878,603.059 139.937,594.773C137.996,586.488 118.021,588.921 118.021,588.921Z" fill="#FFFFFF" stroke="#263238" stroke-width="1" stroke-miterlimit="3.999327" stroke-linecap="round" stroke-linejoin="round"/>
<path d="M140.43,598.49C137.146,602.044 130.741,608.373 127.755,609.866C123.859,611.822 122.888,623.019 112.662,623.019C107.898,622.957 103.191,621.984 98.793,620.152C98.816,620.984 99.064,621.794 99.51,622.496C102.495,626.885 116.066,625.482 121.425,622.004C126.785,618.525 127.278,613.24 132.622,610.807C135.031,609.804 137.072,608.084 138.469,605.88C139.866,603.677 140.551,601.097 140.43,598.49Z" fill="#FFFFFF" stroke="#263238" stroke-width="1" stroke-miterlimit="3.999327" stroke-linecap="round" stroke-linejoin="round"/>
<path d="M101.943,436.944C101.943,436.944 100.973,487.12 107.303,512.44C113.633,537.759 117.036,581.113 117.036,581.113L115.543,586.965L116.529,593.788C119.934,596.026 123.52,597.979 127.248,599.625C134.548,603.043 142.341,596.221 142.341,596.221C142.341,596.221 139.908,573.828 139.355,572.335C138.803,570.842 144.715,479.775 144.715,471.012C144.715,462.248 146.67,441.288 145.7,430.091C144.73,418.895 129.248,399.92 111.677,398.457C94.105,396.994 81.475,408.683 81.968,425.254Z" fill="#263238" stroke="#263238" stroke-width="1" stroke-miterlimit="3.999327" stroke-linecap="round" stroke-linejoin="round"/>
<path d="M176.245,588.921C176.245,588.921 179.648,598.177 185.5,603.537C191.353,608.896 197.683,618.152 194.756,622.541C191.83,626.93 178.185,625.527 172.826,622.048C167.466,618.57 166.989,613.285 161.629,610.852C156.27,608.418 152.373,603.059 154.314,594.773C156.255,586.488 176.245,588.921 176.245,588.921Z" fill="#FFFFFF" stroke="#263238" stroke-width="1" stroke-miterlimit="3.999327" stroke-linecap="round" stroke-linejoin="round"/>
<path d="M153.836,598.49C157.105,602.044 163.51,608.373 166.496,609.866C170.392,611.822 171.378,623.019 181.604,623.019C186.36,622.972 191.063,622.014 195.458,620.197C195.44,621.028 195.198,621.837 194.756,622.541C191.771,626.93 178.185,625.527 172.826,622.048C167.466,618.57 166.988,613.285 161.629,610.852C159.212,609.849 157.164,608.123 155.769,605.909C154.373,603.695 153.698,601.104 153.836,598.49L153.836,598.49Z" fill="#FFFFFF" stroke="#263238" stroke-width="1" stroke-miterlimit="3.999327" stroke-linecap="round" stroke-linejoin="round"/>
<path d="M192.323,436.944C192.323,436.944 193.293,487.12 186.964,512.44C180.634,537.759 177.215,581.113 177.215,581.113L178.708,586.965L177.737,593.788C174.329,596.022 170.744,597.974 167.018,599.625C159.703,603.043 151.91,596.221 151.91,596.221C151.91,596.221 154.344,573.828 154.896,572.335C155.448,570.842 149.537,479.775 149.537,471.012C149.537,462.248 147.596,441.288 148.566,430.091C149.537,418.895 165.078,399.92 182.574,398.457C200.071,396.994 212.776,408.683 212.283,425.254Z" fill="#263238" stroke="#263238" stroke-width="1" stroke-miterlimit="3.999327" stroke-linecap="round" stroke-linejoin="round"/>
<path d="M216.433,362.343L139.041,388.006C139.041,388.006 121.679,396.695 119.305,397.486C116.932,398.278 110.617,407.354 109.84,408.937C109.064,410.519 112.602,410.907 114.17,410.504C115.737,410.101 122.47,407.743 122.47,407.743C122.47,407.743 118.514,409.713 122.47,409.713C126.426,409.713 132.338,405.772 132.338,405.772C132.338,405.772 143.789,402.607 144.968,401.039C146.148,399.472 150.492,395.068 150.492,395.068C150.492,395.068 200.235,391.903 208.536,390.335C216.836,388.768 232.616,384.364 235.408,382.035C238.2,379.706 238.961,376.914 235.796,370.987Z" fill="#FFFFFF" stroke="#263238" stroke-width="1" stroke-miterlimit="3.999327" stroke-linecap="round" stroke-linejoin="round"/>
<path d="M121.934,406.899C121.468,407.195 121.33,407.813 121.626,408.279C121.923,408.745 122.541,408.883 123.007,408.586L121.934,406.899ZM132.682,401.248L132.19,400.378C132.175,400.386 132.16,400.395 132.145,400.405L132.682,401.248ZM137.085,399.91C137.566,399.638 137.735,399.028 137.464,398.547C137.192,398.066 136.582,397.897 136.101,398.168L137.085,399.91ZM123.007,408.586L133.218,402.092L132.145,400.405L121.934,406.899L123.007,408.586ZM133.173,402.119L137.085,399.91L136.101,398.168L132.19,400.378L133.173,402.119Z" fill="#263238"/>
<path d="M110.436,409.804C110.305,410.34 110.633,410.882 111.17,411.013C111.706,411.144 112.248,410.816 112.379,410.28L110.436,409.804ZM122.903,400.457L122.579,399.511C122.471,399.548 122.371,399.603 122.281,399.674L122.903,400.457ZM132.513,398.223C133.035,398.044 133.314,397.476 133.135,396.953C132.956,396.431 132.388,396.152 131.865,396.331L132.513,398.223ZM111.408,410.042C112.379,410.28 112.379,410.28 112.379,410.28C112.379,410.28 112.379,410.28 112.379,410.28C112.379,410.28 112.379,410.281 112.379,410.281C112.379,410.281 112.379,410.281 112.379,410.28C112.379,410.28 112.379,410.279 112.38,410.277C112.381,410.274 112.382,410.267 112.384,410.259C112.389,410.241 112.396,410.214 112.406,410.178C112.426,410.106 112.456,410.001 112.495,409.874C112.576,409.617 112.692,409.284 112.838,408.959C112.989,408.624 113.149,408.349 113.3,408.174C113.464,407.983 113.487,408.056 113.363,408.056L113.363,406.056C112.628,406.056 112.1,406.502 111.783,406.87C111.452,407.255 111.2,407.727 111.015,408.138C110.825,408.56 110.682,408.973 110.587,409.276C110.539,409.429 110.502,409.557 110.477,409.649C110.465,409.695 110.455,409.731 110.448,409.758C110.445,409.771 110.442,409.781 110.44,409.789C110.439,409.793 110.438,409.796 110.438,409.799C110.437,409.8 110.437,409.801 110.437,409.802C110.437,409.802 110.437,409.803 110.437,409.803C110.437,409.803 110.437,409.803 110.437,409.803C110.436,409.804 110.436,409.804 111.408,410.042ZM113.363,408.056C113.626,408.056 113.868,407.977 114.025,407.917C114.205,407.849 114.397,407.759 114.589,407.658C114.974,407.457 115.429,407.18 115.915,406.863C116.892,406.228 118.066,405.389 119.187,404.561C120.311,403.73 121.395,402.9 122.197,402.279C122.598,401.968 122.93,401.709 123.161,401.527C123.277,401.436 123.367,401.365 123.429,401.316C123.46,401.292 123.484,401.273 123.5,401.26C123.508,401.254 123.514,401.249 123.518,401.246C123.52,401.244 123.522,401.243 123.523,401.242C123.523,401.242 123.524,401.241 123.524,401.241C123.524,401.241 123.524,401.241 123.524,401.241C123.525,401.241 123.525,401.241 122.903,400.457C122.281,399.674 122.281,399.674 122.281,399.674C122.281,399.674 122.281,399.674 122.281,399.674C122.281,399.674 122.281,399.675 122.28,399.675C122.279,399.676 122.278,399.677 122.276,399.678C122.272,399.681 122.266,399.686 122.258,399.692C122.243,399.704 122.22,399.723 122.19,399.747C122.129,399.794 122.04,399.865 121.926,399.954C121.697,400.134 121.37,400.39 120.972,400.698C120.177,401.314 119.106,402.134 117.998,402.952C116.887,403.773 115.752,404.584 114.825,405.186C114.36,405.489 113.965,405.727 113.661,405.886C113.508,405.966 113.395,406.017 113.319,406.046C113.221,406.083 113.254,406.056 113.363,406.056L113.363,408.056ZM123.227,401.403L132.513,398.223L131.865,396.331L122.579,399.511L123.227,401.403Z" fill="#263238"/>
<path d="M129.847,396.32C130.365,396.129 130.631,395.555 130.44,395.036C130.25,394.518 129.675,394.252 129.157,394.443L129.847,396.32ZM111.192,405.186C110.802,405.577 110.803,406.21 111.195,406.6C111.586,406.99 112.219,406.988 112.609,406.597L111.192,405.186ZM129.502,395.381C129.157,394.443 129.157,394.443 129.157,394.443C129.156,394.443 129.156,394.443 129.156,394.443C129.156,394.443 129.155,394.443 129.154,394.444C129.153,394.444 129.151,394.445 129.148,394.446C129.142,394.448 129.133,394.451 129.122,394.456C129.099,394.464 129.065,394.477 129.021,394.493C128.933,394.525 128.803,394.573 128.639,394.635C128.309,394.757 127.838,394.933 127.271,395.147C126.136,395.575 124.614,396.156 123.067,396.769C121.522,397.381 119.941,398.029 118.694,398.588C118.072,398.867 117.519,399.13 117.089,399.361C116.875,399.476 116.677,399.59 116.51,399.701C116.369,399.795 116.16,399.945 116.006,400.144L117.588,401.367C117.53,401.443 117.503,401.443 117.62,401.365C117.713,401.303 117.849,401.223 118.034,401.123C118.403,400.925 118.908,400.684 119.513,400.413C120.719,399.872 122.267,399.237 123.803,398.629C125.337,398.021 126.848,397.444 127.977,397.018C128.541,396.805 129.009,396.631 129.335,396.509C129.499,396.448 129.627,396.401 129.714,396.369C129.757,396.353 129.791,396.341 129.813,396.332C129.824,396.328 129.833,396.325 129.838,396.323C129.841,396.322 129.843,396.321 129.845,396.321C129.845,396.32 129.846,396.32 129.846,396.32C129.846,396.32 129.846,396.32 129.847,396.32C129.847,396.32 129.847,396.32 129.502,395.381ZM116.006,400.144C115.669,400.58 114.497,401.813 113.346,402.996C112.784,403.574 112.245,404.121 111.847,404.525C111.648,404.726 111.484,404.892 111.37,405.007C111.313,405.064 111.268,405.109 111.238,405.139C111.223,405.155 111.211,405.166 111.204,405.174C111.2,405.178 111.197,405.181 111.195,405.183C111.194,405.184 111.193,405.184 111.193,405.185C111.192,405.185 111.192,405.185 111.192,405.185C111.192,405.185 111.192,405.185 111.192,405.186C111.192,405.186 111.192,405.186 111.9,405.891C112.609,406.597 112.609,406.597 112.609,406.597C112.609,406.597 112.609,406.597 112.609,406.597C112.609,406.597 112.609,406.597 112.61,406.596C112.61,406.596 112.611,406.595 112.612,406.594C112.614,406.592 112.617,406.589 112.621,406.585C112.629,406.577 112.641,406.565 112.656,406.55C112.687,406.519 112.732,406.474 112.789,406.416C112.904,406.3 113.069,406.133 113.27,405.93C113.671,405.525 114.213,404.973 114.78,404.39C115.887,403.252 117.164,401.917 117.588,401.367L116.006,400.144Z" fill="#263238"/>
<path d="M133.518,229.296C133.518,229.296 133.518,247.853 132.726,260.095C131.935,272.337 138.265,295.626 144.968,297.208C151.671,298.791 161.554,269.172 161.554,266.41C161.554,263.648 165.899,245.509 165.899,245.509L133.518,229.296Z" fill="#FFFFFF" stroke="#263238" stroke-width="1" stroke-miterlimit="3.999327" stroke-linecap="round" stroke-linejoin="round"/>
<path d="M161.629,265.544C162.032,262.2 164.197,252.75 165.272,248.107L138.773,243.165C142.192,248.567 146.197,253.573 150.716,258.094C153.852,261.243 157.555,263.77 161.629,265.544L161.629,265.544Z" fill="#263238" stroke="#263238" stroke-width="1" stroke-miterlimit="3.999327" stroke-linecap="round" stroke-linejoin="round"/>
<path d="M132.338,171.267C132.338,171.267 112.93,185.868 110.616,201.274C108.302,216.681 108.258,269.575 110.228,282.996C112.199,296.417 125.62,300.761 129.965,300.761C134.309,300.761 139.833,293.655 139.833,293.655C139.833,293.655 130.741,287.34 130.741,277.069C130.741,266.798 133.503,229.296 133.503,229.296L151.641,193.765L180.858,205.216C180.858,205.216 177.693,232.849 173.393,240.747C170.317,245.855 165.965,250.074 160.763,252.988C160.763,252.988 161.942,270.351 161.554,278.248C161.352,282.886 159.374,287.269 156.031,290.49C156.031,290.49 164.316,305.419 173.005,297.955C181.694,290.49 182.082,272.68 182.082,267.156C182.082,261.632 182.47,204.783 182.47,204.783C184.21,203.36 185.584,201.542 186.478,199.48C187.371,197.417 187.758,195.171 187.605,192.929C187.217,185.032 173.796,174.372 156.822,170.028C139.848,165.684 132.338,171.267 132.338,171.267Z" fill="#263238" stroke="#263238" stroke-width="1" stroke-miterlimit="3.999327" stroke-linecap="round" stroke-linejoin="round"/>
<path d="M150.149,188.241L135.22,220.219C135.22,220.219 130.876,211.143 127.322,214.696C123.769,218.249 123.277,228.117 127.606,231.998L131.936,235.954L134.309,234.372C134.309,234.372 139.445,247.808 149.701,253.78C159.957,259.751 165.496,259.751 170.243,255.362C174.991,250.973 181.694,238.373 182.47,230.476C183.246,222.578 183.665,205.604 183.261,202.842C182.858,200.08 150.149,188.241 150.149,188.241Z" fill="#FFFFFF" stroke="#263238" stroke-width="1" stroke-miterlimit="3.999327" stroke-linecap="round" stroke-linejoin="round"/>
<path d="M183.127,220.309C177.47,222.913 171.305,224.228 165.078,224.161C152.791,224.161 139.699,219.98 135.802,218.652L135.071,220.219L139.012,222.19C139.012,222.19 141.385,227.325 142.565,229.654C143.744,231.983 142.565,243.091 142.565,243.091L134.279,234.402C134.279,234.402 139.415,247.838 149.671,253.81C159.927,259.781 165.466,259.781 170.213,255.392C174.961,251.003 181.664,238.403 182.44,230.505C182.739,227.818 182.993,224.146 183.127,220.309Z" fill="#17C2EC" stroke="#263238" stroke-width="1" stroke-miterlimit="3.999327" stroke-linecap="round" stroke-linejoin="round"/>
<path d="M163.391,218.428C163.391,219.921 162.764,221.055 161.988,221.055C161.211,221.055 160.599,219.876 160.599,218.428C160.599,216.98 161.226,215.815 161.988,215.815C162.749,215.815 163.391,216.98 163.391,218.428Z" fill="#263238"/>
<path d="M176.678,220.189C177.453,220.189 178.081,219.013 178.081,217.562C178.081,216.111 177.453,214.934 176.678,214.934C175.903,214.934 175.274,216.111 175.274,217.562C175.274,219.013 175.903,220.189 176.678,220.189Z" fill="#263238"/>
<path d="M153.852,210.367C153.358,210.614 153.157,211.215 153.404,211.709C153.651,212.203 154.252,212.403 154.746,212.156L153.852,210.367ZM165.987,212.095C166.447,212.4 167.068,212.275 167.373,211.815C167.679,211.356 167.554,210.735 167.094,210.429L165.987,212.095ZM154.299,211.262C154.746,212.156 154.746,212.156 154.746,212.157C154.745,212.157 154.745,212.157 154.745,212.157C154.745,212.157 154.745,212.157 154.745,212.157C154.745,212.157 154.745,212.157 154.746,212.156C154.748,212.155 154.751,212.154 154.756,212.151C154.766,212.146 154.782,212.139 154.805,212.128C154.85,212.107 154.92,212.074 155.013,212.034C155.198,211.952 155.472,211.837 155.82,211.708C156.517,211.45 157.497,211.141 158.628,210.936C160.912,210.521 163.667,210.553 165.987,212.095L167.094,210.429C164.159,208.478 160.793,208.51 158.27,208.968C156.998,209.199 155.903,209.545 155.125,209.833C154.736,209.977 154.424,210.108 154.206,210.203C154.097,210.251 154.012,210.291 153.952,210.319C153.922,210.333 153.899,210.344 153.882,210.353C153.873,210.357 153.867,210.36 153.862,210.362C153.859,210.364 153.857,210.365 153.855,210.366C153.855,210.366 153.854,210.366 153.853,210.367C153.853,210.367 153.852,210.367 153.852,210.367C153.852,210.367 153.852,210.367 154.299,211.262Z" fill="#263238"/>
<path d="M173.932,222.978C174.029,223.521 174.548,223.883 175.092,223.786C175.635,223.69 175.998,223.17 175.901,222.626L173.932,222.978ZM173.169,213.009L172.193,212.791C172.165,212.92 172.162,213.054 172.185,213.184L173.169,213.009ZM179.642,211.065C180.11,211.358 180.727,211.215 181.02,210.746C181.312,210.278 181.169,209.661 180.701,209.368L179.642,211.065ZM175.901,222.626L174.154,212.833L172.185,213.184L173.932,222.978L175.901,222.626ZM173.169,213.009C174.145,213.227 174.145,213.227 174.145,213.227C174.145,213.227 174.145,213.228 174.145,213.228C174.145,213.228 174.145,213.229 174.145,213.229C174.145,213.23 174.145,213.23 174.145,213.229C174.145,213.229 174.145,213.227 174.146,213.224C174.148,213.217 174.151,213.205 174.155,213.188C174.164,213.155 174.178,213.101 174.199,213.032C174.24,212.892 174.307,212.692 174.402,212.46C174.595,211.987 174.89,211.429 175.305,210.982C175.709,210.545 176.2,210.24 176.821,210.174C177.453,210.106 178.368,210.27 179.642,211.065L180.701,209.368C179.175,208.417 177.815,208.056 176.609,208.185C175.393,208.315 174.483,208.925 173.837,209.623C173.201,210.311 172.795,211.106 172.551,211.702C172.427,212.005 172.339,212.268 172.283,212.459C172.254,212.555 172.233,212.633 172.218,212.689C172.211,212.718 172.205,212.74 172.201,212.757C172.199,212.766 172.197,212.773 172.196,212.779C172.196,212.781 172.195,212.784 172.195,212.786C172.194,212.787 172.194,212.788 172.194,212.789C172.194,212.789 172.194,212.789 172.194,212.79C172.194,212.79 172.193,212.791 173.169,213.009Z" fill="#263238"/>
<path d="M288.586,307.584L273.821,299.298C273.821,299.298 256.548,286.34 254.025,286.34L236.737,286.34C235.648,286.34 234.931,290.311 237.096,294.625C239.26,298.94 237.454,306.136 241.768,309.017C246.083,311.898 266.969,313.705 266.969,313.705L285.331,323.065L288.586,307.584Z" fill="#DEDEDE" stroke="#263238" stroke-width="1" stroke-miterlimit="3.999327" stroke-linecap="round" stroke-linejoin="round"/>
<path d="M254.025,286.34L236.737,286.34C235.648,286.34 234.931,290.311 237.096,294.625C239.26,298.94 237.454,306.136 241.768,309.017C246.083,311.898 266.969,313.705 266.969,313.705L269.223,314.854C271.225,313.484 272.811,311.588 273.806,309.375C274.559,306.215 274.811,302.955 274.553,299.716L273.806,299.298C273.806,299.298 256.548,286.34 254.025,286.34Z" fill="#17C2EC" stroke="#263238" stroke-width="1" stroke-miterlimit="3.999327" stroke-linecap="round" stroke-linejoin="round"/>
<path d="M230.121,285.963L226.239,285.963L226.239,303.042L230.121,303.042L230.121,285.963Z" transform="rotate(127.28 228.18 294.502)" fill="#FFFFFF" stroke="#263238" stroke-width="1" stroke-miterlimit="3.999327" stroke-linecap="round" stroke-linejoin="round"/>
<path d="M219.688,296.566L217.434,299.597L221.42,300.045L219.688,296.566Z" fill="#FFFFFF" stroke="#263238" stroke-width="1" stroke-miterlimit="3.999327" stroke-linecap="round" stroke-linejoin="round"/>
<path d="M217.878,300.493C218.373,300.248 218.575,299.648 218.33,299.153C218.085,298.658 217.485,298.456 216.99,298.701L217.878,300.493ZM208.003,303.149C207.508,303.394 207.306,303.994 207.551,304.489C207.796,304.984 208.395,305.187 208.89,304.942L208.003,303.149ZM216.99,298.701L208.003,303.149L208.89,304.942L217.878,300.493L216.99,298.701Z" fill="#263238"/>
<path d="M235.99,283.742C235.99,283.742 229.944,284.683 230.273,286.818C230.601,288.952 230.691,291.849 233.258,291.819C235.826,291.789 236.976,292.326 237.498,288.609C238.021,284.892 237.573,284.593 235.99,283.742Z" fill="#17C2EC" stroke="#263238" stroke-width="1" stroke-miterlimit="3.999327" stroke-linecap="round" stroke-linejoin="round"/>
<path d="M235.244,293.282C235.244,293.282 231.438,293.282 231.438,295.79C231.438,298.298 232.512,299.388 234.319,299.388C236.125,299.388 244.038,299.388 244.038,296.506C244.038,293.625 242.545,292.909 241.156,292.909C239.768,292.909 235.244,293.282 235.244,293.282Z" fill="#17C2EC" stroke="#263238" stroke-width="1" stroke-miterlimit="3.999327" stroke-linecap="round" stroke-linejoin="round"/>
<path d="M237.275,299.448C237.275,299.448 233.468,299.448 233.468,301.956C233.468,304.464 234.543,305.554 236.349,305.554C238.155,305.554 246.068,305.554 246.068,302.672C246.068,299.791 244.575,299.074 243.187,299.074C241.798,299.074 237.275,299.448 237.275,299.448Z" fill="#17C2EC" stroke="#263238" stroke-width="1" stroke-miterlimit="3.999327" stroke-linecap="round" stroke-linejoin="round"/>
<path d="M240.768,304.777C240.768,304.777 237.409,304.777 237.409,306.972C237.409,309.166 238.365,310.137 239.947,310.137C241.53,310.137 248.501,310.137 248.501,307.614C248.501,305.091 247.232,304.449 245.963,304.449C244.695,304.449 240.768,304.777 240.768,304.777Z" fill="#17C2EC" stroke="#263238" stroke-width="1" stroke-miterlimit="3.999327" stroke-linecap="round" stroke-linejoin="round"/>
<path d="M270.223,297.865L256.145,282.025C256.145,282.025 244.619,284.19 241.38,284.907C238.14,285.623 235.976,287.071 237.782,289.579C239.588,292.088 248.934,290.311 248.934,290.311C248.934,290.311 253.622,303.269 260.459,303.269Z" fill="#17C2EC" stroke="#263238" stroke-width="1" stroke-miterlimit="3.999327" stroke-linecap="round" stroke-linejoin="round"/>
<path d="M297.573,267.634L309.516,310.465L287.496,305.061L280.3,325.215C280.3,325.215 340.404,349.34 344.375,348.982C348.346,348.624 312.337,265.111 311.979,261.856C311.621,258.602 298.663,257.915 297.573,267.634Z" fill="#FFFFFF" stroke="#263238" stroke-width="1" stroke-miterlimit="3.999327" stroke-linecap="round" stroke-linejoin="round"/>
<path d="M308.143,581.74C308.143,581.74 298.051,589.906 291.825,592.773C285.6,595.639 272.149,601.417 271.656,605.253C271.163,609.09 278.867,609.583 291.825,609.583C304.784,609.583 320.101,611.344 323.937,610.389C327.774,609.434 331.178,608.612 331.178,605.731C331.178,602.85 327.804,587.981 327.804,587.981L308.143,581.74Z" fill="#FFFFFF" stroke="#263238" stroke-width="1" stroke-miterlimit="3.999327" stroke-linecap="round" stroke-linejoin="round"/>
<path d="M293.467,606C279.763,605.865 274.254,605 272.029,604.298C271.842,604.59 271.71,604.914 271.641,605.253C271.163,609.09 278.852,609.583 291.81,609.583C304.769,609.583 320.086,611.344 323.923,610.389C327.759,609.434 331.163,608.612 331.163,605.731C331.149,605.276 331.109,604.823 331.044,604.373C318.569,605.756 306.015,606.3 293.467,606L293.467,606Z" fill="#FFFFFF" stroke="#263238" stroke-width="1" stroke-miterlimit="3.999327" stroke-linecap="round" stroke-linejoin="round"/>
<path d="M388.76,595.758C388.76,595.758 381.206,603.074 377.548,605.268C373.89,607.463 357.573,614.778 359.036,617.704C360.499,620.63 374.876,623.795 382.43,623.795C389.984,623.795 407.809,618.436 411.183,616.719C412.383,616.011 413.389,615.018 414.113,613.828C414.837,612.638 415.256,611.287 415.333,609.896C415.333,608.926 412.885,601.133 411.676,599.67C410.466,598.207 388.76,595.758 388.76,595.758Z" fill="#FFFFFF" stroke="#263238" stroke-width="1" stroke-miterlimit="3.999327" stroke-linecap="round" stroke-linejoin="round"/>
<path d="M411.183,616.719C412.313,616.064 413.273,615.153 413.987,614.059C414.7,612.964 415.146,611.717 415.288,610.419C409.018,613.121 394.686,618.54 381.937,618.914C371.083,619.242 364.022,616.838 360.424,615.151C359.289,616.152 358.707,617.032 359.035,617.704C360.528,620.615 374.875,623.795 382.429,623.795C389.983,623.795 407.779,618.436 411.183,616.719Z" fill="#FFFFFF" stroke="#263238" stroke-width="1" stroke-miterlimit="3.999327" stroke-linecap="round" stroke-linejoin="round"/>
<path d="M314.368,462.233L310.531,565.423L303.813,569.737L304.291,583.172C304.291,583.172 304.291,588.936 313.89,591.816C320.131,593.564 326.653,594.07 333.089,593.31C333.089,593.31 334.059,580.352 335.015,576.5C335.97,572.648 334.059,565.945 335.015,563.542C335.97,561.138 359.961,468.518 359.961,468.518L363.32,453.171L388.281,587.532L383.967,589.936L383.967,595.206C383.967,595.206 395.477,604.806 400.762,607.148C405.428,608.994 410.242,610.438 415.154,611.464C415.154,611.464 416.646,599.954 417.079,595.624C417.512,591.294 411.317,579.306 411.317,579.306C411.317,579.306 414.676,505.408 415.154,498.197C415.631,490.987 411.795,464.607 411.795,464.607L384.922,382.498L336.926,377.69L314.368,462.233Z" fill="#17C2EC" stroke="#263238" stroke-width="1" stroke-miterlimit="3.999327" stroke-linecap="round" stroke-linejoin="round"/>
<path d="M292.542,229.475C292.348,230.595 292.542,255.034 293.259,258.99C293.975,262.946 310.173,290.341 310.173,290.341L331.775,362.328L309.889,467.04L322.131,473.162L350.198,404.413L348.048,480.716C348.048,480.716 380.802,486.12 398.075,483.596C410.217,481.656 422.235,479.008 434.069,475.67C434.069,475.67 441.265,352.58 439.473,345.011C437.682,337.442 411.675,254.675 389.013,238.836C366.351,222.996 329.297,210.754 324.595,208.978C320.973,207.742 317.229,206.896 313.428,206.455C313.428,206.455 296.453,205.723 292.542,229.475Z" fill="#FFFFFF" stroke="#263238" stroke-width="1" stroke-miterlimit="3.999327" stroke-linecap="round" stroke-linejoin="round"/>
<path d="M397.028,354.939C396.492,355.072 396.165,355.614 396.298,356.15C396.431,356.686 396.973,357.013 397.509,356.88L397.028,354.939ZM403.537,355.192C404.065,355.028 404.359,354.467 404.195,353.94C404.031,353.413 403.47,353.118 402.943,353.282L403.537,355.192ZM397.509,356.88C399.515,356.382 401.504,355.824 403.537,355.192L402.943,353.282C400.945,353.904 398.994,354.451 397.028,354.939L397.509,356.88Z" fill="#263238"/>
<path d="M343.789,357.099C343.243,357.019 342.735,357.397 342.654,357.943C342.574,358.49 342.952,358.998 343.498,359.078L343.789,357.099ZM392.91,357.92C393.452,357.812 393.804,357.286 393.696,356.744C393.589,356.203 393.062,355.851 392.52,355.958L392.91,357.92ZM343.644,358.089C343.498,359.078 343.498,359.078 343.499,359.078C343.499,359.078 343.499,359.078 343.5,359.078C343.501,359.078 343.502,359.079 343.504,359.079C343.507,359.079 343.512,359.08 343.519,359.081C343.532,359.083 343.551,359.086 343.575,359.089C343.625,359.096 343.698,359.106 343.794,359.119C343.986,359.146 344.268,359.183 344.636,359.229C345.371,359.32 346.446,359.445 347.81,359.58C350.537,359.85 354.424,360.158 359.071,360.316C368.356,360.631 380.708,360.344 392.91,357.92L392.52,355.958C380.523,358.342 368.339,358.629 359.138,358.317C354.542,358.161 350.698,357.856 348.006,357.59C346.66,357.457 345.603,357.334 344.883,357.244C344.523,357.199 344.248,357.163 344.064,357.138C343.972,357.125 343.902,357.115 343.856,357.109C343.833,357.106 343.816,357.103 343.805,357.102C343.799,357.101 343.795,357.1 343.792,357.1C343.791,357.1 343.79,357.1 343.79,357.099C343.789,357.099 343.789,357.099 343.789,357.099C343.789,357.099 343.789,357.099 343.644,358.089Z" fill="#263238"/>
<path d="M342.52,360.831C342.18,360.396 341.551,360.32 341.117,360.66C340.682,361.001 340.605,361.629 340.945,362.064L342.52,360.831ZM374.811,370.135C375.363,370.154 375.826,369.722 375.845,369.17C375.864,368.618 375.432,368.156 374.88,368.137L374.811,370.135ZM341.733,361.448C340.945,362.064 340.946,362.065 340.947,362.066C340.947,362.066 340.948,362.067 340.949,362.068C340.95,362.07 340.951,362.071 340.952,362.073C340.955,362.076 340.958,362.08 340.962,362.084C340.968,362.092 340.976,362.102 340.986,362.114C341.005,362.136 341.03,362.165 341.062,362.199C341.124,362.268 341.212,362.358 341.33,362.469C341.565,362.689 341.918,362.986 342.42,363.336C343.426,364.035 345.03,364.943 347.496,365.87C352.425,367.721 360.818,369.655 374.811,370.135L374.88,368.137C361.031,367.661 352.867,365.751 348.2,363.997C345.869,363.121 344.415,362.287 343.562,361.694C343.136,361.397 342.859,361.161 342.697,361.009C342.617,360.933 342.564,360.879 342.536,360.848C342.522,360.833 342.514,360.823 342.512,360.82C342.511,360.819 342.511,360.819 342.512,360.821C342.513,360.822 342.514,360.823 342.515,360.825C342.516,360.826 342.517,360.827 342.518,360.828C342.518,360.828 342.519,360.829 342.519,360.829C342.52,360.83 342.52,360.831 341.733,361.448Z" fill="#263238"/>
<path d="M378.746,390.598C378.231,390.398 377.651,390.653 377.452,391.168C377.252,391.683 377.507,392.262 378.022,392.462L378.746,390.598ZM386.544,395.468C387.07,395.636 387.633,395.346 387.801,394.82C387.969,394.294 387.679,393.731 387.153,393.563L386.544,395.468ZM378.022,392.462C380.759,393.525 383.6,394.527 386.544,395.468L387.153,393.563C384.245,392.633 381.443,391.645 378.746,390.598L378.022,392.462Z" fill="#263238"/>
<path d="M340.881,369.767C340.438,369.437 339.811,369.53 339.482,369.973C339.153,370.416 339.245,371.043 339.688,371.372L340.881,369.767ZM371.403,389.671C371.91,389.89 372.499,389.656 372.718,389.149C372.937,388.642 372.703,388.054 372.196,387.835L371.403,389.671ZM339.688,371.372C349.519,378.675 360.161,384.815 371.403,389.671L372.196,387.835C361.096,383.041 350.587,376.977 340.881,369.767L339.688,371.372Z" fill="#263238"/>
<path d="M349.377,397.442C349.377,397.994 349.825,398.442 350.377,398.442C350.929,398.442 351.377,397.994 351.377,397.442L349.377,397.442ZM350.377,381.617L351.377,381.617C351.377,381.42 351.319,381.227 351.209,381.062L350.377,381.617ZM345.57,374.406L344.863,373.699C344.526,374.036 344.473,374.564 344.738,374.961L345.57,374.406ZM351.81,368.166L352.517,368.873C352.806,368.584 352.89,368.148 352.729,367.772L351.81,368.166ZM348.929,361.448L347.935,361.338C347.916,361.509 347.942,361.683 348.01,361.842L348.929,361.448ZM350.401,357.243C350.461,356.694 350.066,356.2 349.517,356.139C348.968,356.079 348.473,356.474 348.413,357.023L350.401,357.243ZM351.377,397.442L351.377,381.617L349.377,381.617L349.377,397.442L351.377,397.442ZM351.209,381.062L346.402,373.851L344.738,374.961L349.545,382.172L351.209,381.062ZM346.277,375.113L352.517,368.873L351.103,367.459L344.863,373.699L346.277,375.113ZM352.729,367.772L349.848,361.054L348.01,361.842L350.891,368.56L352.729,367.772ZM349.923,361.558L350.401,357.243L348.413,357.023L347.935,361.338L349.923,361.558Z" fill="#263238"/>
<path d="M301.902,236.313L314.129,286.34L316.458,207.858L313.413,206.44L301.902,236.313Z" fill="#17C2EC" stroke="#263238" stroke-width="1" stroke-miterlimit="3.999327" stroke-linecap="round" stroke-linejoin="round"/>
<path d="M306.366,159.249C306.366,159.249 305.396,146.186 309.755,143.275C314.114,140.364 315.562,147.142 315.562,147.142C315.562,147.142 320.399,133.601 326.207,134.572C332.014,135.542 332.014,137.468 332.014,137.468C332.014,137.468 341.688,131.66 345.555,135.527C346.712,136.751 347.608,138.198 348.191,139.778C348.773,141.359 349.029,143.041 348.944,144.723C348.944,144.723 360.081,142.797 362.021,148.112C363.962,153.427 356.692,160.697 356.692,160.697C357.672,161.906 358.393,163.305 358.809,164.805C359.225,166.305 359.328,167.874 359.11,169.416C358.633,175.223 352.332,177.642 352.332,177.642C352.332,177.642 359.11,181.508 356.214,186.823C353.318,192.138 347.018,192.153 347.018,192.153C347.018,192.153 349.436,200.379 342.166,201.827C337.674,202.688 333.045,202.524 328.625,201.349L323.788,204.245L312.651,192.63L306.366,159.249Z" fill="#263238" stroke="#263238" stroke-width="1" stroke-miterlimit="3.999327" stroke-linecap="round" stroke-linejoin="round"/>
<path d="M248.352,171.372C243.306,181.598 240.439,194.258 245.873,202.797C252.651,213.441 257.966,220.712 258.459,223.608C258.951,226.504 257.966,234.252 260.384,235.223C262.803,236.193 273.462,244.897 277.329,246.838C281.195,248.778 287.973,250.227 290.392,247.808C292.81,245.39 297.17,236.193 297.17,236.193L312.696,251.316L315.592,209.694L314.592,206.708C314.592,206.708 326.206,192.66 314.592,166.057C309.187,153.666 294.617,148.903 282.017,149.366C266.475,149.889 255.159,157.577 248.352,171.372Z" fill="#DEDEDE" stroke="#263238" stroke-width="1" stroke-miterlimit="3.999327" stroke-linecap="round" stroke-linejoin="round"/>
<path d="M298.14,228.445L289.914,215.382L298.618,198.438C298.618,198.438 288.451,213.367 283.136,216.83C278.389,219.816 262.146,227.087 258.653,228.639C258.653,231.625 258.936,234.611 260.385,235.223C262.803,236.193 273.462,244.897 277.329,246.838C281.196,248.778 287.973,250.227 290.392,247.808C292.81,245.39 297.17,236.193 297.17,236.193L306.366,212.486L298.14,228.445Z" fill="#17C2EC" stroke="#263238" stroke-width="1" stroke-miterlimit="3.999327" stroke-linecap="round" stroke-linejoin="round"/>
<path d="M298.14,206.619C298.14,206.619 296.199,195.004 301.036,193.541C305.873,192.078 311.964,200.931 310.725,207.097C308.934,215.845 297.423,215.77 300.559,211.456Z" fill="#DEDEDE" stroke="#263238" stroke-width="1" stroke-miterlimit="3.999327" stroke-linecap="round" stroke-linejoin="round"/>
<path d="M314.592,206.619C314.592,206.619 326.207,192.571 314.592,165.967C309.188,153.576 294.617,148.814 282.017,149.277C266.476,149.844 255.145,157.517 248.352,171.312C245.629,176.658 243.856,182.437 243.112,188.391C243.828,189.152 247.113,192.168 252.651,189.197C258.937,185.808 264.744,175.163 272.492,180C280.24,184.837 271.999,200.319 280.225,199.408C288.451,198.497 301.529,196.019 303.948,198.438C306.366,200.856 313.233,208.589 316.458,207.858L314.592,206.619Z" fill="#263238" stroke="#263238" stroke-width="1" stroke-miterlimit="3.999327" stroke-linecap="round" stroke-linejoin="round"/>
<path d="M274.344,205.785C273.842,206.015 273.622,206.609 273.852,207.111C274.083,207.613 274.677,207.833 275.179,207.602L274.344,205.785ZM299.498,196.436C300,196.205 300.22,195.611 299.989,195.109C299.759,194.608 299.165,194.387 298.663,194.618L299.498,196.436ZM275.179,207.602L299.498,196.436L298.663,194.618L274.344,205.785L275.179,207.602Z" fill="#263238"/>
<path d="M258.041,214.278L257.628,213.367C257.376,213.481 257.183,213.694 257.094,213.956C257.005,214.218 257.029,214.504 257.159,214.748L258.041,214.278ZM274.761,206.694L275.662,206.259C275.426,205.77 274.843,205.559 274.348,205.783L274.761,206.694ZM277.299,211.949L278.201,211.516L278.2,211.514L277.299,211.949ZM275.612,216.815L275.172,215.918L275.172,215.918L275.612,216.815ZM265.879,221.593L265.438,220.695L265.432,220.698L265.879,221.593ZM261.146,220.1L260.264,220.57L260.267,220.576L261.146,220.1ZM258.454,215.188L275.175,207.604L274.348,205.783L257.628,213.367L258.454,215.188ZM273.861,207.128L276.399,212.384L278.2,211.514L275.662,206.259L273.861,207.128ZM276.398,212.381C276.701,213.013 276.743,213.74 276.513,214.402L278.403,215.057C278.805,213.896 278.733,212.623 278.201,211.516L276.398,212.381ZM276.513,214.402C276.283,215.064 275.802,215.609 275.172,215.918L276.053,217.713C277.156,217.172 278,216.218 278.403,215.057L276.513,214.402ZM275.172,215.918L265.438,220.695L266.319,222.49L276.053,217.713L275.172,215.918ZM265.432,220.698C264.836,220.996 264.147,221.051 263.511,220.85L262.91,222.757C264.04,223.114 265.265,223.017 266.326,222.487L265.432,220.698ZM263.511,220.85C262.876,220.65 262.343,220.21 262.026,219.624L260.267,220.576C260.831,221.619 261.779,222.401 262.91,222.757L263.511,220.85ZM262.029,219.629L258.923,213.807L257.159,214.748L260.264,220.57L262.029,219.629Z" fill="#263238"/>
<path d="M243.291,221.653L242.828,220.766C242.578,220.896 242.395,221.126 242.324,221.399C242.252,221.671 242.299,221.961 242.453,222.197L243.291,221.653ZM254.727,215.681L255.627,215.246C255.509,215.002 255.298,214.817 255.041,214.732C254.784,214.647 254.504,214.669 254.264,214.794L254.727,215.681ZM257.265,220.936L258.166,220.503L258.165,220.501L257.265,220.936ZM255.578,225.788L256.001,226.694L256.016,226.687L255.578,225.788ZM251.099,227.878L250.676,226.971L250.652,226.983L251.099,227.878ZM246.366,226.385L247.246,225.909C247.233,225.885 247.219,225.862 247.205,225.84L246.366,226.385ZM243.754,222.539L255.19,216.567L254.264,214.794L242.828,220.766L243.754,222.539ZM253.826,216.116L256.364,221.371L258.165,220.501L255.627,215.246L253.826,216.116ZM256.363,221.369C256.666,221.998 256.707,222.722 256.477,223.381L258.366,224.038C258.769,222.88 258.697,221.609 258.166,220.503L256.363,221.369ZM256.477,223.381C256.248,224.041 255.767,224.583 255.139,224.889L256.016,226.687C257.118,226.149 257.964,225.197 258.366,224.038L256.477,223.381ZM255.155,224.882L250.676,226.972L251.522,228.784L256,226.694L255.155,224.882ZM250.652,226.983C250.056,227.281 249.367,227.336 248.731,227.135L248.13,229.043C249.26,229.399 250.485,229.302 251.546,228.772L250.652,226.983ZM248.731,227.135C248.096,226.935 247.563,226.495 247.246,225.909L245.487,226.861C246.051,227.904 246.999,228.686 248.13,229.043L248.731,227.135ZM247.205,225.84L244.13,221.108L242.453,222.197L245.528,226.93L247.205,225.84Z" fill="#263238"/>
<path d="M254.323,214.826C253.817,215.049 253.589,215.639 253.812,216.144C254.035,216.65 254.625,216.878 255.13,216.655L254.323,214.826ZM258.445,215.192C258.95,214.969 259.179,214.379 258.956,213.874C258.733,213.368 258.142,213.14 257.637,213.363L258.445,215.192ZM255.13,216.655L258.445,215.192L257.637,213.363L254.323,214.826L255.13,216.655Z" fill="#263238"/>
<path d="M255.685,216.797C255.172,217.002 254.922,217.584 255.126,218.097C255.331,218.61 255.913,218.86 256.426,218.655L255.685,216.797ZM259.382,217.476C259.895,217.271 260.145,216.689 259.94,216.176C259.735,215.663 259.153,215.413 258.641,215.618L259.382,217.476ZM256.426,218.655L259.382,217.476L258.641,215.618L255.685,216.797L256.426,218.655Z" fill="#263238"/>
<path d="M267.013,213.071C266.825,212.552 266.251,212.283 265.732,212.471C265.213,212.66 264.944,213.233 265.133,213.752L267.013,213.071ZM267.566,217.532L266.625,217.873C266.717,218.124 266.905,218.329 267.149,218.441C267.392,218.553 267.67,218.562 267.921,218.467L267.566,217.532ZM276.031,213.426C276.368,212.988 276.287,212.36 275.85,212.023C275.413,211.685 274.785,211.766 274.448,212.203L276.031,213.426ZM265.133,213.752L266.625,217.873L268.506,217.191L267.013,213.071L265.133,213.752ZM267.566,217.532C267.921,218.467 267.921,218.467 267.921,218.467C267.921,218.467 267.921,218.467 267.921,218.467C267.922,218.467 267.922,218.466 267.923,218.466C267.924,218.466 267.925,218.465 267.927,218.465C267.93,218.463 267.935,218.461 267.941,218.459C267.953,218.454 267.971,218.448 267.994,218.439C268.039,218.421 268.104,218.395 268.187,218.362C268.354,218.295 268.591,218.198 268.882,218.073C269.463,217.823 270.259,217.463 271.121,217.02C272.794,216.159 274.897,214.895 276.031,213.426L274.448,212.203C273.611,213.287 271.877,214.382 270.206,215.241C269.396,215.658 268.643,215.999 268.093,216.235C267.818,216.353 267.595,216.444 267.442,216.506C267.365,216.537 267.306,216.56 267.267,216.575C267.247,216.583 267.232,216.589 267.223,216.592C267.218,216.594 267.215,216.596 267.213,216.596C267.212,216.597 267.211,216.597 267.211,216.597C267.211,216.597 267.211,216.597 267.211,216.597C267.211,216.597 267.211,216.597 267.211,216.597C267.211,216.597 267.211,216.597 267.566,217.532Z" fill="#263238"/>
<path d="M260.454,209.943C260.064,210.333 260.064,210.966 260.454,211.357C260.845,211.747 261.478,211.747 261.868,211.357L260.454,209.943ZM273.287,206.737C273.838,206.768 274.311,206.346 274.342,205.794C274.373,205.243 273.951,204.771 273.4,204.74L273.287,206.737ZM261.161,210.65C261.868,211.357 261.868,211.357 261.868,211.357C261.868,211.357 261.868,211.357 261.868,211.358C261.867,211.358 261.867,211.358 261.867,211.358C261.867,211.358 261.868,211.357 261.868,211.357C261.87,211.356 261.872,211.353 261.876,211.349C261.883,211.342 261.896,211.33 261.913,211.313C261.948,211.28 262.003,211.229 262.075,211.162C262.221,211.03 262.441,210.836 262.727,210.604C263.3,210.138 264.136,209.519 265.176,208.912C267.266,207.691 270.114,206.558 273.287,206.737L273.4,204.74C269.69,204.53 266.447,205.853 264.167,207.185C263.021,207.854 262.102,208.535 261.466,209.051C261.148,209.31 260.9,209.528 260.729,209.683C260.644,209.761 260.577,209.823 260.531,209.868C260.508,209.89 260.49,209.907 260.477,209.92C260.471,209.926 260.466,209.931 260.462,209.935C260.46,209.937 260.458,209.938 260.457,209.94C260.456,209.94 260.456,209.941 260.455,209.941C260.455,209.942 260.455,209.942 260.455,209.942C260.454,209.942 260.454,209.943 261.161,210.65Z" fill="#263238"/>
<path d="M250.069,323.782C250.069,323.782 228.825,314.421 227.675,314.063C226.526,313.705 211.477,307.225 209.313,307.584C207.148,307.942 198.161,316.228 196.354,317.661C194.548,319.094 188.083,327.38 189.158,329.604C190.233,331.828 192.756,328.514 192.756,328.514C192.756,328.514 190.606,331.754 193.115,332.112C195.623,332.47 197.071,329.604 197.071,329.604C197.071,329.604 196.354,332.485 198.564,332.844C200.773,333.202 202.52,330.321 202.52,330.321C202.52,330.321 204.326,332.844 205.759,332.844C207.193,332.844 213.314,326.006 213.314,326.006C213.314,326.006 217.643,329.962 221.241,330.679C224.839,331.395 234.199,329.186 234.199,329.186L250.397,337.457L250.069,323.782Z" fill="#DEDEDE" stroke="#263238" stroke-width="1" stroke-miterlimit="3.999327" stroke-linecap="round" stroke-linejoin="round"/>
<path d="M241.067,327.738C241.678,325.202 241.805,322.573 241.44,319.99C235.468,317.347 228.362,314.272 227.75,314.018C226.675,313.66 211.552,307.181 209.387,307.539C207.223,307.897 198.235,316.183 196.429,317.616C194.622,319.049 188.158,327.335 189.233,329.559C190.308,331.784 192.831,328.47 192.831,328.47C192.831,328.47 190.681,331.709 193.189,332.067C195.697,332.426 197.145,329.559 197.145,329.559C197.145,329.559 196.429,332.441 198.638,332.799C200.848,333.157 202.595,330.276 202.595,330.276C202.595,330.276 204.401,332.799 205.834,332.799C207.267,332.799 213.388,325.962 213.388,325.962C213.388,325.962 217.718,329.918 221.315,330.634C224.913,331.351 234.274,329.141 234.274,329.141L239.29,331.694C240.004,330.434 240.599,329.109 241.067,327.738L241.067,327.738Z" fill="#17C2EC" stroke="#263238" stroke-width="1" stroke-miterlimit="3.999327" stroke-linecap="round" stroke-linejoin="round"/>
<path d="M201.783,329.619C201.429,330.042 201.484,330.673 201.907,331.027C202.331,331.382 202.961,331.327 203.316,330.903L201.783,329.619ZM212.677,319.737C213.031,319.313 212.976,318.683 212.553,318.328C212.129,317.973 211.499,318.028 211.144,318.452L212.677,319.737ZM203.316,330.903L212.677,319.737L211.144,318.452L201.783,329.619L203.316,330.903Z" fill="#263238"/>
<path d="M197.146,329.544C197.146,329.544 202.55,320.184 203.998,319.094C205.446,318.004 210.477,314.063 210.477,314.063Z" fill="#FFFFFF" stroke="#263238" stroke-width="1" stroke-miterlimit="3.999327" stroke-linecap="round" stroke-linejoin="round"/>
<path d="M192.831,328.455L200.027,318.019L207.238,312.988Z" fill="#FFFFFF" stroke="#263238" stroke-width="1" stroke-miterlimit="3.999327" stroke-linecap="round" stroke-linejoin="round"/>
<path d="M334.298,239.194C334.298,239.194 325.341,244.598 324.579,253.227C323.818,261.856 313.054,333.515 313.054,333.515L248.979,321.572L245.381,350.729C245.381,350.729 335.373,369.091 336.806,366.927C338.239,364.762 366.321,279.099 366.321,279.099Z" fill="#FFFFFF" stroke="#263238" stroke-width="1" stroke-miterlimit="3.999327" stroke-linecap="round" stroke-linejoin="round"/>
<path d="M335.333,327.494C334.803,327.648 334.498,328.203 334.651,328.733C334.805,329.264 335.36,329.569 335.89,329.415L335.333,327.494ZM341.801,327.615C342.327,327.445 342.615,326.881 342.445,326.356C342.276,325.83 341.712,325.542 341.186,325.712L341.801,327.615ZM335.89,329.415C337.852,328.846 339.848,328.246 341.801,327.615L341.186,325.712C339.258,326.335 337.283,326.929 335.333,327.494L335.89,329.415Z" fill="#263238"/>
<path d="M315.372,332.537C314.831,332.65 314.485,333.181 314.598,333.721C314.712,334.261 315.242,334.608 315.783,334.494L315.372,332.537ZM332.1,330.494C332.633,330.347 332.945,329.797 332.799,329.264C332.653,328.732 332.102,328.419 331.57,328.565L332.1,330.494ZM315.577,333.515C315.783,334.494 315.783,334.494 315.783,334.494C315.783,334.494 315.783,334.494 315.783,334.494C315.783,334.494 315.784,334.494 315.784,334.494C315.785,334.494 315.787,334.493 315.789,334.493C315.792,334.492 315.798,334.491 315.805,334.489C315.82,334.486 315.842,334.482 315.871,334.475C315.929,334.463 316.014,334.445 316.125,334.421C316.348,334.373 316.676,334.302 317.096,334.209C317.937,334.024 319.149,333.751 320.636,333.403C323.61,332.707 327.688,331.707 332.1,330.494L331.57,328.565C327.189,329.77 323.137,330.764 320.181,331.456C318.703,331.802 317.499,332.072 316.665,332.256C316.249,332.348 315.924,332.419 315.705,332.466C315.595,332.489 315.511,332.507 315.455,332.519C315.427,332.525 315.406,332.53 315.392,332.532C315.385,332.534 315.38,332.535 315.377,332.536C315.375,332.536 315.374,332.536 315.373,332.537C315.372,332.537 315.372,332.537 315.372,332.537C315.372,332.537 315.372,332.537 315.372,332.537C315.372,332.537 315.372,332.537 315.577,333.515Z" fill="#263238"/>
<path d="M344.047,310.924C344.49,310.594 344.582,309.967 344.252,309.524C343.922,309.081 343.295,308.99 342.852,309.32L344.047,310.924ZM315.503,327.911C315.005,328.15 314.795,328.747 315.034,329.245C315.273,329.743 315.87,329.953 316.368,329.715L315.503,327.911ZM342.852,309.32C338.549,312.527 333.129,316.498 328.064,320.012C322.978,323.541 318.316,326.563 315.503,327.911L316.368,329.715C319.347,328.286 324.135,325.172 329.205,321.655C334.296,318.123 339.736,314.136 344.047,310.924L342.852,309.32Z" fill="#263238"/>
<path d="M352.172,304.785C352.614,304.453 352.702,303.826 352.37,303.385C352.039,302.944 351.412,302.855 350.97,303.187L352.172,304.785ZM345.904,307.027C345.465,307.362 345.38,307.99 345.715,308.429C346.05,308.868 346.677,308.953 347.116,308.618L345.904,307.027ZM351.571,303.986C350.97,303.187 350.97,303.187 350.97,303.187C350.97,303.187 350.97,303.187 350.97,303.187C350.97,303.187 350.97,303.187 350.97,303.187C350.97,303.187 350.969,303.187 350.969,303.188C350.968,303.189 350.966,303.19 350.964,303.191C350.96,303.194 350.955,303.198 350.947,303.204C350.932,303.216 350.909,303.233 350.878,303.256C350.818,303.301 350.728,303.369 350.611,303.457C350.376,303.634 350.032,303.894 349.591,304.228C348.709,304.895 347.443,305.855 345.904,307.027L347.116,308.618C348.653,307.447 349.917,306.489 350.797,305.823C351.237,305.49 351.581,305.231 351.815,305.054C351.932,304.966 352.021,304.899 352.081,304.854C352.111,304.831 352.134,304.814 352.149,304.802C352.157,304.797 352.163,304.792 352.166,304.789C352.168,304.788 352.17,304.787 352.171,304.786C352.171,304.786 352.172,304.786 352.172,304.785C352.172,304.785 352.172,304.785 352.172,304.785C352.172,304.785 352.172,304.785 352.172,304.785C352.172,304.785 352.172,304.785 351.571,303.986Z" fill="#263238"/>
<path d="M342.632,293.446C342.978,293.015 342.909,292.386 342.479,292.04C342.049,291.694 341.419,291.762 341.073,292.192L342.632,293.446ZM325.362,310.781C324.942,311.141 324.894,311.772 325.254,312.191C325.613,312.61 326.245,312.659 326.664,312.299L325.362,310.781ZM341.852,292.819C341.073,292.192 341.073,292.192 341.073,292.193C341.073,292.193 341.073,292.193 341.073,292.193C341.072,292.194 341.072,292.194 341.071,292.195C341.069,292.197 341.067,292.2 341.064,292.204C341.057,292.212 341.048,292.224 341.035,292.24C341.01,292.271 340.973,292.317 340.924,292.378C340.826,292.5 340.682,292.678 340.497,292.906C340.129,293.363 339.599,294.017 338.956,294.809C337.669,296.394 335.928,298.529 334.108,300.731C332.287,302.933 330.391,305.2 328.795,307.048C327.174,308.925 325.923,310.3 325.362,310.781L326.664,312.299C327.364,311.698 328.723,310.191 330.309,308.355C331.919,306.491 333.825,304.212 335.649,302.005C337.474,299.797 339.22,297.658 340.509,296.07C341.153,295.276 341.684,294.621 342.053,294.163C342.238,293.934 342.382,293.755 342.481,293.633C342.53,293.572 342.568,293.525 342.593,293.494C342.606,293.478 342.615,293.466 342.622,293.458C342.625,293.454 342.627,293.451 342.629,293.449C342.63,293.448 342.631,293.447 342.631,293.447C342.631,293.446 342.631,293.446 342.631,293.446C342.632,293.446 342.632,293.446 341.852,292.819Z" fill="#263238"/>
</svg>
