<svg width="54" height="50" viewBox="0 0 54 50" fill="none" xmlns="http://www.w3.org/2000/svg" xmlns:xlink="http://www.w3.org/1999/xlink">
<path d="M51,26.004C52.105,26.004 53,25.109 53,24.004C53,22.899 52.105,22.004 51,22.004L51,26.004ZM41,24.004L41,22.004C40.139,22.004 39.375,22.555 39.103,23.372L41,24.004ZM33.5,46.504L31.603,47.136C31.875,47.953 32.639,48.504 33.5,48.504C34.361,48.504 35.125,47.953 35.397,47.136L33.5,46.504ZM18.5,1.504L20.397,0.871C20.125,0.055 19.361,-0.496 18.5,-0.496C17.639,-0.496 16.875,0.055 16.603,0.871L18.5,1.504ZM11,24.004L11,26.004C11.861,26.004 12.625,25.453 12.897,24.636L11,24.004ZM1,22.004C-0.105,22.004 -1,22.899 -1,24.004C-1,25.109 -0.105,26.004 1,26.004L1,22.004ZM51,22.004L41,22.004L41,26.004L51,26.004L51,22.004ZM39.103,23.372L31.603,45.872L35.397,47.136L42.897,24.636L39.103,23.372ZM35.397,45.872L20.397,0.871L16.603,2.136L31.603,47.136L35.397,45.872ZM16.603,0.871L9.103,23.372L12.897,24.636L20.397,2.136L16.603,0.871ZM11,22.004L1,22.004L1,26.004L11,26.004L11,22.004Z" fill="#17C2EC" fill-opacity="0.5"/>
</svg>
