<svg width="10" height="10" viewBox="0 0 10 10" fill="none" xmlns="http://www.w3.org/2000/svg" xmlns:xlink="http://www.w3.org/1999/xlink">
<path d="M4.933,4.291C4.935,4.292 4.937,4.293 4.94,4.294C4.942,4.295 4.945,4.296 4.948,4.297C4.951,4.297 4.956,4.298 4.963,4.298C4.97,4.298 4.975,4.297 4.978,4.297C4.981,4.296 4.984,4.295 4.986,4.294C4.989,4.293 4.991,4.292 4.993,4.291C4.991,4.289 4.989,4.288 4.986,4.287C4.984,4.286 4.981,4.285 4.978,4.285C4.975,4.284 4.97,4.283 4.963,4.283C4.956,4.283 4.951,4.284 4.948,4.285C4.945,4.285 4.942,4.286 4.94,4.287C4.937,4.288 4.935,4.289 4.933,4.291ZM0.926,4.291C0.926,2.05 2.761,0.283 4.963,0.283C7.165,0.283 9,2.05 9,4.291C9,6.531 7.165,8.298 4.963,8.298C2.761,8.298 0.926,6.531 0.926,4.291Z" clip-rule="evenodd" fill-rule="evenodd" fill="#000000"/>
</svg>
