<svg width="66" height="50" viewBox="0 0 66 50" fill="none" xmlns="http://www.w3.org/2000/svg" xmlns:xlink="http://www.w3.org/1999/xlink">
<path d="M23.223,-0.5C24.032,-0.5 24.761,-0.012 25.071,0.735L41.847,41.27L49.311,23.235C49.62,22.488 50.349,22 51.159,22L63.574,22C64.679,22 65.574,22.895 65.574,24C65.574,25.105 64.679,26 63.574,26L52.495,26L43.695,47.265C43.385,48.012 42.656,48.5 41.847,48.5C41.038,48.5 40.308,48.012 39.999,47.265L23.223,6.73L15.759,24.765C15.45,25.512 14.72,26 13.911,26L1.495,26C0.391,26 -0.505,25.105 -0.505,24C-0.505,22.895 0.391,22 1.495,22L12.574,22L21.375,0.735C21.684,-0.012 22.414,-0.5 23.223,-0.5Z" clip-rule="evenodd" fill-rule="evenodd" fill="#17C2EC" fill-opacity="0.5"/>
</svg>
