<svg width="32" height="24" viewBox="0 0 32 24" fill="none" xmlns="http://www.w3.org/2000/svg" xmlns:xlink="http://www.w3.org/1999/xlink">
<path d="M29.749,3.414C30.53,2.633 30.53,1.367 29.749,0.586C28.968,-0.195 27.702,-0.195 26.921,0.586L29.749,3.414ZM10.002,20.333L8.588,21.748C9.369,22.529 10.635,22.529 11.416,21.748L10.002,20.333ZM3.083,10.586C2.302,9.805 1.035,9.805 0.254,10.586C-0.527,11.367 -0.527,12.633 0.254,13.414L3.083,10.586ZM26.921,0.586L8.588,18.919L11.416,21.748L29.749,3.414L26.921,0.586ZM11.416,18.919L3.083,10.586L0.254,13.414L8.588,21.748L11.416,18.919Z" fill="#FFFFFF"/>
</svg>
