<svg width="20" height="34" viewBox="0 0 20 34" fill="none" xmlns="http://www.w3.org/2000/svg" xmlns:xlink="http://www.w3.org/1999/xlink">
<path d="M12.985,32.384C9.945,32.384 7.577,31.616 5.881,30.08C4.185,28.512 3.337,26.192 3.337,23.12L3.337,0.464L10.825,0.464L10.825,23.024C10.825,24.112 11.113,24.96 11.689,25.568C12.265,26.144 13.049,26.432 14.041,26.432C15.225,26.432 16.233,26.112 17.065,25.472L19.081,30.752C18.313,31.296 17.385,31.712 16.297,32C15.241,32.256 14.137,32.384 12.985,32.384ZM-0.647,12.512L-0.647,6.752L17.257,6.752L17.257,12.512L-0.647,12.512Z" fill="#000000"/>
</svg>
