<svg width="32" height="38" viewBox="0 0 32 38" fill="none" xmlns="http://www.w3.org/2000/svg" xmlns:xlink="http://www.w3.org/1999/xlink">
<path d="M3.884,38L3.884,11.6C3.884,8.688 4.748,6.368 6.476,4.64C8.204,2.88 10.668,2 13.868,2C14.956,2 15.996,2.112 16.988,2.336C18.012,2.56 18.876,2.912 19.58,3.392L17.612,8.816C17.196,8.528 16.732,8.304 16.22,8.144C15.708,7.984 15.164,7.904 14.588,7.904C13.5,7.904 12.652,8.224 12.044,8.864C11.468,9.472 11.18,10.4 11.18,11.648L11.18,14.048L11.372,17.264L11.372,38L3.884,38ZM-0.1,18.512L-0.1,12.752L17.804,12.752L17.804,18.512L-0.1,18.512ZM22.028,38L22.028,12.176L29.516,12.176L29.516,38L22.028,38ZM25.772,8.576C24.396,8.576 23.276,8.176 22.412,7.376C21.548,6.576 21.116,5.584 21.116,4.4C21.116,3.216 21.548,2.224 22.412,1.424C23.276,0.624 24.396,0.224 25.772,0.224C27.148,0.224 28.268,0.608 29.132,1.376C29.996,2.112 30.428,3.072 30.428,4.256C30.428,5.504 29.996,6.544 29.132,7.376C28.3,8.176 27.18,8.576 25.772,8.576Z" fill="#000000"/>
</svg>
