<svg width="24" height="58" viewBox="0 0 24 58" fill="none" xmlns="http://www.w3.org/2000/svg" xmlns:xlink="http://www.w3.org/1999/xlink">
<path d="M19.107,55.637C19.768,56.523 21.021,56.705 21.906,56.044C22.792,55.384 22.974,54.131 22.313,53.245L19.107,55.637ZM1.282,28.4L-0.321,27.204C-0.85,27.913 -0.85,28.886 -0.321,29.596L1.282,28.4ZM22.313,3.554C22.974,2.669 22.792,1.416 21.906,0.755C21.021,0.095 19.768,0.277 19.107,1.162L22.313,3.554ZM22.313,53.245L2.885,27.204L-0.321,29.596L19.107,55.637L22.313,53.245ZM2.885,29.596L22.313,3.554L19.107,1.162L-0.321,27.204L2.885,29.596Z" transform="rotate(-359.065 10.996 28.4)" fill="#000000"/>
</svg>
