<svg width="18" height="20" viewBox="0 0 18 20" fill="none" xmlns="http://www.w3.org/2000/svg" xmlns:xlink="http://www.w3.org/1999/xlink">
<path d="M9.28,18.256C7.424,18.256 5.771,17.883 4.32,17.136C2.87,16.368 1.728,15.312 0.896,13.968C0.086,12.624 -0.32,11.099 -0.32,9.392C-0.32,7.664 0.086,6.139 0.896,4.816C1.728,3.472 2.87,2.427 4.32,1.68C5.771,0.912 7.424,0.528 9.28,0.528C11.094,0.528 12.672,0.912 14.016,1.68C15.36,2.427 16.352,3.504 16.992,4.912L13.12,6.992C12.672,6.181 12.107,5.584 11.424,5.2C10.763,4.816 10.038,4.624 9.248,4.624C8.395,4.624 7.627,4.816 6.944,5.2C6.262,5.584 5.718,6.128 5.312,6.832C4.928,7.536 4.736,8.389 4.736,9.392C4.736,10.395 4.928,11.248 5.312,11.952C5.718,12.656 6.262,13.2 6.944,13.584C7.627,13.968 8.395,14.16 9.248,14.16C10.038,14.16 10.763,13.979 11.424,13.616C12.107,13.232 12.672,12.624 13.12,11.792L16.992,13.904C16.352,15.291 15.36,16.368 14.016,17.136C12.672,17.883 11.094,18.256 9.28,18.256Z" fill="#000000"/>
</svg>
