<svg width="32" height="16" viewBox="0 0 32 16" fill="none" xmlns="http://www.w3.org/2000/svg" xmlns:xlink="http://www.w3.org/1999/xlink">
<path d="M27.333,12.169C27.333,13.273 28.229,14.169 29.333,14.169C30.438,14.169 31.333,13.273 31.333,12.169L27.333,12.169ZM22.667,2.406L22.667,0.406L22.667,2.406ZM9.333,2.406L9.333,0.406L9.333,2.406ZM2.667,8.915L0.667,8.915L2.667,8.915ZM0.667,12.169C0.667,13.273 1.562,14.169 2.667,14.169C3.771,14.169 4.667,13.273 4.667,12.169L0.667,12.169ZM31.333,12.169L31.333,8.915L27.333,8.915L27.333,12.169L31.333,12.169ZM31.333,8.915C31.333,6.642 30.408,4.473 28.778,2.881L25.984,5.744C26.854,6.593 27.333,7.735 27.333,8.915L31.333,8.915ZM28.778,2.881C27.149,1.291 24.95,0.406 22.667,0.406L22.667,4.406C23.92,4.406 25.112,4.893 25.984,5.744L28.778,2.881ZM22.667,0.406L9.333,0.406L9.333,4.406L22.667,4.406L22.667,0.406ZM9.333,0.406C7.05,0.406 4.851,1.291 3.222,2.881L6.016,5.744C6.888,4.893 8.08,4.406 9.333,4.406L9.333,0.406ZM3.222,2.881C1.592,4.473 0.667,6.642 0.667,8.915L4.667,8.915C4.667,7.735 5.146,6.593 6.016,5.744L3.222,2.881ZM0.667,8.915L0.667,12.169L4.667,12.169L4.667,8.915L0.667,8.915Z" fill="#000000"/>
</svg>
