<svg width="24" height="24" viewBox="0 0 24 24" fill="none" xmlns="http://www.w3.org/2000/svg" xmlns:xlink="http://www.w3.org/1999/xlink">
<path d="M20,11.504C20,15.922 16.418,19.504 12,19.504L12,23.504C18.627,23.504 24,18.131 24,11.504L20,11.504ZM12,19.504C7.582,19.504 4,15.922 4,11.504L0,11.504C0,18.131 5.373,23.504 12,23.504L12,19.504ZM4,11.504C4,7.086 7.582,3.504 12,3.504L12,-0.496C5.373,-0.496 0,4.876 0,11.504L4,11.504ZM12,3.504C16.418,3.504 20,7.086 20,11.504L24,11.504C24,4.876 18.627,-0.496 12,-0.496L12,3.504Z" fill="#17C2EC" fill-opacity="0.5"/>
</svg>
