<svg width="60" height="60" viewBox="0 0 60 60" fill="none" xmlns="http://www.w3.org/2000/svg" xmlns:xlink="http://www.w3.org/1999/xlink">
<path d="M42.882,37.736L40.172,37.736L39.211,36.81C42.689,32.775 44.601,27.625 44.597,22.298C44.597,17.888 43.289,13.577 40.839,9.91C38.389,6.243 34.906,3.385 30.832,1.697C26.757,0.01 22.274,-0.432 17.948,0.428C13.623,1.289 9.65,3.413 6.531,6.531C3.413,9.65 1.289,13.623 0.428,17.948C-0.432,22.274 0.01,26.757 1.697,30.832C3.385,34.906 6.243,38.389 9.91,40.839C13.577,43.289 17.888,44.597 22.298,44.597C27.822,44.597 32.899,42.573 36.81,39.211L37.736,40.172L37.736,42.882L54.889,60L60,54.889L42.882,37.736ZM22.298,37.736C13.756,37.736 6.861,30.84 6.861,22.298C6.861,13.756 13.756,6.861 22.298,6.861C30.84,6.861 37.736,13.756 37.736,22.298C37.736,30.84 30.84,37.736 22.298,37.736Z" fill="#000000"/>
</svg>
