<svg width="26" height="26" viewBox="0 0 26 26" fill="none" xmlns="http://www.w3.org/2000/svg" xmlns:xlink="http://www.w3.org/1999/xlink">
<path d="M14.871,-0.208C16.919,-0.208 18.743,0.208 20.343,1.04C21.975,1.84 23.255,3.088 24.183,4.784C25.111,6.448 25.575,8.592 25.575,11.216L25.575,26L18.087,26L18.087,12.368C18.087,10.288 17.623,8.752 16.695,7.76C15.799,6.768 14.519,6.272 12.855,6.272C11.671,6.272 10.599,6.528 9.639,7.04C8.711,7.52 7.975,8.272 7.431,9.296C6.919,10.32 6.663,11.632 6.663,13.232L6.663,26L-0.825,26L-0.825,0.176L6.327,0.176L6.327,7.328L4.983,5.168C5.911,3.44 7.239,2.112 8.967,1.184C10.695,0.256 12.663,-0.208 14.871,-0.208Z" fill="#000000"/>
</svg>
