<svg width="102" height="100" viewBox="0 0 102 100" fill="none" xmlns="http://www.w3.org/2000/svg" xmlns:xlink="http://www.w3.org/1999/xlink">
<path d="M47.067,65.867L46.426,66.635C46.633,66.807 46.9,66.889 47.167,66.862C47.434,66.835 47.68,66.701 47.848,66.491L47.067,65.867ZM50.533,0L51.029,-0.868C50.722,-1.044 50.345,-1.044 50.037,-0.868L50.533,0ZM2,27.733L1.504,26.865C1.192,27.043 1,27.374 1,27.733L2,27.733ZM2,32.725L3,32.725L3,32.725L2,32.725ZM50.533,97.067L50.259,98.028C50.438,98.079 50.628,98.079 50.808,98.028L50.533,97.067ZM99.067,32.725L98.067,32.725L98.067,32.725L99.067,32.725ZM99.067,27.733L100.067,27.733C100.067,27.374 99.874,27.043 99.563,26.865L99.067,27.733ZM25.626,49.302L46.426,66.635L47.707,65.098L26.907,47.765L25.626,49.302ZM47.848,66.491L75.581,31.825L74.019,30.575L46.286,65.242L47.848,66.491ZM50.037,-0.868L1.504,26.865L2.496,28.602L51.029,0.868L50.037,-0.868ZM1,27.733L1,32.725L3,32.725L3,27.733L1,27.733ZM1,32.725C1,47.484 5.807,61.842 14.695,73.625L16.292,72.42C7.666,60.984 3,47.05 3,32.725L1,32.725ZM14.695,73.625C23.583,85.407 36.067,93.974 50.259,98.028L50.808,96.105C37.035,92.17 24.918,83.856 16.292,72.42L14.695,73.625ZM50.808,98.028C64.999,93.974 77.484,85.407 86.372,73.625L84.775,72.42C76.149,83.856 64.032,92.17 50.259,96.105L50.808,98.028ZM86.372,73.625C95.259,61.842 100.067,47.484 100.067,32.725L98.067,32.725C98.067,47.05 93.401,60.984 84.775,72.42L86.372,73.625ZM100.067,32.725L100.067,27.733L98.067,27.733L98.067,32.725L100.067,32.725ZM99.563,26.865L51.029,-0.868L50.037,0.868L98.571,28.602L99.563,26.865Z" fill="#FFFFFF"/>
</svg>
