<svg width="26" height="26" viewBox="0 0 26 26" fill="none" xmlns="http://www.w3.org/2000/svg" xmlns:xlink="http://www.w3.org/1999/xlink">
<path d="M12,3C13.725,3 15.414,3.496 16.866,4.429C18.317,5.362 19.469,6.693 20.186,8.262C20.902,9.832 21.153,11.574 20.907,13.282C20.661,14.99 19.93,16.591 18.8,17.895C17.67,19.198 16.189,20.15 14.533,20.636C12.878,21.122 11.117,21.121 9.462,20.635C7.807,20.149 6.326,19.197 5.196,17.893C4.067,16.589 3.335,14.988 3.09,13.28C3.034,12.886 2.823,12.531 2.505,12.292C2.187,12.053 1.787,11.951 1.393,12.007C0.999,12.063 0.644,12.274 0.405,12.592C0.166,12.91 0.064,13.31 0.12,13.704C0.499,16.352 1.752,18.797 3.68,20.652C5.607,22.506 8.099,23.663 10.76,23.94C13.42,24.217 16.097,23.596 18.365,22.178C20.633,20.76 22.362,18.625 23.277,16.111C24.193,13.598 24.243,10.851 23.42,8.306C22.596,5.761 20.946,3.565 18.731,2.065C16.516,0.565 13.864,-0.152 11.195,0.027C8.526,0.207 5.994,1.273 4,3.056L4,1.5C4,1.102 3.842,0.721 3.561,0.439C3.279,0.158 2.898,0 2.5,0C2.102,0 1.721,0.158 1.439,0.439C1.158,0.721 1,1.102 1,1.5L1,7.5C1,8.328 1.672,9 2.5,9L7.5,9C7.898,9 8.279,8.842 8.561,8.561C8.842,8.279 9,7.898 9,7.5C9,7.102 8.842,6.721 8.561,6.439C8.279,6.158 7.898,6 7.5,6L5.292,6C6.136,5.056 7.17,4.301 8.326,3.784C9.482,3.267 10.734,3 12,3ZM13,7.5C13,7.102 12.842,6.721 12.561,6.439C12.279,6.158 11.898,6 11.5,6C11.102,6 10.721,6.158 10.439,6.439C10.158,6.721 10,7.102 10,7.5L10,12.5C10,13.328 10.672,14 11.5,14L15.5,14C15.898,14 16.279,13.842 16.561,13.561C16.842,13.279 17,12.898 17,12.5C17,12.102 16.842,11.721 16.561,11.439C16.279,11.158 15.898,11 15.5,11L13,11L13,7.5Z" fill="#000000"/>
</svg>
