<svg width="10" height="10" viewBox="0 0 10 10" fill="none" xmlns="http://www.w3.org/2000/svg" xmlns:xlink="http://www.w3.org/1999/xlink">
<path d="M5,4.291C5,4.292 5,4.291 5,4.289C5.001,4.287 5.001,4.285 5.002,4.283C5.003,4.281 5.003,4.282 4.999,4.286C4.996,4.289 4.991,4.292 4.986,4.294C4.984,4.295 4.981,4.296 4.978,4.297C4.975,4.297 4.97,4.298 4.963,4.298L4.963,8.298C7.165,8.298 9,6.531 9,4.291L5,4.291ZM4.963,4.298C4.956,4.298 4.951,4.297 4.948,4.297C4.944,4.296 4.942,4.295 4.939,4.294C4.934,4.292 4.93,4.289 4.926,4.286C4.923,4.282 4.923,4.281 4.924,4.283C4.924,4.285 4.925,4.287 4.925,4.289C4.926,4.291 4.926,4.292 4.926,4.291L0.926,4.291C0.926,6.531 2.761,8.298 4.963,8.298L4.963,4.298ZM4.926,4.291C4.926,4.29 4.926,4.29 4.925,4.293C4.925,4.295 4.924,4.297 4.924,4.298C4.923,4.301 4.923,4.299 4.926,4.296C4.93,4.292 4.934,4.289 4.939,4.287C4.942,4.286 4.944,4.285 4.948,4.285C4.951,4.284 4.956,4.283 4.963,4.283L4.963,0.283C2.761,0.283 0.926,2.05 0.926,4.291L4.926,4.291ZM4.963,4.283C4.97,4.283 4.975,4.284 4.978,4.285C4.981,4.285 4.984,4.286 4.986,4.287C4.991,4.289 4.996,4.292 4.999,4.296C5.003,4.299 5.003,4.301 5.002,4.298C5.001,4.297 5.001,4.295 5,4.293C5,4.29 5,4.29 5,4.291L9,4.291C9,2.05 7.165,0.283 4.963,0.283L4.963,4.283Z" fill="#000000"/>
</svg>
