<svg width="142" height="116" viewBox="0 0 142 116" fill="none" xmlns="http://www.w3.org/2000/svg" xmlns:xlink="http://www.w3.org/1999/xlink">
<path d="M123.352,24.404C113.916,24.516 106.164,30.794 105.971,38.489C105.833,43.957 109.419,48.749 114.799,51.269L114.799,76.605C114.799,89.498 100.949,100.006 83.899,100.006C67.346,100.006 53.772,90.083 53.027,77.685C73.112,74.31 88.286,59.775 88.286,42.404L88.286,7.438C88.286,4.873 86.051,2.646 82.961,2.151L65.607,-0.684C62.021,-1.269 58.545,0.621 57.827,3.546L56.944,7.078C56.227,10.003 58.545,12.839 62.131,13.424L70.601,14.796L70.601,42.112C70.601,54.014 58.958,63.87 44.364,63.982C29.631,64.095 17.63,54.374 17.63,42.382L17.63,14.819L26.1,13.446C29.686,12.861 32.004,10.026 31.286,7.101L30.431,3.568C29.714,0.643 26.237,-1.247 22.651,-0.662L5.325,2.128C2.235,2.646 0,4.851 0,7.438L0,42.404C0,59.797 15.202,74.355 35.342,77.685C36.059,98.026 57.551,114.406 83.872,114.406C110.633,114.406 132.429,97.441 132.429,76.605L132.429,51.269C137.698,48.772 141.257,44.137 141.257,38.804C141.257,30.771 133.201,24.291 123.352,24.404ZM123.6,42.404C121.172,42.404 119.186,40.784 119.186,38.804C119.186,36.824 121.172,35.204 123.6,35.204C126.028,35.204 128.015,36.824 128.015,38.804C128.015,40.784 126.028,42.404 123.6,42.404Z" fill="#000000"/>
</svg>
