<svg width="22" height="40" viewBox="0 0 22 40" fill="none" xmlns="http://www.w3.org/2000/svg" xmlns:xlink="http://www.w3.org/1999/xlink">
<path d="M18.086,38.414C18.867,39.195 20.133,39.195 20.914,38.414C21.695,37.633 21.695,36.367 20.914,35.586L18.086,38.414ZM2,19.5L0.586,18.086C-0.195,18.867 -0.195,20.133 0.586,20.914L2,19.5ZM20.914,3.414C21.695,2.633 21.695,1.367 20.914,0.586C20.133,-0.195 18.867,-0.195 18.086,0.586L20.914,3.414ZM20.914,35.586L3.414,18.086L0.586,20.914L18.086,38.414L20.914,35.586ZM3.414,20.914L20.914,3.414L18.086,0.586L0.586,18.086L3.414,20.914Z" transform="rotate(-360 10.75 19.5)" fill="#FFFFFF"/>
</svg>
