<svg width="30" height="28" viewBox="0 0 30 28" fill="none" xmlns="http://www.w3.org/2000/svg" xmlns:xlink="http://www.w3.org/1999/xlink">
<path d="M14.51,26.384C11.758,26.384 9.31,25.808 7.166,24.656C5.054,23.504 3.374,21.936 2.126,19.952C0.91,17.936 0.302,15.648 0.302,13.088C0.302,10.496 0.91,8.208 2.126,6.224C3.374,4.208 5.054,2.64 7.166,1.52C9.31,0.368 11.758,-0.208 14.51,-0.208C17.23,-0.208 19.662,0.368 21.806,1.52C23.95,2.64 25.63,4.192 26.846,6.176C28.062,8.16 28.67,10.464 28.67,13.088C28.67,15.648 28.062,17.936 26.846,19.952C25.63,21.936 23.95,23.504 21.806,24.656C19.662,25.808 17.23,26.384 14.51,26.384ZM14.51,20.24C15.758,20.24 16.878,19.952 17.87,19.376C18.862,18.8 19.646,17.984 20.222,16.928C20.798,15.84 21.086,14.56 21.086,13.088C21.086,11.584 20.798,10.304 20.222,9.248C19.646,8.192 18.862,7.376 17.87,6.8C16.878,6.224 15.758,5.936 14.51,5.936C13.262,5.936 12.142,6.224 11.15,6.8C10.158,7.376 9.358,8.192 8.75,9.248C8.174,10.304 7.886,11.584 7.886,13.088C7.886,14.56 8.174,15.84 8.75,16.928C9.358,17.984 10.158,18.8 11.15,19.376C12.142,19.952 13.262,20.24 14.51,20.24Z" fill="#000000"/>
</svg>
