<svg width="86" height="82" viewBox="0 0 86 82" fill="none" xmlns="http://www.w3.org/2000/svg" xmlns:xlink="http://www.w3.org/1999/xlink">
<path d="M11.125,37.932C8.15,37.932 5.635,36.905 3.581,34.851C1.527,32.797 0.5,30.282 0.5,27.307C0.5,24.332 1.527,21.818 3.581,19.763C5.635,17.709 8.15,16.682 11.125,16.682C14.1,16.682 16.615,17.709 18.669,19.763C20.723,21.818 21.75,24.332 21.75,27.307C21.75,30.282 20.723,32.797 18.669,34.851C16.615,36.905 14.1,37.932 11.125,37.932ZM30.25,20.932C27.275,20.932 24.76,19.905 22.706,17.851C20.652,15.797 19.625,13.282 19.625,10.307C19.625,7.332 20.652,4.818 22.706,2.763C24.76,0.709 27.275,-0.318 30.25,-0.318C33.225,-0.318 35.74,0.709 37.794,2.763C39.848,4.818 40.875,7.332 40.875,10.307C40.875,13.282 39.848,15.797 37.794,17.851C35.74,19.905 33.225,20.932 30.25,20.932ZM55.75,20.932C52.775,20.932 50.26,19.905 48.206,17.851C46.152,15.797 45.125,13.282 45.125,10.307C45.125,7.332 46.152,4.818 48.206,2.763C50.26,0.709 52.775,-0.318 55.75,-0.318C58.725,-0.318 61.24,0.709 63.294,2.763C65.348,4.818 66.375,7.332 66.375,10.307C66.375,13.282 65.348,15.797 63.294,17.851C61.24,19.905 58.725,20.932 55.75,20.932ZM74.875,37.932C71.9,37.932 69.385,36.905 67.331,34.851C65.277,32.797 64.25,30.282 64.25,27.307C64.25,24.332 65.277,21.818 67.331,19.763C69.385,17.709 71.9,16.682 74.875,16.682C77.85,16.682 80.365,17.709 82.419,19.763C84.473,21.818 85.5,24.332 85.5,27.307C85.5,30.282 84.473,32.797 82.419,34.851C80.365,36.905 77.85,37.932 74.875,37.932ZM20.262,80.432C17.075,80.432 14.4,79.211 12.239,76.769C10.077,74.326 8.997,71.439 9,68.107C9,64.424 10.258,61.201 12.774,58.438C15.29,55.676 17.786,52.949 20.262,50.257C22.317,48.061 24.087,45.671 25.575,43.087C27.062,40.503 28.833,38.077 30.887,35.807C32.446,33.966 34.252,32.443 36.306,31.238C38.36,30.034 40.592,29.432 43,29.432C45.408,29.432 47.64,29.999 49.694,31.132C51.748,32.266 53.554,33.753 55.113,35.595C57.096,37.861 58.85,40.305 60.374,42.926C61.898,45.547 63.686,47.991 65.738,50.257C68.217,52.949 70.713,55.676 73.226,58.438C75.739,61.201 76.997,64.424 77,68.107C77,71.436 75.919,74.324 73.757,76.769C71.595,79.214 68.922,80.435 65.738,80.432C61.913,80.432 58.123,80.113 54.369,79.476C50.615,78.838 46.825,78.52 43,78.52C39.175,78.52 35.385,78.838 31.631,79.476C27.877,80.113 24.087,80.432 20.262,80.432Z" fill="#F8F8F8"/>
</svg>
