<svg width="18" height="18" viewBox="0 0 18 18" fill="none" xmlns="http://www.w3.org/2000/svg" xmlns:xlink="http://www.w3.org/1999/xlink">
<path d="M12.667,7.667C12.667,10.244 10.577,12.333 8,12.333L8,16.333C12.786,16.333 16.667,12.453 16.667,7.667L12.667,7.667ZM8,12.333C5.423,12.333 3.333,10.244 3.333,7.667L-0.667,7.667C-0.667,12.453 3.213,16.333 8,16.333L8,12.333ZM3.333,7.667C3.333,5.089 5.423,3 8,3L8,-1C3.213,-1 -0.667,2.88 -0.667,7.667L3.333,7.667ZM8,3C10.577,3 12.667,5.089 12.667,7.667L16.667,7.667C16.667,2.88 12.786,-1 8,-1L8,3Z" fill="#000000"/>
</svg>
