<svg width="60" height="60" viewBox="0 0 60 60" fill="none" xmlns="http://www.w3.org/2000/svg" xmlns:xlink="http://www.w3.org/1999/xlink">
<path d="M29.865,7.499C34.197,7.499 38.437,8.74 42.08,11.072C45.724,13.404 48.618,16.729 50.417,20.652C52.216,24.576 52.844,28.931 52.227,33.199C51.61,37.468 49.773,41.47 46.936,44.729C44.099,47.987 40.381,50.366 36.225,51.58C32.068,52.795 27.649,52.794 23.493,51.579C19.336,50.363 15.619,47.984 12.782,44.725C9.946,41.465 8.111,37.463 7.495,33.194C7.353,32.21 6.825,31.321 6.026,30.725C5.227,30.128 4.223,29.872 3.234,30.012C2.245,30.153 1.353,30.679 0.753,31.474C0.154,32.269 -0.103,33.269 0.038,34.254C0.99,40.872 4.136,46.984 8.975,51.62C13.815,56.255 20.071,59.148 26.751,59.839C33.431,60.53 40.151,58.981 45.845,55.435C51.539,51.89 55.88,46.553 58.179,40.271C60.478,33.989 60.604,27.123 58.536,20.762C56.467,14.401 52.324,8.91 46.764,5.161C41.203,1.412 34.544,-0.38 27.844,0.068C21.143,0.517 14.785,3.182 9.779,7.639L9.779,3.749C9.779,2.755 9.383,1.801 8.676,1.098C7.97,0.395 7.012,0 6.013,0C5.014,0 4.057,0.395 3.35,1.098C2.644,1.801 2.247,2.755 2.247,3.749L2.247,18.747C2.247,20.816 3.934,22.496 6.013,22.496L18.567,22.496C19.566,22.496 20.523,22.101 21.23,21.398C21.936,20.695 22.333,19.741 22.333,18.747C22.333,17.752 21.936,16.799 21.23,16.095C20.523,15.392 19.566,14.997 18.567,14.997L13.023,14.997C15.143,12.638 17.738,10.751 20.64,9.459C23.542,8.167 26.686,7.499 29.865,7.499ZM32.376,18.747C32.376,17.752 31.979,16.799 31.272,16.095C30.566,15.392 29.608,14.997 28.609,14.997C27.611,14.997 26.653,15.392 25.946,16.095C25.24,16.799 24.843,17.752 24.843,18.747L24.843,31.244C24.843,33.314 26.531,34.994 28.609,34.994L38.652,34.994C39.651,34.994 40.609,34.599 41.315,33.896C42.021,33.192 42.418,32.239 42.418,31.244C42.418,30.25 42.021,29.296 41.315,28.593C40.609,27.89 39.651,27.495 38.652,27.495L32.376,27.495L32.376,18.747Z" fill="#17C2EC" fill-opacity="0.5"/>
</svg>
