<svg width="10" height="10" viewBox="0 0 10 10" fill="none" xmlns="http://www.w3.org/2000/svg" xmlns:xlink="http://www.w3.org/1999/xlink">
<path d="M4.741,4.291C4.741,4.292 4.741,4.291 4.741,4.289C4.741,4.287 4.742,4.285 4.743,4.283C4.744,4.281 4.744,4.282 4.74,4.286C4.737,4.289 4.732,4.292 4.727,4.294C4.725,4.295 4.722,4.296 4.719,4.297C4.716,4.297 4.711,4.298 4.704,4.298L4.704,8.298C6.905,8.298 8.741,6.531 8.741,4.291L4.741,4.291ZM4.704,4.298C4.696,4.298 4.691,4.297 4.688,4.297C4.685,4.296 4.682,4.295 4.68,4.294C4.675,4.292 4.671,4.289 4.667,4.286C4.663,4.282 4.663,4.281 4.664,4.283C4.665,4.285 4.666,4.287 4.666,4.289C4.667,4.291 4.667,4.292 4.667,4.291L0.667,4.291C0.667,6.531 2.502,8.298 4.704,8.298L4.704,4.298ZM4.667,4.291C4.667,4.29 4.667,4.29 4.666,4.293C4.666,4.295 4.665,4.297 4.664,4.298C4.663,4.301 4.663,4.299 4.667,4.296C4.671,4.292 4.675,4.289 4.68,4.287C4.682,4.286 4.685,4.285 4.688,4.285C4.691,4.284 4.696,4.283 4.704,4.283L4.704,0.283C2.502,0.283 0.667,2.05 0.667,4.291L4.667,4.291ZM4.704,4.283C4.711,4.283 4.716,4.284 4.719,4.285C4.722,4.285 4.725,4.286 4.727,4.287C4.732,4.289 4.737,4.292 4.74,4.296C4.744,4.299 4.744,4.301 4.743,4.298C4.742,4.297 4.741,4.295 4.741,4.293C4.741,4.29 4.741,4.29 4.741,4.291L8.741,4.291C8.741,2.05 6.905,0.283 4.704,0.283L4.704,4.283Z" fill="#000000"/>
</svg>
