<svg width="56" height="20" viewBox="0 0 56 20" fill="none" xmlns="http://www.w3.org/2000/svg" xmlns:xlink="http://www.w3.org/1999/xlink">
<path d="M5.253,2.871C7.974,0.68 11.587,-0.5 15.287,-0.5L40.119,-0.5C43.819,-0.5 47.432,0.68 50.153,2.871C52.885,5.072 54.535,8.16 54.535,11.5L54.535,16.5C54.535,17.605 53.639,18.5 52.535,18.5C51.43,18.5 50.535,17.605 50.535,16.5L50.535,11.5C50.535,9.535 49.569,7.537 47.644,5.987C45.707,4.427 43.005,3.5 40.119,3.5L15.287,3.5C12.401,3.5 9.699,4.427 7.762,5.987C5.837,7.537 4.871,9.535 4.871,11.5L4.871,16.5C4.871,17.605 3.976,18.5 2.871,18.5C1.767,18.5 0.871,17.605 0.871,16.5L0.871,11.5C0.871,8.16 2.521,5.072 5.253,2.871Z" clip-rule="evenodd" fill-rule="evenodd" fill="#17C2EC" fill-opacity="0.5"/>
</svg>
