<svg width="40" height="42" viewBox="0 0 40 42" fill="none" xmlns="http://www.w3.org/2000/svg" xmlns:xlink="http://www.w3.org/1999/xlink">
<path d="M37.5,3.968L27.491,3.968L27.491,1.476C27.491,0.786 26.932,0.226 26.241,0.226C25.551,0.226 24.991,0.786 24.991,1.476L24.991,3.968L14.991,3.968L14.991,1.476C14.991,0.786 14.432,0.226 13.741,0.226C13.051,0.226 12.491,0.786 12.491,1.476L12.491,3.968L2.5,3.968C1.119,3.968 0,5.087 0,6.468L0,37.725C0,39.106 1.119,40.226 2.5,40.226L37.5,40.226C38.881,40.226 40,39.106 40,37.725L40,6.468C40,5.088 38.881,3.968 37.5,3.968ZM37.5,37.725L2.5,37.725L2.5,6.468L12.491,6.468L12.491,7.728C12.491,8.419 13.051,8.978 13.741,8.978C14.432,8.978 14.991,8.419 14.991,7.728L14.991,6.469L24.991,6.469L24.991,7.728C24.991,8.419 25.551,8.979 26.241,8.979C26.932,8.979 27.491,8.419 27.491,7.728L27.491,6.469L37.5,6.469L37.5,37.725ZM28.75,20.222L31.25,20.222C31.94,20.222 32.5,19.662 32.5,18.972L32.5,16.471C32.5,15.781 31.94,15.221 31.25,15.221L28.75,15.221C28.06,15.221 27.5,15.781 27.5,16.471L27.5,18.972C27.5,19.662 28.06,20.222 28.75,20.222ZM28.75,30.224L31.25,30.224C31.94,30.224 32.5,29.664 32.5,28.973L32.5,26.473C32.5,25.783 31.94,25.222 31.25,25.222L28.75,25.222C28.06,25.222 27.5,25.783 27.5,26.473L27.5,28.973C27.5,29.665 28.06,30.224 28.75,30.224ZM21.25,25.222L18.75,25.222C18.06,25.222 17.5,25.783 17.5,26.473L17.5,28.973C17.5,29.664 18.06,30.224 18.75,30.224L21.25,30.224C21.94,30.224 22.5,29.664 22.5,28.973L22.5,26.473C22.5,25.783 21.94,25.222 21.25,25.222ZM21.25,15.221L18.75,15.221C18.06,15.221 17.5,15.781 17.5,16.471L17.5,18.972C17.5,19.662 18.06,20.222 18.75,20.222L21.25,20.222C21.94,20.222 22.5,19.662 22.5,18.972L22.5,16.471C22.5,15.78 21.94,15.221 21.25,15.221ZM11.25,15.221L8.75,15.221C8.06,15.221 7.5,15.781 7.5,16.471L7.5,18.972C7.5,19.662 8.06,20.222 8.75,20.222L11.25,20.222C11.94,20.222 12.5,19.662 12.5,18.972L12.5,16.471C12.5,15.78 11.94,15.221 11.25,15.221ZM11.25,25.222L8.75,25.222C8.06,25.222 7.5,25.783 7.5,26.473L7.5,28.973C7.5,29.664 8.06,30.224 8.75,30.224L11.25,30.224C11.94,30.224 12.5,29.664 12.5,28.973L12.5,26.473C12.5,25.783 11.94,25.222 11.25,25.222Z" fill="#000000"/>
</svg>
