<svg width="20" height="34" viewBox="0 0 20 34" fill="none" xmlns="http://www.w3.org/2000/svg" xmlns:xlink="http://www.w3.org/1999/xlink">
<path d="M16.226,32.555C17.008,33.336 18.274,33.336 19.055,32.555C19.836,31.774 19.836,30.507 19.055,29.726L16.226,32.555ZM2.641,16.141L1.227,14.726C0.445,15.508 0.445,16.774 1.227,17.555L2.641,16.141ZM19.055,2.555C19.836,1.774 19.836,0.508 19.055,-0.274C18.274,-1.055 17.008,-1.055 16.226,-0.274L19.055,2.555ZM19.055,29.726L4.055,14.726L1.227,17.555L16.226,32.555L19.055,29.726ZM4.055,17.555L19.055,2.555L16.226,-0.274L1.227,14.726L4.055,17.555Z" transform="rotate(-359.461 10.141 16.141)" fill="#000000"/>
</svg>
