<svg width="66" height="50" viewBox="0 0 66 50" fill="none" xmlns="http://www.w3.org/2000/svg" xmlns:xlink="http://www.w3.org/1999/xlink">
<path d="M63.574,26C64.679,26 65.574,25.105 65.574,24C65.574,22.895 64.679,22 63.574,22L63.574,26ZM51.159,24L51.159,22C50.349,22 49.62,22.488 49.311,23.235L51.159,24ZM41.847,46.5L39.999,47.265C40.308,48.012 41.038,48.5 41.847,48.5C42.656,48.5 43.385,48.012 43.695,47.265L41.847,46.5ZM23.223,1.5L25.071,0.735C24.761,-0.012 24.032,-0.5 23.223,-0.5C22.414,-0.5 21.684,-0.012 21.375,0.735L23.223,1.5ZM13.911,24L13.911,26C14.72,26 15.45,25.512 15.759,24.765L13.911,24ZM1.495,22C0.391,22 -0.505,22.895 -0.505,24C-0.505,25.105 0.391,26 1.495,26L1.495,22ZM63.574,22L51.159,22L51.159,26L63.574,26L63.574,22ZM49.311,23.235L39.999,45.735L43.695,47.265L53.007,24.765L49.311,23.235ZM43.695,45.735L25.071,0.735L21.375,2.265L39.999,47.265L43.695,45.735ZM21.375,0.735L12.063,23.235L15.759,24.765L25.071,2.265L21.375,0.735ZM13.911,22L1.495,22L1.495,26L13.911,26L13.911,22Z" fill="#17C2EC" fill-opacity="0.5"/>
</svg>
