<svg width="10" height="38" viewBox="0 0 10 38" fill="none" xmlns="http://www.w3.org/2000/svg" xmlns:xlink="http://www.w3.org/1999/xlink">
<path d="M0.534,38L0.534,12.176L8.022,12.176L8.022,38L0.534,38ZM4.278,8.576C2.902,8.576 1.782,8.176 0.918,7.376C0.054,6.576 -0.378,5.584 -0.378,4.4C-0.378,3.216 0.054,2.224 0.918,1.424C1.782,0.624 2.902,0.224 4.278,0.224C5.654,0.224 6.774,0.608 7.638,1.376C8.502,2.112 8.934,3.072 8.934,4.256C8.934,5.504 8.502,6.544 7.638,7.376C6.806,8.176 5.686,8.576 4.278,8.576Z" fill="#000000"/>
</svg>
