<svg width="36" height="24" viewBox="0 0 36 24" fill="none" xmlns="http://www.w3.org/2000/svg" xmlns:xlink="http://www.w3.org/1999/xlink">
<path d="M6.333,4.477L29.667,4.477L29.667,0.477L6.333,0.477L6.333,4.477ZM29.667,4.477C30.449,4.477 31,5.083 31,5.731L35,5.731C35,2.784 32.567,0.477 29.667,0.477L29.667,4.477ZM31,5.731L31,17.12L35,17.12L35,5.731L31,5.731ZM31,17.12C31,17.768 30.449,18.374 29.667,18.374L29.667,22.374C32.567,22.374 35,20.067 35,17.12L31,17.12ZM29.667,18.374L6.333,18.374L6.333,22.374L29.667,22.374L29.667,18.374ZM6.333,18.374C5.551,18.374 5,17.768 5,17.12L1,17.12C1,20.067 3.433,22.374 6.333,22.374L6.333,18.374ZM5,17.12L5,5.731L1,5.731L1,17.12L5,17.12ZM5,5.731C5,5.083 5.551,4.477 6.333,4.477L6.333,0.477C3.433,0.477 1,2.784 1,5.731L5,5.731Z" fill="#000000" fill-opacity="0.25"/>
</svg>
