<svg width="44" height="20" viewBox="0 0 44 20" fill="none" xmlns="http://www.w3.org/2000/svg" xmlns:xlink="http://www.w3.org/1999/xlink">
<path d="M40,16.504C40,17.608 40.895,18.504 42,18.504C43.105,18.504 44,17.608 44,16.504L40,16.504ZM32,1.504L32,-0.496L32,1.504ZM12,1.504L12,-0.496L12,1.504ZM2,11.504L0,11.504L2,11.504ZM0,16.504C0,17.608 0.895,18.504 2,18.504C3.105,18.504 4,17.608 4,16.504L0,16.504ZM44,16.504L44,11.504L40,11.504L40,16.504L44,16.504ZM44,11.504C44,8.321 42.736,5.269 40.485,3.019L37.657,5.847C39.157,7.347 40,9.382 40,11.504L44,11.504ZM40.485,3.019C38.235,0.768 35.183,-0.496 32,-0.496L32,3.504C34.122,3.504 36.157,4.347 37.657,5.847L40.485,3.019ZM32,-0.496L12,-0.496L12,3.504L32,3.504L32,-0.496ZM12,-0.496C8.817,-0.496 5.765,0.768 3.515,3.019L6.343,5.847C7.843,4.347 9.878,3.504 12,3.504L12,-0.496ZM3.515,3.019C1.264,5.269 0,8.321 0,11.504L4,11.504C4,9.382 4.843,7.347 6.343,5.847L3.515,3.019ZM0,11.504L0,16.504L4,16.504L4,11.504L0,11.504Z" fill="#17C2EC" fill-opacity="0.5"/>
</svg>
