<svg width="28" height="28" viewBox="0 0 28 28" fill="none" xmlns="http://www.w3.org/2000/svg" xmlns:xlink="http://www.w3.org/1999/xlink">
<path d="M14.92,26.384C12.136,26.384 9.656,25.824 7.48,24.704C5.304,23.552 3.592,21.968 2.344,19.952C1.128,17.936 0.52,15.648 0.52,13.088C0.52,10.496 1.128,8.208 2.344,6.224C3.592,4.208 5.304,2.64 7.48,1.52C9.656,0.368 12.136,-0.208 14.92,-0.208C17.64,-0.208 20.008,0.368 22.024,1.52C24.04,2.64 25.528,4.256 26.488,6.368L20.68,9.488C20.008,8.272 19.16,7.376 18.136,6.8C17.144,6.224 16.056,5.936 14.872,5.936C13.592,5.936 12.44,6.224 11.416,6.8C10.392,7.376 9.576,8.192 8.968,9.248C8.392,10.304 8.104,11.584 8.104,13.088C8.104,14.592 8.392,15.872 8.968,16.928C9.576,17.984 10.392,18.8 11.416,19.376C12.44,19.952 13.592,20.24 14.872,20.24C16.056,20.24 17.144,19.968 18.136,19.424C19.16,18.848 20.008,17.936 20.68,16.688L26.488,19.856C25.528,21.936 24.04,23.552 22.024,24.704C20.008,25.824 17.64,26.384 14.92,26.384Z" fill="#000000"/>
</svg>
