<svg width="14" height="24" viewBox="0 0 14 24" fill="none" xmlns="http://www.w3.org/2000/svg" xmlns:xlink="http://www.w3.org/1999/xlink">
<path d="M8.157,22.256C6.13,22.256 4.551,21.744 3.421,20.72C2.29,19.675 1.725,18.128 1.725,16.08L1.725,0.976L6.717,0.976L6.717,16.016C6.717,16.741 6.909,17.307 7.293,17.712C7.677,18.096 8.199,18.288 8.861,18.288C9.65,18.288 10.322,18.075 10.877,17.648L12.221,21.168C11.709,21.531 11.09,21.808 10.365,22C9.661,22.171 8.925,22.256 8.157,22.256ZM-0.931,9.008L-0.931,5.168L11.005,5.168L11.005,9.008L-0.931,9.008Z" fill="#000000"/>
</svg>
