<svg width="42" height="40" viewBox="0 0 42 40" fill="none" xmlns="http://www.w3.org/2000/svg" xmlns:xlink="http://www.w3.org/1999/xlink">
<path d="M5.5,18.229C4.1,18.229 2.917,17.72 1.95,16.702C0.983,15.685 0.5,14.439 0.5,12.965C0.5,11.492 0.983,10.246 1.95,9.229C2.917,8.211 4.1,7.702 5.5,7.702C6.9,7.702 8.083,8.211 9.05,9.229C10.017,10.246 10.5,11.492 10.5,12.965C10.5,14.439 10.017,15.685 9.05,16.702C8.083,17.72 6.9,18.229 5.5,18.229ZM14.5,9.808C13.1,9.808 11.917,9.299 10.95,8.281C9.983,7.264 9.5,6.018 9.5,4.544C9.5,3.071 9.983,1.825 10.95,0.808C11.917,-0.21 13.1,-0.719 14.5,-0.719C15.9,-0.719 17.083,-0.21 18.05,0.808C19.017,1.825 19.5,3.071 19.5,4.544C19.5,6.018 19.017,7.264 18.05,8.281C17.083,9.299 15.9,9.808 14.5,9.808ZM26.5,9.808C25.1,9.808 23.917,9.299 22.95,8.281C21.983,7.264 21.5,6.018 21.5,4.544C21.5,3.071 21.983,1.825 22.95,0.808C23.917,-0.21 25.1,-0.719 26.5,-0.719C27.9,-0.719 29.083,-0.21 30.05,0.808C31.017,1.825 31.5,3.071 31.5,4.544C31.5,6.018 31.017,7.264 30.05,8.281C29.083,9.299 27.9,9.808 26.5,9.808ZM35.5,18.229C34.1,18.229 32.917,17.72 31.95,16.702C30.983,15.685 30.5,14.439 30.5,12.965C30.5,11.492 30.983,10.246 31.95,9.229C32.917,8.211 34.1,7.702 35.5,7.702C36.9,7.702 38.083,8.211 39.05,9.229C40.017,10.246 40.5,11.492 40.5,12.965C40.5,14.439 40.017,15.685 39.05,16.702C38.083,17.72 36.9,18.229 35.5,18.229ZM9.8,39.281C8.3,39.281 7.041,38.676 6.024,37.466C5.007,36.257 4.499,34.826 4.5,33.176C4.5,31.351 5.092,29.755 6.276,28.386C7.46,27.018 8.635,25.667 9.8,24.334C10.767,23.246 11.6,22.062 12.3,20.782C13,19.502 13.833,18.3 14.8,17.176C15.533,16.264 16.383,15.509 17.35,14.913C18.317,14.316 19.367,14.018 20.5,14.018C21.633,14.018 22.683,14.299 23.65,14.86C24.617,15.422 25.467,16.158 26.2,17.071C27.133,18.194 27.959,19.404 28.676,20.702C29.393,22 30.235,23.211 31.2,24.334C32.367,25.667 33.541,27.018 34.724,28.386C35.907,29.755 36.499,31.351 36.5,33.176C36.5,34.825 35.991,36.255 34.974,37.466C33.957,38.678 32.699,39.283 31.2,39.281C29.4,39.281 27.617,39.123 25.85,38.808C24.083,38.492 22.3,38.334 20.5,38.334C18.7,38.334 16.917,38.492 15.15,38.808C13.383,39.123 11.6,39.281 9.8,39.281Z" fill="#000000" fill-opacity="0.25"/>
</svg>
