<svg width="30" height="28" viewBox="0 0 30 28" fill="none" xmlns="http://www.w3.org/2000/svg" xmlns:xlink="http://www.w3.org/1999/xlink">
<path d="M14.01,26.384C11.258,26.384 8.81,25.808 6.666,24.656C4.554,23.504 2.874,21.936 1.626,19.952C0.41,17.936 -0.198,15.648 -0.198,13.088C-0.198,10.496 0.41,8.208 1.626,6.224C2.874,4.208 4.554,2.64 6.666,1.52C8.81,0.368 11.258,-0.208 14.01,-0.208C16.73,-0.208 19.162,0.368 21.306,1.52C23.45,2.64 25.13,4.192 26.346,6.176C27.562,8.16 28.17,10.464 28.17,13.088C28.17,15.648 27.562,17.936 26.346,19.952C25.13,21.936 23.45,23.504 21.306,24.656C19.162,25.808 16.73,26.384 14.01,26.384ZM14.01,20.24C15.258,20.24 16.378,19.952 17.37,19.376C18.362,18.8 19.146,17.984 19.722,16.928C20.298,15.84 20.586,14.56 20.586,13.088C20.586,11.584 20.298,10.304 19.722,9.248C19.146,8.192 18.362,7.376 17.37,6.8C16.378,6.224 15.258,5.936 14.01,5.936C12.762,5.936 11.642,6.224 10.65,6.8C9.658,7.376 8.858,8.192 8.25,9.248C7.674,10.304 7.386,11.584 7.386,13.088C7.386,14.56 7.674,15.84 8.25,16.928C8.858,17.984 9.658,18.8 10.65,19.376C11.642,19.952 12.762,20.24 14.01,20.24Z" fill="#000000"/>
</svg>
