<svg width="14" height="24" viewBox="0 0 14 24" fill="none" xmlns="http://www.w3.org/2000/svg" xmlns:xlink="http://www.w3.org/1999/xlink">
<path d="M8.656,22.256C6.63,22.256 5.051,21.744 3.92,20.72C2.79,19.675 2.224,18.128 2.224,16.08L2.224,0.976L7.217,0.976L7.217,16.016C7.217,16.741 7.408,17.307 7.792,17.712C8.176,18.096 8.699,18.288 9.36,18.288C10.15,18.288 10.822,18.075 11.376,17.648L12.72,21.168C12.208,21.531 11.59,21.808 10.864,22C10.16,22.171 9.424,22.256 8.656,22.256ZM-0.432,9.008L-0.432,5.168L11.504,5.168L11.504,9.008L-0.432,9.008Z" fill="#000000"/>
</svg>
