<svg width="12" height="6" viewBox="0 0 12 6" fill="none" xmlns="http://www.w3.org/2000/svg" xmlns:xlink="http://www.w3.org/1999/xlink">
<path d="M11.19,3.004C11.744,2.048 11.419,0.824 10.464,0.27C9.508,-0.284 8.284,0.041 7.73,0.996L11.19,3.004ZM4.27,0.996C3.716,0.041 2.492,-0.284 1.536,0.27C0.581,0.824 0.256,2.048 0.81,3.004L4.27,0.996ZM7.73,0.996C7.554,1.3 7.302,1.551 6.998,1.726L8.995,5.192C9.906,4.668 10.663,3.913 11.19,3.004L7.73,0.996ZM6.998,1.726C6.695,1.901 6.35,1.993 6,1.993L6,5.993C7.051,5.993 8.084,5.717 8.995,5.192L6.998,1.726ZM6,1.993C5.65,1.993 5.305,1.901 5.002,1.726L3.005,5.192C3.916,5.717 4.949,5.993 6,5.993L6,1.993ZM5.002,1.726C4.698,1.551 4.446,1.3 4.27,0.996L0.81,3.004C1.337,3.913 2.094,4.668 3.005,5.192L5.002,1.726Z" fill="#000000"/>
</svg>
