<svg width="18" height="18" viewBox="0 0 18 18" fill="none" xmlns="http://www.w3.org/2000/svg" xmlns:xlink="http://www.w3.org/1999/xlink">
<path d="M12.667,9.39C12.667,11.834 10.623,13.898 8,13.898L8,17.898C12.741,17.898 16.667,14.134 16.667,9.39L12.667,9.39ZM8,13.898C5.377,13.898 3.333,11.834 3.333,9.39L-0.667,9.39C-0.667,14.134 3.259,17.898 8,17.898L8,13.898ZM3.333,9.39C3.333,6.945 5.377,4.881 8,4.881L8,0.881C3.259,0.881 -0.667,4.646 -0.667,9.39L3.333,9.39ZM8,4.881C10.623,4.881 12.667,6.945 12.667,9.39L16.667,9.39C16.667,4.646 12.741,0.881 8,0.881L8,4.881Z" fill="#000000"/>
</svg>
