<svg width="36" height="22" viewBox="0 0 36 22" fill="none" xmlns="http://www.w3.org/2000/svg" xmlns:xlink="http://www.w3.org/1999/xlink">
<path d="M6.333,3.898L29.667,3.898L29.667,-0.102L6.333,-0.102L6.333,3.898ZM29.667,3.898C30.449,3.898 31,4.504 31,5.152L35,5.152C35,2.205 32.567,-0.102 29.667,-0.102L29.667,3.898ZM31,5.152L31,16.541L35,16.541L35,5.152L31,5.152ZM31,16.541C31,17.189 30.449,17.796 29.667,17.796L29.667,21.796C32.567,21.796 35,19.488 35,16.541L31,16.541ZM29.667,17.796L6.333,17.796L6.333,21.796L29.667,21.796L29.667,17.796ZM6.333,17.796C5.551,17.796 5,17.189 5,16.541L1,16.541C1,19.488 3.433,21.796 6.333,21.796L6.333,17.796ZM5,16.541L5,5.152L1,5.152L1,16.541L5,16.541ZM5,5.152C5,4.504 5.551,3.898 6.333,3.898L6.333,-0.102C3.433,-0.102 1,2.205 1,5.152L5,5.152Z" fill="#000000" fill-opacity="0.25"/>
</svg>
