<svg width="64" height="48" viewBox="0 0 64 48" fill="none" xmlns="http://www.w3.org/2000/svg" xmlns:xlink="http://www.w3.org/1999/xlink">
<path d="M61.444,24.99C62.549,24.99 63.444,24.094 63.444,22.99C63.444,21.885 62.549,20.99 61.444,20.99L61.444,24.99ZM49.424,22.99L49.424,20.99C48.616,20.99 47.887,21.477 47.577,22.223L49.424,22.99ZM40.409,44.718L38.562,45.484C38.871,46.231 39.6,46.718 40.409,46.718C41.217,46.718 41.946,46.231 42.256,45.484L40.409,44.718ZM22.379,1.262L24.226,0.495C23.916,-0.251 23.187,-0.738 22.379,-0.738C21.57,-0.738 20.841,-0.251 20.531,0.495L22.379,1.262ZM13.364,22.99L13.364,24.99C14.172,24.99 14.901,24.503 15.211,23.756L13.364,22.99ZM1.343,20.99C0.239,20.99 -0.657,21.885 -0.657,22.99C-0.657,24.094 0.239,24.99 1.343,24.99L1.343,20.99ZM61.444,20.99L49.424,20.99L49.424,24.99L61.444,24.99L61.444,20.99ZM47.577,22.223L38.562,43.951L42.256,45.484L51.271,23.756L47.577,22.223ZM42.256,43.951L24.226,0.495L20.531,2.028L38.562,45.484L42.256,43.951ZM20.531,0.495L11.516,22.223L15.211,23.756L24.226,2.028L20.531,0.495ZM13.364,20.99L1.343,20.99L1.343,24.99L13.364,24.99L13.364,20.99Z" transform="rotate(0.354 31.394 22.99)" fill="#17C2EC" fill-opacity="0.5"/>
</svg>
