<svg width="22" height="26" viewBox="0 0 22 26" fill="none" xmlns="http://www.w3.org/2000/svg" xmlns:xlink="http://www.w3.org/1999/xlink">
<path d="M3.256,26L3.256,8.4C3.256,6.459 3.832,4.912 4.984,3.76C6.136,2.587 7.778,2 9.912,2C10.637,2 11.33,2.075 11.992,2.224C12.674,2.373 13.25,2.608 13.72,2.928L12.408,6.544C12.13,6.352 11.821,6.203 11.48,6.096C11.138,5.989 10.776,5.936 10.392,5.936C9.666,5.936 9.101,6.149 8.696,6.576C8.312,6.981 8.12,7.6 8.12,8.432L8.12,10.032L8.248,12.176L8.248,26L3.256,26ZM0.6,13.008L0.6,9.168L12.536,9.168L12.536,13.008L0.6,13.008ZM15.352,26L15.352,8.784L20.344,8.784L20.344,26L15.352,26ZM17.848,6.384C16.93,6.384 16.184,6.117 15.608,5.584C15.032,5.051 14.744,4.389 14.744,3.6C14.744,2.811 15.032,2.149 15.608,1.616C16.184,1.083 16.93,0.816 17.848,0.816C18.765,0.816 19.512,1.072 20.088,1.584C20.664,2.075 20.952,2.715 20.952,3.504C20.952,4.336 20.664,5.029 20.088,5.584C19.533,6.117 18.786,6.384 17.848,6.384Z" fill="#000000"/>
</svg>
