<svg width="8" height="26" viewBox="0 0 8 26" fill="none" xmlns="http://www.w3.org/2000/svg" xmlns:xlink="http://www.w3.org/1999/xlink">
<path d="M1.023,26L1.023,8.784L6.015,8.784L6.015,26L1.023,26ZM3.519,6.384C2.601,6.384 1.855,6.117 1.279,5.584C0.703,5.051 0.415,4.389 0.415,3.6C0.415,2.811 0.703,2.149 1.279,1.616C1.855,1.083 2.601,0.816 3.519,0.816C4.436,0.816 5.183,1.072 5.759,1.584C6.335,2.075 6.623,2.715 6.623,3.504C6.623,4.336 6.335,5.029 5.759,5.584C5.204,6.117 4.457,6.384 3.519,6.384Z" fill="#000000"/>
</svg>
