<svg width="18" height="18" viewBox="0 0 18 18" fill="none" xmlns="http://www.w3.org/2000/svg" xmlns:xlink="http://www.w3.org/1999/xlink">
<path d="M10.581,0.528C11.946,0.528 13.162,0.805 14.229,1.36C15.317,1.893 16.17,2.725 16.789,3.856C17.407,4.965 17.717,6.395 17.717,8.144L17.717,18L12.725,18L12.725,8.912C12.725,7.525 12.415,6.501 11.797,5.84C11.199,5.179 10.346,4.848 9.237,4.848C8.447,4.848 7.733,5.019 7.093,5.36C6.474,5.68 5.983,6.181 5.621,6.864C5.279,7.547 5.109,8.421 5.109,9.488L5.109,18L0.117,18L0.117,0.784L4.885,0.784L4.885,5.552L3.989,4.112C4.607,2.96 5.493,2.075 6.645,1.456C7.797,0.837 9.109,0.528 10.581,0.528Z" fill="#000000"/>
</svg>
