<svg width="54" height="50" viewBox="0 0 54 50" fill="none" xmlns="http://www.w3.org/2000/svg" xmlns:xlink="http://www.w3.org/1999/xlink">
<path d="M51,26C52.105,26 53,25.105 53,24C53,22.895 52.105,22 51,22L51,26ZM41,24L41,22C40.139,22 39.375,22.551 39.103,23.368L41,24ZM33.5,46.5L31.603,47.132C31.875,47.949 32.639,48.5 33.5,48.5C34.361,48.5 35.125,47.949 35.397,47.132L33.5,46.5ZM18.5,1.5L20.397,0.868C20.125,0.051 19.361,-0.5 18.5,-0.5C17.639,-0.5 16.875,0.051 16.603,0.868L18.5,1.5ZM11,24L11,26C11.861,26 12.625,25.449 12.897,24.632L11,24ZM1,22C-0.105,22 -1,22.895 -1,24C-1,25.105 -0.105,26 1,26L1,22ZM51,22L41,22L41,26L51,26L51,22ZM39.103,23.368L31.603,45.868L35.397,47.132L42.897,24.632L39.103,23.368ZM35.397,45.868L20.397,0.868L16.603,2.132L31.603,47.132L35.397,45.868ZM16.603,0.868L9.103,23.368L12.897,24.632L20.397,2.132L16.603,0.868ZM11,22L1,22L1,26L11,26L11,22Z" fill="#17C2EC" fill-opacity="0.5"/>
</svg>
