<svg width="8" height="26" viewBox="0 0 8 26" fill="none" xmlns="http://www.w3.org/2000/svg" xmlns:xlink="http://www.w3.org/1999/xlink">
<path d="M1.523,26L1.523,8.784L6.515,8.784L6.515,26L1.523,26ZM4.019,6.384C3.101,6.384 2.355,6.117 1.779,5.584C1.203,5.051 0.915,4.389 0.915,3.6C0.915,2.811 1.203,2.149 1.779,1.616C2.355,1.083 3.101,0.816 4.019,0.816C4.936,0.816 5.683,1.072 6.259,1.584C6.835,2.075 7.123,2.715 7.123,3.504C7.123,4.336 6.835,5.029 6.259,5.584C5.704,6.117 4.957,6.384 4.019,6.384Z" fill="#000000"/>
</svg>
