<svg width="30" height="54" viewBox="0 0 30 54" fill="none" xmlns="http://www.w3.org/2000/svg" xmlns:xlink="http://www.w3.org/1999/xlink">
<path d="M25.086,52.414C25.867,53.195 27.133,53.195 27.914,52.414C28.695,51.633 28.695,50.367 27.914,49.586L25.086,52.414ZM1.5,26L0.086,24.586C-0.695,25.367 -0.695,26.633 0.086,27.414L1.5,26ZM27.914,2.414C28.695,1.633 28.695,0.367 27.914,-0.414C27.133,-1.195 25.867,-1.195 25.086,-0.414L27.914,2.414ZM27.914,49.586L2.914,24.586L0.086,27.414L25.086,52.414L27.914,49.586ZM2.914,27.414L27.914,2.414L25.086,-0.414L0.086,24.586L2.914,27.414Z" transform="rotate(360 14 26)" fill="#0B153C"/>
</svg>
