<svg width="20" height="20" viewBox="0 0 20 20" fill="none" xmlns="http://www.w3.org/2000/svg" xmlns:xlink="http://www.w3.org/1999/xlink">
<path d="M9.34,18.256C7.505,18.256 5.873,17.872 4.444,17.104C3.036,16.336 1.916,15.291 1.084,13.968C0.273,12.624 -0.132,11.099 -0.132,9.392C-0.132,7.664 0.273,6.139 1.084,4.816C1.916,3.472 3.036,2.427 4.444,1.68C5.873,0.912 7.505,0.528 9.34,0.528C11.153,0.528 12.774,0.912 14.204,1.68C15.633,2.427 16.753,3.461 17.564,4.784C18.374,6.107 18.78,7.643 18.78,9.392C18.78,11.099 18.374,12.624 17.564,13.968C16.753,15.291 15.633,16.336 14.204,17.104C12.774,17.872 11.153,18.256 9.34,18.256ZM9.34,14.16C10.172,14.16 10.918,13.968 11.58,13.584C12.241,13.2 12.764,12.656 13.148,11.952C13.532,11.227 13.724,10.373 13.724,9.392C13.724,8.389 13.532,7.536 13.148,6.832C12.764,6.128 12.241,5.584 11.58,5.2C10.918,4.816 10.172,4.624 9.34,4.624C8.508,4.624 7.761,4.816 7.1,5.2C6.438,5.584 5.905,6.128 5.5,6.832C5.116,7.536 4.924,8.389 4.924,9.392C4.924,10.373 5.116,11.227 5.5,11.952C5.905,12.656 6.438,13.2 7.1,13.584C7.761,13.968 8.508,14.16 9.34,14.16Z" fill="#000000"/>
</svg>
