<svg width="10" height="10" viewBox="0 0 10 10" fill="none" xmlns="http://www.w3.org/2000/svg" xmlns:xlink="http://www.w3.org/1999/xlink">
<path d="M4.414,4.291C4.416,4.292 4.419,4.293 4.421,4.294C4.423,4.295 4.426,4.296 4.429,4.297C4.432,4.297 4.437,4.298 4.444,4.298C4.452,4.298 4.457,4.297 4.46,4.297C4.463,4.296 4.466,4.295 4.468,4.294C4.47,4.293 4.473,4.292 4.475,4.291C4.473,4.289 4.47,4.288 4.468,4.287C4.466,4.286 4.463,4.285 4.46,4.285C4.457,4.284 4.452,4.283 4.444,4.283C4.437,4.283 4.432,4.284 4.429,4.285C4.426,4.285 4.423,4.286 4.421,4.287C4.419,4.288 4.416,4.289 4.414,4.291ZM0.407,4.291C0.407,2.05 2.243,0.283 4.444,0.283C6.646,0.283 8.482,2.05 8.482,4.291C8.482,6.531 6.646,8.298 4.444,8.298C2.243,8.298 0.407,6.531 0.407,4.291Z" clip-rule="evenodd" fill-rule="evenodd" fill="#000000"/>
</svg>
