<svg width="22" height="40" viewBox="0 0 22 40" fill="none" xmlns="http://www.w3.org/2000/svg" xmlns:xlink="http://www.w3.org/1999/xlink">
<path d="M18.336,37.914C19.117,38.695 20.383,38.695 21.164,37.914C21.945,37.133 21.945,35.867 21.164,35.086L18.336,37.914ZM2.25,19L0.836,17.586C0.055,18.367 0.055,19.633 0.836,20.414L2.25,19ZM21.164,2.914C21.945,2.133 21.945,0.867 21.164,0.086C20.383,-0.695 19.117,-0.695 18.336,0.086L21.164,2.914ZM21.164,35.086L3.664,17.586L0.836,20.414L18.336,37.914L21.164,35.086ZM3.664,20.414L21.164,2.914L18.336,0.086L0.836,17.586L3.664,20.414Z" transform="rotate(-360 11 19)" fill="#FFFFFF"/>
</svg>
