<svg width="18" height="18" viewBox="0 0 18 18" fill="none" xmlns="http://www.w3.org/2000/svg" xmlns:xlink="http://www.w3.org/1999/xlink">
<path d="M12.667,8.081C12.667,10.525 10.623,12.589 8,12.589L8,16.589C12.741,16.589 16.667,12.825 16.667,8.081L12.667,8.081ZM8,12.589C5.377,12.589 3.333,10.525 3.333,8.081L-0.667,8.081C-0.667,12.825 3.259,16.589 8,16.589L8,12.589ZM3.333,8.081C3.333,5.636 5.377,3.572 8,3.572L8,-0.428C3.259,-0.428 -0.667,3.337 -0.667,8.081L3.333,8.081ZM8,3.572C10.623,3.572 12.667,5.636 12.667,8.081L16.667,8.081C16.667,3.337 12.741,-0.428 8,-0.428L8,3.572Z" fill="#000000"/>
</svg>
