<svg width="16" height="28" viewBox="0 0 16 28" fill="none" xmlns="http://www.w3.org/2000/svg" xmlns:xlink="http://www.w3.org/1999/xlink">
<path d="M12.586,27.414C13.367,28.195 14.633,28.195 15.414,27.414C16.195,26.633 16.195,25.367 15.414,24.586L12.586,27.414ZM2,14L0.586,12.586C-0.195,13.367 -0.195,14.633 0.586,15.414L2,14ZM15.414,3.414C16.195,2.633 16.195,1.367 15.414,0.586C14.633,-0.195 13.367,-0.195 12.586,0.586L15.414,3.414ZM15.414,24.586L3.414,12.586L0.586,15.414L12.586,27.414L15.414,24.586ZM3.414,15.414L15.414,3.414L12.586,0.586L0.586,12.586L3.414,15.414Z" fill="#000000"/>
</svg>
