<svg width="24" height="28" viewBox="0 0 24 28" fill="none" xmlns="http://www.w3.org/2000/svg" xmlns:xlink="http://www.w3.org/1999/xlink">
<path d="M16.64,26L16.64,20.96L16.16,19.856L16.16,10.832C16.16,9.232 15.664,7.984 14.672,7.088C13.712,6.192 12.224,5.744 10.208,5.744C8.832,5.744 7.472,5.968 6.128,6.416C4.816,6.832 3.696,7.408 2.768,8.144L0.08,2.912C1.488,1.92 3.184,1.152 5.168,0.608C7.152,0.064 9.168,-0.208 11.216,-0.208C15.152,-0.208 18.208,0.72 20.384,2.576C22.56,4.432 23.648,7.328 23.648,11.264L23.648,26L16.64,26ZM8.768,26.384C6.752,26.384 5.024,26.048 3.584,25.376C2.144,24.672 1.04,23.728 0.272,22.544C-0.496,21.36 -0.88,20.032 -0.88,18.56C-0.88,17.024 -0.512,15.68 0.224,14.528C0.992,13.376 2.192,12.48 3.824,11.84C5.456,11.168 7.584,10.832 10.208,10.832L17.072,10.832L17.072,15.2L11.024,15.2C9.264,15.2 8.048,15.488 7.376,16.064C6.736,16.64 6.416,17.36 6.416,18.224C6.416,19.184 6.784,19.952 7.52,20.528C8.288,21.072 9.328,21.344 10.64,21.344C11.888,21.344 13.008,21.056 14,20.48C14.992,19.872 15.712,18.992 16.16,17.84L17.312,21.296C16.768,22.96 15.776,24.224 14.336,25.088C12.896,25.952 11.04,26.384 8.768,26.384Z" fill="#000000"/>
</svg>
