<svg width="24" height="18" viewBox="0 0 24 18" fill="none" xmlns="http://www.w3.org/2000/svg" xmlns:xlink="http://www.w3.org/1999/xlink">
<path d="M22.414,2.914C23.195,2.133 23.195,0.867 22.414,0.086C21.633,-0.695 20.367,-0.695 19.586,0.086L22.414,2.914ZM7.25,15.25L5.836,16.664C6.617,17.445 7.883,17.445 8.664,16.664L7.25,15.25ZM2.414,7.586C1.633,6.805 0.367,6.805 -0.414,7.586C-1.195,8.367 -1.195,9.633 -0.414,10.414L2.414,7.586ZM19.586,0.086L5.836,13.836L8.664,16.664L22.414,2.914L19.586,0.086ZM8.664,13.836L2.414,7.586L-0.414,10.414L5.836,16.664L8.664,13.836Z" fill="#FFFFFF"/>
</svg>
