<svg width="32" height="14" viewBox="0 0 32 14" fill="none" xmlns="http://www.w3.org/2000/svg" xmlns:xlink="http://www.w3.org/1999/xlink">
<path d="M27.333,11C27.333,12.105 28.229,13 29.333,13C30.438,13 31.333,12.105 31.333,11L27.333,11ZM22.667,1L22.667,-1L22.667,1ZM9.333,1L9.333,-1L9.333,1ZM2.667,7.667L0.667,7.667L2.667,7.667ZM0.667,11C0.667,12.105 1.562,13 2.667,13C3.771,13 4.667,12.105 4.667,11L0.667,11ZM31.333,11L31.333,7.667L27.333,7.667L27.333,11L31.333,11ZM31.333,7.667C31.333,5.368 30.42,3.164 28.795,1.538L25.967,4.367C26.842,5.242 27.333,6.429 27.333,7.667L31.333,7.667ZM28.795,1.538C27.17,-0.087 24.965,-1 22.667,-1L22.667,3C23.904,3 25.091,3.492 25.967,4.367L28.795,1.538ZM22.667,-1L9.333,-1L9.333,3L22.667,3L22.667,-1ZM9.333,-1C7.035,-1 4.83,-0.087 3.205,1.538L6.034,4.367C6.909,3.492 8.096,3 9.333,3L9.333,-1ZM3.205,1.538C1.58,3.164 0.667,5.368 0.667,7.667L4.667,7.667C4.667,6.429 5.158,5.242 6.034,4.367L3.205,1.538ZM0.667,7.667L0.667,11L4.667,11L4.667,7.667L0.667,7.667Z" fill="#000000"/>
</svg>
