<svg width="42" height="40" viewBox="0 0 42 40" fill="none" xmlns="http://www.w3.org/2000/svg" xmlns:xlink="http://www.w3.org/1999/xlink">
<path d="M24.59,8.333L24.952,6.366C24.08,6.206 23.207,6.639 22.806,7.429C22.405,8.22 22.573,9.18 23.218,9.788L24.59,8.333ZM31.569,14.917L30.196,16.372C30.831,16.971 31.782,17.089 32.544,16.663C33.306,16.237 33.704,15.367 33.527,14.512L31.569,14.917ZM24.59,1.667L24.799,-0.322C23.945,-0.412 23.13,0.053 22.772,0.833C22.414,1.613 22.594,2.534 23.219,3.122L24.59,1.667ZM38.636,14.9L37.265,16.356C37.877,16.933 38.785,17.065 39.536,16.686C40.287,16.307 40.721,15.499 40.622,14.664L38.636,14.9ZM36.869,28.2L34.87,28.148C34.869,28.165 34.869,28.183 34.869,28.2L36.869,28.2ZM36.869,33.2L34.869,33.2L34.869,33.209L36.869,33.2ZM33.018,36.533L32.814,38.523C32.825,38.524 32.836,38.525 32.848,38.526L33.018,36.533ZM17.77,31.417L18.814,29.711L18.799,29.701L17.77,31.417ZM7.17,21.417L8.828,20.299L8.818,20.285L7.17,21.417ZM1.746,6.967L-0.245,7.157C-0.244,7.168 -0.243,7.179 -0.242,7.19L1.746,6.967ZM5.261,3.333L5.261,1.333L5.26,1.333L5.261,3.333ZM10.562,3.333L10.562,5.334L10.58,5.333L10.562,3.333ZM14.095,6.2L16.076,5.923L16.073,5.904L14.095,6.2ZM15.332,10.883L13.472,11.619L13.474,11.624L15.332,10.883ZM14.537,14.4L15.909,15.855L15.918,15.847L14.537,14.4ZM12.293,16.517L10.921,15.062C10.236,15.708 10.095,16.743 10.58,17.549L12.293,16.517ZM22.894,26.517L21.949,28.279C22.707,28.686 23.64,28.562 24.266,27.972L22.894,26.517ZM25.138,24.4L23.773,22.938L23.765,22.945L25.138,24.4ZM28.866,23.65L28.197,25.535L28.202,25.537L28.866,23.65ZM33.83,24.817L34.094,22.834L34.077,22.832L33.83,24.817ZM24.228,10.3C25.585,10.55 26.818,11.174 27.773,12.075L30.517,9.165C28.986,7.72 27.046,6.752 24.952,6.366L24.228,10.3ZM27.773,12.075C28.726,12.975 29.359,14.108 29.61,15.322L33.527,14.512C33.105,12.47 32.05,10.611 30.517,9.165L27.773,12.075ZM32.941,13.462L25.962,6.879L23.218,9.788L30.196,16.372L32.941,13.462ZM24.382,3.656C27.544,3.987 30.475,5.322 32.7,7.417L35.443,4.506C32.562,1.792 28.806,0.098 24.799,-0.322L24.382,3.656ZM32.7,7.417C34.922,9.511 36.304,12.236 36.65,15.137L40.622,14.664C40.162,10.801 38.325,7.222 35.443,4.506L32.7,7.417ZM40.007,13.444L25.962,0.211L23.219,3.122L37.265,16.356L40.007,13.444ZM34.869,28.2L34.869,33.2L38.869,33.2L38.869,28.2L34.869,28.2ZM34.869,33.209C34.87,33.377 34.834,33.546 34.759,33.708L38.388,35.39C38.707,34.701 38.872,33.952 38.869,33.192L34.869,33.209ZM34.759,33.708C34.684,33.87 34.569,34.025 34.416,34.158L37.033,37.182C37.605,36.687 38.069,36.078 38.388,35.39L34.759,33.708ZM34.416,34.158C34.262,34.291 34.074,34.398 33.86,34.466L35.076,38.277C35.794,38.047 36.462,37.677 37.033,37.182L34.416,34.158ZM33.86,34.466C33.646,34.534 33.417,34.56 33.188,34.541L32.848,38.526C33.599,38.59 34.357,38.506 35.076,38.277L33.86,34.466ZM33.222,34.544C28.078,34.017 23.143,32.359 18.814,29.711L16.727,33.123C21.574,36.088 27.084,37.936 32.814,38.523L33.222,34.544ZM18.799,29.701C14.775,27.289 11.373,24.077 8.828,20.299L5.511,22.534C8.391,26.81 12.228,30.426 16.742,33.132L18.799,29.701ZM8.818,20.285C6.015,16.202 4.276,11.563 3.733,6.743L-0.242,7.19C0.375,12.674 2.353,17.935 5.521,22.549L8.818,20.285ZM3.736,6.776C3.72,6.609 3.741,6.439 3.8,6.275L0.032,4.93C-0.222,5.644 -0.318,6.403 -0.245,7.157L3.736,6.776ZM3.8,6.275C3.858,6.111 3.955,5.952 4.092,5.81L1.218,3.029C0.693,3.571 0.287,4.217 0.032,4.93L3.8,6.275ZM4.092,5.81C4.229,5.669 4.403,5.548 4.606,5.464L3.068,1.771C2.373,2.061 1.742,2.487 1.218,3.029L4.092,5.81ZM4.606,5.464C4.81,5.379 5.034,5.334 5.263,5.333L5.26,1.333C4.508,1.334 3.762,1.482 3.068,1.771L4.606,5.464ZM5.261,5.333L10.562,5.333L10.562,1.333L5.261,1.333L5.261,5.333ZM10.58,5.333C10.985,5.33 11.361,5.466 11.641,5.692L14.161,2.586C13.14,1.758 11.854,1.321 10.543,1.334L10.58,5.333ZM11.641,5.692C11.917,5.917 12.074,6.207 12.117,6.496L16.073,5.904C15.877,4.591 15.184,3.416 14.161,2.586L11.641,5.692ZM12.115,6.477C12.36,8.235 12.816,9.96 13.472,11.619L17.192,10.148C16.652,8.782 16.278,7.365 16.076,5.923L12.115,6.477ZM13.474,11.624C13.563,11.847 13.581,12.083 13.53,12.311L17.431,13.193C17.662,12.173 17.577,11.113 17.19,10.143L13.474,11.624ZM13.53,12.311C13.478,12.539 13.355,12.764 13.157,12.953L15.918,15.847C16.669,15.13 17.201,14.211 17.431,13.193L13.53,12.311ZM13.165,12.945L10.921,15.062L13.666,17.972L15.909,15.855L13.165,12.945ZM10.58,17.549C13.287,22.039 17.219,25.742 21.949,28.279L23.839,24.754C19.723,22.546 16.33,19.339 14.006,15.484L10.58,17.549ZM24.266,27.972L26.51,25.855L23.765,22.945L21.522,25.062L24.266,27.972ZM26.502,25.863C26.704,25.674 26.972,25.533 27.28,25.471L26.491,21.55C25.477,21.754 24.532,22.23 23.774,22.938L26.502,25.863ZM27.28,25.471C27.588,25.409 27.907,25.432 28.197,25.535L29.534,21.765C28.559,21.419 27.505,21.346 26.491,21.55L27.28,25.471ZM28.202,25.537C29.94,26.149 31.746,26.573 33.583,26.801L34.077,22.832C32.522,22.639 30.997,22.28 29.53,21.764L28.202,25.537ZM33.567,26.799C33.97,26.853 34.314,27.042 34.545,27.299L37.521,24.626C36.631,23.636 35.408,23.009 34.094,22.834L33.567,26.799ZM34.545,27.299C34.773,27.553 34.878,27.856 34.87,28.148L38.869,28.253C38.904,26.91 38.413,25.62 37.521,24.626L34.545,27.299Z" fill="#FFFFFF"/>
</svg>
