<svg width="24" height="14" viewBox="0 0 24 14" fill="none" xmlns="http://www.w3.org/2000/svg" xmlns:xlink="http://www.w3.org/1999/xlink">
<path d="M3.414,-0.414C2.633,-1.195 1.367,-1.195 0.586,-0.414C-0.195,0.367 -0.195,1.633 0.586,2.414L3.414,-0.414ZM12,11L10.586,12.414C11.367,13.195 12.633,13.195 13.414,12.414L12,11ZM23.414,2.414C24.195,1.633 24.195,0.367 23.414,-0.414C22.633,-1.195 21.367,-1.195 20.586,-0.414L23.414,2.414ZM0.586,2.414L10.586,12.414L13.414,9.586L3.414,-0.414L0.586,2.414ZM13.414,12.414L23.414,2.414L20.586,-0.414L10.586,9.586L13.414,12.414Z" fill="#000000" fill-opacity="0.5"/>
</svg>
