<svg width="10" height="38" viewBox="0 0 10 38" fill="none" xmlns="http://www.w3.org/2000/svg" xmlns:xlink="http://www.w3.org/1999/xlink">
<path d="M1.284,38L1.284,12.176L8.772,12.176L8.772,38L1.284,38ZM5.028,8.576C3.652,8.576 2.532,8.176 1.668,7.376C0.804,6.576 0.372,5.584 0.372,4.4C0.372,3.216 0.804,2.224 1.668,1.424C2.532,0.624 3.652,0.224 5.028,0.224C6.404,0.224 7.524,0.608 8.388,1.376C9.252,2.112 9.684,3.072 9.684,4.256C9.684,5.504 9.252,6.544 8.388,7.376C7.556,8.176 6.436,8.576 5.028,8.576Z" fill="#000000"/>
</svg>
