<svg width="22" height="38" viewBox="0 0 22 38" fill="none" xmlns="http://www.w3.org/2000/svg" xmlns:xlink="http://www.w3.org/1999/xlink">
<path d="M18.627,37.454C19.43,38.212 20.696,38.176 21.454,37.373C22.212,36.57 22.176,35.304 21.373,34.546L18.627,37.454ZM2,19L0.627,17.546C0.227,17.924 0,18.45 0,19C0,19.55 0.227,20.076 0.627,20.454L2,19ZM21.373,3.454C22.176,2.696 22.212,1.43 21.454,0.627C20.696,-0.176 19.43,-0.212 18.627,0.546L21.373,3.454ZM21.373,34.546L3.373,17.546L0.627,20.454L18.627,37.454L21.373,34.546ZM3.373,20.454L21.373,3.454L18.627,0.546L0.627,17.546L3.373,20.454Z" transform="rotate(-360 11 19)" fill="#FFFFFF"/>
</svg>
