<svg width="16" height="30" viewBox="0 0 16 30" fill="none" xmlns="http://www.w3.org/2000/svg" xmlns:xlink="http://www.w3.org/1999/xlink">
<path d="M11.856,27.76C12.642,28.535 13.909,28.526 14.684,27.739C15.459,26.953 15.45,25.686 14.663,24.911L11.856,27.76ZM1.037,14.291L-0.367,12.866C-0.748,13.242 -0.963,13.755 -0.963,14.291C-0.963,14.826 -0.748,15.339 -0.367,15.715L1.037,14.291ZM14.663,3.67C15.45,2.895 15.459,1.629 14.684,0.842C13.909,0.055 12.642,0.046 11.856,0.821L14.663,3.67ZM14.663,24.911L2.441,12.866L-0.367,15.715L11.856,27.76L14.663,24.911ZM2.441,15.715L14.663,3.67L11.856,0.821L-0.367,12.866L2.441,15.715Z" fill="#000000"/>
</svg>
