<svg width="18" height="20" viewBox="0 0 18 20" fill="none" xmlns="http://www.w3.org/2000/svg" xmlns:xlink="http://www.w3.org/1999/xlink">
<path d="M12.426,18L12.426,14.64L12.106,13.904L12.106,7.888C12.106,6.821 11.776,5.989 11.114,5.392C10.474,4.795 9.482,4.496 8.138,4.496C7.221,4.496 6.314,4.645 5.418,4.944C4.544,5.221 3.797,5.605 3.178,6.096L1.386,2.608C2.325,1.947 3.456,1.435 4.778,1.072C6.101,0.709 7.445,0.528 8.81,0.528C11.434,0.528 13.472,1.147 14.922,2.384C16.373,3.621 17.098,5.552 17.098,8.176L17.098,18L12.426,18ZM7.178,18.256C5.834,18.256 4.682,18.032 3.722,17.584C2.762,17.115 2.026,16.485 1.514,15.696C1.002,14.907 0.746,14.021 0.746,13.04C0.746,12.016 0.992,11.12 1.482,10.352C1.994,9.584 2.794,8.987 3.882,8.56C4.97,8.112 6.389,7.888 8.138,7.888L12.714,7.888L12.714,10.8L8.682,10.8C7.509,10.8 6.698,10.992 6.25,11.376C5.824,11.76 5.61,12.24 5.61,12.816C5.61,13.456 5.856,13.968 6.346,14.352C6.858,14.715 7.552,14.896 8.426,14.896C9.258,14.896 10.005,14.704 10.666,14.32C11.328,13.915 11.808,13.328 12.106,12.56L12.874,14.864C12.512,15.973 11.85,16.816 10.89,17.392C9.93,17.968 8.693,18.256 7.178,18.256Z" fill="#000000"/>
</svg>
