<svg width="56" height="50" viewBox="0 0 56 50" fill="none" xmlns="http://www.w3.org/2000/svg" xmlns:xlink="http://www.w3.org/1999/xlink">
<path d="M53,26C54.105,26 55,25.105 55,24C55,22.895 54.105,22 53,22L53,26ZM43,24L43,22C42.139,22 41.375,22.551 41.103,23.368L43,24ZM35.5,46.5L33.603,47.132C33.875,47.949 34.639,48.5 35.5,48.5C36.361,48.5 37.125,47.949 37.397,47.132L35.5,46.5ZM20.5,1.5L22.397,0.868C22.125,0.051 21.361,-0.5 20.5,-0.5C19.639,-0.5 18.875,0.051 18.603,0.868L20.5,1.5ZM13,24L13,26C13.861,26 14.625,25.449 14.897,24.632L13,24ZM3,22C1.895,22 1,22.895 1,24C1,25.105 1.895,26 3,26L3,22ZM53,22L43,22L43,26L53,26L53,22ZM41.103,23.368L33.603,45.868L37.397,47.132L44.897,24.632L41.103,23.368ZM37.397,45.868L22.397,0.868L18.603,2.132L33.603,47.132L37.397,45.868ZM18.603,0.868L11.103,23.368L14.897,24.632L22.397,2.132L18.603,0.868ZM13,22L3,22L3,26L13,26L13,22Z" fill="#17C2EC" fill-opacity="0.5"/>
</svg>
