<svg width="30" height="24" viewBox="0 0 30 24" fill="none" xmlns="http://www.w3.org/2000/svg" xmlns:xlink="http://www.w3.org/1999/xlink">
<path d="M24.119,11.5C24.119,15.536 19.881,19.5 13.703,19.5L13.703,23.5C21.239,23.5 28.119,18.51 28.119,11.5L24.119,11.5ZM13.703,19.5C7.525,19.5 3.287,15.536 3.287,11.5L-0.713,11.5C-0.713,18.51 6.167,23.5 13.703,23.5L13.703,19.5ZM3.287,11.5C3.287,7.464 7.525,3.5 13.703,3.5L13.703,-0.5C6.167,-0.5 -0.713,4.49 -0.713,11.5L3.287,11.5ZM13.703,3.5C19.881,3.5 24.119,7.464 24.119,11.5L28.119,11.5C28.119,4.49 21.239,-0.5 13.703,-0.5L13.703,3.5Z" fill="#17C2EC" fill-opacity="0.5"/>
</svg>
