<svg width="44" height="20" viewBox="0 0 44 20" fill="none" xmlns="http://www.w3.org/2000/svg" xmlns:xlink="http://www.w3.org/1999/xlink">
<path d="M40,16.5C40,17.605 40.895,18.5 42,18.5C43.105,18.5 44,17.605 44,16.5L40,16.5ZM32,1.5L32,-0.5L32,1.5ZM12,1.5L12,-0.5L12,1.5ZM2,11.5L0,11.5L2,11.5ZM0,16.5C0,17.605 0.895,18.5 2,18.5C3.105,18.5 4,17.605 4,16.5L0,16.5ZM44,16.5L44,11.5L40,11.5L40,16.5L44,16.5ZM44,11.5C44,8.317 42.736,5.265 40.485,3.015L37.657,5.843C39.157,7.343 40,9.378 40,11.5L44,11.5ZM40.485,3.015C38.235,0.764 35.183,-0.5 32,-0.5L32,3.5C34.122,3.5 36.157,4.343 37.657,5.843L40.485,3.015ZM32,-0.5L12,-0.5L12,3.5L32,3.5L32,-0.5ZM12,-0.5C8.817,-0.5 5.765,0.764 3.515,3.015L6.343,5.843C7.843,4.343 9.878,3.5 12,3.5L12,-0.5ZM3.515,3.015C1.264,5.265 0,8.317 0,11.5L4,11.5C4,9.378 4.843,7.343 6.343,5.843L3.515,3.015ZM0,11.5L0,16.5L4,16.5L4,11.5L0,11.5Z" fill="#17C2EC" fill-opacity="0.5"/>
</svg>
