<svg width="22" height="20" viewBox="0 0 22 20" fill="none" xmlns="http://www.w3.org/2000/svg" xmlns:xlink="http://www.w3.org/1999/xlink">
<path d="M-0.333,16.477C-0.333,17.581 0.562,18.477 1.667,18.477C2.771,18.477 3.667,17.581 3.667,16.477L-0.333,16.477ZM1.667,9.968L-0.333,9.968L1.667,9.968ZM16.333,16.477C16.333,17.581 17.229,18.477 18.333,18.477C19.438,18.477 20.333,17.581 20.333,16.477L16.333,16.477ZM3.667,16.477L3.667,9.968L-0.333,9.968L-0.333,16.477L3.667,16.477ZM3.667,9.968C3.667,8.357 4.322,6.801 5.505,5.647L2.71,2.785C0.767,4.682 -0.333,7.265 -0.333,9.968L3.667,9.968ZM5.505,5.647C6.689,4.491 8.305,3.833 10,3.833L10,-0.167C7.275,-0.167 4.652,0.889 2.71,2.785L5.505,5.647ZM10,3.833C11.695,3.833 13.311,4.491 14.496,5.647L17.29,2.785C15.348,0.889 12.725,-0.167 10,-0.167L10,3.833ZM14.496,5.647C15.678,6.801 16.333,8.357 16.333,9.968L20.333,9.968C20.333,7.265 19.233,4.682 17.29,2.785L14.496,5.647ZM16.333,9.968L16.333,16.477L20.333,16.477L20.333,9.968L16.333,9.968Z" fill="#000000" fill-opacity="0.25"/>
</svg>
