<svg width="40" height="34" viewBox="0 0 40 34" fill="none" xmlns="http://www.w3.org/2000/svg" xmlns:xlink="http://www.w3.org/1999/xlink">
<path d="M20,2L20,0L20,2ZM8,14L6,14L8,14ZM2,32L0.891,30.336C0.157,30.825 -0.17,31.736 0.086,32.58C0.341,33.423 1.119,34 2,34L2,32ZM38,32L38,34C38.881,34 39.659,33.423 39.914,32.58C40.17,31.736 39.843,30.825 39.109,30.336L38,32ZM34,14C34,10.287 32.525,6.726 29.899,4.101L27.071,6.929C28.946,8.804 30,11.348 30,14L34,14ZM29.899,4.101C27.274,1.475 23.713,0 20,0L20,4C22.652,4 25.196,5.054 27.071,6.929L29.899,4.101ZM20,0C16.287,0 12.726,1.475 10.1,4.101L12.929,6.929C14.804,5.054 17.348,4 20,4L20,0ZM10.1,4.101C7.475,6.726 6,10.287 6,14L10,14C10,11.348 11.054,8.804 12.929,6.929L10.1,4.101ZM6,14C6,20.705 4.566,24.869 3.244,27.292C2.581,28.509 1.934,29.307 1.486,29.781C1.261,30.018 1.084,30.176 0.977,30.264C0.924,30.309 0.888,30.336 0.873,30.347C0.865,30.353 0.863,30.355 0.866,30.353C0.867,30.352 0.87,30.35 0.874,30.347C0.876,30.346 0.878,30.344 0.881,30.342C0.883,30.341 0.884,30.34 0.886,30.339C0.886,30.339 0.888,30.338 0.888,30.338C0.889,30.337 0.891,30.336 2,32C3.109,33.664 3.111,33.663 3.112,33.662C3.113,33.662 3.114,33.661 3.115,33.66C3.117,33.659 3.119,33.658 3.121,33.656C3.125,33.653 3.13,33.65 3.135,33.647C3.145,33.64 3.156,33.632 3.169,33.623C3.194,33.605 3.225,33.583 3.262,33.556C3.334,33.502 3.427,33.43 3.538,33.337C3.76,33.152 4.052,32.888 4.389,32.532C5.066,31.818 5.919,30.741 6.756,29.208C8.434,26.131 10,21.295 10,14L6,14ZM2,34L38,34L38,30L2,30L2,34ZM38,32C39.109,30.336 39.111,30.337 39.112,30.338C39.112,30.338 39.114,30.339 39.114,30.339C39.116,30.34 39.117,30.341 39.119,30.342C39.122,30.344 39.124,30.346 39.126,30.347C39.13,30.35 39.133,30.352 39.134,30.353C39.137,30.355 39.135,30.353 39.127,30.347C39.112,30.336 39.076,30.309 39.023,30.264C38.916,30.176 38.739,30.018 38.514,29.781C38.066,29.307 37.419,28.509 36.756,27.292C35.434,24.869 34,20.705 34,14L30,14C30,21.295 31.566,26.131 33.244,29.208C34.081,30.741 34.934,31.818 35.611,32.532C35.948,32.888 36.24,33.152 36.462,33.337C36.573,33.43 36.666,33.502 36.738,33.556C36.775,33.583 36.806,33.605 36.831,33.623C36.844,33.632 36.855,33.64 36.865,33.647C36.87,33.65 36.875,33.653 36.879,33.656C36.881,33.658 36.883,33.659 36.885,33.66C36.886,33.661 36.887,33.662 36.888,33.662C36.889,33.663 36.891,33.664 38,32Z" fill="#000000"/>
</svg>
