<svg width="10" height="10" viewBox="0 0 10 10" fill="none" xmlns="http://www.w3.org/2000/svg" xmlns:xlink="http://www.w3.org/1999/xlink">
<path d="M4.673,4.291C4.676,4.292 4.678,4.293 4.68,4.294C4.683,4.295 4.685,4.296 4.689,4.297C4.692,4.297 4.697,4.298 4.704,4.298C4.711,4.298 4.716,4.297 4.719,4.297C4.722,4.296 4.725,4.295 4.727,4.294C4.73,4.293 4.732,4.292 4.734,4.291C4.732,4.289 4.73,4.288 4.727,4.287C4.725,4.286 4.722,4.285 4.719,4.285C4.716,4.284 4.711,4.283 4.704,4.283C4.697,4.283 4.692,4.284 4.689,4.285C4.685,4.285 4.683,4.286 4.68,4.287C4.678,4.288 4.676,4.289 4.673,4.291ZM0.667,4.291C0.667,2.05 2.502,0.283 4.704,0.283C6.906,0.283 8.741,2.05 8.741,4.291C8.741,6.531 6.906,8.298 4.704,8.298C2.502,8.298 0.667,6.531 0.667,4.291Z" clip-rule="evenodd" fill-rule="evenodd" fill="#000000"/>
</svg>
