<svg width="22" height="18" viewBox="0 0 22 18" fill="none" xmlns="http://www.w3.org/2000/svg" xmlns:xlink="http://www.w3.org/1999/xlink">
<path d="M-0.333,15.898C-0.333,17.002 0.562,17.898 1.667,17.898C2.771,17.898 3.667,17.002 3.667,15.898L-0.333,15.898ZM1.667,9.389L-0.333,9.389L1.667,9.389ZM16.333,15.898C16.333,17.002 17.229,17.898 18.333,17.898C19.438,17.898 20.333,17.002 20.333,15.898L16.333,15.898ZM3.667,15.898L3.667,9.389L-0.333,9.389L-0.333,15.898L3.667,15.898ZM3.667,9.389C3.667,7.778 4.322,6.222 5.505,5.068L2.71,2.206C0.767,4.102 -0.333,6.685 -0.333,9.389L3.667,9.389ZM5.505,5.068C6.689,3.912 8.305,3.254 10,3.254L10,-0.746C7.275,-0.746 4.652,0.31 2.71,2.206L5.505,5.068ZM10,3.254C11.695,3.254 13.311,3.912 14.496,5.068L17.29,2.206C15.348,0.31 12.725,-0.746 10,-0.746L10,3.254ZM14.496,5.068C15.678,6.222 16.333,7.778 16.333,9.389L20.333,9.389C20.333,6.685 19.233,4.102 17.29,2.206L14.496,5.068ZM16.333,9.389L16.333,15.898L20.333,15.898L20.333,9.389L16.333,9.389Z" fill="#000000" fill-opacity="0.25"/>
</svg>
