<svg width="16" height="32" viewBox="0 0 16 32" fill="none" xmlns="http://www.w3.org/2000/svg" xmlns:xlink="http://www.w3.org/1999/xlink">
<path d="M12.508,30.826C13.243,31.65 14.508,31.722 15.332,30.986C16.156,30.251 16.228,28.986 15.492,28.162L12.508,30.826ZM2,16.048L0.508,14.716C-0.169,15.475 -0.169,16.621 0.508,17.38L2,16.048ZM15.492,3.934C16.228,3.11 16.156,1.846 15.332,1.11C14.508,0.375 13.243,0.447 12.508,1.271L15.492,3.934ZM15.492,28.162L3.492,14.716L0.508,17.38L12.508,30.826L15.492,28.162ZM3.492,17.38L15.492,3.934L12.508,1.271L0.508,14.716L3.492,17.38Z" fill="#000000"/>
</svg>
