<svg width="22" height="34" viewBox="0 0 22 34" fill="none" xmlns="http://www.w3.org/2000/svg" xmlns:xlink="http://www.w3.org/1999/xlink">
<path d="M14.235,32.384C11.195,32.384 8.827,31.616 7.131,30.08C5.435,28.512 4.587,26.192 4.587,23.12L4.587,0.464L12.075,0.464L12.075,23.024C12.075,24.112 12.363,24.96 12.939,25.568C13.515,26.144 14.299,26.432 15.291,26.432C16.475,26.432 17.483,26.112 18.315,25.472L20.331,30.752C19.563,31.296 18.635,31.712 17.547,32C16.491,32.256 15.387,32.384 14.235,32.384ZM0.603,12.512L0.603,6.752L18.507,6.752L18.507,12.512L0.603,12.512Z" fill="#000000"/>
</svg>
