<svg width="20" height="20" viewBox="0 0 20 20" fill="none" xmlns="http://www.w3.org/2000/svg" xmlns:xlink="http://www.w3.org/1999/xlink">
<path d="M10.34,18.256C8.505,18.256 6.873,17.872 5.444,17.104C4.036,16.336 2.916,15.291 2.084,13.968C1.273,12.624 0.868,11.099 0.868,9.392C0.868,7.664 1.273,6.139 2.084,4.816C2.916,3.472 4.036,2.427 5.444,1.68C6.873,0.912 8.505,0.528 10.34,0.528C12.153,0.528 13.774,0.912 15.204,1.68C16.633,2.427 17.753,3.461 18.564,4.784C19.374,6.107 19.78,7.643 19.78,9.392C19.78,11.099 19.374,12.624 18.564,13.968C17.753,15.291 16.633,16.336 15.204,17.104C13.774,17.872 12.153,18.256 10.34,18.256ZM10.34,14.16C11.172,14.16 11.918,13.968 12.58,13.584C13.241,13.2 13.764,12.656 14.148,11.952C14.532,11.227 14.724,10.373 14.724,9.392C14.724,8.389 14.532,7.536 14.148,6.832C13.764,6.128 13.241,5.584 12.58,5.2C11.918,4.816 11.172,4.624 10.34,4.624C9.508,4.624 8.761,4.816 8.1,5.2C7.438,5.584 6.905,6.128 6.5,6.832C6.116,7.536 5.924,8.389 5.924,9.392C5.924,10.373 6.116,11.227 6.5,11.952C6.905,12.656 7.438,13.2 8.1,13.584C8.761,13.968 9.508,14.16 10.34,14.16Z" fill="#000000"/>
</svg>
