<svg width="50" height="48" viewBox="0 0 50 48" fill="none" xmlns="http://www.w3.org/2000/svg" xmlns:xlink="http://www.w3.org/1999/xlink">
<path d="M6.25,22.5C4.5,22.5 3.021,21.896 1.813,20.688C0.604,19.479 0,18 0,16.25C0,14.5 0.604,13.021 1.813,11.813C3.021,10.604 4.5,10 6.25,10C8,10 9.479,10.604 10.688,11.813C11.896,13.021 12.5,14.5 12.5,16.25C12.5,18 11.896,19.479 10.688,20.688C9.479,21.896 8,22.5 6.25,22.5ZM17.5,12.5C15.75,12.5 14.271,11.896 13.063,10.688C11.854,9.479 11.25,8 11.25,6.25C11.25,4.5 11.854,3.021 13.063,1.813C14.271,0.604 15.75,0 17.5,0C19.25,0 20.729,0.604 21.938,1.813C23.146,3.021 23.75,4.5 23.75,6.25C23.75,8 23.146,9.479 21.938,10.688C20.729,11.896 19.25,12.5 17.5,12.5ZM32.5,12.5C30.75,12.5 29.271,11.896 28.062,10.688C26.854,9.479 26.25,8 26.25,6.25C26.25,4.5 26.854,3.021 28.062,1.813C29.271,0.604 30.75,0 32.5,0C34.25,0 35.729,0.604 36.938,1.813C38.146,3.021 38.75,4.5 38.75,6.25C38.75,8 38.146,9.479 36.938,10.688C35.729,11.896 34.25,12.5 32.5,12.5ZM43.75,22.5C42,22.5 40.521,21.896 39.312,20.688C38.104,19.479 37.5,18 37.5,16.25C37.5,14.5 38.104,13.021 39.312,11.813C40.521,10.604 42,10 43.75,10C45.5,10 46.979,10.604 48.188,11.813C49.396,13.021 50,14.5 50,16.25C50,18 49.396,19.479 48.188,20.688C46.979,21.896 45.5,22.5 43.75,22.5ZM11.625,47.5C9.75,47.5 8.177,46.782 6.905,45.345C5.633,43.908 4.998,42.21 5,40.25C5,38.083 5.74,36.188 7.22,34.562C8.7,32.938 10.168,31.333 11.625,29.75C12.833,28.458 13.875,27.053 14.75,25.533C15.625,24.013 16.667,22.585 17.875,21.25C18.792,20.167 19.854,19.271 21.062,18.563C22.271,17.854 23.583,17.5 25,17.5C26.417,17.5 27.729,17.833 28.938,18.5C30.146,19.167 31.208,20.042 32.125,21.125C33.292,22.458 34.323,23.896 35.22,25.438C36.117,26.979 37.168,28.417 38.375,29.75C39.833,31.333 41.302,32.938 42.78,34.562C44.258,36.188 44.998,38.083 45,40.25C45,42.208 44.364,43.907 43.092,45.345C41.821,46.783 40.248,47.502 38.375,47.5C36.125,47.5 33.896,47.312 31.688,46.938C29.479,46.562 27.25,46.375 25,46.375C22.75,46.375 20.521,46.562 18.313,46.938C16.104,47.312 13.875,47.5 11.625,47.5Z" fill="#17C2EC"/>
</svg>
