<svg width="100" height="100" viewBox="0 0 100 100" fill="none" xmlns="http://www.w3.org/2000/svg" xmlns:xlink="http://www.w3.org/1999/xlink">
<path d="M46.533,67.333L45.893,68.101C46.099,68.273 46.366,68.355 46.634,68.328C46.901,68.301 47.146,68.168 47.314,67.958L46.533,67.333ZM50,1.467L50.496,0.598C50.189,0.423 49.811,0.423 49.504,0.598L50,1.467ZM1.467,29.2L0.97,28.332C0.659,28.51 0.467,28.841 0.467,29.2L1.467,29.2ZM1.467,34.192L2.467,34.192L2.467,34.192L1.467,34.192ZM50,98.533L49.725,99.495C49.905,99.546 50.095,99.546 50.275,99.495L50,98.533ZM98.533,34.192L97.533,34.192L97.533,34.192L98.533,34.192ZM98.533,29.2L99.533,29.2C99.533,28.841 99.341,28.51 99.029,28.332L98.533,29.2ZM25.093,50.768L45.893,68.101L47.173,66.565L26.373,49.232L25.093,50.768ZM47.314,67.958L75.047,33.291L73.486,32.042L45.752,66.709L47.314,67.958ZM49.504,0.598L0.97,28.332L1.963,30.068L50.496,2.335L49.504,0.598ZM0.467,29.2L0.467,34.192L2.467,34.192L2.467,29.2L0.467,29.2ZM0.467,34.192C0.466,48.951 5.274,63.308 14.162,75.091L15.758,73.887C7.132,62.451 2.466,48.516 2.467,34.192L0.467,34.192ZM14.162,75.091C23.05,86.874 35.534,95.441 49.725,99.495L50.275,97.572C36.501,93.637 24.385,85.323 15.758,73.887L14.162,75.091ZM50.275,99.495C64.466,95.441 76.95,86.874 85.838,75.091L84.241,73.887C75.615,85.323 63.499,93.637 49.725,97.572L50.275,99.495ZM85.838,75.091C94.726,63.308 99.534,48.951 99.533,34.192L97.533,34.192C97.534,48.516 92.868,62.451 84.241,73.887L85.838,75.091ZM99.533,34.192L99.533,29.2L97.533,29.2L97.533,34.192L99.533,34.192ZM99.029,28.332L50.496,0.598L49.504,2.335L98.037,30.068L99.029,28.332Z" fill="#FFFFFF"/>
</svg>
