<svg width="24" height="24" viewBox="0 0 24 24" fill="none" xmlns="http://www.w3.org/2000/svg" xmlns:xlink="http://www.w3.org/1999/xlink">
<path d="M20,11.5C20,15.918 16.418,19.5 12,19.5L12,23.5C18.627,23.5 24,18.127 24,11.5L20,11.5ZM12,19.5C7.582,19.5 4,15.918 4,11.5L0,11.5C0,18.127 5.373,23.5 12,23.5L12,19.5ZM4,11.5C4,7.082 7.582,3.5 12,3.5L12,-0.5C5.373,-0.5 0,4.873 0,11.5L4,11.5ZM12,3.5C16.418,3.5 20,7.082 20,11.5L24,11.5C24,4.873 18.627,-0.5 12,-0.5L12,3.5Z" fill="#17C2EC" fill-opacity="0.5"/>
</svg>
