<svg width="56" height="20" viewBox="0 0 56 20" fill="none" xmlns="http://www.w3.org/2000/svg" xmlns:xlink="http://www.w3.org/1999/xlink">
<path d="M50.535,16.5C50.535,17.605 51.43,18.5 52.535,18.5C53.64,18.5 54.535,17.605 54.535,16.5L50.535,16.5ZM40.119,1.5L40.119,-0.5L40.119,1.5ZM15.287,1.5L15.287,-0.5L15.287,1.5ZM2.872,11.5L0.872,11.5L2.872,11.5ZM0.872,16.5C0.872,17.605 1.767,18.5 2.872,18.5C3.976,18.5 4.872,17.605 4.872,16.5L0.872,16.5ZM54.535,16.5L54.535,11.5L50.535,11.5L50.535,16.5L54.535,16.5ZM54.535,11.5C54.535,8.16 52.885,5.072 50.153,2.871L47.644,5.987C49.569,7.537 50.535,9.535 50.535,11.5L54.535,11.5ZM50.153,2.871C47.433,0.68 43.819,-0.5 40.119,-0.5L40.119,3.5C43.005,3.5 45.708,4.427 47.644,5.987L50.153,2.871ZM40.119,-0.5L15.287,-0.5L15.287,3.5L40.119,3.5L40.119,-0.5ZM15.287,-0.5C11.587,-0.5 7.974,0.68 5.254,2.871L7.763,5.987C9.699,4.427 12.402,3.5 15.287,3.5L15.287,-0.5ZM5.254,2.871C2.522,5.072 0.872,8.16 0.872,11.5L4.872,11.5C4.872,9.535 5.838,7.537 7.763,5.987L5.254,2.871ZM0.872,11.5L0.872,16.5L4.872,16.5L4.872,11.5L0.872,11.5Z" fill="#17C2EC" fill-opacity="0.5"/>
</svg>
