<svg width="32" height="24" viewBox="0 0 32 24" fill="none" xmlns="http://www.w3.org/2000/svg" xmlns:xlink="http://www.w3.org/1999/xlink">
<path d="M30.747,3.414C31.529,2.633 31.529,1.367 30.747,0.586C29.966,-0.195 28.7,-0.195 27.919,0.586L30.747,3.414ZM11,20.333L9.586,21.748C10.367,22.529 11.633,22.529 12.414,21.748L11,20.333ZM4.081,10.586C3.3,9.805 2.033,9.805 1.252,10.586C0.471,11.367 0.471,12.633 1.252,13.414L4.081,10.586ZM27.919,0.586L9.586,18.919L12.414,21.748L30.747,3.414L27.919,0.586ZM12.414,18.919L4.081,10.586L1.252,13.414L9.586,21.748L12.414,18.919Z" fill="#FFFFFF"/>
</svg>
