<svg width="32" height="14" viewBox="0 0 32 14" fill="none" xmlns="http://www.w3.org/2000/svg" xmlns:xlink="http://www.w3.org/1999/xlink">
<path d="M27.333,10.86C27.333,11.964 28.229,12.86 29.333,12.86C30.438,12.86 31.333,11.964 31.333,10.86L27.333,10.86ZM22.667,1.097L22.667,-0.903L22.667,1.097ZM9.333,1.097L9.333,-0.903L9.333,1.097ZM2.667,7.605L0.667,7.605L2.667,7.605ZM0.667,10.86C0.667,11.964 1.562,12.86 2.667,12.86C3.771,12.86 4.667,11.964 4.667,10.86L0.667,10.86ZM31.333,10.86L31.333,7.605L27.333,7.605L27.333,10.86L31.333,10.86ZM31.333,7.605C31.333,5.333 30.408,3.164 28.778,1.572L25.984,4.435C26.854,5.284 27.333,6.426 27.333,7.605L31.333,7.605ZM28.778,1.572C27.149,-0.018 24.95,-0.903 22.667,-0.903L22.667,3.097C23.92,3.097 25.112,3.584 25.984,4.435L28.778,1.572ZM22.667,-0.903L9.333,-0.903L9.333,3.097L22.667,3.097L22.667,-0.903ZM9.333,-0.903C7.05,-0.903 4.851,-0.018 3.222,1.572L6.016,4.435C6.888,3.584 8.08,3.097 9.333,3.097L9.333,-0.903ZM3.222,1.572C1.592,3.164 0.667,5.333 0.667,7.605L4.667,7.605C4.667,6.426 5.146,5.284 6.016,4.435L3.222,1.572ZM0.667,7.605L0.667,10.86L4.667,10.86L4.667,7.605L0.667,7.605Z" fill="#000000"/>
</svg>
