<svg width="10" height="10" viewBox="0 0 10 10" fill="none" xmlns="http://www.w3.org/2000/svg" xmlns:xlink="http://www.w3.org/1999/xlink">
<path d="M4.481,4.291C4.481,4.292 4.481,4.291 4.482,4.289C4.482,4.287 4.483,4.285 4.483,4.283C4.484,4.281 4.484,4.282 4.481,4.286C4.477,4.289 4.473,4.292 4.468,4.294C4.465,4.295 4.463,4.296 4.459,4.297C4.456,4.297 4.451,4.298 4.444,4.298L4.444,8.298C6.646,8.298 8.481,6.531 8.481,4.291L4.481,4.291ZM4.444,4.298C4.437,4.298 4.432,4.297 4.429,4.297C4.426,4.296 4.423,4.295 4.421,4.294C4.416,4.292 4.411,4.289 4.408,4.286C4.404,4.282 4.404,4.281 4.405,4.283C4.406,4.285 4.406,4.287 4.407,4.289C4.407,4.291 4.407,4.292 4.407,4.291L0.407,4.291C0.407,6.531 2.242,8.298 4.444,8.298L4.444,4.298ZM4.407,4.291C4.407,4.29 4.407,4.29 4.407,4.293C4.406,4.295 4.406,4.297 4.405,4.298C4.404,4.301 4.404,4.299 4.408,4.296C4.411,4.292 4.416,4.289 4.421,4.287C4.423,4.286 4.426,4.285 4.429,4.285C4.432,4.284 4.437,4.283 4.444,4.283L4.444,0.283C2.242,0.283 0.407,2.05 0.407,4.291L4.407,4.291ZM4.444,4.283C4.451,4.283 4.456,4.284 4.459,4.285C4.463,4.285 4.465,4.286 4.468,4.287C4.473,4.289 4.477,4.292 4.481,4.296C4.484,4.299 4.484,4.301 4.483,4.298C4.483,4.297 4.482,4.295 4.482,4.293C4.481,4.29 4.481,4.29 4.481,4.291L8.481,4.291C8.481,2.05 6.646,0.283 4.444,0.283L4.444,4.283Z" fill="#000000"/>
</svg>
