<svg width="56" height="50" viewBox="0 0 56 50" fill="none" xmlns="http://www.w3.org/2000/svg" xmlns:xlink="http://www.w3.org/1999/xlink">
<path d="M53,26.004C54.105,26.004 55,25.109 55,24.004C55,22.899 54.105,22.004 53,22.004L53,26.004ZM43,24.004L43,22.004C42.139,22.004 41.375,22.555 41.103,23.372L43,24.004ZM35.5,46.504L33.603,47.136C33.875,47.953 34.639,48.504 35.5,48.504C36.361,48.504 37.125,47.953 37.397,47.136L35.5,46.504ZM20.5,1.504L22.397,0.871C22.125,0.055 21.361,-0.496 20.5,-0.496C19.639,-0.496 18.875,0.055 18.603,0.871L20.5,1.504ZM13,24.004L13,26.004C13.861,26.004 14.625,25.453 14.897,24.636L13,24.004ZM3,22.004C1.895,22.004 1,22.899 1,24.004C1,25.109 1.895,26.004 3,26.004L3,22.004ZM53,22.004L43,22.004L43,26.004L53,26.004L53,22.004ZM41.103,23.372L33.603,45.872L37.397,47.136L44.897,24.636L41.103,23.372ZM37.397,45.872L22.397,0.871L18.603,2.136L33.603,47.136L37.397,45.872ZM18.603,0.871L11.103,23.372L14.897,24.636L22.397,2.136L18.603,0.871ZM13,22.004L3,22.004L3,26.004L13,26.004L13,22.004Z" fill="#17C2EC" fill-opacity="0.5"/>
</svg>
